<svg width="219" height="318" viewBox="0 0 219 318" fill="none" xmlns="http://www.w3.org/2000/svg">
<g opacity="0.8">
<path d="M0.265076 197.665L16.0753 256.761L79.3161 288.472L0.265076 197.665Z" fill="#FFB600"/>
<path d="M16.0753 256.761L63.5059 315.858L79.3161 288.472L16.0753 256.761Z" fill="#CD6700"/>
<path d="M63.5059 315.858L154.055 317.299L79.3161 288.472L63.5059 315.858Z" fill="#CD6700"/>
<path d="M79.3162 288.472L154.055 317.299L198.611 222.169L79.3162 288.472Z" fill="#DB7E00"/>
<path d="M154.055 317.299L218.733 238.024L198.611 222.169L154.055 317.299Z" fill="#CD6700"/>
<path d="M217.296 144.334L218.733 238.024L198.611 222.169L217.296 144.334Z" fill="#CD6700"/>
<path d="M60.6313 33.3488L106.625 13.1696L142.557 53.528L60.6313 33.3488Z" fill="#FFB200"/>
<path d="M106.625 13.1696L159.805 36.2315L142.557 53.528L106.625 13.1696Z" fill="#CD6700"/>
<path d="M0.265076 197.665L16.0753 111.183L76.4416 122.714L0.265076 197.665Z" fill="#FFB200"/>
<path d="M0.265076 197.665L79.3161 288.472L76.4416 122.714L0.265076 197.665Z" fill="#FFC400"/>
<path d="M16.0753 111.183L60.6313 33.3489L76.4416 122.714L16.0753 111.183Z" fill="#FFE100"/>
<path d="M60.6313 33.3489L142.557 53.5281L76.4416 122.714L60.6313 33.3489Z" fill="#FFC400"/>
<path d="M79.3161 288.472L198.611 222.169L76.4416 122.714L79.3161 288.472Z" fill="#FFB200"/>
<path d="M198.611 222.169L217.296 144.334L76.4416 122.714L198.611 222.169Z" fill="#FF9C00"/>
<path opacity="0.7" d="M60.6313 33.3488L106.625 13.1696L112.374 0.197266L60.6313 33.3488Z" fill="#62C75A"/>
<path opacity="0.7" d="M106.625 13.1696L159.805 36.2316L112.374 0.197266L106.625 13.1696Z" fill="#ABFF5A"/>
<path d="M76.4416 122.714L142.557 53.5281L191.425 78.0314L76.4416 122.714Z" fill="#FFE100"/>
<path d="M76.4416 122.714L217.296 144.334L191.425 78.0314L76.4416 122.714Z" fill="#FFB200"/>
<path d="M142.557 53.528L159.805 36.2316L191.425 78.0313L142.557 53.528Z" fill="#CD6700"/>
<path opacity="0.7" d="M112.374 0.197266L159.804 36.2316L177.052 29.0247L112.374 0.197266Z" fill="#62C75A"/>
<path opacity="0.7" d="M159.805 36.2315L191.425 78.0313L177.052 29.0247L159.805 36.2315Z" fill="#ABFF5A"/>
</g>
</svg>
