<svg width="455" height="701" viewBox="0 0 455 701" fill="none" xmlns="http://www.w3.org/2000/svg">
<g filter="url(#filter0_d_475_27)">
<path d="M427.771 421.131C427.607 421.135 427.444 421.167 427.291 421.227L372.467 304.54C372.738 304.384 372.964 304.16 373.123 303.891C373.281 303.621 373.367 303.315 373.37 303.002C373.37 302.517 373.178 302.052 372.836 301.709C372.493 301.365 372.029 301.172 371.544 301.171C371.35 301.179 371.159 301.218 370.977 301.286L337.755 226.533C338.002 226.395 338.207 226.194 338.351 225.951C338.496 225.708 338.573 225.432 338.577 225.149C338.577 224.715 338.405 224.299 338.099 223.992C337.792 223.685 337.377 223.512 336.943 223.51C336.906 223.516 336.869 223.524 336.832 223.534L315.937 107.928C316.528 107.773 317.043 107.409 317.386 106.904C317.729 106.398 317.876 105.785 317.8 105.179C317.724 104.572 317.43 104.014 316.974 103.609C316.517 103.203 315.928 102.977 315.317 102.973C315.09 102.977 314.863 103.011 314.644 103.074L294.557 46.847C294.87 46.7047 295.144 46.4867 295.353 46.2126C295.561 45.9386 295.699 45.6169 295.753 45.2766C295.806 44.9363 295.775 44.588 295.661 44.2629C295.547 43.9378 295.354 43.6461 295.099 43.414C294.844 43.1819 294.536 43.0167 294.202 42.9331C293.868 42.8495 293.518 42.8503 293.184 42.9352C292.85 43.0202 292.543 43.1867 292.289 43.4199C292.035 43.6531 291.843 43.9455 291.731 44.2711L228.718 28.1527C228.753 27.9802 228.77 27.8048 228.771 27.6289C228.787 27.2458 228.725 26.8634 228.589 26.5048C228.453 26.1462 228.246 25.8187 227.981 25.542C227.715 25.2654 227.397 25.0453 227.044 24.8949C226.691 24.7445 226.312 24.667 225.928 24.667C225.545 24.667 225.165 24.7445 224.813 24.8949C224.46 25.0453 224.141 25.2654 223.876 25.542C223.61 25.8187 223.403 26.1462 223.268 26.5048C223.132 26.8634 223.07 27.2458 223.086 27.6289C223.09 27.7496 223.101 27.8699 223.119 27.9893L183.073 35.7458C182.963 35.3427 182.723 34.9867 182.392 34.7317C182.061 34.4768 181.656 34.3367 181.238 34.3329C180.72 34.3329 180.224 34.5384 179.858 34.9043C179.492 35.2703 179.286 35.7665 179.286 36.284C179.286 36.7893 179.485 37.2744 179.839 37.6344L139.697 84.471C139.207 84.0925 138.605 83.8864 137.986 83.8847C137.288 83.8848 136.614 84.1406 136.092 84.6037C135.57 85.0668 135.236 85.7051 135.152 86.398C135.069 87.091 135.242 87.7904 135.639 88.3642C136.037 88.938 136.63 89.3464 137.308 89.5122L113.645 221.823C113.592 221.823 113.549 221.795 113.496 221.795C112.986 221.795 112.497 221.997 112.137 222.358C111.776 222.718 111.574 223.207 111.574 223.717C111.577 224.055 111.671 224.387 111.847 224.676C112.023 224.966 112.274 225.202 112.573 225.36L66.4768 332.908C66.0175 332.784 65.5286 332.835 65.1046 333.05C64.6806 333.266 64.3516 333.631 64.1812 334.075C64.0108 334.519 64.0112 335.011 64.1823 335.455C64.3533 335.899 64.6828 336.263 65.1072 336.478L27.4784 450.826C27.3211 450.786 27.16 450.763 26.9978 450.759C26.703 450.745 26.4084 450.791 26.1319 450.894C25.8555 450.997 25.6028 451.156 25.3893 451.359C25.1758 451.563 25.0058 451.808 24.8896 452.079C24.7735 452.351 24.7136 452.643 24.7136 452.938C24.7136 453.233 24.7735 453.525 24.8896 453.796C25.0058 454.068 25.1758 454.313 25.3893 454.517C25.6028 454.72 25.8555 454.879 26.1319 454.982C26.4084 455.085 26.703 455.131 26.9978 455.117C27.1594 455.117 27.3206 455.1 27.4784 455.065L72.4071 598.275C72.156 598.384 71.9319 598.546 71.7507 598.751C71.5696 598.956 71.4359 599.198 71.3592 599.461C71.2824 599.723 71.2646 600 71.3068 600.27C71.3491 600.54 71.4504 600.798 71.6037 601.024C71.7569 601.251 71.9582 601.441 72.1933 601.581C72.4283 601.721 72.6913 601.807 72.9636 601.834C73.2358 601.86 73.5105 601.826 73.7682 601.735C74.0259 601.643 74.2602 601.495 74.4543 601.303L143.373 657.847C143.189 658.112 143.064 658.414 143.009 658.732C142.954 659.05 142.969 659.376 143.053 659.688C143.137 660 143.289 660.289 143.497 660.536C143.705 660.783 143.964 660.981 144.257 661.117C144.55 661.252 144.869 661.322 145.192 661.322C145.515 661.321 145.834 661.249 146.126 661.112C146.418 660.975 146.677 660.776 146.884 660.528C147.091 660.28 147.241 659.99 147.324 659.678L222.528 673.35C222.528 673.408 222.528 673.461 222.528 673.523C222.528 674.047 222.736 674.549 223.107 674.92C223.477 675.29 223.98 675.498 224.503 675.498C225.027 675.498 225.53 675.29 225.9 674.92C226.271 674.549 226.479 674.047 226.479 673.523C226.481 673.502 226.481 673.482 226.479 673.461L293.687 665.233C293.763 665.567 293.95 665.865 294.217 666.079C294.484 666.294 294.815 666.412 295.157 666.416C295.566 666.416 295.959 666.253 296.248 665.964C296.537 665.674 296.7 665.282 296.7 664.873C296.691 664.568 296.59 664.274 296.412 664.027L390.551 582.512C390.867 582.818 391.289 582.99 391.728 582.993C392.14 582.996 392.539 582.852 392.853 582.587C393.168 582.322 393.377 581.953 393.444 581.547C393.511 581.141 393.43 580.725 393.217 580.373C393.004 580.021 392.672 579.758 392.281 579.629L427.613 424.144C427.821 424.173 428.034 424.157 428.236 424.099C428.439 424.041 428.627 423.942 428.789 423.808C428.951 423.673 429.084 423.507 429.178 423.319C429.273 423.13 429.327 422.925 429.338 422.714C429.349 422.504 429.316 422.294 429.242 422.097C429.168 421.9 429.053 421.72 428.906 421.57C428.759 421.419 428.582 421.301 428.387 421.222C428.191 421.143 427.982 421.106 427.771 421.112V421.131ZM295.133 663.34C295.055 663.349 294.978 663.364 294.903 663.383L288.814 641.459C289.229 641.317 289.602 641.074 289.901 640.752C290.2 640.431 290.415 640.04 290.526 639.616C290.638 639.191 290.643 638.746 290.542 638.319C290.44 637.892 290.234 637.496 289.943 637.168L320.109 607.002C320.166 607.049 320.227 607.091 320.291 607.127L295.575 663.426C295.434 663.373 295.285 663.34 295.133 663.33V663.34ZM224.489 671.558C224.417 671.558 224.35 671.558 224.282 671.558L217.886 639.595C218.31 639.473 218.689 639.228 218.972 638.889C219.256 638.551 219.431 638.136 219.477 637.696L285.243 639.037C285.26 639.383 285.342 639.722 285.483 640.037L226.128 672.413C225.947 672.146 225.702 671.927 225.416 671.776C225.131 671.625 224.812 671.547 224.489 671.548V671.558ZM215.108 637.951L147.247 658.308C147.115 657.974 146.904 657.677 146.632 657.442C146.36 657.208 146.035 657.043 145.685 656.963L148.054 640.354C148.403 640.351 148.739 640.219 148.996 639.982C149.254 639.746 149.414 639.423 149.448 639.076L215.055 637.711C215.089 637.783 215.094 637.865 215.108 637.942V637.951ZM140.841 86.7345C140.839 86.3876 140.774 86.0439 140.648 85.7205L152.057 80.5351C152.23 80.8398 152.478 81.0953 152.778 81.2778C153.077 81.4602 153.418 81.5635 153.768 81.578L156.445 133.273L157.858 160.526C157.795 160.522 157.733 160.522 157.67 160.526L138.889 89.4017C139.45 89.2161 139.94 88.8606 140.289 88.3843C140.639 87.9081 140.832 87.3348 140.841 86.7441V86.7345ZM183.093 36.755L227.887 43.3388C227.887 43.3965 227.887 43.4493 227.887 43.507C227.885 44.0384 228.063 44.5548 228.391 44.9727L195.28 75.4314C194.987 75.1671 194.608 75.0185 194.213 75.0133C194.103 75.0237 193.995 75.0463 193.891 75.0806L182.002 38.0765C182.275 37.9542 182.516 37.7697 182.705 37.5378C182.895 37.3058 183.027 37.0328 183.093 36.7405V36.755ZM293.624 47.0296L296.267 89.32C296.07 89.3502 295.878 89.4118 295.7 89.5026L276.492 61.3122C276.989 60.9293 277.322 60.3719 277.424 59.7527C277.525 59.1335 277.388 58.4988 277.04 57.977L292.168 46.3376C292.355 46.5435 292.582 46.7096 292.834 46.826C293.087 46.9424 293.361 47.0068 293.639 47.0152L293.624 47.0296ZM328.269 220.382L335.444 224.481C335.353 224.685 335.305 224.906 335.304 225.13C335.307 225.39 335.374 225.646 335.499 225.875C335.624 226.104 335.803 226.298 336.02 226.442L328.735 239.797C328.623 239.76 328.507 239.737 328.389 239.73L327.264 222.866L327.144 221.083C327.368 221.046 327.583 220.965 327.776 220.844C327.969 220.724 328.137 220.567 328.269 220.382ZM387.379 507.346C387.016 507.347 386.661 507.458 386.363 507.665C386.064 507.872 385.835 508.164 385.707 508.504L356.978 500.671C356.995 500.614 357.008 500.556 357.017 500.498C357.012 500.287 356.959 500.079 356.861 499.892C356.762 499.705 356.621 499.544 356.449 499.421L401.215 416.883C401.27 416.899 401.326 416.91 401.383 416.917L387.47 507.365C387.461 507.384 387.432 507.365 387.403 507.365L387.379 507.346ZM149.462 638.711C149.418 638.406 149.275 638.125 149.056 637.909C148.836 637.694 148.551 637.557 148.246 637.519V614.677C148.541 614.649 148.823 614.546 149.066 614.378C149.31 614.21 149.505 613.982 149.635 613.716L205.651 633.554L215.132 636.918C215.094 637.059 215.069 637.204 215.06 637.351L175.884 638.167L149.462 638.711ZM158.17 165.827C158.632 165.827 159.087 165.705 159.487 165.474C159.888 165.242 160.221 164.91 160.453 164.51L207.395 187.982C207.237 188.353 207.158 188.754 207.165 189.158C207.172 189.562 207.263 189.96 207.434 190.327L157.084 217.239L149.625 221.228C149.378 220.852 149.002 220.58 148.568 220.463L154.974 182.926L157.901 165.789C157.99 165.801 158.08 165.809 158.17 165.813V165.827ZM344.152 335.378C344.517 335.375 344.875 335.276 345.19 335.09L400.787 414.298C400.594 414.468 400.447 414.685 400.359 414.927L336.4 399.957C336.419 399.838 336.43 399.718 336.434 399.597C336.434 399.06 336.252 398.539 335.918 398.119C335.583 397.699 335.116 397.405 334.593 397.285L343.287 340.16L344.017 335.354C344.062 335.36 344.107 335.363 344.152 335.363V335.378ZM355.094 501.738L321.502 603.917L335.496 494.789C335.766 494.788 336.031 494.711 336.259 494.568C336.488 494.424 336.671 494.219 336.789 493.976L351.49 499.229L354.373 500.258C354.346 500.347 354.328 500.439 354.321 500.531C354.326 500.782 354.401 501.027 354.538 501.237C354.675 501.448 354.867 501.616 355.094 501.723V501.738ZM287.925 636.231C287.58 636.231 287.239 636.298 286.92 636.428L277.107 616.104L269.014 599.337C269.319 599.162 269.585 598.926 269.796 598.644C270.007 598.363 270.158 598.041 270.24 597.698L319.498 605.686C319.498 605.714 319.498 605.734 319.498 605.762C319.508 606.115 319.637 606.453 319.863 606.724L289.698 636.889C289.208 636.46 288.576 636.225 287.925 636.231ZM72.5032 558.186C72.5013 557.957 72.464 557.73 72.3927 557.513L111.973 541.654C112.108 541.904 112.305 542.116 112.544 542.269L90.986 584.036C90.8033 583.959 90.6075 583.918 90.4093 583.916C90.1232 583.924 89.8445 584.009 89.602 584.161L71.7103 559.877C71.9557 559.668 72.1535 559.409 72.2902 559.118C72.427 558.826 72.4997 558.508 72.5032 558.186ZM107.71 361.521H107.739L116.077 451.869C115.829 451.928 115.608 452.068 115.449 452.268C115.291 452.467 115.204 452.714 115.202 452.969C115.21 453.039 115.223 453.108 115.241 453.176L97.7188 459.423C97.6038 459.194 97.4387 458.993 97.2358 458.836C97.0328 458.679 96.7972 458.569 96.5462 458.515L103.678 396.093L107.628 361.531L107.71 361.521ZM149.039 281.4L132.431 364.443C132.36 364.438 132.29 364.438 132.219 364.443C131.815 364.444 131.42 364.566 131.085 364.794C130.751 365.022 130.493 365.345 130.345 365.721L113.328 360.709L109.964 359.714C109.995 359.556 110.011 359.395 110.012 359.234C110.009 358.849 109.91 358.471 109.722 358.135C109.535 357.799 109.266 357.516 108.94 357.311L148.967 281.381L149.039 281.4ZM229.545 45.7561L213.066 117.169C213.029 117.167 212.992 117.167 212.955 117.169C212.832 117.175 212.711 117.2 212.595 117.241L195.035 78.0698C195.281 77.9292 195.487 77.7266 195.631 77.4822C195.775 77.2377 195.853 76.9599 195.857 76.6761C195.851 76.327 195.731 75.9894 195.515 75.715L211.576 60.9422L228.632 45.2467C228.893 45.4836 229.206 45.6578 229.545 45.7561ZM355.685 499.162C355.438 499.163 355.196 499.233 354.986 499.362C354.776 499.492 354.606 499.677 354.493 499.897L336.905 493.616C336.938 493.516 336.959 493.413 336.967 493.308C336.96 492.95 336.819 492.608 336.573 492.347L400.84 416.897L356.147 499.272C356.001 499.208 355.845 499.17 355.685 499.162ZM215.257 636.558L149.746 613.355C149.79 613.227 149.817 613.093 149.827 612.957C149.827 612.717 149.777 612.481 149.681 612.262C149.585 612.043 149.445 611.846 149.27 611.683L166.316 589.212L178.671 572.92C179.007 573.135 179.397 573.25 179.796 573.252C180.097 573.251 180.394 573.184 180.666 573.055L216.031 635.625C215.692 635.858 215.424 636.181 215.257 636.558ZM70.9798 556.042L95.9167 461.821C96.0015 461.846 96.0883 461.864 96.1762 461.874C96.2364 461.866 96.2958 461.853 96.354 461.836L112.943 539.27C112.599 539.378 112.298 539.593 112.084 539.883C111.87 540.174 111.753 540.524 111.752 540.885C111.761 541.041 111.794 541.195 111.848 541.342L72.2581 557.201C72.0024 556.66 71.5426 556.244 70.9798 556.042ZM149.52 281.496C149.824 281.499 150.123 281.413 150.379 281.248C150.635 281.083 150.838 280.847 150.961 280.569L175.24 288.258C175.204 288.37 175.179 288.486 175.168 288.604C175.171 288.881 175.241 289.153 175.372 289.397C175.502 289.641 175.689 289.85 175.918 290.007L160.131 317.457L133.06 364.611C132.971 364.571 132.88 364.537 132.786 364.51L149.395 281.472C149.438 281.472 149.476 281.496 149.52 281.496ZM342.08 333.095H309.719C309.682 332.753 309.541 332.431 309.315 332.172L310.617 330.692L328.49 310.441C328.792 310.667 329.15 310.805 329.526 310.84C329.901 310.876 330.279 310.808 330.619 310.643L342.931 331.581C342.689 331.758 342.488 331.985 342.341 332.246C342.195 332.507 342.106 332.797 342.08 333.095ZM146.607 612.072L91.9375 586.121C92.0025 585.954 92.0383 585.777 92.0433 585.598C92.0396 585.331 91.9697 585.069 91.8396 584.836C91.7096 584.602 91.5236 584.405 91.2984 584.262L112.857 542.5C113.054 542.581 113.264 542.623 113.477 542.625C113.673 542.619 113.866 542.58 114.049 542.51L147.175 611.525C146.945 611.66 146.751 611.848 146.607 612.072ZM296.575 185.68C296.628 185.68 296.685 185.68 296.738 185.68L304.649 238.413C304.305 238.489 303.979 238.632 303.69 238.834C303.402 239.036 303.156 239.293 302.967 239.59L212.696 190.332C212.877 189.948 212.972 189.53 212.975 189.106L283.234 184.425L294.287 183.69C294.37 184.24 294.645 184.742 295.064 185.106C295.484 185.471 296.019 185.674 296.575 185.68ZM267.861 594.551H267.741C267.217 594.553 266.707 594.715 266.277 595.014C265.848 595.314 265.52 595.737 265.338 596.228L238.767 588.385L181.862 571.594C181.867 571.525 181.867 571.456 181.862 571.387L269.197 572.776C269.228 573.064 269.347 573.335 269.538 573.552C269.729 573.77 269.982 573.923 270.264 573.992L268.601 588.13L267.861 594.551ZM212.523 190.649L302.794 239.888C302.631 240.239 302.546 240.621 302.544 241.008C302.546 241.235 302.579 241.462 302.64 241.681L224.931 267.579C224.773 267.211 224.51 266.897 224.175 266.677C223.84 266.456 223.448 266.339 223.047 266.339C222.994 266.339 222.946 266.339 222.894 266.339L210.721 191.932C211.091 191.847 211.44 191.69 211.75 191.47C212.059 191.25 212.322 190.971 212.523 190.649ZM303.74 243.238L276.939 290.146C276.623 290.013 276.269 290 275.945 290.111C275.62 290.222 275.348 290.448 275.18 290.747L224.989 269.044C225.061 268.837 225.1 268.62 225.104 268.401C225.104 268.238 225.083 268.077 225.042 267.92L302.745 242.007C302.946 242.508 303.293 242.937 303.74 243.238ZM117.456 452.633L264.338 384.838C264.481 385.095 264.674 385.32 264.905 385.502L186.389 503.271C186.137 503.126 185.853 503.047 185.563 503.04C185.314 503.041 185.068 503.094 184.842 503.196C184.615 503.298 184.412 503.446 184.246 503.631L117.369 453.459C117.461 453.296 117.51 453.113 117.514 452.926C117.506 452.826 117.486 452.728 117.456 452.633ZM134.223 366.514C134.223 366.485 134.223 366.461 134.223 366.437C134.222 365.982 134.064 365.541 133.776 365.188L177.734 323.186L196.188 305.549C196.418 305.752 196.712 305.871 197.019 305.884C197.326 305.897 197.628 305.804 197.875 305.621L264.674 382.162C264.375 382.468 264.169 382.853 264.079 383.272L235.095 379.528L134.223 366.514ZM306.451 333.278C306.455 333.709 306.627 334.121 306.931 334.426L267.601 381.893C267.341 381.708 267.044 381.582 266.731 381.522L275.04 305.525L276.425 292.895C276.663 292.885 276.894 292.814 277.097 292.689L306.984 332.096C306.819 332.246 306.686 332.428 306.595 332.631C306.503 332.835 306.454 333.055 306.451 333.278ZM276.079 292.833L266.361 381.484H266.299C265.815 381.484 265.345 381.641 264.958 381.931L198.158 305.4C198.398 305.137 198.531 304.794 198.533 304.439C198.533 304.439 198.533 304.405 198.533 304.386L275.045 291.891C275.119 292.125 275.254 292.335 275.435 292.501C275.617 292.666 275.839 292.781 276.079 292.833ZM266.299 385.992H266.424L281.802 497.869C281.555 497.938 281.334 498.082 281.171 498.28C281.007 498.479 280.909 498.723 280.889 498.979L242.544 501.267L187.278 504.568C187.215 504.144 186.997 503.757 186.668 503.482L265.203 385.699C265.537 385.889 265.914 385.99 266.299 385.992ZM183.775 504.881L133.795 511.637C133.713 511.28 133.513 510.96 133.227 510.73C132.941 510.5 132.586 510.372 132.219 510.369C132.136 510.379 132.054 510.397 131.974 510.422L116.826 453.993C116.951 453.938 117.065 453.862 117.163 453.767L184.044 503.919C183.867 504.192 183.769 504.508 183.761 504.833L183.775 504.881ZM133.392 513.199C133.545 513.046 133.666 512.864 133.748 512.663C133.831 512.463 133.873 512.248 133.872 512.032C133.872 512.032 133.872 512.003 133.872 511.988L183.852 505.236C183.93 505.566 184.103 505.866 184.348 506.1C184.594 506.334 184.902 506.491 185.236 506.553L179.801 569.027C179.381 569.026 178.971 569.15 178.623 569.383L154.537 539.482L133.392 513.199ZM270.624 571.137C270.246 571.138 269.884 571.286 269.615 571.55L187.048 505.794C187.225 505.533 187.328 505.229 187.346 504.914L280.923 499.33C280.965 499.553 281.068 499.761 281.219 499.93C281.371 500.1 281.566 500.224 281.783 500.291L270.667 571.176L270.624 571.137ZM180.156 569.071L185.587 506.596C185.822 506.594 186.054 506.545 186.27 506.453C186.486 506.36 186.682 506.226 186.846 506.058L269.408 571.829C269.31 571.993 269.247 572.174 269.221 572.363L181.886 571.012C181.854 570.545 181.666 570.102 181.352 569.753C181.039 569.405 180.618 569.171 180.156 569.09V569.071ZM332.786 401.61L282.581 497.874C282.447 497.825 282.305 497.797 282.163 497.792L266.784 385.939C267.167 385.852 267.521 385.666 267.811 385.401C268.101 385.136 268.317 384.799 268.437 384.425L331.714 399.232C331.696 399.353 331.685 399.474 331.681 399.597C331.68 399.999 331.78 400.394 331.974 400.746C332.167 401.098 332.447 401.396 332.786 401.61ZM222 270.164C222.235 270.309 222.497 270.403 222.771 270.443C223.044 270.483 223.322 270.466 223.589 270.395C223.855 270.323 224.105 270.198 224.322 270.027C224.538 269.856 224.718 269.643 224.849 269.4L231.866 272.418L275.021 291.079C274.976 291.204 274.95 291.335 274.944 291.468C274.944 291.468 274.944 291.502 274.944 291.516L206.982 302.641L198.456 304.04C198.389 303.794 198.258 303.57 198.077 303.391L211.288 285.043L222 270.164ZM131.479 513.531C131.707 513.653 131.961 513.719 132.219 513.723C132.532 513.714 132.835 513.616 133.094 513.44L178.34 569.667C178.193 569.807 178.068 569.969 177.97 570.147L115.087 541.404C115.216 541.079 115.233 540.719 115.134 540.383C115.036 540.047 114.828 539.754 114.544 539.549L124.016 524.983L131.479 513.531ZM271.374 571.416C271.264 571.344 271.144 571.289 271.018 571.253L282.139 500.368C282.476 500.372 282.801 500.242 283.043 500.007C283.286 499.772 283.425 499.451 283.431 499.114L334.098 493.635C334.152 493.888 334.271 494.121 334.444 494.313L271.374 571.416ZM335.299 491.905C334.955 491.948 334.638 492.113 334.406 492.371C334.174 492.629 334.042 492.962 334.036 493.308L283.378 498.787C283.308 498.5 283.138 498.248 282.898 498.076L333.122 401.779C333.374 401.884 333.643 401.945 333.915 401.956L334.655 450.043L335.299 491.905ZM176.912 290.348C177.149 290.348 177.383 290.3 177.6 290.207C177.818 290.114 178.014 289.977 178.176 289.805L195.876 303.713C195.716 303.948 195.637 304.228 195.651 304.512C195.665 304.795 195.771 305.066 195.953 305.284L133.536 364.924C133.483 364.88 133.43 364.827 133.373 364.789L176.196 290.194C176.422 290.296 176.666 290.348 176.912 290.348ZM132.219 368.451C132.677 368.45 133.121 368.293 133.478 368.006C133.835 367.718 134.082 367.317 134.18 366.87L264.064 383.627C264.064 383.666 264.064 383.699 264.064 383.738C264.065 384.002 264.114 384.265 264.208 384.512L117.302 452.306C117.169 452.099 116.971 451.942 116.74 451.859L132.037 368.432C132.094 368.436 132.157 368.451 132.219 368.451ZM116.36 454.099C116.399 454.093 116.438 454.085 116.476 454.075L131.618 510.513C131.555 510.54 131.494 510.572 131.436 510.609L104.865 472.346L97.3055 461.437C97.4944 461.279 97.6467 461.082 97.7521 460.86C97.8575 460.638 97.9133 460.395 97.9159 460.149C97.9059 460.015 97.8784 459.882 97.8342 459.755L115.375 453.507C115.473 453.684 115.615 453.831 115.788 453.935C115.961 454.039 116.159 454.095 116.36 454.099ZM96.9932 461.629L131.138 510.801C130.952 510.954 130.803 511.147 130.703 511.366C130.602 511.585 130.552 511.823 130.556 512.064C130.56 512.304 130.618 512.541 130.727 512.756C130.835 512.971 130.99 513.158 131.181 513.305L124.626 523.397L114.246 539.362C114.01 539.232 113.746 539.161 113.477 539.155C113.417 539.163 113.357 539.176 113.299 539.194L96.7048 461.764C96.8058 461.73 96.9026 461.685 96.9932 461.629ZM331.825 398.881L272.234 384.944L268.538 384.074C268.56 383.965 268.571 383.854 268.572 383.743C268.573 383.441 268.513 383.143 268.396 382.866C268.278 382.588 268.106 382.337 267.89 382.128L307.234 334.643C307.497 334.826 307.808 334.928 308.128 334.936C308.27 334.926 308.411 334.899 308.546 334.854L333.055 397.468C332.764 397.607 332.505 397.804 332.293 398.047C332.082 398.29 331.922 398.574 331.825 398.881ZM309.041 331.947C308.772 331.742 308.446 331.628 308.109 331.62C307.811 331.628 307.522 331.718 307.272 331.879L277.39 292.472C277.51 292.353 277.606 292.213 277.674 292.059L327.706 308.326C327.669 308.484 327.649 308.645 327.649 308.807C327.647 309.344 327.854 309.861 328.225 310.249L313.443 327.006L309.041 331.947ZM221.707 269.953L197.774 303.189C197.568 303.07 197.335 303.004 197.096 302.997C196.715 302.996 196.348 303.146 196.078 303.415L178.378 289.507C178.564 289.235 178.668 288.914 178.676 288.585C178.668 288.404 178.633 288.226 178.57 288.056L221.245 269.4C221.366 269.61 221.522 269.796 221.707 269.953ZM148.967 611.496C148.702 611.323 148.394 611.226 148.078 611.217C147.877 611.222 147.678 611.262 147.492 611.337L114.366 542.322C114.599 542.179 114.794 541.981 114.933 541.745L177.816 570.455C177.733 570.681 177.689 570.92 177.686 571.161C177.687 571.456 177.75 571.746 177.871 572.015C177.992 572.283 178.168 572.523 178.388 572.718L158.204 599.323L148.967 611.496ZM268.216 594.584L269.634 582.532L270.634 574.045C270.839 574.04 271.04 573.992 271.225 573.903C271.41 573.814 271.574 573.687 271.705 573.53L319.671 605.051C319.628 605.142 319.594 605.237 319.57 605.335L270.312 597.343C270.324 597.266 270.332 597.189 270.336 597.112C270.334 596.509 270.121 595.926 269.734 595.464C269.346 595.003 268.81 594.691 268.216 594.584ZM321.079 604.162C320.846 604.165 320.617 604.22 320.407 604.322C320.198 604.424 320.014 604.571 319.868 604.753L288.4 584.089L271.902 573.247C272.004 573.052 272.058 572.837 272.061 572.617C272.06 572.248 271.917 571.894 271.662 571.627L334.728 494.544C334.854 494.621 334.992 494.68 335.136 494.717L321.103 604.167L321.079 604.162ZM335.669 491.872L334.276 401.952C334.74 401.909 335.18 401.73 335.543 401.438C335.905 401.145 336.173 400.752 336.313 400.308L400.287 415.283C400.271 415.339 400.26 415.397 400.254 415.456C400.255 415.85 400.408 416.229 400.681 416.513L336.285 492.102C336.1 491.979 335.89 491.9 335.669 491.872ZM327.822 307.956L277.77 291.723C277.794 291.639 277.81 291.554 277.818 291.468C277.816 291.248 277.762 291.032 277.661 290.837C277.56 290.641 277.415 290.473 277.237 290.343L295.676 258.078L304.057 243.411C304.421 243.588 304.82 243.682 305.225 243.685C305.475 243.681 305.722 243.642 305.961 243.569L328.86 306.885C328.39 307.099 328.016 307.481 327.812 307.956H327.822ZM294.629 182.046C294.381 182.422 294.248 182.861 294.244 183.31L212.941 188.731C212.858 188.085 212.559 187.485 212.092 187.031C211.625 186.576 211.018 186.293 210.37 186.227L213.08 119.75C213.375 119.724 213.652 119.601 213.868 119.399L217.795 122.446L294.629 182.046ZM210.072 192.028C210.168 192.028 210.264 192.028 210.36 191.999L212.883 207.406L222.538 266.411C222.082 266.527 221.679 266.797 221.399 267.175L149.765 223.092C149.897 222.836 149.967 222.553 149.971 222.266C149.971 222.015 149.923 221.767 149.827 221.535L207.607 190.629C207.862 191.055 208.224 191.408 208.656 191.653C209.087 191.898 209.575 192.027 210.072 192.028ZM109.844 360.046L130.239 366.043C130.214 366.173 130.201 366.305 130.201 366.437C130.204 366.875 130.351 367.3 130.618 367.647C130.885 367.994 131.258 368.244 131.681 368.36L123.737 411.75L116.428 451.638L108.099 361.483C108.49 361.415 108.856 361.247 109.162 360.995C109.468 360.743 109.703 360.416 109.844 360.046ZM217.28 635.26C216.958 635.261 216.64 635.331 216.348 635.467L180.983 572.896C181.328 572.658 181.596 572.324 181.752 571.935L265.227 596.569C265.187 596.751 265.166 596.936 265.165 597.122C265.167 597.637 265.327 598.14 265.621 598.563L218.89 635.962C218.685 635.74 218.436 635.564 218.159 635.443C217.882 635.322 217.583 635.26 217.28 635.26ZM334.06 397.232C333.824 397.236 333.591 397.274 333.368 397.348L325.443 377.101L308.868 334.739C309.104 334.614 309.307 334.433 309.457 334.212C309.607 333.991 309.7 333.736 309.728 333.47H342.08C342.118 333.904 342.29 334.315 342.574 334.645C342.858 334.976 343.238 335.208 343.661 335.311L334.228 397.232C334.175 397.232 334.117 397.232 334.06 397.232ZM160.333 161.617L172.563 151.66L212.066 119.461C212.249 119.626 212.476 119.735 212.72 119.774L210.24 180.34L210 186.203C209.503 186.213 209.017 186.351 208.59 186.603C208.162 186.856 207.807 187.215 207.558 187.645L160.611 164.174C160.786 163.758 160.852 163.304 160.801 162.856C160.751 162.407 160.586 161.979 160.323 161.613L160.333 161.617ZM149.563 223.39L221.212 267.478C221.066 267.762 220.988 268.076 220.986 268.396C220.989 268.618 221.028 268.839 221.101 269.049L178.421 287.72C178.243 287.356 177.935 287.072 177.558 286.923C177.181 286.775 176.762 286.773 176.384 286.917L148.991 223.895C149.214 223.766 149.408 223.595 149.563 223.39ZM329.509 306.707C329.403 306.717 329.299 306.735 329.196 306.76L306.302 243.449C306.748 243.253 307.132 242.937 307.41 242.537C307.689 242.137 307.853 241.668 307.883 241.181H327.048C327.085 241.455 327.212 241.709 327.41 241.902C327.608 242.095 327.864 242.217 328.139 242.248L328.744 270.731L329.509 306.707ZM328.028 239.782C327.781 239.837 327.556 239.966 327.384 240.153C327.212 240.339 327.102 240.574 327.067 240.825H307.883C307.847 240.244 307.619 239.691 307.234 239.254L325.746 220.742C326.039 220.99 326.405 221.134 326.789 221.151L328.028 239.782ZM325.486 220.487L306.979 238.999C306.496 238.568 305.872 238.329 305.225 238.326C305.148 238.326 305.081 238.326 305.009 238.35L297.099 185.612C297.399 185.545 297.681 185.418 297.93 185.237L307.196 196.267L325.577 218.142C325.264 218.478 325.092 218.922 325.097 219.382C325.095 219.784 325.233 220.175 325.486 220.487ZM296.392 181.018C295.798 181.059 295.243 181.33 294.845 181.773L214.085 119.106C214.204 118.912 214.27 118.69 214.277 118.462C214.27 118.385 214.255 118.31 214.234 118.236L241.03 109.456L294.922 91.8045C295.054 92.0941 295.261 92.3435 295.521 92.5275C295.781 92.7115 296.085 92.8235 296.402 92.8522L296.392 181.018ZM295.431 89.7092C295.226 89.8759 295.06 90.0861 294.945 90.3245C294.83 90.563 294.77 90.8239 294.768 91.0885C294.779 91.2176 294.805 91.345 294.845 91.4681L277.938 97.0043L214.137 117.909C214.102 117.846 214.062 117.784 214.017 117.727L244.293 88.8538L273.282 61.2161C273.669 61.5758 274.163 61.8002 274.689 61.8556C275.215 61.9111 275.745 61.7946 276.199 61.5237L288.28 79.2376L295.431 89.7092ZM155.897 79.574L192.627 76.95C192.689 77.3261 192.883 77.668 193.173 77.9151C193.463 78.1623 193.832 78.2988 194.213 78.3004C194.377 78.2923 194.54 78.2582 194.694 78.1995L203.301 97.4224L212.249 117.385C212.142 117.45 212.045 117.529 211.961 117.621L155.647 80.5063C155.806 80.2207 155.891 79.9005 155.897 79.574ZM154.128 81.5683C154.65 81.4979 155.124 81.2274 155.45 80.8138L211.773 117.904C211.687 118.079 211.641 118.272 211.639 118.467C211.643 118.705 211.716 118.937 211.85 119.135L160.107 161.343C159.864 161.083 159.571 160.873 159.246 160.728C158.921 160.583 158.569 160.504 158.213 160.498L157.103 139.102L154.128 81.5683ZM107.268 361.478L100.381 421.742L96.1906 458.424C95.8049 458.426 95.4314 458.559 95.1318 458.802C94.8321 459.045 94.6242 459.383 94.5423 459.76L52.4489 454.473C52.4489 454.435 52.4489 454.396 52.4489 454.358C52.4487 453.975 52.357 453.598 52.1814 453.258C52.0059 452.918 51.7516 452.624 51.4397 452.402L106.706 361.242C106.881 361.346 107.071 361.425 107.268 361.478ZM52.396 454.858L94.4557 460.115C94.4557 460.115 94.4557 460.115 94.4557 460.149C94.4568 460.498 94.5646 460.839 94.7648 461.125C94.965 461.411 95.2478 461.629 95.5755 461.749L70.6386 555.942C70.5055 555.916 70.3703 555.904 70.2349 555.903C70.1501 555.898 70.065 555.898 69.9802 555.903L50.69 456.694C51.1158 456.574 51.5003 456.34 51.8013 456.016C52.1023 455.692 52.3081 455.291 52.396 454.858ZM74.6225 598.967L89.28 586.751C89.4519 586.922 89.6607 587.051 89.8904 587.129C90.1201 587.207 90.3645 587.231 90.6049 587.199C90.8454 587.168 91.0753 587.081 91.2772 586.947C91.4791 586.813 91.6474 586.634 91.7693 586.424L146.439 612.375C146.439 612.409 146.439 612.447 146.439 612.481L74.9445 600.13C74.9445 600.082 74.9445 600.044 74.9445 599.996C74.9434 599.628 74.8311 599.27 74.6225 598.967ZM219.486 637.346C219.463 636.952 219.337 636.571 219.121 636.24L265.852 598.852C266.092 599.114 266.384 599.323 266.709 599.466C267.034 599.609 267.385 599.683 267.741 599.683C268.07 599.683 268.396 599.621 268.702 599.501L280.99 624.971L286.608 636.606C286.231 636.82 285.911 637.122 285.677 637.487C285.442 637.852 285.3 638.269 285.262 638.701L248.162 637.942L219.486 637.346ZM370.199 304.218L345.406 331.61C345.103 331.377 344.741 331.233 344.361 331.194C343.981 331.155 343.597 331.222 343.253 331.389L330.941 310.451C331.211 310.259 331.432 310.006 331.584 309.711C331.736 309.417 331.815 309.09 331.815 308.759C331.815 308.721 331.815 308.692 331.815 308.653L369.79 303.425C369.857 303.719 369.997 303.992 370.199 304.218ZM314.553 107.875L296.945 181.032C296.882 181.032 296.815 181.032 296.753 181.032V92.8522C297.186 92.8148 297.59 92.6219 297.892 92.3091L313.212 104.083C312.997 104.407 312.86 104.777 312.812 105.163C312.765 105.549 312.807 105.941 312.938 106.307C313.068 106.674 313.281 107.005 313.562 107.275C313.842 107.544 314.182 107.745 314.553 107.86V107.875ZM272.546 58.6931C272.434 59.0769 272.419 59.4827 272.503 59.8738C272.587 60.2648 272.767 60.6288 273.027 60.9326L213.758 117.448C213.658 117.361 213.544 117.291 213.421 117.241L229.9 45.8378C230.018 45.8606 230.136 45.8735 230.256 45.8762C230.719 45.8713 231.171 45.7327 231.557 45.4769C231.944 45.2211 232.248 44.8591 232.433 44.4345L238.2 46.4817L272.546 58.6931ZM181.238 38.2447C181.376 38.2324 181.513 38.205 181.646 38.163L185.971 51.6191L193.535 75.1671C193.256 75.2931 193.018 75.4952 192.848 75.7501C192.678 76.005 192.583 76.3026 192.574 76.6088L155.863 79.2328C155.783 78.7141 155.503 78.2471 155.085 77.9304L180.358 38.0429C180.63 38.1817 180.932 38.2511 181.238 38.2447ZM148.304 224.13C148.423 224.118 148.541 224.094 148.655 224.058L171.198 275.907L176.057 287.085C175.72 287.265 175.452 287.55 175.293 287.897L151.019 280.208C151.048 280.116 151.067 280.021 151.077 279.925C151.075 279.538 150.928 279.167 150.665 278.883C150.403 278.599 150.044 278.424 149.659 278.392L149.087 255.526L148.304 224.13ZM148.65 281.213L120.709 334.186L108.613 357.124C108.329 356.999 108.021 356.933 107.71 356.932C107.341 356.932 106.977 357.022 106.65 357.194C106.322 357.365 106.042 357.613 105.831 357.917L67.635 335.527C67.7666 335.262 67.8306 334.968 67.8214 334.672C67.8122 334.376 67.73 334.087 67.5821 333.83L148.338 280.934C148.431 281.034 148.536 281.123 148.65 281.198V281.213ZM71.4219 560.118L74.9974 564.967L89.304 584.387C89.1372 584.537 89.0037 584.721 88.9118 584.926C88.82 585.132 88.7719 585.354 88.7706 585.578C88.779 585.896 88.8828 586.204 89.0685 586.463L74.4159 598.669C74.0785 598.342 73.6311 598.154 73.1616 598.141L70.5617 560.43C70.8671 560.387 71.1602 560.281 71.4219 560.118ZM369.713 303.011C369.713 303.035 369.713 303.055 369.713 303.079L331.748 308.317C331.647 307.881 331.408 307.489 331.067 307.199C330.726 306.909 330.301 306.737 329.855 306.707L328.485 242.253C328.61 242.237 328.732 242.201 328.845 242.147L370.352 301.642C370.153 301.808 369.993 302.016 369.882 302.251C369.772 302.486 369.714 302.742 369.713 303.002V303.011ZM325.871 217.95L298.209 185.021C298.498 184.741 298.71 184.391 298.823 184.005C298.936 183.619 298.947 183.21 298.854 182.819C298.762 182.427 298.569 182.066 298.295 181.772C298.021 181.477 297.675 181.259 297.291 181.138L314.841 108.24L314.904 107.981C315.041 108.003 315.179 108.016 315.317 108.019H315.389L326.495 217.691C326.273 217.729 326.06 217.813 325.871 217.936V217.95ZM156.743 165.39C156.988 165.55 157.26 165.665 157.545 165.731L148.213 220.382C148.168 220.37 148.123 220.36 148.078 220.353C147.595 220.355 147.131 220.542 146.782 220.875C146.432 221.208 146.224 221.663 146.199 222.145L123.132 223.107L115.317 223.429C115.263 222.99 115.055 222.585 114.731 222.285L132.916 197.646L156.743 165.39ZM114.63 225.187C114.842 225.025 115.017 224.818 115.142 224.582C115.267 224.345 115.34 224.085 115.356 223.818L127.851 223.299L146.242 222.53C146.298 222.955 146.499 223.347 146.811 223.641C147.122 223.935 147.526 224.113 147.953 224.145L148.434 242.762L149.323 278.425C149.165 278.444 149.011 278.486 148.866 278.55L133.007 253.839L114.63 225.187ZM29.1219 453.258L47.6384 454.421C47.646 455.053 47.9025 455.657 48.3523 456.101C48.8021 456.545 49.4089 456.795 50.0412 456.795C50.1347 456.792 50.2279 456.782 50.32 456.766L69.615 556.004L69.5285 556.033L27.9589 454.872C28.2669 454.715 28.533 454.486 28.7352 454.205C28.9375 453.924 29.07 453.6 29.1219 453.258ZM74.8724 600.481L146.348 612.856C146.337 612.894 146.329 612.932 146.324 612.971C146.327 613.401 146.489 613.814 146.779 614.131C147.07 614.448 147.467 614.646 147.895 614.687V637.519C147.703 637.545 147.518 637.611 147.353 637.713C147.187 637.815 147.045 637.95 146.934 638.11L74.8484 600.678C74.8532 600.625 74.8532 600.548 74.8724 600.481ZM322.511 605.075C322.352 604.743 322.082 604.476 321.747 604.321L355.445 501.824C355.523 501.848 355.604 501.864 355.685 501.872C355.812 501.864 355.936 501.838 356.055 501.795L390.868 579.778C390.605 579.925 390.385 580.139 390.232 580.398C390.078 580.657 389.996 580.952 389.993 581.253C390.005 581.384 390.03 581.513 390.07 581.638L365.513 590.158L322.511 605.075ZM391.2 579.605L385.572 567.009L356.387 501.651C356.626 501.512 356.815 501.302 356.93 501.05L385.659 508.884C385.584 509.135 385.571 509.4 385.622 509.656C385.672 509.913 385.784 510.154 385.948 510.357C386.112 510.561 386.324 510.722 386.564 510.826C386.804 510.93 387.065 510.975 387.326 510.955L391.445 579.581C391.362 579.59 391.28 579.605 391.2 579.624V579.605ZM401.244 413.985C401.189 414.013 401.136 414.043 401.085 414.076L345.488 334.864C345.705 334.684 345.883 334.462 346.012 334.21C346.14 333.959 346.215 333.684 346.232 333.403C346.25 333.121 346.21 332.839 346.114 332.574C346.018 332.308 345.868 332.065 345.675 331.86L370.477 304.467C370.783 304.706 371.157 304.839 371.544 304.847C371.642 304.835 371.738 304.816 371.833 304.789L375.533 318.543L401.244 413.985ZM272.767 58.1549C272.727 58.2163 272.692 58.2805 272.662 58.3471L232.548 44.1125C232.646 43.7609 232.66 43.3914 232.591 43.0332C232.521 42.6749 232.369 42.3378 232.147 42.0484C231.924 41.759 231.638 41.5252 231.31 41.3655C230.982 41.2058 230.621 41.1246 230.256 41.1282C230.104 41.1276 229.953 41.1421 229.804 41.1714L226.849 30.3297C227.391 30.1454 227.863 29.8 228.204 29.3397L253.275 45.559L272.767 58.1549ZM65.828 336.632C65.828 336.632 65.8713 336.632 65.9001 336.632C66.2027 336.628 66.4999 336.551 66.7666 336.408C67.0333 336.265 67.2619 336.06 67.4332 335.81L105.653 358.215C105.41 358.698 105.349 359.252 105.482 359.776C105.614 360.301 105.931 360.76 106.374 361.069L51.1225 452.244C50.9371 452.147 50.7401 452.074 50.5362 452.027L58.1869 394.282L65.828 336.632ZM295.902 663.566L320.618 607.267C320.773 607.321 320.935 607.352 321.099 607.358C321.522 607.358 321.928 607.19 322.227 606.891C322.526 606.591 322.694 606.186 322.694 605.762C322.684 605.647 322.661 605.532 322.627 605.421L349.399 596.132L390.181 581.984C390.228 582.068 390.283 582.149 390.344 582.224L296.152 663.744C296.076 663.675 295.992 663.615 295.902 663.566ZM387.989 507.485L387.845 507.457L401.782 417.008C401.782 417.008 401.815 417.008 401.84 417.008C402.148 417.007 402.448 416.915 402.705 416.744C402.961 416.573 403.162 416.331 403.281 416.047L426.296 422.443C426.276 422.517 426.262 422.593 426.253 422.669C426.256 422.927 426.325 423.18 426.453 423.404C426.582 423.628 426.766 423.815 426.988 423.947L407.659 465.368L387.989 507.485ZM426.354 422.083L403.339 415.691C403.358 415.614 403.372 415.535 403.382 415.456C403.383 415.25 403.343 415.047 403.265 414.857C403.186 414.666 403.072 414.494 402.926 414.348C402.781 414.203 402.609 414.087 402.419 414.008C402.229 413.93 402.026 413.889 401.82 413.889C401.744 413.898 401.669 413.913 401.594 413.932L395.107 389.836L372.246 304.924L426.978 421.386C426.701 421.545 426.482 421.79 426.354 422.083ZM370.607 301.353L349.553 271.173L329.153 241.935C329.289 241.811 329.396 241.658 329.466 241.487C329.535 241.316 329.566 241.132 329.555 240.948C329.545 240.764 329.493 240.584 329.405 240.423C329.316 240.261 329.192 240.121 329.042 240.013L336.318 226.672C336.492 226.75 336.678 226.792 336.868 226.797C337.058 226.802 337.247 226.769 337.424 226.701L370.607 301.353ZM335.669 224.197L328.461 220.098C328.565 219.874 328.619 219.629 328.62 219.382C328.62 218.91 328.432 218.457 328.099 218.123C327.766 217.789 327.313 217.6 326.841 217.599L316.639 116.756L315.966 110.071L336.482 223.606C336.154 223.709 335.868 223.917 335.669 224.197ZM314.303 103.18C313.973 103.327 313.678 103.543 313.438 103.814L298.094 92.0112C298.285 91.7266 298.39 91.3929 298.396 91.05C298.395 90.5802 298.212 90.1291 297.885 89.792C297.557 89.4548 297.112 89.258 296.642 89.2431L293.999 46.9527C294.072 46.9429 294.144 46.9285 294.215 46.9095L314.303 103.18ZM291.639 44.5979C291.618 44.7088 291.607 44.8214 291.606 44.9343C291.604 45.332 291.719 45.7214 291.937 46.054L276.804 57.6935C276.561 57.4166 276.258 57.1976 275.919 57.0527C275.58 56.9077 275.213 56.8403 274.844 56.8555C274.476 56.8707 274.115 56.9681 273.789 57.1405C273.463 57.3129 273.18 57.5561 272.96 57.8521L245.73 40.2295L228.396 29.0177C228.488 28.8558 228.564 28.6851 228.622 28.5083L291.639 44.5979ZM223.187 28.3449C223.368 29.0498 223.813 29.6579 224.431 30.0435C225.048 30.429 225.79 30.5625 226.503 30.4162L229.463 41.2531C229.085 41.3887 228.747 41.6168 228.481 41.9164C228.214 42.2161 228.026 42.5779 227.935 42.9688L183.169 36.3849C183.169 36.3465 183.169 36.3176 183.169 36.284C183.161 36.2207 183.148 36.158 183.131 36.0966L223.187 28.3449ZM179.748 38.2976L154.782 77.7045C154.487 77.5449 154.156 77.4622 153.821 77.4643C153.274 77.4643 152.75 77.6815 152.363 78.0681C151.976 78.4547 151.759 78.9791 151.759 79.5259C151.761 79.7589 151.804 79.9897 151.884 80.2083L140.471 85.3937C140.333 85.1342 140.158 84.8962 139.952 84.6873L179.748 38.2976ZM137.674 89.5651C137.78 89.5837 137.888 89.5949 137.996 89.5987C138.181 89.598 138.366 89.5803 138.548 89.5459L157.329 160.671C156.882 160.817 156.482 161.081 156.171 161.434C155.861 161.787 155.65 162.217 155.562 162.679C155.474 163.141 155.511 163.618 155.669 164.061C155.828 164.504 156.102 164.897 156.464 165.198L114.433 222.102C114.292 222.016 114.14 221.95 113.981 221.905L137.674 89.5651ZM112.905 225.495C113.088 225.563 113.281 225.602 113.477 225.61C113.776 225.604 114.07 225.525 114.332 225.38L148.539 278.723C148.259 278.938 148.065 279.246 147.991 279.591C147.917 279.936 147.968 280.296 148.136 280.607L67.3995 333.513C67.2421 333.317 67.0479 333.154 66.8276 333.033L112.905 225.495ZM65.4676 336.608L64.5065 343.956L50.1758 451.989H50.0412C49.4617 451.99 48.9022 452.201 48.466 452.583C48.0297 452.964 47.746 453.491 47.6672 454.065L29.1459 452.912C29.1389 452.491 29.0104 452.082 28.7759 451.733C28.5413 451.385 28.2109 451.111 27.8244 450.946L65.4676 336.608ZM28.3963 456.886L60.9166 536.012L69.1969 556.158C68.7291 556.381 68.3515 556.756 68.1266 557.223C67.9017 557.69 67.843 558.219 67.9602 558.724C68.0774 559.229 68.3634 559.678 68.771 559.998C69.1786 560.318 69.6832 560.489 70.2013 560.483L72.8012 598.213H72.7339L28.3963 456.886ZM74.6273 601.01L139.408 634.65L146.737 638.456C146.676 638.609 146.643 638.772 146.641 638.936C146.643 639.246 146.747 639.546 146.938 639.791C147.128 640.035 147.394 640.209 147.694 640.287L145.291 656.919H145.161C144.864 656.92 144.57 656.981 144.297 657.097C144.024 657.213 143.777 657.383 143.57 657.597L74.6273 601.01ZM147.381 659.322C147.394 659.251 147.402 659.179 147.405 659.106C147.405 658.945 147.389 658.784 147.357 658.625L215.214 638.268C215.376 638.684 215.66 639.042 216.029 639.294C216.398 639.546 216.834 639.681 217.28 639.681C217.366 639.676 217.451 639.667 217.535 639.652L223.927 671.62C223.608 671.714 223.318 671.888 223.084 672.125C222.85 672.362 222.681 672.655 222.591 672.975L147.381 659.322ZM226.416 673.105C226.388 672.98 226.349 672.858 226.301 672.74L285.656 640.364C285.898 640.746 286.233 641.061 286.63 641.28C287.027 641.498 287.472 641.613 287.925 641.613C288.107 641.614 288.289 641.594 288.468 641.555L294.547 663.47C294.26 663.586 294.015 663.785 293.844 664.042C293.673 664.299 293.583 664.602 293.586 664.911L226.416 673.105ZM391.805 579.533L387.85 513.627L387.687 510.907C388.05 510.858 388.389 510.696 388.656 510.444C388.922 510.192 389.103 509.863 389.172 509.503C389.241 509.143 389.195 508.77 389.04 508.437C388.886 508.104 388.631 507.829 388.311 507.649L418.414 443.142L427.219 424.265L391.925 579.557L391.805 579.533Z" fill="white"/>
</g>
<g filter="url(#filter1_d_475_27)">
<path d="M430.741 422.703C430.741 422.002 430.489 421.324 430.03 420.795C429.571 420.265 428.936 419.919 428.242 419.819C419.303 400.314 410.243 380.737 401.061 361.088C392.276 342.356 383.39 323.676 374.404 305.049C374.777 304.532 375 303.922 375.048 303.286C375.096 302.65 374.967 302.013 374.676 301.446C374.384 300.879 373.941 300.403 373.396 300.072C372.851 299.741 372.225 299.568 371.587 299.57C371.287 299.574 370.988 299.618 370.698 299.7L338.899 228.148C339.471 227.78 339.924 227.255 340.204 226.636C340.485 226.017 340.58 225.329 340.478 224.657C340.377 223.985 340.083 223.357 339.632 222.848C339.181 222.339 338.593 221.972 337.938 221.79C331.541 183.969 324.9 145.792 317.965 107.654C318.465 107.053 318.741 106.297 318.744 105.515C318.745 104.695 318.449 103.901 317.91 103.282C317.371 102.664 316.625 102.262 315.812 102.151C312.65 92.6983 309.382 83.1157 305.922 73.5235C302.765 64.7626 299.458 56.0643 296.142 47.4236C296.51 47.0659 296.793 46.6312 296.972 46.1509C297.151 45.6706 297.221 45.1565 297.177 44.6458C297.133 44.1351 296.977 43.6404 296.719 43.1975C296.461 42.7546 296.108 42.3744 295.685 42.0844C295.262 41.7945 294.781 41.6019 294.274 41.5205C293.768 41.4392 293.251 41.4712 292.758 41.6141C292.266 41.7571 291.812 42.0075 291.428 42.3472C291.044 42.687 290.74 43.1077 290.539 43.579L228.045 27.6336C228.029 27.1064 227.812 26.6053 227.439 26.2324C227.066 25.8596 226.565 25.6431 226.038 25.6272C225.51 25.6112 224.997 25.797 224.602 26.1467C224.207 26.4963 223.96 26.9834 223.912 27.5087L184.414 35.1546C184.125 34.4373 183.598 33.8415 182.921 33.4676C182.244 33.0936 181.459 32.9643 180.698 33.1014C179.937 33.2385 179.246 33.6336 178.742 34.2203C178.238 34.8069 177.952 35.5493 177.931 36.3224C177.934 37.1089 178.217 37.8687 178.729 38.4657L139.73 83.9663C139.218 83.6529 138.63 83.4866 138.029 83.4857C137.154 83.487 136.315 83.8353 135.696 84.4541C135.077 85.073 134.729 85.912 134.728 86.7873C134.728 87.2516 134.828 87.7105 135.021 88.1329L112.141 220.824C111.62 221.069 111.175 221.448 110.851 221.923C110.527 222.399 110.336 222.952 110.298 223.526C110.26 224.1 110.377 224.674 110.636 225.187C110.895 225.701 111.287 226.136 111.771 226.446L66.5489 331.942C65.9647 331.823 65.3582 331.889 64.8127 332.129C64.2673 332.369 63.8097 332.773 63.503 333.284C63.1964 333.795 63.0556 334.389 63.1002 334.983C63.1448 335.578 63.3725 336.144 63.7519 336.603C57.2306 355.682 50.7092 374.953 44.3609 394.383C38.2768 413 32.385 431.67 26.5364 450.259C25.8536 450.374 25.2392 450.742 24.8157 451.29C24.3922 451.838 24.1907 452.525 24.2513 453.215C24.3119 453.905 24.6302 454.547 25.1428 455.012C25.6553 455.478 26.3245 455.733 27.017 455.728C27.1879 455.726 27.3583 455.71 27.5264 455.68L27.9349 456.703C34.6148 479.463 41.2035 502.43 48.1189 525.526C55.4044 549.819 63.1272 573.862 70.7971 597.578C70.1503 598.203 69.7781 599.059 69.7623 599.958C69.7465 600.857 70.0885 601.725 70.713 602.372C71.3376 603.019 72.1935 603.391 73.0925 603.407C73.9915 603.423 74.8599 603.081 75.5068 602.456C85.8727 611.505 96.2867 620.718 107.008 629.849C118.542 639.686 130.268 649.12 141.811 658.318C141.75 658.579 141.718 658.847 141.715 659.115C141.711 659.956 142.01 660.77 142.556 661.409C143.103 662.048 143.86 662.469 144.691 662.595C145.523 662.722 146.371 662.545 147.083 662.098C147.795 661.65 148.322 660.962 148.568 660.158C159.929 662.648 171.41 665.248 183.112 667.641C195.914 670.265 208.697 672.447 221.216 674.523C221.407 675.176 221.787 675.758 222.308 676.195C222.829 676.632 223.469 676.905 224.145 676.979C224.821 677.053 225.504 676.925 226.108 676.611C226.712 676.297 227.208 675.811 227.536 675.215C249.56 672.653 271.585 669.789 293.163 666.737C293.535 667.142 294.021 667.425 294.557 667.549C295.093 667.673 295.654 667.632 296.167 667.431C296.679 667.23 297.119 666.88 297.428 666.425C297.738 665.97 297.903 665.432 297.901 664.882C297.898 664.745 297.885 664.609 297.863 664.474C313.212 651.498 328.619 638.422 343.863 625.226C359.639 611.59 375.233 597.927 390.647 584.237C391.373 584.516 392.176 584.519 392.904 584.244C393.632 583.97 394.234 583.439 394.596 582.75C394.958 582.062 395.055 581.264 394.868 580.509C394.682 579.754 394.224 579.094 393.583 578.653C399.547 553.711 405.521 528.674 411.292 503.54C417.299 477.419 423.105 451.386 428.708 425.442C429.292 425.256 429.802 424.892 430.167 424.4C430.532 423.909 430.733 423.315 430.741 422.703ZM143.921 270.159L115.687 226.115C115.96 225.867 116.187 225.575 116.36 225.25L118.989 226.129C118.907 226.59 118.929 227.063 119.052 227.515C119.175 227.967 119.396 228.385 119.7 228.741C120.005 229.097 120.384 229.381 120.811 229.572C121.238 229.764 121.702 229.858 122.17 229.849C122.497 229.846 122.822 229.791 123.131 229.685L136.539 255.795L143.921 270.159ZM388.59 581.292C388.59 581.33 388.59 581.364 388.59 581.402L293.297 601.255L377.359 565.788C377.791 566.489 378.465 567.007 379.253 567.245C380.041 567.482 380.889 567.422 381.636 567.076L389.575 578.985C389.263 579.282 389.015 579.64 388.845 580.037C388.676 580.433 388.589 580.86 388.59 581.292ZM225.974 29.7385C226.273 29.7376 226.568 29.672 226.839 29.5463L230.568 34.0204C230.005 34.655 229.694 35.4739 229.694 36.3224C229.694 36.3608 229.694 36.3944 229.694 36.4281L185.068 44.8669L224.33 28.9167C224.522 29.1712 224.771 29.3778 225.056 29.5204C225.341 29.6629 225.655 29.7376 225.974 29.7385ZM378.094 561.367C377.592 561.764 377.216 562.298 377.012 562.905C376.808 563.511 376.785 564.164 376.946 564.784L290.774 601.139C290.671 600.97 290.554 600.809 290.424 600.659L352.547 522.325C353 522.593 353.508 522.753 354.032 522.792C354.556 522.831 355.083 522.749 355.57 522.551L371.909 550.655L378.094 561.367ZM93.2783 346.912L125.693 363.674L129.028 365.404C128.809 366.036 128.786 366.72 128.962 367.365C129.138 368.011 129.504 368.589 130.013 369.023L127.399 373.204L77.3137 452.806C77.2085 452.767 77.1009 452.735 76.9917 452.71L90.5439 348.344C91.0789 348.33 91.6037 348.194 92.0778 347.946C92.5519 347.698 92.9627 347.344 93.2783 346.912ZM145.305 98.9073C146.14 98.8856 146.939 98.5645 147.557 98.0025C148.174 97.4405 148.569 96.6751 148.669 95.8461L183.842 94.635C184.006 95.4365 184.468 96.1458 185.135 96.6198L123.367 222.943L144.815 100.95L145.305 98.9073ZM233.183 39.7969C233.549 39.7933 233.912 39.7317 234.259 39.6143L268.721 107.212C268.211 107.591 267.822 108.11 267.601 108.706L190.296 94.0487C190.296 94.0247 190.296 94.0055 190.296 93.9814C190.293 93.1846 189.997 92.4166 189.465 91.8237L231.462 39.3307C231.984 39.6366 232.578 39.7991 233.183 39.8017V39.7969ZM124.054 224.005L158.756 153.058L186.149 97.0907C186.446 97.183 186.756 97.2316 187.067 97.2349C187.163 97.2349 187.249 97.2349 187.346 97.2109L227.483 252.229C226.676 252.582 226.03 253.223 225.671 254.026L125.371 226.922C125.371 226.821 125.4 226.725 125.4 226.619C125.4 226.108 125.277 225.604 125.043 225.149C124.809 224.695 124.47 224.302 124.054 224.005ZM79.3081 456.16L82.7874 455.91L113.299 453.733C113.468 454.43 113.866 455.049 114.429 455.493C114.991 455.936 115.687 456.178 116.403 456.179C116.502 456.173 116.6 456.162 116.697 456.146L117.557 459.361L131.013 509.48C130.885 509.537 130.761 509.605 130.643 509.681L78.741 457.78C79.0701 457.299 79.2658 456.741 79.3081 456.16ZM225.244 270.03C225.244 270.006 225.277 269.991 225.292 269.967L226.829 270.635C234.716 274.36 242.472 278.089 250.214 281.607C257.764 285.043 265.448 288.287 273.282 291.54C273.287 291.714 273.304 291.888 273.334 292.059C270.84 294.5 268.346 296.99 265.9 299.546C263.978 301.531 262.132 303.545 260.292 305.549C259.834 305.375 259.343 305.305 258.855 305.342C258.366 305.38 257.892 305.524 257.466 305.765L248.739 296.365L225.244 270.03ZM118.076 455.699L159.299 502.958L192.565 541.068L168.209 529.476L135.05 512.892C135.124 512.635 135.164 512.37 135.17 512.104C135.17 511.339 134.866 510.605 134.325 510.065C133.785 509.524 133.051 509.22 132.286 509.22C132.214 509.22 132.147 509.22 132.075 509.22L117.744 455.862C117.855 455.824 117.97 455.761 118.071 455.699H118.076ZM134.564 513.848L168.272 530.702L192.219 543.278C192.189 543.455 192.171 543.633 192.166 543.812C192.168 544.642 192.466 545.445 193.007 546.075L179.863 567.951C179.728 567.956 179.593 567.969 179.459 567.989C172.429 558.974 165.494 550.208 158.348 541.649C150.63 532.427 142.599 523.282 134.535 513.906L134.564 513.848ZM193.819 540.827L118.883 454.983C119.329 454.448 119.586 453.782 119.613 453.087C119.641 452.391 119.439 451.706 119.037 451.138L190.705 380.826C191.182 381.182 191.743 381.41 192.334 381.489L195.097 540.323C194.641 540.4 194.205 540.566 193.814 540.813L193.819 540.827ZM262.425 309.84C262.689 309.07 262.659 308.229 262.339 307.481C264.828 305.232 267.279 303.011 269.653 300.753C271.758 298.749 273.815 296.687 275.901 294.577C276.084 294.613 276.271 294.633 276.458 294.635C276.53 294.635 276.597 294.635 276.665 294.635L305.095 330.86C300.29 328.557 295.455 326.249 290.592 323.935L262.425 309.84ZM255.697 308.509C255.697 308.605 255.669 308.701 255.669 308.797C255.671 309.554 255.923 310.289 256.385 310.888L194.862 375.126C194.27 374.707 193.563 374.482 192.839 374.482H192.805L178.719 290.901C179.093 290.617 179.392 290.245 179.589 289.82L202.777 295.514L255.697 308.509ZM261.805 570.791C249.926 570.455 238.123 570.152 226.397 569.988C211.874 569.777 197.37 569.758 182.756 569.772C182.722 569.7 182.684 569.633 182.646 569.566L195.073 547.272C195.279 547.312 195.488 547.333 195.698 547.334C196.319 547.333 196.929 547.168 197.466 546.854C198.003 546.541 198.447 546.092 198.754 545.551L201.402 546.57L261.805 570.791ZM195.866 376.236C195.79 376.106 195.707 375.981 195.616 375.861L199.84 371.45L257.158 311.642C257.528 311.904 257.946 312.09 258.388 312.189C258.83 312.289 259.287 312.3 259.734 312.223C260.18 312.146 260.607 311.981 260.989 311.739C261.372 311.497 261.703 311.181 261.964 310.811L289.909 324.781C295.035 327.466 300.186 330.157 305.36 332.855C305.332 333.004 305.316 333.155 305.312 333.307C305.316 333.468 305.334 333.629 305.365 333.787L202.887 373.516L195.866 376.236ZM223.091 271.12C223.564 271.117 224.029 270.988 224.436 270.746L247.754 296.86L256.298 306.813C256.156 307.014 256.035 307.23 255.938 307.457L194.112 292.27L179.844 288.767C179.844 288.714 179.844 288.666 179.844 288.613C179.84 288.397 179.815 288.181 179.767 287.969L220.885 269.977C221.133 270.331 221.463 270.62 221.847 270.819C222.231 271.019 222.658 271.122 223.091 271.12ZM191.637 374.679C191.143 374.854 190.695 375.137 190.324 375.507C189.954 375.877 189.67 376.324 189.494 376.818L135.67 366.567C135.67 366.533 135.67 366.5 135.67 366.466C135.666 365.698 135.402 364.954 134.92 364.356C142.129 352.107 149.289 339.895 156.353 327.621C163.043 316.014 169.688 304.32 176.288 292.54L191.637 374.679ZM132.262 369.873C132.964 369.872 133.648 369.655 134.222 369.25C134.796 368.846 135.231 368.275 135.468 367.615L189.292 377.865C189.289 377.905 189.289 377.945 189.292 377.985C189.292 378.724 189.526 379.444 189.96 380.042L118.278 450.374C118.039 450.205 117.779 450.069 117.504 449.97L132.185 369.878L132.262 369.873ZM271.628 569.345C271.075 569.175 270.486 569.154 269.922 569.284C269.357 569.414 268.837 569.69 268.413 570.085L201.897 545.575L199.177 544.528C199.232 544.282 199.259 544.03 199.259 543.778C199.256 543.363 199.18 542.951 199.033 542.562L210.519 536.195L312.602 479.617C312.674 479.708 312.746 479.804 312.828 479.891L293.86 522.003L271.628 569.345ZM312.381 475.719C312.067 476.247 311.901 476.85 311.9 477.464C311.904 477.871 311.979 478.274 312.121 478.656L226.748 525.973L198.509 541.62C197.945 540.894 197.119 540.418 196.207 540.294L195.554 502.713L193.42 381.479C194.078 381.363 194.689 381.063 195.184 380.614L311.449 474.999L312.381 475.719ZM279.404 292.525C279.527 292.191 279.592 291.838 279.596 291.482C279.594 291.251 279.566 291.021 279.515 290.795L290.794 286.095C291.103 286.604 291.538 287.025 292.058 287.317C292.577 287.609 293.163 287.763 293.759 287.763C293.91 287.758 294.061 287.744 294.21 287.719L306.465 329.472L279.404 292.525ZM269.831 287.181C263.103 284.178 256.245 281.188 249.311 278.329C241.41 275.071 233.524 271.985 225.734 268.91C225.763 268.751 225.779 268.59 225.782 268.429C225.781 268.002 225.678 267.581 225.482 267.201C225.285 266.822 225.001 266.495 224.652 266.247L227.949 258.827C228.244 258.914 228.55 258.959 228.857 258.962C229.768 258.962 230.642 258.607 231.294 257.972L247.427 270.193L269.831 287.181ZM123.91 532.34C124.254 531.641 124.352 530.846 124.189 530.085C124.026 529.323 123.611 528.638 123.011 528.14L131.234 514.785C131.562 514.912 131.91 514.979 132.262 514.982C132.651 514.983 133.035 514.905 133.392 514.751C140.076 523.642 146.809 532.667 153.782 541.635C160.304 550.04 166.989 558.253 173.635 566.298L139.418 542.927L123.91 532.34ZM181.843 573.737C182.181 573.475 182.463 573.148 182.674 572.776C196.443 573.208 210.278 573.612 224.109 573.848C238.724 574.107 253.256 574.194 267.649 574.227C267.753 574.42 267.874 574.603 268.01 574.775L216.257 631.819C215.832 631.536 215.346 631.357 214.839 631.298C214.332 631.238 213.818 631.3 213.34 631.478L201.556 609.852L181.843 573.737ZM273.012 568.931L295.148 521.806L315.115 480.958C315.197 480.958 315.274 480.958 315.36 480.958C315.958 480.947 316.543 480.782 317.057 480.477L332.233 492.712C332.195 492.907 332.174 493.105 332.171 493.304C332.174 493.723 332.255 494.139 332.411 494.529C322.247 506.644 312.318 518.591 302.745 530.731C293.932 541.899 285.195 553.346 276.314 564.851L273.012 568.931ZM330.936 398.592L196.352 378.009C196.35 377.756 196.321 377.503 196.265 377.255L305.744 334.835C305.998 335.244 306.352 335.581 306.772 335.816C307.193 336.05 307.666 336.174 308.147 336.176C308.32 336.173 308.492 336.155 308.661 336.123L332.402 396.752C331.704 397.165 331.183 397.82 330.936 398.592ZM290.375 283.389C290.293 283.682 290.249 283.984 290.246 284.288C290.249 284.565 290.284 284.841 290.351 285.11L279.072 289.81C278.829 289.423 278.504 289.095 278.119 288.848C277.734 288.602 277.3 288.443 276.847 288.384C276.394 288.325 275.933 288.366 275.498 288.506C275.063 288.645 274.664 288.879 274.329 289.19L274.219 289.142L239.617 262.927L232.889 257.847L268.562 273.706L290.375 283.389ZM226.94 258.4L225.763 261.057L223.653 265.805C223.463 265.765 223.27 265.744 223.076 265.743C222.364 265.743 221.68 266.026 221.177 266.53C220.673 267.033 220.39 267.717 220.39 268.429C220.389 268.617 220.408 268.803 220.447 268.987L191.017 281.895L183.102 285.36L226.258 257.785C226.462 258.019 226.696 258.226 226.954 258.4H226.94ZM131.123 369.676L126.769 393.436L116.442 449.764H116.403C115.611 449.765 114.846 450.06 114.259 450.593C113.672 451.126 113.304 451.858 113.227 452.647L79.236 455.079C79.0805 454.425 78.7263 453.836 78.222 453.392L130.946 369.614L131.123 369.676ZM129.864 510.45C129.472 511.026 129.301 511.724 129.383 512.416C129.465 513.107 129.795 513.746 130.311 514.213L122.098 527.559C121.236 527.203 120.269 527.203 119.407 527.559L78.7266 459.317L129.864 510.45ZM123.304 533.234L145.752 548.565L176.119 569.316L176.773 570.104C176.651 570.456 176.592 570.827 176.6 571.2C176.602 571.915 176.842 572.61 177.282 573.175L162.635 588.952C162.246 588.704 161.802 588.554 161.343 588.515C160.883 588.477 160.421 588.551 159.996 588.731L123.112 533.422C123.18 533.359 123.256 533.302 123.304 533.234ZM217.05 632.554L268.803 575.491C269.356 575.856 270.004 576.051 270.667 576.053C271.078 576.05 271.486 575.972 271.869 575.823L285.877 600.332C285.382 600.721 285.011 601.247 284.81 601.845C284.609 602.443 284.588 603.086 284.748 603.696L217.256 632.823C217.193 632.73 217.124 632.64 217.05 632.554ZM287.968 599.582C287.574 599.587 287.183 599.66 286.814 599.798L272.806 575.289C273.204 574.971 273.526 574.568 273.748 574.109C273.971 573.649 274.087 573.146 274.089 572.636C274.087 572.169 273.991 571.706 273.805 571.276L351.658 521.624L351.711 521.686L289.573 600.034C289.086 599.746 288.533 599.59 287.968 599.582ZM351.802 516.775C351.292 517.277 350.946 517.922 350.812 518.625C350.678 519.329 350.762 520.056 351.053 520.711L273.2 570.359L273.628 569.835C283.489 558.426 293.509 546.955 303.423 535.205C314.241 522.426 324.698 509.451 334.92 496.653C335.112 496.689 335.306 496.708 335.501 496.711C336.025 496.708 336.54 496.581 337.005 496.341L346.271 509.172L351.802 516.775ZM315.062 474.004C314.309 474.065 313.596 474.373 313.035 474.878L195.861 379.773C195.991 379.548 196.095 379.309 196.174 379.062L330.734 399.659C330.743 400.312 330.942 400.948 331.306 401.49C331.671 402.032 332.185 402.456 332.786 402.711L322.896 443.848L315.062 474.004ZM293.735 280.799C293.152 280.8 292.58 280.946 292.069 281.225C291.557 281.503 291.124 281.906 290.808 282.395L277.77 276.609L232.236 256.372C232.323 256.077 232.368 255.771 232.37 255.463C232.37 255.377 232.37 255.3 232.346 255.214L319.292 235.15C319.52 235.716 319.893 236.214 320.373 236.591L294.97 281.044C294.577 280.886 294.158 280.803 293.735 280.799ZM174.072 288.277C174.052 288.388 174.039 288.5 174.034 288.613C174.037 289.151 174.19 289.677 174.476 290.132C167.242 302.483 160.033 314.926 152.85 327.463C146.478 338.593 140.168 349.747 133.92 360.925L149.414 283.462H149.563C150.216 283.461 150.857 283.277 151.411 282.931C151.966 282.586 152.412 282.092 152.701 281.506L154.883 282.198L174.072 288.277ZM163.625 592.724C163.887 592.25 164.007 591.71 163.968 591.169C163.93 590.628 163.735 590.11 163.408 589.678L178.042 573.905C178.455 574.183 178.928 574.359 179.422 574.42C179.917 574.481 180.418 574.425 180.887 574.256L212.379 631.997L212.215 632.131L195.732 618.776L163.625 592.724ZM333.92 490.06L318.71 478.406C318.924 477.683 318.891 476.909 318.618 476.207C318.345 475.504 317.847 474.912 317.201 474.523L323.814 444.679L333.627 403.907L333.699 408.444C333.497 421.766 333.219 434.943 333.219 447.966C333.151 461.85 333.502 475.825 333.92 490.06ZM310.891 332.542C310.725 331.943 310.368 331.414 309.873 331.036C309.379 330.659 308.774 330.454 308.152 330.452C308.062 330.457 307.972 330.466 307.883 330.481L295.224 287.436C295.466 287.318 295.693 287.173 295.902 287.003L341.321 328.51C341.007 328.998 340.821 329.556 340.778 330.135L314.274 332.254L310.891 332.542ZM229.29 251.984C229.147 251.96 229.002 251.945 228.857 251.941C228.742 251.941 228.632 251.965 228.516 251.974L205.915 164.698L188.369 96.937C188.763 96.76 189.117 96.5065 189.411 96.1914C189.706 95.8762 189.935 95.5056 190.085 95.1012L195.611 96.1488L267.39 109.759C267.39 109.759 267.39 109.807 267.39 109.831C267.391 110.449 267.568 111.054 267.899 111.576C268.229 112.098 268.701 112.516 269.259 112.781L245.658 194.959L229.29 251.984ZM179.061 286.629C178.747 286.294 178.358 286.04 177.927 285.885C177.495 285.731 177.033 285.682 176.579 285.743C176.125 285.803 175.691 285.97 175.315 286.231C174.938 286.492 174.629 286.839 174.413 287.244L157.752 281.957L153.023 280.463C153.056 280.29 153.073 280.115 153.076 279.939C153.072 279.77 153.056 279.601 153.028 279.434L225.191 257.131L179.061 286.629ZM161.058 594.267H161.097C161.774 594.265 162.428 594.021 162.942 593.58L195.953 620.348L211.542 632.987C211.25 633.489 211.094 634.059 211.091 634.64C211.088 634.678 211.088 634.717 211.091 634.755L152.461 646.481C152.304 646.079 152.066 645.714 151.762 645.408C151.458 645.102 151.094 644.862 150.692 644.703L161.029 594.315L161.058 594.267ZM354.287 515.77C353.729 515.775 353.181 515.912 352.687 516.169L337.933 495.74C338.467 495.204 338.805 494.504 338.893 493.752C338.98 493.001 338.811 492.241 338.414 491.598L406.794 432.578L355.652 516.025C355.22 515.843 354.756 515.75 354.287 515.751V515.77ZM337.697 490.781C337.505 490.617 337.293 490.477 337.068 490.362C337.068 475.465 336.948 460.279 336.458 445.016C336.006 430.863 335.314 416.859 334.694 403.004V402.937C335.159 402.851 335.602 402.668 335.992 402.4C336.382 402.131 336.711 401.784 336.957 401.38L348.928 406.214L406.208 429.344C406.169 429.534 406.15 429.727 406.15 429.921C406.157 430.428 406.296 430.925 406.554 431.363L374.058 459.394L337.697 490.781ZM334.045 396.271C333.83 396.275 333.616 396.299 333.406 396.343L309.675 335.719C310.035 335.49 310.338 335.184 310.563 334.822C310.787 334.46 310.927 334.052 310.973 333.629L320.469 332.869L340.86 331.235C340.999 331.811 341.286 332.34 341.691 332.772C342.096 333.204 342.606 333.524 343.171 333.701L337.683 371.329L334.045 396.271ZM344.195 326.973C343.418 326.975 342.665 327.243 342.061 327.732L308.724 297.273L296.642 286.22C296.707 286.114 296.766 286.005 296.82 285.893L359.53 306.789C359.494 306.975 359.475 307.165 359.472 307.356C359.473 308.209 359.792 309.031 360.366 309.662L345.91 327.444C345.39 327.14 344.797 326.981 344.195 326.982V326.973ZM359.876 305.755L297.166 284.865C297.202 284.678 297.221 284.488 297.224 284.298C297.222 283.776 297.103 283.261 296.875 282.792C296.647 282.323 296.316 281.911 295.907 281.587L321.31 237.134C321.711 237.291 322.138 237.372 322.569 237.375C322.979 237.371 323.386 237.296 323.77 237.154L360.823 304.636C360.429 304.939 360.106 305.325 359.876 305.765V305.755ZM320.724 230.824C320.208 231.138 319.782 231.579 319.485 232.105C319.189 232.631 319.033 233.224 319.032 233.828C319.032 233.915 319.032 233.996 319.032 234.083L232.116 254.147C231.779 253.319 231.142 252.65 230.333 252.272L232.005 246.457L270.312 113.084C270.432 113.084 270.552 113.118 270.677 113.118C270.929 113.117 271.181 113.086 271.427 113.027L280.985 135.863L320.724 230.824ZM122.17 223.39C121.586 223.391 121.013 223.551 120.514 223.853C120.014 224.155 119.606 224.588 119.335 225.106L116.701 224.226C116.729 224.067 116.745 223.907 116.749 223.746C116.747 222.961 116.458 222.204 115.937 221.617L140.682 118.236L122.19 223.39H122.17ZM148.352 283.25L132.387 363.059H132.258C131.724 363.059 131.198 363.185 130.722 363.426C130.246 363.667 129.834 364.017 129.518 364.448L105.802 352.183L93.7877 345.936C93.9823 345.381 94.0301 344.786 93.9266 344.207C93.823 343.629 93.5715 343.087 93.1966 342.634L147.626 282.895C147.854 283.04 148.098 283.159 148.352 283.25ZM29.6746 453.666L67.8705 455.915L72.7675 456.203C72.8528 457.011 73.2335 457.76 73.8366 458.304C74.4398 458.849 75.2228 459.151 76.0354 459.154C76.4466 459.151 76.8538 459.073 77.2368 458.923L118.484 528.126L118.398 528.198L29.4343 454.276C29.541 454.084 29.6218 453.879 29.6746 453.666ZM120.729 534.359C121.242 534.357 121.749 534.243 122.214 534.022L159.078 589.327C158.652 589.748 158.369 590.293 158.271 590.884L86.4878 592.215C86.3475 591.477 85.9592 590.809 85.3873 590.322L119.383 534.095C119.81 534.27 120.267 534.36 120.729 534.359ZM289.092 646.52L217.79 634.635C217.787 634.362 217.75 634.091 217.679 633.828L285.176 604.71C285.456 605.145 285.835 605.508 286.282 605.771C286.728 606.033 287.23 606.186 287.747 606.219L291.433 644.338C290.892 644.479 290.395 644.752 289.987 645.133C289.578 645.514 289.271 645.99 289.092 646.52ZM406.616 428.34L337.366 400.375C337.556 399.559 337.429 398.701 337.011 397.975C336.592 397.249 335.914 396.708 335.112 396.463L341.086 355.509L344.238 333.883C344.707 333.875 345.17 333.772 345.598 333.58L407.054 427.797C406.887 427.955 406.741 428.132 406.616 428.325V428.34ZM361.207 310.345C361.731 310.657 362.328 310.823 362.937 310.825C362.972 310.828 363.008 310.828 363.043 310.825L351.226 322.643L361.207 310.345ZM366.229 306.313L368.776 305.044L366.373 307.447C366.375 307.412 366.375 307.376 366.373 307.341C366.378 306.993 366.329 306.646 366.229 306.313ZM285.166 57.8136L271.042 106.601C270.918 106.581 270.793 106.568 270.667 106.563C270.341 106.57 270.017 106.625 269.706 106.726L269.447 106.222L235.23 39.1337C235.653 38.8236 236.001 38.423 236.249 37.9611L283.489 54.5841C283.458 54.7425 283.44 54.9033 283.436 55.0647C283.439 55.6388 283.602 56.2007 283.908 56.6866C284.214 57.1725 284.65 57.5629 285.166 57.8136ZM229.9 37.4805C230.052 37.9166 230.29 38.3172 230.602 38.6579L188.614 91.1509C188.153 90.8868 187.632 90.743 187.1 90.7328L180.853 49.6246C181.539 49.411 182.139 48.9831 182.565 48.4036C182.99 47.8242 183.219 47.1237 183.217 46.4048C183.217 46.3759 183.217 46.3471 183.217 46.3135L200.211 43.0984L229.9 37.4805ZM125.097 227.97L225.383 255.074C225.363 255.2 225.35 255.327 225.344 255.454C225.349 255.615 225.367 255.776 225.397 255.934L166.989 274.018L152.735 278.425C152.449 277.834 152.002 277.334 151.445 276.985C150.888 276.636 150.244 276.45 149.587 276.45C149.214 276.454 148.844 276.519 148.491 276.642L124.126 229.195C124.546 228.873 124.879 228.452 125.097 227.97ZM85.8535 376.039L75.9152 452.565C75.2641 452.588 74.6344 452.804 74.1063 453.186C73.5783 453.567 73.1758 454.098 72.9501 454.709L41.7129 448.706C41.7129 448.682 41.7129 448.663 41.7129 448.644C41.7112 448.146 41.5925 447.655 41.3663 447.21C41.1401 446.766 40.8127 446.382 40.4105 446.087L89.3905 348.175L89.4722 348.199L85.8535 376.039ZM38.5507 451.83C39.1974 451.83 39.8284 451.631 40.3593 451.262C40.8901 450.893 41.2953 450.37 41.5207 449.764L54.8517 452.33L67.8512 454.829L56.3752 454.156L29.737 452.589C29.7394 452.569 29.7394 452.548 29.737 452.527L35.8211 450.249C36.0982 450.728 36.4961 451.126 36.975 451.404C37.454 451.681 37.9973 451.828 38.5507 451.83ZM86.4974 593.306L158.281 591.975C158.378 592.433 158.585 592.861 158.885 593.221C159.185 593.581 159.568 593.862 160.001 594.041L149.654 644.501H149.563C148.938 644.502 148.327 644.689 147.809 645.039L145.843 643.814L86.089 594.464C86.2974 594.107 86.436 593.714 86.4974 593.306ZM152.696 647.673C152.696 647.673 152.696 647.635 152.696 647.611C152.696 647.587 152.696 647.562 152.696 647.538L211.326 635.812C211.563 636.45 211.99 637 212.548 637.388C213.106 637.776 213.77 637.984 214.45 637.985C214.611 637.981 214.772 637.965 214.93 637.937L220.073 654.214L221.634 659.168C221.003 659.49 220.496 660.012 220.193 660.653L218.751 660.624L167.195 650.532L152.696 647.673ZM226.099 660.841C225.863 660.236 225.45 659.717 224.914 659.351C224.378 658.985 223.744 658.789 223.095 658.789C222.949 658.793 222.803 658.808 222.658 658.832L215.954 637.6C216.735 637.202 217.328 636.511 217.602 635.678L288.905 647.558C288.905 647.558 288.905 647.659 288.905 647.711L267.385 652.195L226.099 660.841ZM380.243 560.584C379.828 560.588 379.417 560.667 379.031 560.819L358.059 524.695L356.507 522.027C356.914 521.704 357.243 521.294 357.472 520.827C357.7 520.361 357.822 519.849 357.828 519.329C357.834 518.81 357.724 518.295 357.506 517.824C357.289 517.352 356.969 516.934 356.57 516.602L407.88 432.886L380.411 560.627C380.363 560.598 380.295 560.584 380.238 560.584H380.243ZM368.123 303.04C368.128 303.394 368.186 303.746 368.296 304.083L365.753 305.352C365.432 304.905 365.009 304.541 364.519 304.291C364.03 304.04 363.487 303.909 362.937 303.91C362.538 303.912 362.143 303.985 361.769 304.126L327.601 241.887L369.17 300.57C368.84 300.891 368.577 301.275 368.397 301.699C368.217 302.124 368.124 302.579 368.123 303.04ZM325.275 231.574C324.86 231.056 324.303 230.67 323.673 230.462C323.042 230.255 322.365 230.236 321.723 230.406L274.493 117.578L334.603 222.116L334.703 222.496C334.132 222.972 333.728 223.618 333.55 224.34C333.372 225.062 333.429 225.822 333.714 226.509L331.791 227.672L325.275 231.574ZM333.536 218.089L272.738 112.363C273.096 112.07 273.388 111.704 273.594 111.29C273.801 110.876 273.917 110.423 273.935 109.96L300.588 106.486C300.795 107.192 301.224 107.811 301.812 108.253C302.4 108.695 303.115 108.935 303.851 108.937C303.976 108.931 304.102 108.919 304.226 108.898L313.135 141.039L333.536 218.089ZM302.226 102.512C301.698 102.791 301.253 103.204 300.935 103.71C300.618 104.217 300.44 104.798 300.419 105.395L280.471 107.995L273.791 108.889C273.66 108.457 273.44 108.056 273.147 107.713C272.853 107.37 272.492 107.091 272.085 106.894L286.204 58.1115C286.311 58.1301 286.418 58.1413 286.526 58.1452C286.687 58.142 286.848 58.126 287.007 58.0971L288.525 62.5232L302.226 102.512ZM291.308 47.4332L287.848 52.2726C287.436 52.0717 286.984 51.9665 286.526 51.965C285.98 51.966 285.444 52.1126 284.974 52.3897C284.503 52.6668 284.115 53.0643 283.849 53.5413L238.551 37.6247L290.275 45.0159C290.285 45.9267 290.657 46.7959 291.308 47.4332ZM178.373 49.4468C178.822 49.6696 179.314 49.7894 179.815 49.7976L186.062 90.9058C185.485 91.096 184.973 91.4447 184.585 91.9121C184.197 92.3795 183.948 92.9467 183.866 93.5489L148.693 94.7648C148.575 94.1702 148.303 93.6169 147.905 93.1597L171.77 58.818L178.373 49.4468ZM92.3893 341.914C91.9962 341.651 91.5538 341.471 91.0891 341.385C90.6244 341.299 90.1471 341.308 89.686 341.412C89.2249 341.516 88.7897 341.712 88.4068 341.989C88.0239 342.266 87.7013 342.618 87.4586 343.024L68.7643 335.335C68.8789 334.773 68.8219 334.191 68.6009 333.662L146.285 282.755L92.3893 341.914ZM227.493 661.653L247.605 657.462L289.131 648.812C289.371 649.456 289.803 650.011 290.369 650.402C290.934 650.792 291.606 651.001 292.293 650.999L294.186 662.359C293.69 662.552 293.26 662.886 292.951 663.32L240.526 662.201L227.493 661.653ZM425.008 421.929C424.937 422.178 424.9 422.435 424.897 422.693C424.898 422.869 424.915 423.044 424.95 423.217L411.552 428.369C411.189 427.778 410.628 427.336 409.97 427.122C409.311 426.908 408.597 426.936 407.957 427.201L348.366 335.839L354.993 343.158L425.008 421.929ZM314.149 140.741L305.249 108.62C305.755 108.382 306.194 108.025 306.529 107.578C306.864 107.132 307.085 106.61 307.172 106.058H311.977C312.056 106.548 312.242 107.015 312.522 107.424C312.802 107.834 313.169 108.176 313.597 108.427C318.652 136.651 323.891 164.847 329.273 193.186L314.149 140.741ZM312.602 103.569C312.305 103.987 312.111 104.47 312.035 104.977H307.229C307.105 104.174 306.698 103.442 306.081 102.913C305.464 102.384 304.678 102.093 303.865 102.094C303.67 102.096 303.475 102.115 303.284 102.151L288.891 60.2789L292.456 66.5263L312.602 103.569ZM140.413 89.0652C140.945 88.5199 141.271 87.8061 141.335 87.0465C141.398 86.287 141.194 85.5291 140.759 84.9034L176.11 50.7828L170.766 58.323L146.492 92.1745C145.964 91.9674 145.394 91.8927 144.83 91.9569C144.267 92.021 143.728 92.2221 143.26 92.5425C142.792 92.8629 142.41 93.2929 142.146 93.795C141.883 94.2972 141.747 94.8561 141.749 95.4232C141.75 96.0462 141.919 96.6574 142.238 97.1927C142.556 97.7279 143.013 98.1675 143.561 98.4652L125.554 169.071L140.413 89.0652ZM66.7651 337.492C67.4127 337.3 67.9722 336.887 68.3462 336.325L87.0453 344.014C86.873 344.694 86.9123 345.41 87.1579 346.067C87.4035 346.724 87.8437 347.29 88.4197 347.69L40.1847 444.175L47.326 414.485L66.7651 337.492ZM28.526 455.276C28.6029 455.223 28.6702 455.165 28.7422 455.108L117.706 529.01C117.266 529.726 117.1 530.578 117.24 531.406C117.379 532.235 117.815 532.985 118.465 533.518L84.4646 589.745C84.1124 589.604 83.7384 589.526 83.3593 589.514L56.9615 525.997L28.526 455.276ZM76.2853 601.336C76.4594 600.921 76.5492 600.475 76.5496 600.024C76.5481 599.824 76.5272 599.625 76.4871 599.428L81.6341 595.685C82.223 596.024 82.9037 596.169 83.5799 596.101C84.2561 596.031 84.8935 595.752 85.4017 595.3L131.056 632.996L139.654 640.099C130.95 634.88 122.252 629.695 113.631 624.577L76.2853 601.336ZM148.727 658.721C148.639 657.942 148.292 657.214 147.742 656.655L149.875 650.71C150.454 650.656 151.006 650.441 151.469 650.091C151.933 649.74 152.289 649.267 152.499 648.725L212.532 660.495C203.699 660.341 194.891 660.221 186.173 660.11L148.727 658.721ZM225.618 670.255L224.83 664.729C225.196 664.5 225.512 664.2 225.76 663.846C226.007 663.493 226.181 663.094 226.272 662.672L240.497 663.239L276.136 665.329C259.652 667.122 243.371 669.039 227.07 671.168C226.669 670.752 226.17 670.443 225.618 670.27V670.255ZM294.792 645.265C294.203 644.632 293.392 644.25 292.528 644.199L288.838 606.079C289.546 605.895 290.173 605.48 290.621 604.901C291.069 604.322 291.312 603.611 291.313 602.879C291.315 602.832 291.315 602.786 291.313 602.74L324.515 595.824L386.831 582.849L318.816 629.267L294.792 645.265ZM382.766 554.75L408.99 432.819H409.062C409.839 432.819 410.583 432.51 411.132 431.961C411.681 431.413 411.989 430.668 411.989 429.892C411.986 429.716 411.969 429.541 411.936 429.368L425.325 424.216C425.412 424.358 425.512 424.492 425.623 424.615L393.002 524.339L382.766 554.75ZM421.788 413.826L355.853 342.447L346.896 332.557C347.377 331.976 347.649 331.251 347.668 330.497C347.687 329.743 347.452 329.004 347.001 328.4L369.588 305.813C370.12 306.197 370.75 306.422 371.405 306.462C380.334 325.925 389.324 345.308 398.375 364.611C406.051 380.999 413.855 397.404 421.788 413.826ZM368.882 298.278L325.03 236.365C325.537 235.877 325.887 235.246 326.031 234.556C326.176 233.866 326.11 233.149 325.842 232.497L334.281 227.432C334.609 227.832 335.022 228.154 335.49 228.376C335.958 228.598 336.469 228.713 336.986 228.715C337.297 228.712 337.606 228.667 337.904 228.58L368.882 298.278ZM308.046 90.3964L293.379 65.9641L288.496 57.4147C288.826 57.1446 289.095 56.8088 289.286 56.4289C289.478 56.0489 289.589 55.6331 289.611 55.208C289.633 54.7828 289.567 54.3578 289.415 53.9599C289.264 53.5621 289.031 53.2001 288.732 52.8973L292.192 48.0531C292.611 48.2602 293.067 48.3811 293.533 48.4088C296.685 58.0202 299.824 67.5115 303.144 76.9403C304.733 81.4193 306.367 85.9046 308.046 90.3964ZM258.691 39.4124L236.672 36.2647C236.67 35.6486 236.503 35.0443 236.19 34.5138C235.877 33.9834 235.428 33.5461 234.889 33.247C234.351 32.9478 233.742 32.7977 233.126 32.812C232.51 32.8263 231.909 33.0046 231.385 33.3284L227.656 28.8543C227.694 28.7966 227.723 28.7389 227.757 28.6813L283.917 43.0167L258.691 39.4124ZM220.64 29.2435L182.732 44.6459C182.3 43.9525 181.63 43.44 180.848 43.2042L181.329 39.72V39.6816C182.207 39.6602 183.042 39.2964 183.655 38.6678C184.268 38.0393 184.611 37.1958 184.611 36.3175C184.611 36.2839 184.611 36.2551 184.611 36.2214L220.64 29.2435ZM179.546 39.1673C179.778 39.3033 180.025 39.4129 180.281 39.4941L179.777 43.0167C179.162 43.0242 178.561 43.1999 178.039 43.5248C177.517 43.8498 177.095 44.3115 176.817 44.8598C176.539 45.4081 176.416 46.0221 176.463 46.6351C176.51 47.2481 176.723 47.8366 177.081 48.3367L145.92 78.4205L179.546 39.1673ZM112.746 226.869C112.993 226.931 113.246 226.963 113.501 226.965C113.935 226.966 114.365 226.879 114.765 226.711L119.465 234.039L147.223 277.344C146.657 277.836 146.266 278.498 146.109 279.231C145.951 279.964 146.035 280.728 146.348 281.41L67.9906 332.749C67.8446 332.604 67.6835 332.475 67.51 332.365L112.746 226.869ZM48.5947 393.335C51.3436 385.04 54.0668 376.71 56.7644 368.345L46.2783 414.197L38.7574 445.482C38.6853 445.482 38.6228 445.482 38.5507 445.482C37.7086 445.482 36.9009 445.816 36.3045 446.41C35.7082 447.005 35.3719 447.811 35.3693 448.654C35.3714 448.852 35.3907 449.05 35.427 449.245L29.3526 451.537C29.2429 451.363 29.1139 451.202 28.9681 451.056L29.0162 450.927C35.6529 431.651 42.2319 412.529 48.5947 393.335ZM30.2993 462.59L56.2983 527.251L80.8796 590.528C80.2797 591.144 79.9436 591.97 79.9424 592.83C79.9437 593.032 79.9646 593.233 80.0049 593.431L74.7907 597.083C74.4482 596.89 74.0739 596.76 73.6854 596.699C66.5825 573.324 59.5277 550.28 52.0596 527.496C44.9856 505.991 37.5992 484.379 30.2993 462.59ZM78.3565 603.917L113.775 625.966C124.746 633.126 135.593 640.191 146.454 647.197C146.429 647.335 146.415 647.475 146.41 647.615C146.414 648.419 146.725 649.192 147.28 649.773L144.969 655.66C144.558 655.689 144.155 655.788 143.777 655.953C132.916 646.784 122.238 637.845 111.357 629.306C100.612 620.843 89.5058 612.481 78.3565 603.903V603.917ZM151.235 659.913L186.976 661.235C198.115 661.917 209.082 662.585 220.082 663.191C220.255 663.636 220.525 664.038 220.873 664.366C221.22 664.694 221.636 664.941 222.091 665.089L222.692 670.64C222.341 670.861 222.033 671.144 221.783 671.476C209.894 669.111 198.259 666.857 186.649 665.041C175.038 663.224 163.216 661.634 151.235 659.899V659.913ZM343.075 620.953C327.356 634.582 311.785 648.346 296.157 662.206L296.017 662.326C295.777 662.246 295.526 662.201 295.273 662.191L293.35 650.821C294.023 650.596 294.608 650.165 295.024 649.59C295.439 649.016 295.664 648.325 295.667 647.615C295.666 647.13 295.559 646.652 295.354 646.212L319.33 630.233L372.943 595.329C362.918 603.861 352.962 612.397 343.075 620.939V620.953ZM408.284 500.416C402.483 526.237 396.914 552.116 391.315 578.144C391.029 578.182 390.749 578.26 390.484 578.375L382.544 566.461C382.944 566.095 383.249 565.638 383.434 565.129C383.618 564.619 383.677 564.073 383.606 563.536C383.534 562.999 383.333 562.488 383.022 562.045C382.71 561.602 382.295 561.241 381.814 560.992L394.001 524.8L419.798 450.312C415.883 467.064 412.045 483.766 408.284 500.416Z" fill="white"/>
</g>
<defs>
<filter id="filter0_d_475_27" x="0.873623" y="0.826992" width="452.307" height="698.511" filterUnits="userSpaceOnUse" color-interpolation-filters="sRGB">
<feFlood flood-opacity="0" result="BackgroundImageFix"/>
<feColorMatrix in="SourceAlpha" type="matrix" values="0 0 0 0 0 0 0 0 0 0 0 0 0 0 0 0 0 0 127 0" result="hardAlpha"/>
<feOffset/>
<feGaussianBlur stdDeviation="11.92"/>
<feColorMatrix type="matrix" values="0 0 0 0 1 0 0 0 0 1 0 0 0 0 1 0 0 0 1 0"/>
<feBlend mode="normal" in2="BackgroundImageFix" result="effect1_dropShadow_475_27"/>
<feBlend mode="normal" in="SourceGraphic" in2="effect1_dropShadow_475_27" result="shape"/>
</filter>
<filter id="filter1_d_475_27" x="0.400723" y="1.78622" width="454.18" height="699.054" filterUnits="userSpaceOnUse" color-interpolation-filters="sRGB">
<feFlood flood-opacity="0" result="BackgroundImageFix"/>
<feColorMatrix in="SourceAlpha" type="matrix" values="0 0 0 0 0 0 0 0 0 0 0 0 0 0 0 0 0 0 127 0" result="hardAlpha"/>
<feOffset/>
<feGaussianBlur stdDeviation="11.92"/>
<feColorMatrix type="matrix" values="0 0 0 0 1 0 0 0 0 1 0 0 0 0 1 0 0 0 1 0"/>
<feBlend mode="normal" in2="BackgroundImageFix" result="effect1_dropShadow_475_27"/>
<feBlend mode="normal" in="SourceGraphic" in2="effect1_dropShadow_475_27" result="shape"/>
</filter>
</defs>
</svg>
