<svg width="466" height="493" viewBox="0 0 466 493" fill="none" xmlns="http://www.w3.org/2000/svg">
<g opacity="0.75">
<path opacity="0.75" d="M356.444 454.232L356.293 453.979L273.581 326.678L273.846 326.514C273.846 326.514 274.364 326.211 275.223 325.604C276.082 324.998 277.497 324.051 278.798 323.078L279.947 322.219L280.731 321.6L281.135 321.297C281.691 320.867 282.246 320.413 282.84 319.92C283.105 319.68 283.396 319.453 283.674 319.225C285.594 317.571 287.375 315.954 288.966 314.413C290.558 312.872 292.314 310.989 293.88 309.221C294.208 308.855 294.512 308.488 294.827 308.11C295.143 307.731 295.648 307.187 296.015 306.72L296.482 306.152C296.646 305.95 296.811 305.735 296.987 305.533L297.859 304.396C298.263 303.916 298.604 303.461 298.92 303.019C299.072 302.817 299.211 302.602 299.362 302.413C299.665 302.021 299.918 301.667 300.158 301.339C300.398 301.011 300.385 301.011 300.512 300.846C300.638 300.682 300.764 300.48 300.878 300.303C300.995 300.153 301.105 299.997 301.206 299.836L301.459 299.469L301.636 299.229L301.876 299.381L427.345 384.846L426.549 386.021C426.347 386.35 426.044 386.741 425.728 387.208L424.756 388.598C424.516 388.901 424.301 389.242 424.048 389.596C423.404 390.48 422.697 391.491 421.876 392.564L421.042 393.701C420.158 394.964 419.16 396.227 418.061 397.629L415.825 400.472C415.32 401.116 414.79 401.735 414.246 402.43L413.387 403.491C412.048 405.12 410.621 406.775 409.105 408.543L407.943 409.882C403.901 414.442 399.695 418.888 395.413 423.095C391.131 427.301 386.571 431.394 381.935 435.373L381.101 436.055C379.131 437.71 377.312 439.251 375.429 440.678C375.051 440.968 374.672 441.259 374.305 441.562L372.373 443.065L371.109 444.038C370.579 444.455 370.048 444.859 369.505 445.301C365.451 448.32 362.28 450.505 360.309 451.806L359.451 452.387L357.632 453.423L356.684 454.03L356.444 454.232ZM274.427 326.855L356.634 453.423C356.798 453.335 357.013 453.171 357.316 452.994C357.619 452.817 358.339 452.299 359.072 451.832L359.931 451.238C361.876 449.975 365.059 447.764 369.101 444.758L370.705 443.495L371.968 442.522C372.608 442.042 373.253 441.55 373.901 441.044L375.025 440.16C376.869 438.72 378.726 437.192 380.684 435.55L381.518 434.855C386.192 430.888 390.714 426.758 394.958 422.615C399.202 418.472 403.434 413.975 407.463 409.44L408.625 408.088C410.141 406.358 411.556 404.716 412.882 403.036L413.754 401.962L415.333 400.03C416.103 399.044 416.836 398.084 417.556 397.175C418.642 395.811 419.64 394.459 420.524 393.259L421.371 392.122C422.192 391.061 422.886 390.038 423.505 389.166L424.238 388.168C424.592 387.651 424.907 387.183 425.198 386.779C425.488 386.375 425.804 385.92 426.019 385.604L426.486 384.922L301.762 299.987L301.686 300.101C301.611 300.227 301.484 300.404 301.345 300.594C301.206 300.783 301.118 300.935 300.979 301.112L300.613 301.63C300.385 301.945 300.133 302.299 299.817 302.703L299.387 303.31C299.059 303.752 298.718 304.219 298.301 304.712L297.442 305.836L296.924 306.467L296.457 307.023C296.103 307.503 295.686 307.958 295.194 308.438C294.701 308.918 294.562 309.171 294.272 309.537C292.667 311.318 291.013 313.074 289.295 314.766C287.577 316.459 285.909 317.949 283.977 319.604C283.699 319.857 283.408 320.084 283.143 320.312C282.549 320.804 281.981 321.272 281.413 321.701L281.034 322.004C280.743 322.219 280.491 322.446 280.213 322.636L279.076 323.495C277.813 324.467 276.474 325.39 275.476 326.021C275.046 326.463 274.667 326.716 274.427 326.855Z" fill="white"/>
</g>
<g opacity="0.51">
<path opacity="0.51" d="M344.811 491.684L344.608 491.331L267.354 337.983L267.707 337.794L268.364 337.465L268.655 337.326C269.034 337.124 269.552 336.872 270.145 336.53L270.916 336.126L271.446 335.836L272.293 335.356L272.912 335.002L273.493 334.661L273.733 334.522L274.149 334.269C274.288 334.178 274.432 334.094 274.579 334.017L275.122 333.688L275.956 333.17C276.109 333.094 276.253 333.001 276.385 332.893C279.177 331.137 282.082 329.103 284.798 326.968C287.886 324.553 290.838 321.968 293.64 319.225C296.461 316.457 299.126 313.534 301.623 310.472C303.834 307.743 305.956 304.863 307.737 302.16C307.813 302.034 307.901 301.92 307.977 301.806L308.065 301.693C308.154 301.528 308.251 301.367 308.356 301.213L309.177 299.949C309.265 299.798 309.379 299.646 309.467 299.495L309.947 298.686C310.086 298.434 310.238 298.194 310.402 297.954L310.844 297.221C311.097 296.754 311.337 296.324 311.564 295.958C311.792 295.592 312.133 294.947 312.335 294.568L312.562 294.177L312.891 293.533L313.105 293.192L313.446 293.381L465.025 374.135L463.472 376.989C462.916 378.013 462.208 379.326 461.299 380.88L459.745 383.621L459.392 384.215C458.798 385.25 458.128 386.337 457.434 387.499L455.741 390.265C455.526 390.632 455.274 390.998 455.046 391.364L454.326 392.501L452.811 394.863C452.558 395.242 452.305 395.646 452.053 396.05L451.219 397.314C446.305 404.741 440.886 412.105 435.101 419.204C428.541 427.268 421.532 434.956 414.107 442.232C406.671 449.504 398.836 456.357 390.638 462.758C383.438 468.379 375.935 473.646 368.331 478.459C367.901 478.724 367.509 478.964 367.067 479.242C366.625 479.52 366.448 479.634 366.158 479.798L365.804 480L364.301 480.922L362.381 482.084C361.977 482.337 361.56 482.577 361.118 482.817L360.423 483.234L358.92 484.093L358.276 484.459L355.105 486.265L354.486 486.594L351.707 488.109C349.724 489.196 348.082 490.029 346.996 490.573H346.907L345.215 491.432L344.811 491.684ZM268.44 338.324L345.164 490.598L346.503 489.903H346.592C347.741 489.322 349.295 488.526 351.265 487.377L354.044 485.874L354.663 485.545C355.712 484.977 356.798 484.345 357.935 483.688L358.592 483.309C359.084 483.019 359.577 482.728 360.095 482.451L360.789 482.046L362.053 481.314L363.96 480.152L365.476 479.229L365.817 479.015L366.714 478.472C367.105 478.206 367.522 477.941 367.977 477.688C375.556 472.901 383.046 467.583 390.221 462.038C398.398 455.654 406.213 448.818 413.627 441.562C421.03 434.311 428.018 426.648 434.558 418.611C440.242 411.638 445.8 404.084 450.638 396.783L451.459 395.52C451.712 395.116 451.964 394.712 452.229 394.257L453.72 391.92L454.44 390.796L455.135 389.684L456.802 386.956C457.497 385.794 458.154 384.72 458.747 383.697L459.101 383.091L460.667 380.362C461.552 378.808 462.259 377.507 462.827 376.497L463.989 374.337L313.421 294.265C313.421 294.354 313.32 294.442 313.244 294.543L313.055 294.947C312.84 295.326 312.6 295.806 312.259 296.362C311.918 296.918 311.792 297.17 311.539 297.625C311.387 297.878 311.223 298.13 311.084 298.396C310.945 298.661 310.794 298.863 310.642 299.116L310.149 299.924L309.846 300.404L309.025 301.667C308.921 301.807 308.828 301.955 308.747 302.109L308.634 302.286C308.558 302.375 308.482 302.488 308.406 302.589C306.613 305.318 304.478 308.223 302.229 310.989C297.223 317.151 291.536 322.727 285.278 327.613C282.559 329.733 279.734 331.715 276.815 333.549L276.347 333.865L275.514 334.37L274.971 334.712L274.554 334.952L274.099 335.229L273.859 335.356L273.278 335.684L272.672 336.05L271.787 336.543L271.257 336.821L270.512 337.238C269.905 337.579 269.387 337.832 268.983 338.046L268.705 338.185L268.44 338.324Z" fill="white"/>
</g>
<g opacity="0.5">
<path opacity="0.5" d="M179.905 451.402L177.947 450.998L176.848 450.758L173.337 449.987L172.263 449.722C171.568 449.571 170.836 449.406 170.065 449.204L166.276 448.206C165.594 448.042 164.886 447.84 164.166 447.625L161.968 447.006C160.705 446.665 159.505 446.274 158.179 445.869L157.143 445.541C149.597 443.164 142.195 440.35 134.975 437.116L130.592 435.095L128.381 434.034C128.065 433.882 127.775 433.756 127.459 433.592L126.714 433.2C126.448 433.086 126.196 432.947 125.956 432.834C124.945 432.316 123.935 431.798 122.937 431.267L121.674 430.623L119.855 429.651L118.352 428.842L113.299 425.962L110.836 424.459L107.602 422.438C106.718 421.882 105.834 421.326 104.949 420.745L103.573 419.823C102.145 418.863 100.693 417.891 99.2779 416.867C95.2232 414.051 91.4463 411.095 88.5916 408.834C82.4339 403.869 76.5515 398.573 70.9705 392.968C65.9179 387.916 62.1284 383.469 59.6021 380.589L55.3453 375.398L55.6232 375.183L142.579 306L142.794 306.278L143.286 306.897L143.728 307.427L144.701 308.602C145.8 309.865 147.657 312.025 150.057 314.438C152.699 317.09 155.482 319.599 158.394 321.954L158.646 322.156C160.2 323.356 161.779 324.606 163.472 325.768C163.977 326.135 164.52 326.488 165.025 326.842C165.531 327.196 165.796 327.347 166.162 327.625L168.221 328.888L168.928 329.305L170.848 330.442L171.745 330.973L173.198 331.768L173.931 332.16L174.625 332.552L176.053 333.272L176.368 333.448C176.507 333.448 176.621 333.575 176.747 333.625L177.467 333.966L180.297 335.229C183.696 336.75 187.18 338.075 190.731 339.196C191.046 339.284 191.349 339.373 191.665 339.486C191.981 339.6 192.537 339.764 192.928 339.865L193.825 340.131H193.977C194.318 340.232 194.646 340.333 194.962 340.408L196.768 340.876L198.107 341.192H198.284C198.954 341.368 199.547 341.469 199.977 341.558L201.543 341.886L179.905 451.402ZM56.4316 375.499L58.1621 377.634L60.2463 380.16C62.6842 383.04 66.5621 387.436 71.5389 392.488C77.0968 398.079 82.9628 403.355 89.1095 408.291C91.9389 410.552 95.7158 413.507 99.7579 416.312C101.16 417.322 102.613 418.307 104.027 419.267L105.429 420.177C106.288 420.758 107.16 421.314 108.044 421.882L111.316 423.865C112.137 424.371 112.958 424.876 113.842 425.356L114.335 425.659L118.832 428.185C119.324 428.451 119.842 428.716 120.335 428.994L122.141 429.966L123.404 430.611L126.436 432.164C126.688 432.278 126.928 432.417 127.181 432.556L127.939 432.922L128.836 433.352L132.436 435.082L135.417 436.421C142.616 439.652 149.997 442.461 157.522 444.834L158.545 445.162C159.808 445.566 161.072 445.958 162.335 446.286L164.533 446.918C165.278 447.133 165.96 447.309 166.629 447.486L170.419 448.484L172.592 449.002L173.665 449.255C175.042 449.583 176.192 449.836 177.164 450.038L178.263 450.253L179.526 450.531L201 342.568L200.103 342.392C199.648 342.291 199.067 342.177 198.398 342H198.221L196.869 341.684C196.288 341.52 195.707 341.381 195.051 341.217L194.053 340.939H193.926C193.623 340.863 193.307 340.775 193.017 340.674C192.726 340.573 192.145 340.446 191.754 340.295C191.362 340.143 191.147 340.093 190.819 340.004C187.248 338.873 183.743 337.54 180.322 336.013L177.265 334.686L176.558 334.358L176.166 334.156L175.851 334.004C175.358 333.739 174.891 333.499 174.398 333.259L173.691 332.867C173.451 332.754 173.223 332.615 172.958 332.476L171.518 331.667L170.596 331.149L170.091 330.872L168.676 330L167.956 329.571L165.884 328.244L164.747 327.461C164.217 327.12 163.674 326.766 163.156 326.375C161.488 325.213 159.884 323.962 158.331 322.749L158.053 322.547C155.131 320.168 152.336 317.639 149.678 314.968C147.429 312.72 145.724 310.762 144.272 309.082L143.299 307.907L142.844 307.377C142.743 307.225 142.629 307.099 142.566 307.011L56.4316 375.499Z" fill="white"/>
</g>
<g opacity="0.5">
<path opacity="0.5" d="M410.798 173.217L411.493 175.099C411.594 175.415 411.733 175.768 411.872 176.16C412.2 177.069 412.63 178.194 413.072 179.545L413.425 180.581C413.653 181.263 413.905 181.971 414.133 182.728L415.333 186.518C415.547 187.2 415.737 187.895 415.952 188.64L416.583 190.825C416.937 192.088 417.265 193.288 417.606 194.615L417.884 195.676C419.854 203.337 421.381 211.106 422.457 218.943L423.051 223.718L423.341 226.168C423.341 226.509 423.404 226.851 423.429 227.179C423.455 227.507 423.493 227.735 423.505 228.025C423.518 228.316 423.505 228.594 423.594 228.859C423.682 229.983 423.771 231.12 423.872 232.257L423.96 233.621C423.96 234.303 424.048 234.985 424.099 235.68C424.149 236.375 424.162 236.817 424.187 237.385L424.402 243.158V246.051V249.84C424.402 250.888 424.402 251.937 424.402 252.985L424.326 254.64C424.326 256.358 424.225 258.126 424.099 259.857C423.859 264.783 423.354 269.558 422.924 273.183C421.99 281.033 420.606 288.822 418.781 296.514C417.152 303.486 415.446 309.082 414.309 312.695L412.137 319.011L411.796 318.884L307.105 281.722L307.219 281.381C307.323 281.143 307.412 280.898 307.484 280.648L307.712 279.992C307.825 279.587 308.002 279.107 308.179 278.552C308.697 276.935 309.543 274.232 310.314 270.909C311.167 267.264 311.821 263.574 312.272 259.857V259.541C312.474 257.596 312.701 255.575 312.777 253.541C312.84 252.897 312.853 252.278 312.878 251.646C312.903 251.015 312.878 250.724 312.878 250.269V247.819C312.878 247.554 312.878 247.263 312.878 246.998V244.775C312.878 244.421 312.878 244.08 312.878 243.726L312.789 242.084C312.789 241.819 312.789 241.528 312.789 241.251C312.789 240.973 312.789 240.72 312.789 240.467C312.726 239.937 312.701 239.406 312.651 238.863C312.651 238.749 312.651 238.611 312.651 238.497C312.651 238.383 312.651 238.219 312.651 238.08C312.651 237.941 312.651 237.537 312.562 237.297L312.196 234.189C311.692 230.5 310.971 226.843 310.036 223.238C309.935 222.922 309.872 222.606 309.783 222.303C309.695 222 309.556 221.406 309.429 221.04C309.303 220.674 309.24 220.408 309.177 220.118V219.979C309.088 219.638 309 219.309 308.899 219.006C308.684 218.362 308.507 217.743 308.331 217.213C308.154 216.682 308.04 216.328 307.901 215.949V215.773C307.686 215.116 307.484 214.51 307.32 214.143L306.764 212.64L410.798 173.217ZM411.72 318.152L412.604 315.625L413.653 312.505C414.777 308.931 416.469 303.347 418.112 296.387C419.917 288.722 421.301 280.963 422.255 273.145C422.659 269.533 423.164 264.771 423.417 259.857C423.531 258.139 423.594 256.358 423.632 254.665L423.695 253.011C423.695 251.962 423.695 250.914 423.695 249.878V246.088C423.695 245.128 423.695 244.156 423.695 243.196V242.627L423.493 237.436C423.493 236.893 423.417 236.312 423.392 235.743C423.366 235.175 423.316 234.328 423.316 233.634L423.227 232.282C423.152 231.145 423.051 230.021 422.949 228.909L422.874 228.051L422.798 227.217C422.798 226.888 422.722 226.56 422.697 226.219L422.267 222.253L421.813 219.006C420.745 211.195 419.227 203.451 417.265 195.815L416.987 194.766C416.659 193.503 416.343 192.24 415.977 190.977L415.333 188.754C415.131 188.034 414.928 187.339 414.726 186.682L413.463 182.893C413.248 182.147 412.983 181.44 412.768 180.771L412.402 179.722C411.96 178.383 411.543 177.196 411.215 176.349L410.836 175.301L410.381 174.038L307.383 212.905L307.699 213.752C307.876 214.194 308.078 214.75 308.293 215.406V215.596L308.747 216.859C308.912 217.415 309.101 217.996 309.303 218.64C309.417 218.956 309.493 219.297 309.594 219.638V219.777C309.682 220.067 309.771 220.371 309.872 220.686C309.973 221.002 310.112 221.545 310.225 221.949C310.339 222.354 310.377 222.568 310.465 222.884C311.396 226.516 312.122 230.198 312.638 233.912L313.017 237.032C313.017 237.284 313.017 237.562 313.105 237.827V238.257C313.098 238.375 313.098 238.493 313.105 238.611C313.105 239.166 313.194 239.697 313.244 240.227C313.244 240.505 313.244 240.771 313.244 241.036C313.244 241.301 313.244 241.579 313.244 241.857L313.32 243.512C313.32 243.865 313.32 244.219 313.32 244.573V245.154V246.808C313.32 247.086 313.32 247.364 313.32 247.642V250.168C313.32 250.636 313.32 251.091 313.32 251.533C313.32 252.189 313.32 252.796 313.219 253.453C313.131 255.499 312.916 257.52 312.714 259.478V259.819C312.246 263.56 311.589 267.274 310.743 270.947C309.998 274.017 309.253 276.518 308.596 278.627C308.394 279.183 308.242 279.676 308.103 280.08L307.888 280.75C307.888 280.914 307.775 281.065 307.737 281.166L411.72 318.152Z" fill="white"/>
</g>
<g opacity="0.43">
<path opacity="0.43" d="M6.70105 255.36L6.61263 253.339C6.61263 252.846 6.61263 252.253 6.53684 251.571V251.318C6.53684 250.674 6.53684 249.966 6.53684 249.196V248.564C6.43579 244.863 6.42316 238.888 6.86526 231.486C7.06737 228.126 7.39579 224.4 7.87579 220.118C7.87579 219.448 8.01474 218.779 8.10316 218.109C8.10316 217.756 8.19158 217.402 8.2421 217.048L8.78526 213.082C8.91158 212.312 9.02526 211.528 9.16421 210.745L9.24 210.253C9.36631 209.343 9.50526 208.421 9.69473 207.499L10.2884 204.215C10.4147 203.444 10.5789 202.686 10.7432 201.916L12.4737 194.16C13.7368 189.107 15 184.674 16.2632 180.619C19.0282 171.814 22.3529 163.194 26.2168 154.813C29.6009 147.509 33.3965 140.403 37.5853 133.528C40.5663 128.64 43.7116 123.853 46.9832 119.293C47.7789 118.206 48.4737 117.284 49.0421 116.526L49.8253 115.465C50.4821 114.568 50.861 114.101 50.861 114.101L51.0632 113.836L139.484 181.68L139.244 181.958C139.244 181.958 139.055 182.185 138.764 182.602C138.638 182.792 138.448 183.019 138.259 183.284L137.387 184.459C135.821 186.644 134.293 188.956 132.865 191.331C130.844 194.632 129.018 198.048 127.396 201.562C125.546 205.58 123.951 209.71 122.621 213.928C121.914 216.114 121.358 218.337 120.827 220.396L120.006 224.185C119.912 224.525 119.84 224.871 119.792 225.221C119.691 225.764 119.589 226.282 119.488 226.8C119.387 227.318 119.312 227.836 119.248 228.341C119.185 228.846 119.072 229.364 118.996 229.869L118.743 231.865C118.743 232.168 118.667 232.484 118.642 232.787C118.389 235.036 118.238 236.754 118.162 238.232C117.935 241.895 117.947 244.699 117.998 246.417V246.808V247.743V248.703V249.524V249.865L6.70105 255.36ZM51.0884 114.796C50.8989 115.023 50.6337 115.377 50.2674 115.869L49.4842 116.931C48.9158 117.688 48.2211 118.611 47.4379 119.697C44.1789 124.244 41.021 129.019 38.0526 133.844C29.1041 148.575 21.9742 164.336 16.8189 180.783C15.5558 184.838 14.2926 189.259 13.0295 194.286L11.3621 202.055C11.1979 202.813 11.0337 203.583 10.8947 204.341L10.3011 207.625C10.1242 208.535 9.98526 209.457 9.85895 210.354L9.77053 210.846C9.64421 211.642 9.53052 212.413 9.40421 213.183L9.10105 215.331L8.86105 217.213C8.86105 217.554 8.77263 217.907 8.73474 218.248C8.62105 218.918 8.54526 219.587 8.4821 220.244C8.02737 224.514 7.68631 228.227 7.49684 231.613C7.06737 238.989 7.08 244.939 7.15579 248.615V249.259C7.15579 250.029 7.15579 250.737 7.15579 251.368V251.634C7.15579 252.316 7.21895 252.897 7.24421 253.389V254.728L117.202 249.259C117.202 249.133 117.202 248.968 117.202 248.779V247.794C117.202 247.503 117.202 247.2 117.202 246.859V246.455C117.202 244.749 117.202 241.92 117.366 238.232C117.442 236.754 117.606 235.011 117.846 232.762C117.846 232.446 117.922 232.131 117.96 231.802L118.213 229.806C118.301 229.288 118.389 228.783 118.465 228.265C118.541 227.747 118.604 227.229 118.718 226.712C118.832 226.194 118.907 225.676 118.996 225.145L119.223 224.084L120.057 220.295C120.575 218.211 121.143 215.987 121.863 213.789C124.342 205.812 127.805 198.175 132.171 191.053C133.611 188.653 135.139 186.328 136.731 184.131C137.059 183.676 137.349 183.284 137.615 182.956C137.88 182.627 137.968 182.463 138.107 182.274L138.385 181.882L51.0884 114.796Z" fill="white"/>
</g>
<g opacity="0.74">
<path opacity="0.74" d="M310.011 200.968L309.872 200.627C309.872 200.627 309.758 200.387 309.543 199.971C309.404 199.729 309.278 199.48 309.164 199.225C308.987 198.872 308.773 198.467 308.52 197.962C307.257 195.638 305.994 193.364 304.566 191.179C302.561 188.043 300.385 185.02 298.048 182.122C297.808 181.832 297.556 181.541 297.328 181.251L295.712 179.356C295.472 179.078 295.244 178.8 294.992 178.522L293.362 176.792L292.996 176.413L291.669 175.036L290.785 174.164C290.318 173.684 289.838 173.204 289.333 172.749C287.766 171.234 286.124 169.819 284.444 168.379L283.699 167.773C283.105 167.293 282.549 166.813 281.943 166.371L281.476 166.004C281.223 165.802 280.971 165.6 280.705 165.411L279.442 164.476C279.177 164.261 278.912 164.072 278.646 163.882L278.229 163.579C277.989 163.427 277.775 163.263 277.547 163.112L276.992 162.707L275.728 161.886L275.122 161.495C274.958 161.368 274.756 161.255 274.579 161.141L273.922 160.724C273.354 160.358 272.785 159.979 272.204 159.663L271.509 159.234L270.701 158.754C270.448 158.627 270.221 158.488 269.994 158.362C269.766 158.236 269.286 157.945 268.933 157.756L267.935 157.2L266.975 156.682L266.444 156.417L266.065 156.215L265.282 155.823C264.995 155.661 264.7 155.513 264.398 155.381C264.044 155.192 263.703 155.04 263.375 154.888L262.958 154.686C262.68 154.535 262.427 154.421 262.187 154.307L261.808 154.131C261.48 154.004 261.177 153.865 260.962 153.764L260.406 153.512H260.255L259.914 153.385L260.065 153.044L304.44 51.2084L304.756 51.3221L305.173 51.4989L306.297 52.0042L308.103 52.8253L308.52 53.0147C309.126 53.2926 309.783 53.6084 310.566 53.9747L313.446 55.3389L313.585 55.4274C314.356 55.781 315.114 56.1726 315.947 56.6021L317.766 57.5368L319.029 58.2063L323.905 60.8842L327.695 63.0568L330.145 64.3705C331.573 65.2295 333.013 66.1263 334.503 67.0989L335.034 67.44L336.196 68.1853L336.309 68.2611L337.333 68.9432L337.573 69.1074C338.432 69.6758 339.278 70.2442 340.099 70.8379L341.867 72.101L343.269 73.0863C343.952 73.5916 344.646 74.0716 345.316 74.5768L347.956 76.5347C348.537 76.9642 349.093 77.4189 349.674 77.8737C349.977 78.101 350.267 78.3411 350.583 78.5684C352.225 79.8316 353.88 81.1958 355.472 82.5221L355.851 82.8253C359.918 86.2484 363.189 89.1411 366.158 92.021C367.421 93.1705 368.596 94.3832 369.783 95.5579L371.046 96.8211L373.446 99.3474L374.634 100.611L375.796 101.874L381.632 108.404L384.613 111.992C389.602 118.143 394.24 124.57 398.507 131.242C401.501 135.928 404.356 140.804 406.971 145.743C407.665 147.006 408.234 148.067 408.638 148.926L409.143 149.924C409.648 150.897 409.888 151.427 409.888 151.427L410.04 151.731L409.724 151.895L310.011 200.968ZM260.874 152.968L261.278 153.158L262.137 153.549L262.503 153.714C262.756 153.815 263.021 153.954 263.312 154.093L263.703 154.282C264.032 154.434 264.373 154.598 264.726 154.787C265.042 154.921 265.35 155.073 265.648 155.242L266.406 155.621L266.798 155.811L267.341 156.101L268.314 156.632L269.324 157.162L270.373 157.781C270.6 157.907 270.84 158.059 271.08 158.173L271.901 158.665L272.596 159.095C273.177 159.423 273.745 159.802 274.326 160.168L274.933 160.56L275.552 160.939L276.158 161.356L277.358 162.152C277.56 162.303 277.762 162.429 277.926 162.568L278.608 163.048L279.025 163.339C279.303 163.541 279.594 163.731 279.859 163.945L281.122 164.867L281.931 165.486L282.373 165.853C282.979 166.295 283.56 166.775 284.154 167.255L284.886 167.874C286.592 169.326 288.246 170.754 289.813 172.282C290.318 172.724 290.798 173.217 291.291 173.709C291.594 174 291.872 174.291 292.175 174.568L293.438 175.958L293.829 176.349L295.472 178.143C295.707 178.438 295.947 178.716 296.192 178.977L297.808 180.884L298.528 181.756C300.892 184.666 303.085 187.711 305.097 190.876C306.499 193.074 307.851 195.373 309.088 197.709C309.341 198.177 309.556 198.606 309.733 198.973L310.099 199.693C310.177 199.819 310.249 199.95 310.314 200.084L409.067 151.478C408.941 151.225 408.752 150.821 408.474 150.291L407.968 149.28C407.526 148.434 406.983 147.36 406.326 146.122C403.712 141.196 400.869 136.333 397.888 131.672C393.669 124.991 389.086 118.547 384.158 112.371L378.966 106.232L376.844 103.844L375.316 102.328L374.166 101.065L372.979 99.8021C372.196 98.9684 371.4 98.1347 370.592 97.2758L369.328 96.0126C368.154 94.8379 366.954 93.6379 365.716 92.4884C362.773 89.6463 359.501 86.7284 355.434 83.3179L355.08 83.0147C353.488 81.6884 351.834 80.3368 350.192 79.0863L349.282 78.3663C348.714 77.9116 348.145 77.4695 347.564 77.1032L345 75.1326C344.318 74.6274 343.636 74.1474 342.966 73.6674L341.552 72.6821C340.971 72.2526 340.377 71.8358 339.796 71.4189C338.949 70.8379 338.091 70.2568 337.269 69.7011L337.029 69.5368C336.701 69.3095 336.36 69.0695 336.006 68.8421L335.905 68.7789L334.756 68.0337L334.2 67.6926C332.709 66.7326 331.295 65.8232 329.855 64.9768L327.48 63.5495L322.996 61.0232L318.84 58.7621C318.411 58.5221 317.994 58.3074 317.577 58.1053L315.745 57.1705C314.924 56.7537 314.154 56.3495 313.396 55.9958L313.244 55.92L310.389 54.5432L308.343 53.5832L307.939 53.4063L306.12 52.5853L304.983 52.08L260.874 152.968Z" fill="white"/>
</g>
<g opacity="0.86">
<path opacity="0.86" d="M310.617 171.145L310.478 170.994C310.478 170.994 310.288 170.741 309.909 170.299L309.707 170.034C309.548 169.872 309.4 169.699 309.265 169.516L308.394 168.531L308.015 168.076C307.813 167.836 307.598 167.596 307.358 167.343L307.105 167.065L306.183 166.055L305.577 165.373L304.907 164.703C304.453 164.236 304.011 163.768 303.644 163.288C303.278 162.808 302.874 162.556 302.507 162.177C302.141 161.798 301.459 161.116 300.916 160.636L300.486 160.232C300.196 159.954 299.931 159.676 299.653 159.436L299.16 158.981L298.478 158.375L298.036 157.983L297.493 157.491L296.924 156.998L296.722 156.821L296.04 156.24L295.901 156.114L296.027 155.962L392.318 42.7832L392.482 42.9095L394.011 44.2358L395.754 45.7516C396.246 46.1558 396.752 46.6232 397.295 47.1158L398.015 47.7726C398.811 48.5053 399.707 49.3011 400.642 50.1474L402.802 52.1684L403.547 52.8884C405.101 54.3411 406.731 55.9579 408.297 57.5242C408.764 57.9916 409.232 58.4716 409.724 58.9389C413.88 63.2084 417.897 67.541 420.726 70.8379C421.434 71.6842 422.103 72.4547 422.697 73.1242L424.175 74.9053L425.615 76.6232L425.451 76.7621L310.617 171.145ZM296.406 156.063C296.52 156.164 296.684 156.328 296.912 156.518L297.126 156.695L297.695 157.187L298.251 157.68L298.68 158.084L299.362 158.691L299.855 159.133L300.701 159.941L301.131 160.345C301.661 160.825 302.192 161.343 302.722 161.899L303.859 163.011C304.314 163.491 304.756 163.958 305.211 164.413L305.855 165.095L306.486 165.777L307.396 166.775L307.661 167.078L308.318 167.823C308.454 167.961 308.581 168.109 308.697 168.265L309.581 169.263C309.733 169.453 309.872 169.629 310.011 169.781L310.225 170.046C310.427 170.274 310.579 170.476 310.667 170.589L424.983 76.5726L423.808 75.1705L422.331 73.3895L420.347 71.1158C417.518 67.8189 413.526 63.5368 409.358 59.2295L407.943 57.8147C406.389 56.2484 404.76 54.6316 403.206 53.1789L402.448 52.4716L400.326 50.4758L397.674 48.0884L396.966 47.4442C396.423 46.9516 395.918 46.4842 395.438 46.08L393.682 44.5642L392.305 43.3768L296.406 156.063Z" fill="white"/>
</g>
<g opacity="0.62">
<path opacity="0.62" d="M155.792 164.754L155.577 164.514L57.7832 44.0716L57.9853 43.8821L58.2 43.6926C58.3011 43.6295 58.44 43.5032 58.6295 43.3516L58.7937 43.2253L61.0421 41.4316C63.1642 39.7389 66.0947 37.541 69.2526 35.2295C77.7053 29.1156 86.5169 23.5139 95.64 18.4547L97.32 17.5453L99.3663 16.3705L103.156 14.4253L105 13.5158L106.857 12.5811L110.507 10.8253C111.518 10.3453 112.528 9.87789 113.501 9.44842L114.069 9.18316C115.257 8.66526 116.381 8.14737 117.505 7.64211L118.528 7.21263C120.411 6.41684 122.192 5.67158 123.872 4.98947C125.855 4.20632 127.661 3.48632 129.291 2.86737L133.509 1.32632L134.053 1.21263C135 0.871579 135.745 0.593684 136.288 0.416842L137.552 0L137.653 0.277895L187.611 147.12L187.333 147.196L186.979 147.335C186.733 147.401 186.492 147.485 186.259 147.587L185.691 147.789L184.213 148.32L182.053 149.154C178.242 150.707 174.526 152.483 170.924 154.472C167.313 156.477 163.825 158.695 160.478 161.116C159.063 162.152 157.952 162.973 157.206 163.642C156.84 163.945 156.512 164.185 156.309 164.349L156.082 164.526L155.792 164.754ZM58.5663 44.16L155.829 163.945L155.943 163.869L156.84 163.162C157.585 162.543 158.709 161.722 160.112 160.636C163.488 158.203 167.006 155.971 170.646 153.954C174.271 151.948 178.013 150.159 181.851 148.598C182.646 148.307 183.366 148.017 183.985 147.764L185.476 147.234L186.032 147.032L186.789 146.754H186.878L137.109 0.682105L136.415 0.922105C135.872 1.09895 135.152 1.36421 134.192 1.70526L133.699 1.86947L129.493 3.41053L124.086 5.53263C122.419 6.21474 120.625 6.96 118.756 7.75579L117.745 8.18526C116.621 8.67789 115.484 9.20842 114.322 9.72632L113.754 9.97895C112.768 10.4211 111.758 10.8758 110.773 11.3558L107.097 13.1242C106.478 13.4147 105.834 13.7179 105.253 14.0337L103.383 14.9937L99.5937 16.9263L97.5095 18.0632L95.8547 18.96C86.7916 24.0175 78.0353 29.6062 69.6316 35.6968C66.4611 37.9958 63.5558 40.1937 61.4463 41.8863L59.1474 43.68L58.9832 43.8063C58.8063 43.9326 58.68 44.0463 58.5663 44.16Z" fill="white"/>
</g>
<g opacity="0.69">
<path opacity="0.69" d="M219.745 492.808H216.714C215.931 492.808 215.008 492.808 213.947 492.745H212.293C211.029 492.745 209.653 492.682 208.137 492.581L203.653 492.328L202.023 492.202H201.707C199.535 492.038 197.274 491.861 194.836 491.571C189.657 491.065 183.884 490.307 177.695 489.171C163.473 486.666 149.496 482.93 135.922 478.004C128.343 475.263 120.84 472.093 113.451 468.543C106.061 464.994 98.5326 460.901 91.3453 456.518C84.1908 452.154 77.2639 447.428 70.5916 442.358C64.1368 437.469 57.8716 432.253 51.9474 426.72C46.3768 421.566 41.0211 416.097 35.9684 410.476C31.5347 405.537 27.1263 400.244 22.9453 394.737L20.1789 391.011C19.2947 389.747 18.4358 388.573 17.5895 387.41C16.7432 386.248 16.1747 385.389 15.5305 384.404L14.8611 383.432C14.2168 382.472 13.5979 381.549 12.9916 380.615L10.9579 377.469C10.8063 377.217 10.6421 376.977 10.4905 376.737C10.339 376.497 10.1621 376.232 10.0105 375.979L8.92421 374.198C7.85053 372.455 6.84 370.787 5.98106 369.259L4.9579 367.465C4.44 366.581 3.96 365.747 3.54316 364.939L1.42106 361.011L0.713687 359.672L0.157898 358.56L0.587372 358.32L128.015 292.168L128.242 292.585C128.242 292.585 128.242 292.686 128.381 292.888C128.52 293.091 128.608 293.331 128.798 293.659C128.987 293.987 129.139 294.278 129.328 294.632L129.556 295.036C129.72 295.364 129.909 295.705 130.124 296.072C130.339 296.438 130.427 296.564 130.566 296.829C130.705 297.095 131.097 297.714 131.375 298.194C131.526 298.459 131.716 298.737 131.867 299.027L132.246 299.646C132.246 299.76 132.398 299.861 132.461 299.987L133.484 301.566C133.636 301.819 133.813 302.059 133.977 302.312L134.419 302.956L134.747 303.461C134.962 303.777 135.177 304.08 135.404 304.383L136.819 306.379L137.665 307.465C141.326 312.302 145.405 316.808 149.855 320.931C160.101 330.396 172.122 337.738 185.223 342.53C188.179 343.617 191.248 344.564 194.331 345.373C197.413 346.181 200.141 346.775 202.655 347.204C204.891 347.571 207.493 347.987 209.779 348.177C210.549 348.291 211.269 348.341 211.964 348.392L213.467 348.518H213.96L215.337 348.594C215.855 348.594 216.322 348.594 216.739 348.594H217.939H218.848H220.68V349.086L220.225 492.657L219.745 492.808ZM1.42106 358.977C1.47317 359.056 1.51558 359.14 1.54737 359.229C1.73685 359.558 1.96421 360 2.26737 360.556L4.36421 364.345C4.76842 365.116 5.23579 365.924 5.75369 366.872C6.08211 367.427 6.42316 368.034 6.77684 368.653C7.63579 370.168 8.64632 371.811 9.70737 373.566L10.7937 375.347L11.2611 376.093L11.7411 376.838L13.7495 379.983C14.3432 380.893 15.0126 381.802 15.6189 382.762L16.2758 383.735C16.9326 384.707 17.6147 385.718 18.3347 386.703C19.1558 387.878 20.0147 389.078 20.8611 390.303L23.64 394.017C27.8337 399.499 32.1916 404.779 36.5874 409.693C41.64 415.301 46.9832 420.745 52.5411 425.874C64.594 437.06 77.7424 447.005 91.7874 455.558C98.9315 459.932 106.293 463.941 113.842 467.571C121.206 471.095 128.735 474.265 136.225 476.981C149.744 481.9 163.666 485.628 177.834 488.122C183.985 489.196 189.733 489.992 194.899 490.497C197.337 490.787 199.573 490.964 201.745 491.128H202.061L203.678 491.255L208.149 491.507C209.665 491.596 211.042 491.646 212.28 491.684H213.947C214.983 491.684 215.893 491.684 216.676 491.684C217.863 491.684 218.722 491.684 219.202 491.684L219.644 349.566H218.861C218.521 349.597 218.178 349.597 217.838 349.566H216.676C216.234 349.566 215.741 349.566 215.211 349.503L213.859 349.44H213.366L211.838 349.314C211.131 349.314 210.398 349.213 209.627 349.112C207.316 348.897 204.701 348.493 202.44 348.114C199.914 347.684 197.147 347.078 194.027 346.257C190.907 345.436 187.825 344.476 184.844 343.402C178.247 340.985 171.901 337.931 165.897 334.282C159.932 330.627 154.343 326.391 149.211 321.638C144.72 317.485 140.603 312.945 136.907 308.072C136.629 307.68 136.352 307.314 136.074 306.947L134.634 304.964C134.406 304.661 134.192 304.333 133.964 304.004L133.623 303.512C133.493 303.288 133.35 303.073 133.194 302.867C133.029 302.615 132.84 302.362 132.701 302.097L131.678 300.531L131.425 300.152C131.299 299.937 131.185 299.722 131.059 299.52C130.933 299.318 130.731 298.977 130.566 298.699C130.263 298.219 129.985 297.764 129.745 297.309L129.316 296.564C129.101 296.185 128.886 295.832 128.722 295.503L128.495 295.112L127.989 294.164C127.825 293.874 127.699 293.659 127.611 293.469L1.42106 358.977Z" fill="white"/>
</g>
<path opacity="0.86" d="M406.667 220.472C406.023 220.472 405.404 219.145 405.152 217.389C404.899 215.634 405.291 214.105 405.922 214.029C406.554 213.954 407.261 215.293 407.488 217.112C407.716 218.931 407.312 220.408 406.667 220.472Z" fill="white"/>
<path opacity="0.9" d="M407.514 231.979C406.844 231.979 406.25 230.589 406.25 228.821C406.25 227.053 406.528 225.562 407.185 225.512C407.842 225.461 408.448 226.888 408.575 228.669C408.701 230.451 408.158 231.954 407.514 231.979Z" fill="white"/>
<path opacity="0.72" d="M407.691 243.486C407.046 243.486 406.516 242.034 406.541 240.265C406.543 239.843 406.573 239.421 406.629 239.002C406.669 238.649 406.75 238.301 406.869 237.966C407.059 237.398 407.349 237.032 407.653 237.019C407.956 237.006 408.297 237.373 408.524 237.954C408.637 238.292 408.725 238.638 408.789 238.989C408.851 239.408 408.885 239.83 408.89 240.253C408.865 242.059 408.335 243.499 407.691 243.486Z" fill="white"/>
<path opacity="0.8" d="M407.185 254.968C406.857 254.968 406.592 254.564 406.427 253.971C406.23 253.23 406.157 252.461 406.213 251.697C406.326 249.916 406.92 248.514 407.552 248.526C408.183 248.539 408.651 250.029 408.549 251.823C408.532 252.603 408.373 253.373 408.082 254.097C407.829 254.653 407.514 254.994 407.185 254.968Z" fill="white"/>
<path opacity="0.83" d="M405.998 266.4C405.354 266.312 405.038 264.821 405.24 263.065C405.442 261.309 406.112 259.945 406.743 259.996C407.375 260.046 407.754 261.549 407.564 263.33C407.375 265.112 406.629 266.476 405.998 266.4Z" fill="white"/>
<path opacity="0.47" d="M404.179 277.718C403.535 277.604 403.269 276.088 403.585 274.358C403.656 273.929 403.762 273.507 403.901 273.095C404.002 272.757 404.137 272.431 404.305 272.122C404.608 271.592 404.949 271.263 405.265 271.326C405.581 271.39 405.821 271.781 405.935 272.4C406.006 272.749 406.036 273.105 406.023 273.461C406.024 273.886 405.977 274.31 405.884 274.724C405.632 276.581 404.811 277.844 404.179 277.718Z" fill="white"/>
<path opacity="0.71" d="M401.653 288.935C401.008 288.758 400.895 287.255 401.274 285.537C401.653 283.819 402.537 282.531 403.156 282.67C403.775 282.808 403.952 284.324 403.56 286.067C403.168 287.811 402.272 289.086 401.653 288.935Z" fill="white"/>
<path opacity="0.7" d="M398.482 299.987C397.863 299.773 397.787 298.244 398.318 296.552C398.848 294.859 399.72 293.621 400.339 293.811C400.958 294 401.072 295.516 400.579 297.234C400.086 298.952 399.088 300.164 398.482 299.987Z" fill="white"/>
<path opacity="0.5" d="M394.68 310.825C394.377 310.712 394.238 310.257 394.238 309.65C394.264 308.877 394.417 308.113 394.693 307.389C394.954 306.661 395.329 305.979 395.804 305.368C396.196 304.888 396.587 304.648 396.891 304.762C397.194 304.876 397.358 305.318 397.371 305.937C397.335 306.712 397.173 307.475 396.891 308.198C396.647 308.931 396.275 309.616 395.792 310.219C395.4 310.686 394.983 310.926 394.68 310.825Z" fill="white"/>
<path opacity="0.89" d="M390.234 321.436C389.64 321.158 389.766 319.655 390.461 318.013C391.156 316.371 392.192 315.259 392.798 315.486C393.404 315.714 393.303 317.255 392.621 318.935C391.939 320.615 390.802 321.676 390.234 321.436Z" fill="white"/>
<path opacity="0.51" d="M385.181 331.781C384.6 331.465 384.79 329.962 385.598 328.358C385.952 327.681 386.399 327.056 386.924 326.501C387.379 326.046 387.783 325.869 388.074 325.983C388.364 326.097 388.491 326.589 388.415 327.246C388.315 328.022 388.071 328.772 387.695 329.457C386.874 331.023 385.75 332.084 385.181 331.781Z" fill="white"/>
<path opacity="0.58" d="M379.509 341.811C379.232 341.634 379.168 341.179 379.295 340.547C379.368 340.207 379.47 339.873 379.598 339.55C379.76 339.16 379.946 338.78 380.154 338.413C381.025 336.884 382.213 335.886 382.768 336.202C383.324 336.518 383.072 338.021 382.162 339.575C381.965 339.954 381.732 340.313 381.467 340.648C381.234 340.92 380.981 341.173 380.709 341.406C380.229 341.811 379.8 341.975 379.509 341.811Z" fill="white"/>
<path opacity="0.83" d="M373.282 351.512C372.764 351.145 373.118 349.667 374.128 348.177C374.542 347.53 375.054 346.95 375.644 346.459C376.137 346.067 376.579 345.941 376.844 346.105C377.109 346.269 377.173 346.737 377.034 347.368C376.847 348.125 376.521 348.84 376.074 349.478C375.063 350.956 373.813 351.878 373.282 351.512Z" fill="white"/>
<path opacity="0.54" d="M366.474 360.834C365.968 360.429 366.474 358.989 367.484 357.549C368.495 356.109 369.846 355.288 370.352 355.642C370.857 355.996 370.44 357.499 369.366 358.939C368.293 360.379 367.017 361.213 366.474 360.834Z" fill="white"/>
<path opacity="0.47" d="M359.185 369.739C358.705 369.297 359.185 367.857 360.448 366.543C361.712 365.229 362.886 364.383 363.404 364.787C363.922 365.192 363.404 366.657 362.255 368.046C361.105 369.436 359.678 370.168 359.185 369.739Z" fill="white"/>
<path opacity="0.64" d="M351.316 378.202C351.076 377.987 351.139 377.545 351.392 376.939C351.706 376.246 352.133 375.61 352.655 375.057C353.179 374.489 353.794 374.011 354.474 373.642C355.029 373.352 355.484 373.288 355.737 373.49C355.989 373.693 355.952 374.173 355.737 374.754C355.394 375.455 354.937 376.095 354.385 376.648C353.867 377.226 353.251 377.709 352.566 378.076C352.074 378.379 351.606 378.429 351.316 378.202Z" fill="white"/>
<path opacity="0.46" d="M343.067 386.198C342.625 385.705 343.345 384.354 344.659 383.154C345.973 381.954 347.324 381.309 347.792 381.777C348.259 382.244 347.552 383.608 346.263 384.859C344.975 386.109 343.497 386.678 343.067 386.198Z" fill="white"/>
<path opacity="0.77" d="M334.339 393.714C333.947 393.208 334.718 391.869 336.082 390.758C337.446 389.646 338.861 389.053 339.291 389.495C339.72 389.937 338.975 391.364 337.585 392.501C336.196 393.638 334.756 394.206 334.339 393.714Z" fill="white"/>
<path opacity="0.8" d="M325.181 400.661C324.992 400.383 325.181 399.941 325.472 399.398C325.672 399.107 325.9 398.836 326.154 398.589C326.455 398.294 326.775 398.02 327.114 397.768C328.516 396.707 329.994 396.265 330.373 396.771C330.752 397.276 329.931 398.564 328.491 399.651C328.153 399.902 327.798 400.129 327.429 400.333C327.113 400.504 326.778 400.639 326.432 400.737C325.838 400.952 325.371 400.914 325.181 400.661Z" fill="white"/>
<path opacity="0.72" d="M315.644 407.078C315.316 406.522 316.225 405.31 317.728 404.35C318.371 403.927 319.074 403.603 319.813 403.39C320.394 403.225 320.848 403.263 321.076 403.541C321.303 403.819 321.076 404.248 320.76 404.804C320.292 405.432 319.704 405.961 319.029 406.358C317.501 407.293 315.947 407.634 315.644 407.078Z" fill="white"/>
<path opacity="0.9" d="M305.754 412.914C305.589 412.623 305.754 412.194 306.183 411.752C306.699 411.177 307.304 410.691 307.977 410.312C309.518 409.453 311.034 409.175 311.362 409.718C311.691 410.261 310.693 411.448 309.152 412.345C308.479 412.737 307.751 413.022 306.992 413.192C306.373 413.293 305.905 413.192 305.754 412.914Z" fill="white"/>
<path opacity="0.67" d="M295.535 418.156C295.269 417.575 296.331 416.476 297.909 415.693C299.488 414.91 301.004 414.707 301.307 415.288C301.611 415.869 300.562 416.994 298.958 417.815C297.354 418.636 295.813 418.724 295.535 418.156Z" fill="white"/>
<path opacity="0.68" d="M285.038 422.804C284.811 422.211 285.922 421.15 287.564 420.48C289.206 419.811 290.697 419.672 290.987 420.265C291.278 420.859 290.154 421.945 288.461 422.627C286.768 423.309 285.291 423.398 285.038 422.804Z" fill="white"/>
<path opacity="0.75" d="M274.263 426.796C274.061 426.164 275.261 425.255 276.903 424.636C278.545 424.017 280.112 424.055 280.326 424.636C280.541 425.217 279.379 426.215 277.699 426.821C276.019 427.427 274.478 427.402 274.263 426.796Z" fill="white"/>
<path opacity="0.8" d="M263.286 430.168C263.097 429.549 264.36 428.653 266.065 428.185C267.771 427.718 269.274 427.743 269.476 428.349C269.678 428.956 268.427 429.903 266.722 430.434C265.017 430.964 263.45 430.8 263.286 430.168Z" fill="white"/>
<path opacity="0.87" d="M252.095 432.922C251.968 432.303 253.257 431.457 254.987 431.065C256.718 430.674 258.234 430.813 258.398 431.457C258.562 432.101 257.274 432.973 255.518 433.339C253.762 433.705 252.234 433.554 252.095 432.922Z" fill="white"/>
<path opacity="0.85" d="M240.739 434.994C240.739 434.665 241.004 434.337 241.535 434.034C242.233 433.699 242.972 433.456 243.733 433.314C245.488 432.998 247.004 433.314 247.131 433.92C247.257 434.526 245.867 435.31 244.124 435.625C243.356 435.762 242.569 435.762 241.8 435.625C241.194 435.562 240.777 435.322 240.739 434.994Z" fill="white"/>
<path opacity="0.75" d="M229.257 436.421C229.194 435.764 230.52 435.158 232.352 434.931C234.183 434.703 235.623 435.057 235.712 435.701C235.8 436.345 234.448 437.04 232.604 437.267C230.76 437.495 229.32 437.002 229.257 436.421Z" fill="white"/>
<path opacity="0.82" d="M217.737 437.204C217.737 436.547 219.152 435.941 220.907 435.941C221.683 435.89 222.462 435.954 223.219 436.131C223.813 436.307 224.192 436.56 224.192 436.888C224.192 437.217 223.901 437.533 223.307 437.785C222.584 438.08 221.814 438.246 221.034 438.278C219.253 438.265 217.775 437.848 217.737 437.204Z" fill="white"/>
<path opacity="0.49" d="M206.242 437.293C206.242 436.977 206.608 436.699 207.189 436.484C207.923 436.244 208.692 436.129 209.463 436.143C210.236 436.145 211.003 436.269 211.737 436.509C212.343 436.724 212.684 437.002 212.684 437.331C212.684 437.659 212.343 437.924 211.749 438.177C211.011 438.41 210.238 438.517 209.463 438.493C208.684 438.502 207.908 438.386 207.164 438.152C206.583 437.924 206.229 437.621 206.242 437.293Z" fill="white"/>
<path opacity="0.54" d="M194.76 436.712C194.76 436.396 195.177 436.118 195.758 435.966C196.505 435.784 197.277 435.72 198.044 435.777C199.825 435.878 201.215 436.472 201.202 437.128C201.189 437.785 199.699 438.215 197.905 438.126C197.125 438.106 196.356 437.93 195.644 437.608C195.076 437.343 194.684 437.002 194.76 436.712Z" fill="white"/>
<path opacity="0.6" d="M183.316 435.461C183.429 434.842 184.907 434.488 186.651 434.716C187.416 434.814 188.164 435.018 188.874 435.322C189.442 435.587 189.758 435.928 189.745 436.257C189.733 436.585 189.303 436.825 188.697 436.964C187.938 437.133 187.155 437.163 186.385 437.053C184.579 436.813 183.316 436.105 183.316 435.461Z" fill="white"/>
<path opacity="0.82" d="M172.023 433.541C172.086 433.238 172.491 433.036 173.097 432.935C173.862 432.81 174.643 432.81 175.408 432.935C176.162 433.078 176.891 433.333 177.568 433.693C178.112 434.021 178.415 434.337 178.364 434.665C178.314 434.994 177.884 435.208 177.291 435.322C176.524 435.439 175.745 435.439 174.979 435.322C174.215 435.187 173.477 434.931 172.794 434.564C172.251 434.223 171.947 433.882 172.023 433.541Z" fill="white"/>
<path opacity="0.72" d="M160.844 430.964C161.008 430.333 162.537 430.219 164.229 430.623C165.922 431.027 167.236 431.886 167.097 432.493C166.958 433.099 165.417 433.301 163.674 432.897C161.931 432.493 160.68 431.596 160.844 430.964Z" fill="white"/>
<path opacity="0.5" d="M149.817 427.756C150.019 427.124 151.547 427.061 153.227 427.566C154.907 428.072 156.158 428.981 155.968 429.625C155.779 430.27 154.251 430.371 152.545 429.827C150.84 429.284 149.602 428.349 149.817 427.756Z" fill="white"/>
<path opacity="0.68" d="M138.992 423.84C139.118 423.549 139.547 423.398 140.166 423.436C140.519 423.444 140.87 423.486 141.215 423.562C141.644 423.642 142.066 423.756 142.478 423.903C144.133 424.497 145.32 425.507 145.105 426.114C144.891 426.72 143.337 426.707 141.669 426.114C141.268 425.974 140.88 425.8 140.507 425.596C140.202 425.417 139.915 425.21 139.648 424.977C139.105 424.56 138.865 424.143 138.992 423.84Z" fill="white"/>
<path opacity="0.65" d="M128.406 419.318C128.672 418.737 130.213 418.838 131.817 419.57C133.421 420.303 134.571 421.314 134.343 421.92C134.116 422.526 132.537 422.451 130.907 421.731C129.278 421.01 128.154 419.937 128.406 419.318Z" fill="white"/>
<path opacity="0.85" d="M118.099 414.265C118.251 413.987 118.705 413.899 119.362 413.987C120.122 414.108 120.857 414.356 121.535 414.72C123.101 415.516 124.162 416.653 123.884 417.246C123.606 417.84 122.065 417.651 120.461 416.829C119.764 416.485 119.128 416.028 118.579 415.478C118.124 414.935 117.96 414.505 118.099 414.265Z" fill="white"/>
<path opacity="0.51" d="M108.107 408.505C108.448 407.937 109.939 408.24 111.467 409.162C112.996 410.084 113.994 411.234 113.678 411.777C113.362 412.32 111.834 412.08 110.255 411.196C108.676 410.312 107.766 409.061 108.107 408.505Z" fill="white"/>
<path opacity="0.65" d="M98.4442 402.202C98.8105 401.697 100.276 402.063 101.754 403.048C102.405 403.471 102.985 403.996 103.472 404.602C103.851 405.095 103.989 405.537 103.825 405.865C103.661 406.194 103.168 406.181 102.562 406.042C101.815 405.827 101.107 405.495 100.465 405.057C98.9747 403.996 98.0653 402.758 98.4442 402.202Z" fill="white"/>
<path opacity="0.78" d="M89.1726 395.318C89.5768 394.787 91.0168 395.318 92.4189 396.354C93.821 397.389 94.7052 398.703 94.3263 399.221C93.9474 399.739 92.4695 399.284 91.0168 398.223C89.5642 397.162 88.7684 395.874 89.1726 395.318Z" fill="white"/>
<path opacity="0.66" d="M80.3053 388.017C80.7221 387.512 82.1621 388.017 83.5011 389.28C84.0971 389.762 84.6056 390.343 85.0042 390.998C85.3326 391.516 85.4337 391.983 85.2316 392.261C85.0295 392.539 84.5368 392.514 83.9684 392.261C83.235 391.973 82.5654 391.544 81.9979 390.998C80.6211 389.836 79.8632 388.497 80.3053 388.017Z" fill="white"/>
<path opacity="0.76" d="M71.8926 380.16C72.12 379.933 72.5874 379.958 73.1558 380.16C73.4683 380.322 73.768 380.508 74.0526 380.716C74.3896 380.956 74.7142 381.213 75.0253 381.486C76.2884 382.749 76.9832 384.101 76.5537 384.568C76.1242 385.036 74.7095 384.429 73.4084 383.179C73.0925 382.9 72.8048 382.592 72.5495 382.257C72.3334 381.974 72.1472 381.669 71.9937 381.347C71.7158 380.829 71.6653 380.349 71.8926 380.16Z" fill="white"/>
<path opacity="0.77" d="M63.9347 371.798C64.4274 371.356 65.7789 372.076 66.9916 373.389C67.5001 373.949 67.9255 374.578 68.2547 375.259C68.5074 375.853 68.5453 376.295 68.2547 376.522C67.9642 376.749 67.5474 376.686 66.9916 376.408C66.2926 376.048 65.6705 375.554 65.16 374.956C64.061 373.642 63.4674 372.202 63.9347 371.798Z" fill="white"/>
<path opacity="0.81" d="M56.5074 363.006C56.76 362.792 57.2021 362.905 57.7705 363.221C58.4142 363.65 58.9928 364.169 59.4884 364.762C60.6126 366.126 61.1179 367.579 60.6379 367.996C60.1579 368.413 58.8316 367.642 57.6695 366.265C57.1672 365.669 56.7661 364.995 56.4821 364.269C56.2421 363.739 56.2547 363.208 56.5074 363.006Z" fill="white"/>
<path opacity="0.43" d="M49.6105 353.811C50.1284 353.432 51.4042 354.303 52.4147 355.756C53.4253 357.208 53.9179 358.623 53.4126 359.027C52.9074 359.432 51.6063 358.56 50.52 357.12C49.4337 355.68 49.08 354.177 49.6105 353.811Z" fill="white"/>
<path opacity="0.57" d="M43.2442 344.223C43.7747 343.907 45 344.83 45.96 346.307C46.3886 346.956 46.7125 347.668 46.92 348.417C47.0589 349.011 47.0084 349.453 46.7558 349.68C46.5031 349.907 46.0231 349.68 45.4926 349.339C44.8784 348.86 44.3562 348.274 43.9516 347.608C43.0295 346.055 42.6884 344.577 43.2442 344.223Z" fill="white"/>
<path opacity="0.84" d="M37.4842 334.295C37.7747 334.13 38.1916 334.295 38.6589 334.737C39.2198 335.265 39.6931 335.879 40.0611 336.556C40.9453 338.072 41.1979 339.575 40.6421 339.928C40.0863 340.282 38.9116 339.234 38.0274 337.693C37.6159 337.029 37.3411 336.291 37.2189 335.52C37.1179 334.914 37.1937 334.446 37.4842 334.295Z" fill="white"/>
<path opacity="0.48" d="M32.2926 324.05C32.8863 323.785 33.9853 324.846 34.7432 326.451C35.0874 327.135 35.3259 327.867 35.4505 328.623C35.5389 329.242 35.4505 329.697 35.1474 329.886C34.8442 330.076 34.4147 329.886 33.96 329.432C33.43 328.875 33.0024 328.229 32.6968 327.524C31.8758 325.844 31.7368 324.328 32.2926 324.05Z" fill="white"/>
<path opacity="0.89" d="M27.7326 313.516C28.0484 313.389 28.4526 313.629 28.8442 314.097C29.3443 314.683 29.7492 315.343 30.0442 316.055C30.739 317.672 30.7895 319.213 30.2211 319.453C29.6526 319.693 28.5663 318.619 27.8842 316.926C27.5617 316.221 27.3651 315.464 27.3032 314.691C27.3032 314.084 27.4295 313.642 27.7326 313.516Z" fill="white"/>
<path opacity="0.72" d="M23.7916 302.741C24.4232 302.526 25.3579 303.726 25.9389 305.406C26.52 307.086 26.5453 308.589 25.9389 308.829C25.3326 309.069 24.3474 307.857 23.7158 306.177C23.0842 304.497 23.1979 302.931 23.7916 302.741Z" fill="white"/>
<path opacity="0.6" d="M20.4821 291.739C21.1263 291.549 21.9979 292.813 22.4905 294.493C22.6053 294.906 22.6815 295.329 22.7179 295.756C22.7811 296.101 22.8023 296.453 22.781 296.804C22.781 297.423 22.5916 297.84 22.2631 297.928C21.9347 298.017 21.581 297.777 21.2021 297.272C20.9917 296.987 20.8098 296.682 20.6589 296.362C20.4842 295.952 20.3406 295.53 20.2295 295.099C19.7495 293.419 19.8632 291.891 20.4821 291.739Z" fill="white"/>
<path opacity="0.72" d="M17.8421 280.509C18.1579 280.446 18.5242 280.749 18.84 281.255C19.2326 281.925 19.5141 282.654 19.6737 283.415C20.0653 285.145 19.8631 286.674 19.2442 286.825C18.6253 286.977 17.7916 285.688 17.4 283.92C17.208 283.166 17.1439 282.384 17.2105 281.608C17.2989 280.989 17.5263 280.585 17.8421 280.509Z" fill="white"/>
<path opacity="0.61" d="M15.8211 269.128C16.1495 269.128 16.4905 269.394 16.7811 269.949C17.1246 270.646 17.3589 271.392 17.4758 272.16C17.779 273.903 17.4758 275.419 16.8695 275.533C16.2632 275.646 15.4674 274.269 15.1516 272.539C15.0186 271.77 15.0186 270.984 15.1516 270.215C15.3158 269.596 15.5053 269.192 15.8211 269.128Z" fill="white"/>
<path opacity="0.73" d="M14.4442 257.634C15.1011 257.634 15.7705 258.985 15.9347 260.741C16.0279 261.511 16.0023 262.291 15.859 263.053C15.72 263.646 15.4674 264.038 15.139 264.101C14.8105 264.164 14.5074 263.785 14.2042 263.242C13.8806 262.531 13.6758 261.771 13.5979 260.994C13.4337 259.213 13.8253 257.697 14.4442 257.634Z" fill="white"/>
<path opacity="0.73" d="M13.7621 246.126C14.3937 246.126 15.0253 247.554 15.0253 249.31C15.0615 250.084 14.9806 250.859 14.7853 251.608C14.6084 252.202 14.3558 252.581 14.0274 252.594C13.6989 252.606 13.3705 252.265 13.1432 251.697C12.8497 250.974 12.6954 250.203 12.6884 249.423C12.6505 247.63 13.1053 246.164 13.7621 246.126Z" fill="white"/>
<path opacity="0.85" d="M13.7621 234.632C14.0779 234.632 14.3558 235.011 14.5453 235.604C14.6544 235.937 14.7306 236.28 14.7726 236.627C14.8428 237.045 14.8724 237.468 14.8611 237.891C14.8611 239.646 14.3179 241.099 13.6611 241.099C13.0042 241.099 12.5116 239.659 12.5242 237.865C12.5254 237.443 12.5549 237.021 12.6126 236.602C12.6647 236.25 12.7624 235.906 12.9032 235.579C13.1305 234.985 13.4211 234.632 13.7621 234.632Z" fill="white"/>
<path opacity="0.57" d="M14.4063 223.162C15.0505 223.162 15.4547 224.703 15.3158 226.446C15.1768 228.189 14.6211 229.617 13.9642 229.579C13.3074 229.541 12.8779 228.088 12.9789 226.295C13.08 224.501 13.7621 223.112 14.4063 223.162Z" fill="white"/>
<path opacity="0.66" d="M15.72 211.756C16.3516 211.844 16.68 213.347 16.4653 215.091C16.3608 215.855 16.1437 216.6 15.821 217.301C15.5431 217.857 15.2274 218.185 14.8989 218.135C14.5705 218.084 14.3179 217.718 14.1663 217.099C14.0367 216.338 14.0367 215.561 14.1663 214.8C14.3684 213.019 15.0758 211.655 15.72 211.756Z" fill="white"/>
<path opacity="0.51" d="M17.7158 200.45C18.0442 200.514 18.2589 200.93 18.3474 201.537C18.4301 202.3 18.3918 203.072 18.2337 203.823C17.9179 205.566 17.16 206.893 16.5158 206.779C15.8716 206.665 15.6063 205.149 15.9347 203.394C16.06 202.625 16.3209 201.885 16.7053 201.208C17.0463 200.678 17.4126 200.387 17.7158 200.45Z" fill="white"/>
<path opacity="0.87" d="M20.3684 189.272C21 189.436 21.1516 190.964 20.7095 192.682C20.5245 193.428 20.2309 194.143 19.8379 194.804C19.5095 195.322 19.1432 195.6 18.8147 195.524C18.4863 195.448 18.2968 195.032 18.2337 194.413C18.1518 193.64 18.2248 192.858 18.4484 192.114C18.8653 190.371 19.7495 189.107 20.3684 189.272Z" fill="white"/>
<path opacity="0.87" d="M23.6779 178.27C23.9937 178.371 24.1453 178.813 24.1705 179.432C24.1735 180.199 24.0541 180.963 23.8168 181.693C23.2737 183.385 22.3389 184.598 21.7326 184.434C21.1263 184.269 21.0379 182.703 21.581 180.985C21.7858 180.238 22.1285 179.535 22.5916 178.914C22.9831 178.421 23.3747 178.181 23.6779 178.27Z" fill="white"/>
<path opacity="0.66" d="M27.619 167.482C28.2379 167.722 28.2 169.251 27.5432 170.893C26.8863 172.535 25.939 173.722 25.3326 173.507C24.7263 173.293 24.739 171.752 25.3326 170.059C25.9263 168.366 27.0379 167.229 27.619 167.482Z" fill="white"/>
<path opacity="0.6" d="M32.2042 156.922C32.76 157.187 32.6463 158.728 31.9389 160.333C31.6202 161.042 31.1942 161.698 30.6758 162.278C30.2589 162.733 29.8547 162.935 29.5516 162.808C29.2484 162.682 29.1221 162.227 29.1474 161.545C29.2417 160.772 29.4548 160.018 29.7789 159.309C30.5368 157.743 31.5979 156.581 32.2042 156.922Z" fill="white"/>
<path opacity="0.82" d="M37.4084 146.64C37.6737 146.804 37.7747 147.259 37.6737 147.903C37.5427 148.664 37.2866 149.398 36.9158 150.076C36.1074 151.655 34.9958 152.691 34.3895 152.413C33.7832 152.135 33.9979 150.594 34.8189 148.989C35.1657 148.291 35.6317 147.658 36.1958 147.12C36.6758 146.665 37.1179 146.476 37.4084 146.64Z" fill="white"/>
<path opacity="0.86" d="M43.1811 136.674C43.7242 137.015 43.4337 138.531 42.5116 140.034C42.2941 140.396 42.0447 140.739 41.7663 141.057C41.5597 141.339 41.3225 141.597 41.059 141.827C40.579 142.219 40.1621 142.383 39.8716 142.219C39.5811 142.055 39.5179 141.6 39.619 140.956C39.6918 140.607 39.7932 140.265 39.9221 139.933C40.0829 139.538 40.2773 139.157 40.5032 138.796C41.4379 137.293 42.6253 136.371 43.1811 136.674Z" fill="white"/>
<path opacity="0.61" d="M49.5347 127.061C49.8 127.251 49.8379 127.705 49.6611 128.324C49.4353 129.065 49.0988 129.768 48.6632 130.408C47.6779 131.886 46.4274 132.771 45.8968 132.429C45.3663 132.088 45.7326 130.585 46.7305 129.095C47.1406 128.425 47.682 127.845 48.3221 127.389C48.8147 126.998 49.2821 126.872 49.5347 127.061Z" fill="white"/>
<path opacity="0.57" d="M56.4316 117.827C56.9368 118.219 56.4316 119.697 55.3832 121.086C54.3347 122.476 53.0337 123.36 52.5032 122.968C51.9726 122.577 52.4021 121.086 53.5263 119.659C54.6505 118.232 55.9389 117.423 56.4316 117.827Z" fill="white"/>
<path opacity="0.66" d="M63.859 109.011C64.099 109.225 64.0863 109.693 63.859 110.274C63.5415 110.984 63.1153 111.64 62.5958 112.219C61.4337 113.571 60.0695 114.316 59.6021 113.912C59.1348 113.507 59.6021 112.055 60.8653 110.691C61.3552 110.089 61.9448 109.576 62.6084 109.175C63.1642 108.859 63.6316 108.808 63.859 109.011Z" fill="white"/>
<path opacity="0.64" d="M71.7789 100.648C72.2463 101.103 71.6147 102.505 70.3516 103.743C69.0884 104.981 67.7495 105.726 67.2821 105.284C66.8148 104.842 67.4337 103.427 68.659 102.114C69.8842 100.8 71.3368 100.194 71.7789 100.648Z" fill="white"/>
<path opacity="0.5" d="M80.1789 92.7537C80.5832 93.2211 79.8758 94.5979 78.5747 95.7853C78.0045 96.3039 77.3567 96.7301 76.6547 97.0484C76.1116 97.2884 75.6442 97.3263 75.3916 97.0484C75.1389 96.7705 75.2274 96.3663 75.5179 95.7853C75.894 95.1037 76.3855 94.4926 76.9705 93.979C78.3221 92.8421 79.7368 92.2611 80.1789 92.7537Z" fill="white"/>
<path opacity="0.58" d="M89.0084 85.3768C89.4252 85.8947 88.6042 87.1705 87.24 88.2947C85.8758 89.4189 84.4105 89.9368 84.0063 89.4568C83.6021 88.9768 84.3726 87.6253 85.7368 86.4884C87.101 85.3516 88.5789 84.8842 89.0084 85.3768Z" fill="white"/>
<path opacity="0.48" d="M98.2547 78.5053C98.621 79.0484 97.7495 80.3242 96.3095 81.3474C95.9641 81.5824 95.6056 81.7975 95.2358 81.9916C94.9321 82.1622 94.61 82.2978 94.2758 82.3958C93.6821 82.5853 93.2147 82.5726 93.0126 82.3074C92.8105 82.0421 92.9116 81.5874 93.2652 81.0442C93.457 80.7502 93.6816 80.479 93.9347 80.2358C94.2385 79.9376 94.5682 79.667 94.92 79.4274C96.3979 78.4042 97.8758 77.9874 98.2547 78.5053Z" fill="white"/>
<path opacity="0.62" d="M107.88 72.24C108.221 72.8084 107.248 73.9579 105.771 74.9305C104.293 75.9031 102.777 76.1937 102.436 75.6884C102.095 75.1831 103.004 73.9326 104.507 72.9474C106.011 71.9621 107.526 71.6968 107.88 72.24Z" fill="white"/>
<path opacity="0.57" d="M117.834 66.5305C118.149 67.099 117.139 68.2484 115.56 69.0569C113.981 69.8653 112.541 70.1937 112.2 69.6253C111.859 69.0569 112.869 67.8821 114.436 66.9979C116.002 66.1137 117.531 65.9621 117.834 66.5305Z" fill="white"/>
<path opacity="0.76" d="M128.116 61.4148C128.267 61.7179 128.027 62.1221 127.611 62.5516C127.051 63.0724 126.412 63.499 125.716 63.8148C125.022 64.1498 124.281 64.3756 123.518 64.4842C122.924 64.5474 122.457 64.4842 122.255 64.1684C122.053 63.8526 122.255 63.4484 122.735 62.9937C123.288 62.46 123.935 62.032 124.642 61.7305C125.329 61.3751 126.073 61.1442 126.84 61.0484C127.522 60.9853 127.977 61.1242 128.116 61.4148Z" fill="white"/>
<path opacity="0.58" d="M138.688 56.9179C138.789 57.2337 138.575 57.6253 138.12 58.0421C137.517 58.5169 136.849 58.9039 136.137 59.1916C134.507 59.8863 132.979 59.9495 132.726 59.3684C132.474 58.7874 133.585 57.7263 135.253 57.0316C135.966 56.7121 136.733 56.528 137.514 56.4884C138.133 56.4884 138.562 56.6147 138.688 56.9179Z" fill="white"/>
<path opacity="0.86" d="M149.488 53.0021C149.703 53.6084 148.516 54.5684 146.823 55.1242C146.095 55.3773 145.333 55.5179 144.562 55.541C143.956 55.541 143.514 55.4021 143.413 55.0989C143.312 54.7958 143.539 54.3916 143.994 53.9874C144.614 53.5052 145.316 53.1373 146.065 52.9011C147.758 52.3832 149.299 52.4211 149.488 53.0021Z" fill="white"/>
<path opacity="0.52" d="M160.579 49.8063C160.655 50.1221 160.377 50.4884 159.859 50.8421C159.224 51.2755 158.519 51.5959 157.775 51.7895C157.033 52.0051 156.261 52.0989 155.488 52.0674C154.869 52.0674 154.453 51.8653 154.352 51.5495C154.251 51.2337 154.516 50.8295 155.034 50.4758C155.684 50.0529 156.395 49.7333 157.143 49.5284C157.893 49.3087 158.674 49.2106 159.455 49.2379C160.023 49.3011 160.453 49.4905 160.579 49.8063Z" fill="white"/>
<path opacity="0.42" d="M171.771 47.2295C171.771 47.5453 171.543 47.8989 171 48.2274C170.322 48.5954 169.595 48.8635 168.84 49.0232C167.109 49.4274 165.594 49.2253 165.455 48.5937C165.316 47.9621 166.592 47.1411 168.347 46.7368C169.107 46.5469 169.895 46.4998 170.672 46.5979C171.291 46.6863 171.707 46.9011 171.771 47.2295Z" fill="white"/>
<path opacity="0.51" d="M183.152 45.2716C183.253 45.9158 181.888 46.6611 180.133 46.9137C178.377 47.1663 176.874 46.9137 176.747 46.2947C176.621 45.6758 178.011 44.88 179.766 44.5895C181.522 44.299 183.063 44.64 183.152 45.2716Z" fill="white"/>
<path opacity="0.53" d="M194.684 43.9832C194.747 44.6147 193.345 45.2463 191.577 45.4611C190.804 45.5343 190.025 45.4917 189.265 45.3347C188.672 45.1958 188.267 44.9558 188.229 44.64C188.192 44.3242 188.52 43.9832 189.076 43.6926C189.79 43.3714 190.556 43.1789 191.337 43.1242C193.105 42.96 194.608 43.3263 194.684 43.9832Z" fill="white"/>
<path opacity="0.57" d="M206.166 43.3642C206.166 44.0337 204.752 44.5516 202.971 44.6274C201.189 44.7031 199.749 44.2484 199.699 43.6042C199.648 42.96 201.076 42.341 202.882 42.341C204.688 42.341 206.141 42.7326 206.166 43.3642Z" fill="white"/>
<path opacity="0.63" d="M217.661 43.4274C217.661 44.0716 216.196 44.5516 214.415 44.501C212.634 44.4505 211.219 43.9579 211.206 43.3137C211.194 42.6695 212.672 42.1642 214.465 42.1642C216.259 42.1642 217.686 42.7831 217.661 43.4274Z" fill="white"/>
<path opacity="0.55" d="M229.131 44.16C229.067 44.7916 227.577 45.2211 225.821 45.0695C224.065 44.9179 222.663 44.3369 222.701 43.6926C222.739 43.0484 224.217 42.5684 226.011 42.7326C227.804 42.8969 229.194 43.4905 229.131 44.16Z" fill="white"/>
<path opacity="0.85" d="M240.537 45.5495C240.423 46.1937 238.945 46.459 237.177 46.2568C235.408 46.0547 234.082 45.3095 234.145 44.6653C234.208 44.0211 235.737 43.6926 237.493 43.9326C239.248 44.1726 240.625 44.9179 240.537 45.5495Z" fill="white"/>
<path opacity="0.43" d="M251.829 47.6211C251.691 48.24 250.175 48.4674 248.457 48.101C246.739 47.7347 245.387 47.0147 245.501 46.3705C245.615 45.7263 247.131 45.4737 248.886 45.8021C250.642 46.1305 251.968 46.9768 251.829 47.6211Z" fill="white"/>
<path opacity="0.86" d="M262.983 50.3242C262.806 50.9432 261.291 51.0821 259.585 50.6274C258.831 50.4602 258.113 50.1608 257.463 49.7432C256.945 49.4021 256.68 49.0484 256.743 48.72C256.806 48.3916 257.248 48.2021 257.855 48.139C258.628 48.088 259.405 48.1648 260.154 48.3663C261.897 48.8211 263.16 49.6926 262.983 50.3242Z" fill="white"/>
<path opacity="0.6" d="M273.96 53.7095C273.859 54.0253 273.417 54.1895 272.798 54.2021C272.029 54.1871 271.266 54.0551 270.537 53.8105C268.844 53.28 267.644 52.3579 267.821 51.739C267.998 51.12 269.539 51.0568 271.257 51.5747C272.003 51.8016 272.704 52.1564 273.328 52.6232C273.821 53.0021 274.074 53.4063 273.96 53.7095Z" fill="white"/>
<path opacity="0.56" d="M284.735 57.7263C284.495 58.3074 282.954 58.2821 281.299 57.6253C280.913 57.4774 280.541 57.2957 280.187 57.0821C279.877 56.9135 279.581 56.7191 279.303 56.5011C278.836 56.0968 278.608 55.7053 278.71 55.4021C278.811 55.099 279.265 54.9474 279.897 54.96C280.249 54.9587 280.601 54.9968 280.945 55.0737C281.375 55.1618 281.798 55.2843 282.208 55.44C283.825 56.1095 284.987 57.12 284.735 57.7263Z" fill="white"/>
<path opacity="0.78" d="M295.257 62.3747C294.966 62.9684 293.463 62.779 291.846 62.0716C290.23 61.3642 289.131 60.2779 289.396 59.6716C289.661 59.0653 291.19 59.2042 292.832 59.9495C294.474 60.6947 295.535 61.8442 295.257 62.3747Z" fill="white"/>
<path opacity="0.89" d="M305.501 67.6295C305.211 68.1853 303.669 67.9832 302.116 67.1242C300.562 66.2653 299.501 65.1916 299.792 64.5979C300.082 64.0042 301.623 64.2063 303.202 65.04C304.781 65.8737 305.842 67.0737 305.501 67.6295Z" fill="white"/>
<path opacity="0.65" d="M315.429 73.4779C315.253 73.7558 314.798 73.8063 314.166 73.6674C313.415 73.4866 312.698 73.1836 312.044 72.7705C311.375 72.3918 310.777 71.9004 310.276 71.3179C309.884 70.8126 309.707 70.3958 309.872 70.0547C310.036 69.7137 310.516 69.701 311.135 69.8147C311.889 70.0006 312.609 70.3032 313.269 70.7116C313.947 71.1034 314.554 71.6074 315.063 72.2021C315.455 72.7579 315.606 73.2126 315.429 73.4779Z" fill="white"/>
<path opacity="0.74" d="M325.017 79.8947C324.625 80.4126 323.147 80.0211 321.695 78.9853C320.242 77.9495 319.32 76.7621 319.674 76.2316C320.027 75.7011 321.543 76.0674 323.034 77.0653C324.524 78.0632 325.383 79.3642 325.017 79.8947Z" fill="white"/>
<path opacity="0.68" d="M334.2 86.8421C333.808 87.3348 332.343 86.8421 330.941 85.7684C329.539 84.6948 328.705 83.4063 329.097 82.8758C329.488 82.3453 330.966 82.8 332.381 83.9242C333.796 85.0484 334.617 86.3242 334.2 86.8421Z" fill="white"/>
<path opacity="0.72" d="M342.966 94.3453C342.752 94.5726 342.272 94.5474 341.703 94.3453C341.005 94.0201 340.358 93.5946 339.783 93.0821C338.432 91.92 337.686 90.5558 338.116 90.0884C338.545 89.6211 339.96 90.0884 341.324 91.3516C341.924 91.8554 342.429 92.4629 342.815 93.1453C343.105 93.6379 343.181 94.1053 342.966 94.3453Z" fill="white"/>
<path opacity="0.7" d="M351.316 102.265C350.848 102.72 349.459 102.076 348.196 100.825C347.901 100.524 347.626 100.204 347.375 99.8653C347.156 99.5906 346.965 99.2944 346.806 98.9811C346.528 98.4253 346.478 97.9705 346.705 97.7179C346.933 97.4653 347.387 97.5284 347.968 97.7179C348.292 97.8597 348.601 98.0332 348.891 98.2358C349.229 98.4918 349.55 98.7703 349.851 99.0695C351.101 100.459 351.745 101.848 351.316 102.265Z" fill="white"/>
<path opacity="0.81" d="M359.11 110.754C358.87 110.956 358.415 110.893 357.846 110.589C357.187 110.186 356.588 109.693 356.065 109.124C354.878 107.861 354.297 106.383 354.802 105.941C355.307 105.499 356.646 106.232 357.846 107.545C358.381 108.108 358.809 108.763 359.11 109.478C359.337 110.072 359.362 110.539 359.11 110.754Z" fill="white"/>
<path opacity="0.89" d="M366.474 119.621C365.956 120.013 364.655 119.217 363.556 117.815C362.457 116.413 361.926 115.011 362.419 114.581C362.912 114.152 364.263 114.947 365.387 116.362C366.512 117.777 366.954 119.229 366.474 119.621Z" fill="white"/>
<path opacity="0.41" d="M373.219 128.905C372.954 129.095 372.512 128.905 371.956 128.602C371.346 128.133 370.809 127.575 370.364 126.947C369.904 126.332 369.557 125.639 369.341 124.901C369.164 124.307 369.164 123.84 369.429 123.638C369.695 123.436 370.149 123.549 370.693 123.916C371.322 124.372 371.865 124.937 372.297 125.583C372.762 126.204 373.117 126.901 373.345 127.642C373.522 128.261 373.484 128.716 373.219 128.905Z" fill="white"/>
<path opacity="0.79" d="M379.446 138.568C378.878 138.909 377.703 137.949 376.781 136.434C375.859 134.918 375.518 133.465 376.023 133.099C376.528 132.733 377.779 133.68 378.752 135.196C379.724 136.712 379.977 138.227 379.446 138.568Z" fill="white"/>
<path opacity="0.44" d="M385.105 148.56C384.537 148.851 383.375 147.84 382.579 146.286C381.783 144.733 381.467 143.229 382.036 142.914C382.604 142.598 383.804 143.583 384.638 145.162C385.472 146.741 385.674 148.257 385.105 148.56Z" fill="white"/>
<path opacity="0.87" d="M390.133 158.88C389.83 159.019 389.425 158.804 388.996 158.375C388.756 158.117 388.54 157.838 388.352 157.541C388.113 157.198 387.906 156.835 387.733 156.455C386.962 154.876 386.798 153.335 387.379 153.057C387.96 152.779 389.059 153.853 389.842 155.444C390.022 155.827 390.17 156.224 390.284 156.632C390.394 156.972 390.466 157.324 390.499 157.68C390.549 158.299 390.474 158.754 390.133 158.88Z" fill="white"/>
<path opacity="0.58" d="M394.554 169.465C393.947 169.693 392.937 168.556 392.293 166.939C391.648 165.322 391.547 163.781 392.141 163.528C392.735 163.276 393.808 164.387 394.465 166.055C395.122 167.722 395.16 169.213 394.554 169.465Z" fill="white"/>
<path opacity="0.8" d="M398.356 180.303C397.762 180.493 396.815 179.293 396.246 177.625C395.984 176.9 395.848 176.135 395.842 175.364C395.842 174.745 396.006 174.303 396.322 174.189C396.638 174.076 397.017 174.328 397.421 174.808C397.885 175.434 398.24 176.135 398.469 176.88C399.038 178.573 399.013 180.101 398.356 180.303Z" fill="white"/>
<path opacity="0.82" d="M401.526 191.381C401.211 191.381 400.832 191.166 400.491 190.661C400.305 190.365 400.141 190.057 399.998 189.739C399.835 189.353 399.7 188.957 399.594 188.552C399.088 186.846 399.215 185.318 399.834 185.141C400.453 184.964 401.349 186.215 401.842 187.945C401.96 188.359 402.045 188.781 402.095 189.208C402.12 189.562 402.12 189.916 402.095 190.269C402.032 190.876 401.842 191.293 401.526 191.381Z" fill="white"/>
<path opacity="0.84" d="M404.04 202.623C403.408 202.737 402.613 201.436 402.259 199.68C401.905 197.924 402.069 196.434 402.701 196.295C403.333 196.156 404.179 197.457 404.545 199.2C404.912 200.943 404.684 202.497 404.04 202.623Z" fill="white"/>
<path opacity="0.56" d="M405.922 214.029C405.278 214.105 404.545 212.766 404.293 210.985C404.04 209.204 404.293 207.726 404.949 207.6C405.606 207.474 406.364 208.863 406.617 210.644C406.87 212.425 406.579 213.928 405.922 214.029Z" fill="white"/>
</svg>
