<svg width="262" height="262" viewBox="0 0 262 262" fill="none" xmlns="http://www.w3.org/2000/svg">
<path opacity="0.52" d="M128.731 261.331H128.465C127.404 261.331 126.343 261.331 125.333 261.242H125.067L125.813 243.432H126.053C126.962 243.432 127.808 243.432 128.705 243.533H128.971L128.731 261.331Z" fill="white"/>
<path opacity="0.85" d="M124.928 261.242L124.651 261.179C121.202 261.015 117.855 260.749 114.634 260.333H114.368L116.541 242.648L116.806 242.712C119.724 243.078 122.629 243.28 125.446 243.457L125.712 243.722L124.928 261.242Z" fill="white"/>
<path opacity="0.77" d="M140.276 260.964L139.013 243.204H139.291C142.095 243.002 144.962 242.686 147.867 242.219H148.133L150.836 259.802H150.583C147.349 260.333 143.964 260.699 140.617 260.964H140.276Z" fill="white"/>
<path opacity="0.43" d="M151.202 259.688V259.486H150.937L148.171 242.156H148.448C149.181 242.042 149.977 241.928 150.722 241.777L151.366 241.663L154.486 259.107H154.234C153.173 259.373 152.149 259.537 151.202 259.688Z" fill="white"/>
<path opacity="0.47" d="M102.975 258.375H102.697C101.699 258.16 100.701 257.933 99.6905 257.667H99.4253L103.669 240.324L103.935 240.438C104.781 240.602 105.627 240.804 106.537 241.019L106.726 241.297L102.975 258.375Z" fill="white"/>
<path opacity="0.47" d="M99.261 257.516H99.0463C95.8758 256.733 92.6421 255.836 89.4084 254.712H89.1432L94.7516 237.811H95.0295C97.72 238.707 100.524 239.554 103.354 240.236H103.543L99.261 257.516Z" fill="white"/>
<path opacity="0.42" d="M165.779 256.581L160.954 239.453H161.219C164.036 238.657 166.777 237.76 169.493 236.749H169.695L175.859 253.436L175.581 253.549C172.512 254.674 169.265 255.722 166.057 256.632L165.779 256.581Z" fill="white"/>
<path opacity="0.51" d="M176.011 253.221L169.695 236.535H169.973L172.309 235.587L172.726 235.411L179.345 251.945L179.08 252.059L176.175 253.183L176.011 253.221Z" fill="white"/>
<path opacity="0.79" d="M78.3305 250.404L78.1158 250.316C77.1558 249.937 76.2084 249.52 75.2484 249.053L75.0463 248.952L82.6253 232.846L82.8779 232.947C83.6737 233.339 84.4695 233.693 85.3284 234.072L85.5305 234.173L78.3305 250.404Z" fill="white"/>
<path opacity="0.74" d="M74.8821 248.876L74.6295 248.787C71.5979 247.297 68.6295 245.756 65.7874 244.114L65.5347 244.013L74.3768 228.526L74.6547 228.64C77.1811 230.118 79.7074 231.432 82.3221 232.669L82.5368 232.771L74.8821 248.876Z" fill="white"/>
<path opacity="0.82" d="M189.956 247.133L181.783 231.318L182.048 231.217C184.575 229.891 187.101 228.463 189.627 226.922L189.842 226.821L199.164 241.979L198.949 242.143C196.133 243.823 193.227 245.465 190.208 247.069L189.956 247.133Z" fill="white"/>
<path opacity="0.79" d="M199.316 241.878L189.867 226.72L190.145 226.619C190.827 226.126 191.585 225.646 192.267 225.229V224.497L202.373 239.869L202.158 240.021C201.425 240.501 200.731 240.918 200.048 241.398L199.316 241.878Z" fill="white"/>
<path opacity="0.79" d="M55.7453 237.76L55.5432 237.596C54.6842 237.015 53.8379 236.421 53.0169 235.789L52.7895 235.638L63.4 221.326L64.4611 222.109C64.7768 222.387 65.1432 222.589 65.5095 222.855L65.8884 222.16L65.9769 223.221L55.7453 237.76Z" fill="white"/>
<path opacity="0.56" d="M52.6884 235.537L52.461 235.36C49.8211 233.415 47.219 231.28 44.68 229.044L44.4526 228.88L56.2253 215.465L56.44 215.629C58.6126 217.587 60.8863 219.419 63.1726 221.074L63.3874 221.238L52.6884 235.537Z" fill="white"/>
<path opacity="0.61" d="M211.733 233.086L200.592 219.192L200.806 218.977C203.029 217.234 205.253 215.314 207.387 213.368L207.589 213.52L207.754 213.368L219.728 226.265L219.526 226.467C217.139 228.703 214.6 230.876 211.947 232.985L211.733 233.086Z" fill="white"/>
<path opacity="0.65" d="M219.678 225.937L207.804 213.318L208.221 212.939L220.057 225.558L219.678 225.937Z" fill="white"/>
<path opacity="0.57" d="M223.821 222.286L211.038 209.768L211.253 209.604C213.261 207.533 215.232 205.373 217.063 203.187L217.253 202.985L230.895 214.429L230.718 214.632C228.659 217.158 226.385 219.621 223.998 222.059L223.821 222.286Z" fill="white"/>
<path opacity="0.71" d="M36.141 220.909L35.9768 220.682C35.8117 220.518 35.6557 220.345 35.5095 220.164C34.9284 219.571 34.3979 218.989 33.8547 218.408L33.7032 218.181L46.9031 206.269L47.0421 206.484C47.5347 206.964 48.0147 207.482 48.4947 207.962C48.5447 208.082 48.64 208.177 48.76 208.227L49.0758 208.594L36.141 220.909Z" fill="white"/>
<path opacity="0.87" d="M33.6021 218.093L33.3748 217.891C31.1011 215.364 28.9284 212.737 26.9832 210.185L26.819 209.971L40.9663 199.107L41.1179 199.335C42.8232 201.558 44.68 203.832 46.6253 206.004L46.8526 206.219L33.6021 218.093Z" fill="white"/>
<path opacity="0.9" d="M230.958 214.215L230.756 214.114L217.189 202.872L217.455 202.669C217.973 202.076 218.566 201.406 219.147 200.648L219.627 200.017V200.699L233.257 211.461L233.093 211.676C232.512 212.408 231.931 213.154 231.286 213.899L231.602 214.164L230.958 214.215Z" fill="white"/>
<path opacity="0.45" d="M240.04 202.076L225.084 192.387L225.236 192.185C226.777 189.836 228.267 187.297 229.632 184.707L229.796 184.48L245.434 193.019L245.269 193.234C243.64 196.253 241.935 199.158 240.141 201.874L240.04 202.076Z" fill="white"/>
<path opacity="0.41" d="M20.1874 200.497L20.0863 200.232C19.4926 199.385 18.9747 198.476 18.4316 197.579L18.3432 197.364L33.6021 188.257L33.7537 188.459C34.1832 189.267 34.6632 190.013 35.1305 190.745V191.048H35.0169L20.1874 200.497Z" fill="white"/>
<path opacity="0.61" d="M18.2295 197.213L18.0653 196.985C16.3726 194.08 14.781 191.112 13.3537 188.143L13.2526 187.954L29.1937 180.097L29.3579 180.362C30.5885 182.956 31.9502 185.486 33.4379 187.941L33.5516 188.194L18.2295 197.213Z" fill="white"/>
<path opacity="0.78" d="M245.484 192.855L229.796 184.429L229.973 184.227C230.389 183.381 230.819 182.636 231.236 181.84L231.349 181.575L247.189 189.634L247.076 189.886L245.598 192.653L245.484 192.855Z" fill="white"/>
<path opacity="0.41" d="M251.952 179.086H251.686L235.366 172.619L235.467 172.354C236.528 169.587 237.539 166.884 238.335 164.181L238.436 163.928L255.451 169.158L255.349 169.436C254.402 172.619 253.24 175.752 252.065 178.922L251.952 179.086Z" fill="white"/>
<path opacity="0.56" d="M8.64211 177.28L8.51579 177.065C8.14947 176.055 7.77053 175.107 7.46737 174.097L7.36632 173.882L23.7874 168.109L7.36632 173.781L7.26526 173.503C6.20421 170.446 5.24421 167.187 4.41052 163.928L4.29684 163.663L21.5768 159.166V159.419C22.2589 162.122 23.1179 164.926 24.1032 167.68L24.3179 168.274C24.5832 169.107 24.9116 169.954 25.2274 170.8L25.3158 171.015L8.64211 177.28Z" fill="white"/>
<path opacity="0.58" d="M255.451 168.956L238.474 163.827V163.562L239.269 161.036V160.771L256.461 165.482L256.335 165.76C256.12 166.707 255.804 167.655 255.501 168.766L255.451 168.956Z" fill="white"/>
<path opacity="0.4" d="M259.051 154.265L241.568 151.082V150.817C242.099 148.063 242.465 145.259 242.832 142.442L241.985 142.013H243.375L260.604 143.756L260.541 143.971C260.225 147.255 259.745 150.602 259.152 153.937L259.051 154.265Z" fill="white"/>
<path opacity="0.81" d="M1.84631 152.257V152.017C1.66947 151.107 1.56842 150.084 1.40421 148.935V148.657L19.0884 146.219V146.484C19.1895 147.28 19.3411 148.139 19.4547 149.011L19.5684 149.427H19.3032L1.84631 152.257Z" fill="white"/>
<path opacity="0.62" d="M1.32843 148.493L1.26527 148.24C0.78527 144.956 0.469481 141.608 0.317902 138.261V138.008L18.0653 136.998V137.263C18.2295 140.181 18.5579 143.036 18.9242 145.916V146.168H18.6842L1.32843 148.493Z" fill="white"/>
<path opacity="0.76" d="M260.554 143.566L242.87 141.874V141.634C242.996 140.737 243.034 139.827 243.135 138.981H243.362V138.716L260.844 139.979V140.257C260.844 141.141 260.731 142.101 260.629 143.314L260.554 143.566Z" fill="white"/>
<path opacity="0.42" d="M243.375 128.787V128.522C243.375 125.655 243.097 122.737 242.832 119.832V119.566L260.516 117.861V118.126C260.882 121.474 261.046 124.808 261.135 128.156V128.408L243.375 128.787Z" fill="white"/>
<path opacity="0.48" d="M17.9516 127.095L0.153687 126.476V126.211C0.153687 125.162 0.254736 124.152 0.317894 123.091V122.813L18.1158 123.886V124.152C18.1158 125.048 18.0147 125.945 17.9516 126.855V127.095Z" fill="white"/>
<path opacity="0.82" d="M18.1158 123.811L0.43158 122.636V122.371C0.633685 119.036 1.01262 115.638 1.42947 112.417V112.139L19.1137 114.665V114.918C18.6842 117.785 18.4316 120.64 18.2042 123.558L18.1158 123.811Z" fill="white"/>
<path opacity="0.9" d="M243.046 119.503L242.781 119.238C242.68 118.24 242.579 117.381 242.465 116.598V116.371L260.149 114.135L260.213 114.4C260.314 115.423 260.415 116.472 260.528 117.482L260.592 117.747L243.046 119.503Z" fill="white"/>
<path opacity="0.74" d="M240.773 106.518V106.265C240.091 103.385 239.345 100.581 238.549 97.8779V97.6253H238.701L255.501 92.5726L255.615 92.8379C256.575 96.0716 257.408 99.3558 258.141 102.526V102.792L240.773 106.518Z" fill="white"/>
<path opacity="0.88" d="M20.9326 104.876L3.60211 100.796V100.531C3.81685 99.5327 4.06949 98.5221 4.34738 97.5116V97.2463L21.5642 101.806L21.5011 102.021C21.2863 102.918 21.0969 103.764 20.8569 104.674L20.9326 104.876Z" fill="white"/>
<path opacity="0.67" d="M21.6779 101.705L4.49896 97.0948V96.8295C5.34528 93.6969 6.35581 90.5137 7.46739 87.28L7.56843 87.0274L24.3811 92.9642L24.28 93.1663C23.32 95.8821 22.4737 98.6737 21.7537 101.44L21.6779 101.705Z" fill="white"/>
<path opacity="0.51" d="M238.385 97.5621V97.3095C238.12 96.5516 237.855 95.6548 237.539 94.7832L237.438 94.4548H237.754L254.339 88.9095L254.453 89.1116C254.756 90.059 255.034 90.9684 255.337 91.8653L255.451 92.3453L238.385 97.5621Z" fill="white"/>
<path opacity="0.61" d="M233.825 85.2716L233.724 85.0063C232.625 82.48 231.286 79.8653 229.935 77.2632L229.834 77.0105L245.472 68.5853L245.636 68.7874C247.227 71.7558 248.705 74.7748 250.032 77.7937L250.145 78.0716L233.825 85.2716Z" fill="white"/>
<path opacity="0.47" d="M28.1453 83.7305L11.9768 76.3158L12.0779 76.0505C12.5074 75.1032 12.9747 74.1937 13.341 73.2337L13.6568 73.0821H13.72L29.4589 80.8253L29.3326 81.0274C28.9789 81.8358 28.5495 82.6316 28.1831 83.4779L28.1453 83.7305Z" fill="white"/>
<path opacity="0.49" d="M29.5726 80.7621L13.6316 72.8674L13.7326 72.6021C15.2737 69.5832 16.9158 66.6148 18.5705 63.76L18.7221 63.5453L33.9811 72.7032L33.8042 72.9306C32.3895 75.3685 31.0126 77.9074 29.6863 80.5095L29.5726 80.7621Z" fill="white"/>
<path opacity="0.4" d="M229.758 76.9473L229.632 76.7326C229.215 76 228.798 75.2547 228.368 74.4589L228.217 74.1305L243.627 65.2884L243.741 65.5031C244.259 66.4505 244.789 67.3095 245.269 68.2568L245.434 68.4589L229.758 76.9473Z" fill="white"/>
<path opacity="0.53" d="M222.811 65.8442L222.646 65.6295C220.954 63.2547 219.147 60.9179 217.341 58.7326L217.189 58.581L230.895 47.1116L231.046 47.3263C233.156 49.8526 235.227 52.5179 237.185 55.2716L237.349 55.4863L222.811 65.8442Z" fill="white"/>
<path opacity="0.89" d="M39.4253 64.4926L25.0632 53.9453L25.2274 53.7306C25.859 52.8842 26.4905 52.0379 27.0716 51.2042L27.2358 50.9769L41.4211 61.9032L41.2569 62.1053C40.6758 62.8505 40.1453 63.5326 39.6147 64.2779L39.4253 64.4926Z" fill="white"/>
<path opacity="0.57" d="M41.4211 61.8526L27.3621 50.9263L27.5263 50.6863C29.5474 48.0842 31.72 45.4947 33.9432 43.0063L34.1579 42.8547L47.2947 54.8295L47.1432 54.981C45.2232 57.0526 43.3537 59.2884 41.5726 61.6L41.4211 61.8526Z" fill="white"/>
<path opacity="0.4" d="M217.139 58.5052L217 58.2652L215.257 56.2063L214.827 55.7768H215.345L228.457 44.2189L228.608 44.4337C229.303 45.2295 229.872 45.9747 230.629 46.7705L230.781 46.9853L230.629 47.1368L217.139 58.5052Z" fill="white"/>
<path opacity="0.75" d="M208.158 48.9179L208.006 48.7032C205.834 46.6821 203.661 44.7916 201.488 43.0316L201.274 42.88L212.453 28.9853L212.655 29.2C215.181 31.259 217.707 33.4316 220.234 35.7684L220.448 35.92L208.158 48.9179Z" fill="white"/>
<path opacity="0.62" d="M54.3684 47.8063L42.3432 34.6568L42.4947 34.4926C43.3032 33.8105 44.0358 33.1158 44.8316 32.4337L45.0463 32.2189L56.7558 45.6337L56.5537 45.7852C55.8463 46.3789 55.2147 46.96 54.5326 47.5916L54.3684 47.8063Z" fill="white"/>
<path opacity="0.66" d="M56.8063 45.6337L45.2105 32.1179L45.4379 31.9537C47.9642 29.7811 50.5663 27.659 53.2695 25.6379L53.4842 25.4737L64.0821 39.7979L63.8674 39.9495C61.581 41.5916 59.3074 43.4484 57.0842 45.3558L56.8063 45.6337Z" fill="white"/>
<path opacity="0.89" d="M201.236 42.7158H200.491L200.705 42.4506C200.023 41.8569 199.442 41.44 198.848 41.0105L198.217 40.5432H198.899L209.421 26.6863L209.636 26.8379C210.432 27.4695 211.227 28.1011 212.086 28.7453L212.288 28.9095L201.236 42.7158Z" fill="white"/>
<path opacity="0.55" d="M190.474 35.1874L190.246 35.0863C187.72 33.4821 185.194 32.0674 182.667 30.7916L182.453 30.6274L190.663 14.8379L190.878 15.0021C193.96 16.581 196.865 18.2232 199.619 19.9789L199.834 20.0926L190.474 35.1874Z" fill="white"/>
<path opacity="0.7" d="M72.2295 34.3411L63.0084 19.1074L63.2358 18.9937L65.9263 17.4021L66.1916 17.2885L75.0337 32.7242L74.819 32.8758C74.0232 33.3053 73.2779 33.7853 72.4821 34.2526L72.2295 34.3411Z" fill="white"/>
<path opacity="0.76" d="M75.0463 32.699L66.3053 17.1748L66.5705 17.0611C69.4758 15.3684 72.4947 13.8274 75.4126 12.4505L75.6779 12.3495L83.2568 28.4548L82.9916 28.5684C80.339 29.8316 77.7495 31.1579 75.3116 32.5348L75.0463 32.699Z" fill="white"/>
<path opacity="0.83" d="M182.478 30.6273L182.2 30.5137C181.417 30.0968 180.621 29.68 179.825 29.2505L179.56 29.1495L187.341 13.0947L187.568 13.2463C188.566 13.7263 189.476 14.1431 190.36 14.6231L190.587 14.7368L182.478 30.6273Z" fill="white"/>
<path opacity="0.82" d="M170.44 25.2842L170.225 25.1705C167.585 24.2105 164.819 23.2632 162.015 22.4674H161.749L166.676 5.35156H166.954C170.023 6.24841 173.269 7.30946 176.427 8.52209H176.693L170.44 25.2842Z" fill="white"/>
<path opacity="0.41" d="M92.4274 24.6905L86.44 7.94106L86.6547 7.84C87.6526 7.52421 88.6 7.14526 89.6232 6.82947H89.8758L95.2821 23.2505H95.3958L90.0526 6.82947L90.2547 6.71579C93.4758 5.65474 96.7221 4.75789 99.9558 3.97473H100.158L104.352 21.3053H104.086C101.434 21.9368 98.7305 22.7326 96.0779 23.579V23.68H95.4084L95.1305 23.7937C94.2842 24.059 93.4253 24.3747 92.6042 24.6779L92.4274 24.6905Z" fill="white"/>
<path opacity="0.81" d="M161.699 22.3663L161.219 22.2526L158.895 21.6337H158.629L163.088 4.3537H163.354C164.364 4.60633 165.312 4.88422 166.322 5.20001H166.587L161.699 22.3663Z" fill="white"/>
<path opacity="0.58" d="M148.878 19.4989H148.6C145.682 19.0316 142.827 18.6526 140.011 18.4379H139.758L141.173 0.753662H141.451C144.747 1.00629 148.069 1.43577 151.417 2.01682H151.682L148.878 19.4989Z" fill="white"/>
<path opacity="0.59" d="M114.053 19.2842V18.9684L111.526 1.63787H111.792C112.815 1.49892 113.813 1.38524 114.874 1.27156H115.139L117.211 18.4379H117.299L115.303 1.22103H115.556C118.954 0.854712 122.288 0.576822 125.585 0.475769H125.851L126.482 18.2863H126.217C123.396 18.3874 120.6 18.5979 117.829 18.9179H117.577H117.261H116.996C116.086 19.0189 115.253 19.1326 114.343 19.2842H114.053Z" fill="white"/>
<path opacity="0.75" d="M139.644 18.3747H139.177C138.381 18.3747 137.522 18.2863 136.739 18.2231H136.474L137.421 0.412598H137.699C138.76 0.412598 139.758 0.576816 140.768 0.627342H141.034L139.644 18.3747Z" fill="white"/>
</svg>
