<svg width="398" height="399" viewBox="0 0 398 399" fill="none" xmlns="http://www.w3.org/2000/svg">
<path opacity="0.62" d="M209.036 9.15157H205.992C205.019 9.15157 203.832 9.15157 202.493 9.15157H200.333C199.575 9.15157 198.779 9.15157 197.945 9.15157C189.808 9.36306 181.691 10.0802 173.642 11.2989L170.371 11.8168L167.112 12.3979C164.964 12.7768 162.88 13.2695 160.796 13.661C159.785 13.8758 158.787 14.1284 157.802 14.3558C156.817 14.5832 155.882 14.8105 154.973 15.0632C153.116 15.5558 151.36 15.9853 149.768 16.4526C146.56 17.3621 143.933 18.2337 142.088 18.8147L139.183 19.8126L136.48 12.0442L139.499 11.0084C141.432 10.4021 144.173 9.48 147.533 8.4821C149.175 7.97684 151.006 7.54736 152.926 7.02947C153.886 6.75157 154.884 6.54947 155.895 6.29684L159.015 5.5642C161.137 5.13473 163.322 4.62947 165.571 4.30105C166.682 4.09894 167.832 3.87157 168.956 3.69473L172.379 3.13894C180.746 1.8715 189.183 1.1248 197.642 0.903152C198.501 0.903152 199.347 0.903152 200.168 0.903152H202.417C203.819 0.903152 205.057 0.903152 206.067 0.903152H209.238L209.036 9.15157Z" fill="white"/>
<path opacity="0.63" d="M208.644 22.0105H206.269C205.512 22.0105 204.589 22.0105 203.554 22.0105H200.017C193.709 22.1155 187.411 22.537 181.145 23.2737C174.882 24.0281 168.663 25.1117 162.514 26.52L159.065 27.3284L156.438 28.0232L154.771 28.4653L154.164 28.6295L151.941 20.6337L152.573 20.4695C152.964 20.3684 153.571 20.1916 154.341 20.0021C155.112 19.8126 156.034 19.5474 157.082 19.2947L160.669 18.4232C173.545 15.4715 186.695 13.888 199.903 13.699H203.579C204.678 13.699 205.638 13.699 206.421 13.699C207.987 13.699 208.947 13.699 208.947 13.699L208.644 22.0105Z" fill="white"/>
<g opacity="0.75">
<path opacity="0.75" d="M332.825 312.171L333.356 311.526C333.709 311.109 334.202 310.491 334.846 309.707C335.149 309.316 335.516 308.899 335.895 308.444C336.274 307.989 336.653 307.446 337.095 306.903C337.537 306.36 337.992 305.766 338.472 305.135L339.937 303.139L340.72 302.065C340.998 301.712 341.251 301.333 341.516 300.954C342.034 300.183 342.589 299.4 343.171 298.604C344.269 296.949 345.432 295.232 346.568 293.4C348.88 289.749 351.217 285.821 353.339 281.691C355.461 277.56 357.457 273.442 359.137 269.488C360.817 265.535 362.244 261.771 363.394 258.512C363.937 256.869 364.442 255.366 364.872 254.027L365.92 250.554L366.779 247.509L392.042 254.381C392.042 254.381 391.688 255.644 391.069 257.905C390.716 259.004 390.299 260.356 389.806 261.909C389.314 263.463 388.733 265.181 388.101 267.063C386.762 270.853 385.145 275.198 383.175 279.771C381.204 284.343 378.956 289.156 376.48 293.855C374.004 298.554 371.326 303.152 368.686 307.371C367.36 309.48 365.996 311.463 364.745 313.371C364.076 314.305 363.482 315.215 362.825 316.099L361.928 317.362C361.613 317.779 361.297 318.208 361.006 318.625C360.425 319.446 359.857 320.204 359.314 320.937C358.771 321.669 358.24 322.352 357.735 322.971L356.345 324.764C355.916 325.32 355.486 325.8 355.082 326.267C354.362 327.152 353.819 327.884 353.377 328.364L352.758 329.084L332.825 312.171Z" fill="white"/>
<path opacity="0.75" d="M348.943 325.749C348.943 325.749 349.171 325.522 349.562 325.042C349.954 324.562 350.497 323.88 351.217 323.008C351.583 322.579 351.962 322.099 352.392 321.568L353.756 319.825C354.236 319.181 354.766 318.562 355.297 317.829L356.939 315.581C357.229 315.189 357.533 314.798 357.823 314.394L358.72 313.131C359.326 312.284 359.983 311.387 360.577 310.491C361.84 308.646 363.103 306.701 364.366 304.629C366.893 300.524 369.583 296.078 371.945 291.48C374.307 286.882 376.556 282.208 378.463 277.749C380.371 273.291 381.962 269.046 383.251 265.383C383.857 263.539 384.425 261.859 384.918 260.331C385.411 258.802 385.777 257.501 386.105 256.415C386.712 254.242 387.053 252.979 387.053 252.979L391.663 254.242L390.678 257.754C390.362 258.853 389.933 260.204 389.415 261.758C388.897 263.312 388.341 265.017 387.709 266.899C386.383 270.688 384.779 275.021 382.808 279.594C380.838 284.166 378.577 288.954 376.114 293.653C373.651 298.352 370.973 302.937 368.333 307.143C367.069 309.265 365.655 311.236 364.392 313.143C363.735 314.065 363.128 314.975 362.484 315.859C362.181 316.301 361.865 316.718 361.575 317.122C361.284 317.526 360.968 317.943 360.665 318.385C360.072 319.181 359.516 319.952 358.973 320.672C358.429 321.392 357.899 322.074 357.394 322.718C356.888 323.362 356.434 323.981 355.992 324.499C355.549 325.017 355.158 325.547 354.792 325.989C354.072 326.899 353.528 327.606 353.086 328.074L352.48 328.806L348.943 325.749Z" fill="white"/>
</g>
<g opacity="0.84">
<path opacity="0.84" d="M269.756 358.92L270.526 358.592C271.019 358.377 271.789 358.086 272.661 357.644C273.533 357.202 274.682 356.735 275.958 356.128L277.966 355.143L280.177 354.044C280.947 353.64 281.731 353.211 282.564 352.781L285.091 351.392L286.354 350.672L287.693 349.901C288.589 349.371 289.499 348.865 290.434 348.297C294.122 346.061 298.013 343.522 301.714 340.857C308.584 335.938 315.074 330.507 321.128 324.613C323.655 322.225 325.613 320.141 326.977 318.676C327.672 317.943 328.24 317.413 328.556 316.945L329.099 316.339L348.615 333.897C348.615 333.897 348.375 334.137 347.971 334.592C347.566 335.046 346.947 335.754 346.139 336.587C344.547 338.293 342.274 340.693 339.394 343.459L337.158 345.619L334.707 347.792C333.886 348.587 333.002 349.345 332.093 350.141C331.183 350.937 330.286 351.733 329.326 352.528C325.537 355.737 321.318 359.008 317.011 362.116C312.703 365.223 308.269 368.128 303.975 370.693C302.926 371.349 301.853 371.956 300.817 372.549L299.288 373.434C298.771 373.737 298.265 374.002 297.76 374.28L294.855 375.872L292.076 377.299C291.217 377.766 290.345 378.183 289.549 378.562L287.213 379.699C285.773 380.406 284.484 380.962 283.423 381.467C282.362 381.973 281.528 382.301 280.897 382.554L280.025 382.933L269.756 358.92Z" fill="white"/>
<path opacity="0.84" d="M278.08 378.297L278.926 377.956C279.482 377.716 280.316 377.362 281.314 376.869C282.312 376.377 283.613 375.846 285.103 375.164C285.823 374.823 286.568 374.457 287.352 374.053C288.135 373.648 288.981 373.269 289.878 372.789L292.568 371.387C293.491 370.907 294.438 370.364 295.411 369.846L296.888 369.025L298.392 368.154C299.402 367.573 300.451 366.992 301.461 366.347C305.629 363.821 309.949 360.979 314.093 357.96C318.236 354.941 322.392 351.783 326.093 348.663C327.015 347.88 327.899 347.084 328.783 346.301C329.667 345.518 330.526 344.811 331.309 344.04C332.093 343.269 332.939 342.562 333.697 341.855C334.455 341.147 335.175 340.415 335.869 339.758C338.661 337.055 340.922 334.705 342.451 333.063C343.234 332.242 343.815 331.573 344.232 331.118L344.863 330.436L348.413 333.644C348.413 333.644 348.173 333.884 347.768 334.339C347.364 334.794 346.745 335.476 345.937 336.322C344.358 338.015 342.059 340.402 339.204 343.181L336.981 345.328C336.173 346.048 335.364 346.806 334.531 347.589C333.697 348.373 332.813 349.118 331.903 349.901C330.994 350.684 330.097 351.493 329.124 352.301C325.335 355.535 321.154 358.756 316.859 361.863C312.564 364.971 308.118 367.876 303.836 370.427C302.775 371.097 301.739 371.691 300.691 372.297C300.173 372.587 299.655 372.878 299.149 373.181C298.644 373.484 298.139 373.749 297.634 374.015C296.623 374.571 295.663 375.114 294.728 375.606L291.962 377.046C291.091 377.488 290.232 377.931 289.436 378.309L287.112 379.459C285.672 380.154 284.371 380.722 283.322 381.202C282.274 381.682 281.44 382.048 280.872 382.301L279.987 382.68L278.08 378.297Z" fill="white"/>
</g>
<g opacity="0.51">
<path opacity="0.51" d="M192.425 372.234H193.246L195.583 372.335C196.606 372.335 197.819 372.448 199.221 372.448C200.623 372.448 202.215 372.524 203.945 372.512C204.804 372.512 205.714 372.512 206.636 372.512L209.528 372.423C210.501 372.423 211.524 372.347 212.56 372.284C213.596 372.221 214.657 372.17 215.731 372.082C220.038 371.766 224.573 371.236 229.158 370.528C230.295 370.352 231.419 370.187 232.543 369.985L235.916 369.379C238.139 368.899 240.312 368.457 242.408 367.939C244.505 367.421 246.526 366.89 248.421 366.398C249.394 366.12 250.291 365.842 251.2 365.602L252.463 365.21C252.893 365.072 253.309 364.933 253.726 364.819L256.076 364.061C256.821 363.834 257.528 363.568 258.173 363.354L260.055 362.697L261.608 362.116L263.806 361.307L264.375 361.093L264.577 361.004L274.076 385.383L273.861 385.472C273.643 385.573 273.42 385.662 273.192 385.737L270.665 386.684L268.859 387.341L266.712 388.086C265.954 388.339 265.133 388.642 264.286 388.907L261.545 389.792L260.093 390.234C259.587 390.385 259.095 390.549 258.564 390.688L255.381 391.61C253.171 392.192 250.859 392.874 248.421 393.404C245.983 393.935 243.482 394.516 240.918 395.046C239.655 395.274 238.392 395.514 237.04 395.779C235.688 396.044 234.413 396.183 233.112 396.41C227.844 397.206 222.577 397.813 217.613 398.179C216.349 398.293 215.086 398.343 213.949 398.406C212.813 398.469 211.587 398.545 210.451 398.571C209.314 398.596 208.202 398.57 207.128 398.684C206.055 398.798 205.019 398.684 204.034 398.684C202.025 398.684 200.244 398.684 198.577 398.684C196.909 398.684 195.558 398.596 194.396 398.558L191.718 398.432H190.758L192.425 372.234Z" fill="white"/>
<path opacity="0.51" d="M191.137 393.265L192.046 393.354L194.674 393.455C195.811 393.455 197.2 393.581 198.766 393.594C200.333 393.606 202.101 393.657 204.034 393.594H207.065L210.299 393.505C211.411 393.505 212.56 393.417 213.722 393.354C214.884 393.291 216.072 393.227 217.297 393.126C222.122 392.773 227.263 392.179 232.379 391.396C233.642 391.168 234.905 390.992 236.168 390.764L239.958 390.057C242.484 389.552 244.909 389.046 247.284 388.465C249.659 387.884 251.907 387.278 254.042 386.722C255.116 386.419 256.152 386.128 257.162 385.825L258.64 385.396L260.042 384.941L262.72 384.107L265.095 383.274L267.166 382.566C267.798 382.314 268.429 382.112 268.935 381.909L271.461 381L272.105 380.747L272.32 380.659L274.063 385.093C273.992 385.135 273.915 385.169 273.836 385.194C273.62 385.292 273.396 385.373 273.166 385.434C272.598 385.674 271.739 385.989 270.64 386.381L268.834 387.076C268.189 387.278 267.457 387.531 266.699 387.808L264.261 388.642L261.533 389.488L260.08 389.956L258.564 390.398C257.528 390.701 256.48 391.029 255.381 391.333C253.158 391.914 250.846 392.596 248.421 393.101C245.996 393.606 243.495 394.225 240.943 394.743C239.68 394.983 238.354 395.211 237.065 395.476C235.777 395.741 234.451 395.905 233.137 396.107C227.907 396.903 222.627 397.535 217.676 397.888C216.413 397.989 215.149 398.04 214.013 398.116C212.876 398.192 211.651 398.242 210.514 398.28C209.377 398.318 208.278 398.343 207.192 398.394H204.109C202.101 398.394 200.32 398.394 198.665 398.394C197.011 398.394 195.659 398.318 194.497 398.267L191.806 398.154L190.859 398.078L191.137 393.265Z" fill="white"/>
</g>
<g opacity="0.57">
<path opacity="0.57" d="M117.356 349.434L118.063 349.851L120.097 351.013C120.968 351.505 122.055 352.086 123.293 352.743C124.531 353.4 125.945 354.133 127.474 354.903C135.014 358.661 142.825 361.849 150.842 364.44C155.238 365.829 159.684 367.055 163.865 368.065C164.914 368.293 165.949 368.52 166.947 368.76C167.945 369 168.968 369.164 169.941 369.354C171.861 369.758 173.731 370.048 175.411 370.339C177.091 370.629 178.682 370.844 180.072 371.034L183.684 371.476C184.682 371.627 185.478 371.678 186.008 371.728L186.842 371.804L184.379 397.863L183.432 397.775C182.8 397.712 181.891 397.623 180.741 397.484C179.592 397.345 178.215 397.181 176.573 396.979C174.931 396.777 173.175 396.499 171.217 396.17C169.259 395.842 167.112 395.501 164.901 395.034C163.777 394.806 162.627 394.617 161.453 394.326C160.278 394.036 159.091 393.783 157.865 393.53C153.015 392.394 147.899 391.004 142.846 389.349C133.568 386.35 124.525 382.668 115.789 378.335C114.021 377.438 112.379 376.629 110.964 375.808C109.549 374.987 108.299 374.394 107.288 373.8L104.926 372.474L104.118 371.994L117.356 349.434Z" fill="white"/>
<path opacity="0.57" d="M106.695 367.661L107.503 368.116L109.789 369.379C110.762 369.96 111.987 370.642 113.364 371.337C114.741 372.032 116.345 372.891 118.076 373.775C126.576 377.998 135.38 381.583 144.413 384.499C149.352 386.065 154.341 387.429 159.053 388.566C160.24 388.832 161.402 389.109 162.552 389.349C163.701 389.589 164.813 389.792 165.912 390.032C168.072 390.474 170.168 390.815 172.051 391.143C173.933 391.472 175.752 391.699 177.293 391.914C178.834 392.128 180.223 392.293 181.347 392.419C182.472 392.545 183.368 392.646 183.975 392.697L184.897 392.785L184.442 397.535L183.495 397.459C182.863 397.459 181.966 397.307 180.817 397.168L176.674 396.663C175.057 396.411 173.263 396.183 171.305 395.855C169.347 395.526 167.213 395.185 164.989 394.718C163.878 394.491 162.728 394.288 161.566 394.011L157.992 393.215C153.154 392.065 148.025 390.688 142.973 389.046C133.708 386.073 124.677 382.416 115.954 378.107C114.173 377.211 112.531 376.402 111.116 375.581C109.701 374.76 108.463 374.166 107.453 373.573C106.442 372.979 105.646 372.575 105.116 372.309L104.282 371.829L106.695 367.661Z" fill="white"/>
</g>
<g opacity="0.72">
<path opacity="0.72" d="M60.5642 295.232L61.0316 295.914C61.1663 296.158 61.3431 296.436 61.5621 296.747C61.7895 297.076 62.0421 297.442 62.3074 297.872C63.4442 299.526 65.0863 301.901 67.1705 304.667C72.2463 311.412 77.8063 317.778 83.8063 323.716C87.0779 326.949 90.501 330.032 93.7979 332.823C97.0947 335.615 100.291 338.065 103.107 340.099C104.484 341.135 105.785 342.006 106.897 342.815C108.008 343.623 109.057 344.28 109.916 344.836C110.775 345.392 111.419 345.821 111.874 346.099L112.568 346.528L98.6737 368.697L97.8653 368.179C97.36 367.851 96.6021 367.37 95.6042 366.726L92.1179 364.377C90.8547 363.455 89.2884 362.432 87.6968 361.244C84.4632 358.907 80.8 356.053 76.9853 352.857C73.1705 349.661 69.2421 346.074 65.4526 342.347C58.53 335.498 52.1172 328.152 46.2653 320.368C43.8653 317.198 41.9831 314.469 40.6695 312.537C40.3537 312.057 40.0631 311.627 39.7979 311.274C39.5326 310.92 39.3432 310.566 39.1537 310.301C38.8253 309.796 38.661 309.505 38.661 309.505L60.5642 295.232Z" fill="white"/>
<path opacity="0.72" d="M42.88 306.726C42.88 306.726 43.0695 306.992 43.3853 307.509L44.0042 308.444C44.2442 308.811 44.5347 309.215 44.8505 309.707C46.1137 311.589 47.9705 314.229 50.3074 317.349C55.9972 324.934 62.2462 332.082 69.0021 338.735C72.6905 342.385 76.4926 345.872 80.2316 348.979C83.9705 352.086 87.5326 354.878 90.6653 357.152C92.2316 358.301 93.6842 359.299 94.96 360.221L98.3705 362.495C99.2926 363.126 100.051 363.581 100.568 363.922C101.086 364.263 101.364 364.427 101.364 364.427L98.8379 368.444C98.8379 368.444 98.56 368.28 98.0421 367.926C97.5242 367.573 96.7789 367.143 95.7558 366.474C94.7326 365.804 93.6337 365.046 92.2821 364.162C90.9305 363.278 89.4653 362.192 87.861 361.017C84.6526 358.693 80.9768 355.813 77.1747 352.642C73.3726 349.472 69.4568 345.872 65.6674 342.133C58.7439 335.31 52.3388 327.98 46.5053 320.204C44.1053 317.021 42.2232 314.305 40.9221 312.373C40.6063 311.905 40.3032 311.488 40.0505 311.109C39.7979 310.73 39.5958 310.402 39.4189 310.149C39.0905 309.619 38.901 309.354 38.901 309.354L42.88 306.726Z" fill="white"/>
</g>
<g opacity="0.65">
<path opacity="0.65" d="M371.061 275.792C371.142 275.157 371.055 274.512 370.808 273.922C370.728 273.689 370.601 273.476 370.433 273.296C370.266 273.115 370.063 272.972 369.837 272.874C369.611 272.777 369.368 272.727 369.122 272.73C368.876 272.732 368.633 272.785 368.408 272.886C367.822 273.113 367.301 273.482 366.893 273.96C366.413 274.49 366.016 275.091 365.718 275.741C365.434 276.406 365.247 277.108 365.162 277.825C365.068 278.443 365.137 279.075 365.364 279.657C365.436 279.893 365.558 280.111 365.72 280.297C365.882 280.484 366.082 280.633 366.306 280.737C366.53 280.841 366.774 280.896 367.02 280.899C367.267 280.902 367.512 280.854 367.739 280.756C368.344 280.537 368.887 280.173 369.318 279.695C369.803 279.159 370.199 278.549 370.493 277.888C370.795 277.225 370.987 276.517 371.061 275.792ZM369.368 277.408C369.222 277.742 369.021 278.049 368.775 278.318C368.574 278.565 368.306 278.749 368.004 278.848C367.891 278.899 367.768 278.925 367.644 278.925C367.52 278.925 367.398 278.899 367.284 278.848C367.176 278.797 367.079 278.725 366.999 278.636C366.919 278.547 366.857 278.443 366.817 278.331C366.705 278.032 366.666 277.712 366.703 277.396C366.735 277.033 366.829 276.678 366.981 276.347C367.122 276.018 367.323 275.718 367.575 275.463C367.777 275.218 368.038 275.027 368.333 274.907C368.561 274.824 368.811 274.824 369.04 274.907C369.27 275.016 369.447 275.211 369.533 275.45C369.648 275.743 369.683 276.062 369.634 276.373C369.608 276.731 369.519 277.082 369.368 277.408Z" fill="white"/>
<path opacity="0.65" d="M367.726 282.537L364.051 280.844C363.697 280.655 363.368 280.945 363.015 281.653C362.661 282.36 362.775 282.562 363.103 282.726L365.048 283.712L363.229 284.583C362.775 284.81 362.307 285.025 361.966 285.177L361.398 285.429C361.118 285.577 360.889 285.806 360.741 286.086C360.362 286.819 360.337 287.274 360.653 287.425L364.253 289.358C364.581 289.522 364.96 289.244 365.352 288.537C365.743 287.829 365.592 287.64 365.288 287.463L363.343 286.427L363.924 286.187L365.187 285.581C366.109 285.152 367.032 284.684 367.032 284.684C367.318 284.507 367.55 284.253 367.701 283.952C368.105 283.168 368.105 282.701 367.726 282.537Z" fill="white"/>
<path opacity="0.65" d="M363.735 290.116L360.286 288.246C359.907 288.044 359.554 288.246 359.225 288.853C359.225 288.853 358.556 290.015 357.962 291.164C357.634 291.758 357.293 292.301 357.053 292.743C356.813 293.185 356.623 293.438 356.623 293.438C356.269 294.057 356.269 294.461 356.623 294.701C356.977 294.941 357.394 294.701 357.747 294.107C357.747 294.107 358.303 293.198 358.808 292.288C359.314 291.379 359.87 290.444 359.87 290.444L362.131 291.707L361.069 293.589C360.539 294.524 359.996 295.446 359.996 295.446C359.617 296.078 359.617 296.507 359.996 296.709C360.375 296.912 360.716 296.709 361.057 296.154L361.512 295.408C361.777 294.979 362.105 294.373 362.459 293.766L363.811 291.379C364.126 290.76 364.114 290.318 363.735 290.116ZM359.617 292.099C359.617 292.099 359.352 292.592 359.086 293.046C358.96 293.286 358.821 293.501 358.733 293.691C358.68 293.791 358.621 293.888 358.556 293.981C358.177 294.575 358.177 294.992 358.556 295.244C358.935 295.497 359.301 295.244 359.667 294.625C359.737 294.54 359.796 294.446 359.844 294.347C359.945 294.158 360.084 293.943 360.223 293.703C360.501 293.236 360.754 292.743 360.754 292.743C361.095 292.162 361.082 291.733 360.754 291.48C360.425 291.227 359.971 291.505 359.617 292.099Z" fill="white"/>
</g>
<g opacity="0.51">
<path opacity="0.51" d="M322.013 341.691C321.722 341.337 321.318 341.438 320.749 341.893L319.486 342.928L317.402 340.402C317.124 340.086 316.733 340.149 316.139 340.592C315.545 341.034 315.469 341.438 315.722 341.766L317.794 344.293L316.531 345.303C315.962 345.771 315.811 346.187 316.101 346.566C316.392 346.945 316.758 346.844 317.288 346.415L317.958 345.897L318.653 345.328C318.893 345.126 319.171 344.924 319.436 344.684L321.558 342.928C322.152 342.423 322.278 342.019 322.013 341.691Z" fill="white"/>
<path opacity="0.51" d="M311.794 344.103C311.568 344.256 311.385 344.465 311.263 344.709C311.187 344.886 310.834 345.771 310.24 347.337C308.573 347.488 307.638 347.526 307.423 347.552C307.154 347.597 306.898 347.705 306.678 347.867C306.122 348.284 305.958 348.676 306.198 349.029L308.472 352.225C308.712 352.604 309.154 352.554 309.735 352.124C310.316 351.695 310.48 351.316 310.227 350.949L308.888 349.055L310.48 348.941C310.752 348.891 311.005 348.769 311.213 348.587C311.441 348.436 311.624 348.227 311.743 347.981C311.819 347.779 312.008 347.286 312.337 346.516L313.714 348.335C313.979 348.676 314.396 348.638 314.977 348.196C315.545 347.766 315.697 347.375 315.419 347.046L313.019 344.002C312.754 343.611 312.362 343.648 311.794 344.103Z" fill="white"/>
<path opacity="0.51" d="M306.046 354.309C306.446 353.816 306.715 353.229 306.829 352.604C306.882 352.364 306.886 352.115 306.839 351.874C306.793 351.632 306.697 351.403 306.559 351.199C306.421 350.996 306.242 350.823 306.035 350.691C305.827 350.559 305.595 350.47 305.352 350.432C304.73 350.308 304.087 350.343 303.482 350.533C302.792 350.721 302.139 351.024 301.549 351.429C300.95 351.828 300.414 352.313 299.958 352.869C299.556 353.352 299.286 353.931 299.175 354.549C299.066 355.029 299.147 355.531 299.402 355.952C299.534 356.157 299.706 356.333 299.908 356.47C300.11 356.606 300.337 356.701 300.577 356.747C301.192 356.862 301.825 356.823 302.421 356.634C303.127 356.452 303.797 356.153 304.404 355.749C305.02 355.354 305.574 354.868 306.046 354.309ZM303.722 354.714C303.419 354.912 303.086 355.061 302.737 355.156C302.431 355.237 302.108 355.237 301.802 355.156C301.559 355.103 301.344 354.964 301.196 354.764C301.067 354.552 301.022 354.3 301.069 354.057C301.133 353.75 301.272 353.463 301.474 353.223C301.692 352.939 301.962 352.699 302.269 352.516C302.572 352.31 302.904 352.152 303.255 352.048C303.556 351.962 303.876 351.962 304.177 352.048C304.295 352.067 304.408 352.109 304.51 352.172C304.612 352.235 304.701 352.318 304.771 352.415C304.903 352.63 304.949 352.887 304.897 353.135C304.85 353.45 304.719 353.747 304.518 353.994C304.278 354.275 303.997 354.517 303.684 354.714H303.722Z" fill="white"/>
</g>
<g opacity="0.7">
<path opacity="0.7" d="M253.941 378.512C253.827 378.107 253.436 377.994 252.678 378.196L251.895 378.423L251.124 378.625L250.265 375.467C250.139 375.051 249.735 374.937 249.065 375.139C248.396 375.341 248.105 375.606 248.194 376.023L249.027 379.181L247.474 379.598C246.779 379.762 246.463 380.078 246.564 380.507C246.665 380.937 247.057 381.038 247.714 380.874C247.714 380.874 249.04 380.52 250.379 380.192C251.036 380.015 251.718 379.838 252.198 379.686L253.044 379.472C253.777 379.244 254.067 378.928 253.941 378.512Z" fill="white"/>
<path opacity="0.7" d="M244.846 381.581C245.566 381.417 245.869 381.114 245.756 380.684L244.834 376.895C244.749 376.491 244.358 376.364 243.659 376.516C242.989 376.705 242.686 377.008 242.775 377.4L243.634 381.189C243.747 381.619 244.126 381.745 244.846 381.581ZM239.541 382.756C240.236 382.592 240.577 382.314 240.476 381.897L240.198 380.634L241.752 380.305C242.484 380.141 242.813 379.863 242.699 379.408C242.585 378.954 242.194 378.865 241.436 379.017L239.907 379.345L239.642 378.082C239.554 377.64 239.162 377.501 238.467 377.64C237.785 377.792 237.469 378.069 237.545 378.499L238.303 382.288C238.429 382.756 238.834 382.907 239.541 382.756Z" fill="white"/>
<path opacity="0.7" d="M237.394 382.503L236.661 378.638C236.573 378.196 236.194 378.07 235.499 378.196C234.804 378.322 234.476 378.6 234.564 379.03L235.133 382.263C235.133 382.263 234.552 382.339 233.945 382.453L232.783 382.642C232.227 382.735 231.937 382.672 231.912 382.453C231.848 382.238 232.126 382.099 232.67 382.011L233.427 381.897C234.147 381.771 234.463 381.493 234.387 381.051C234.387 380.848 234.135 380.672 233.731 380.482L231.368 379.219C231.03 379.075 230.659 379.027 230.295 379.08C229.613 379.194 229.297 379.459 229.347 379.888C229.37 379.991 229.417 380.086 229.486 380.165C229.554 380.245 229.641 380.306 229.739 380.343L231.166 380.937C230.941 380.965 230.724 381.039 230.529 381.154C230.333 381.27 230.163 381.423 230.03 381.606C229.812 381.962 229.732 382.383 229.802 382.794C229.865 383.223 230.181 383.552 230.775 383.779C231.386 384.032 232.057 384.103 232.707 383.981L234.602 383.691L236.484 383.324C237.154 383.16 237.47 382.92 237.394 382.503Z" fill="white"/>
<path opacity="0.7" d="M228.943 383.893L228.387 380.002C228.387 379.585 227.958 379.434 227.263 379.522L224.636 379.863L221.996 380.154C221.301 380.229 220.973 380.469 221.036 380.912C221.099 381.354 221.44 381.518 222.16 381.455L224.257 381.227L225.71 381.038C226.114 380.975 226.379 380.962 226.379 380.962L226.707 383.488L226.025 383.564C225.621 383.564 225.116 383.703 224.56 383.754C223.499 383.88 222.425 383.981 222.425 383.981C221.693 384.082 221.364 384.347 221.402 384.777C221.44 385.206 221.819 385.37 222.488 385.295L225.229 385.004C226.606 384.84 227.958 384.638 227.958 384.638C228.665 384.587 229.006 384.322 228.943 383.893ZM224.888 381.808L222.754 382.036C222.046 382.112 221.718 382.364 221.743 382.794C221.768 383.223 222.185 383.413 222.893 383.324L225.053 383.084C225.76 383.008 226.063 382.743 226.013 382.301C225.962 381.859 225.583 381.707 224.888 381.808Z" fill="white"/>
<path opacity="0.7" d="M220.455 384.916L220.076 381C220.076 380.583 219.659 380.381 218.964 380.457L216.324 380.672C215.667 380.672 214.998 380.76 214.505 380.773H213.684C212.989 380.773 212.661 381.063 212.674 381.505C212.686 381.947 213.078 382.124 213.785 382.099C213.785 382.099 214.821 382.023 215.907 381.973C216.994 381.922 218.004 381.796 218.004 381.796L218.232 384.322C218.232 384.322 217.145 384.436 216.072 384.512L213.937 384.638C213.192 384.638 212.851 384.941 212.863 385.371C212.876 385.8 213.255 385.989 213.924 385.952H214.783C215.301 385.952 215.983 385.888 216.665 385.825C218.042 385.699 219.419 385.598 219.419 385.598C220.139 385.598 220.48 385.345 220.455 384.916ZM216.526 382.604H216.198C215.996 382.604 215.731 382.604 215.453 382.604L214.392 382.68C213.672 382.68 213.331 382.971 213.331 383.4C213.331 383.829 213.76 384.019 214.467 383.981H215.554H216.299H216.627C217.335 383.918 217.676 383.665 217.638 383.236C217.6 382.806 217.196 382.554 216.526 382.604Z" fill="white"/>
</g>
<g opacity="0.85">
<path opacity="0.85" d="M165.242 381.821L166.063 377.968C166.139 377.552 165.823 377.299 165.141 377.135C164.459 376.971 164.067 377.135 163.966 377.526L163.688 378.79L161.592 378.322C161.074 378.221 160.568 378.082 160.177 377.981L159.533 377.83C158.838 377.653 158.446 377.83 158.333 378.196C158.219 378.562 158.522 378.916 159.204 379.093L159.874 379.257L161.301 379.611L163.398 380.065L163.259 380.709L161.175 380.242L159.735 379.888L159.078 379.724C158.371 379.56 157.954 379.724 157.815 380.116C157.676 380.507 158.004 380.798 158.661 380.987C158.661 380.987 158.989 380.987 159.495 381.189L160.341 381.404L161.339 381.619C162.678 381.922 164.017 382.251 164.017 382.251C164.737 382.402 165.166 382.263 165.242 381.821Z" fill="white"/>
<path opacity="0.85" d="M154.72 379.61C155.357 379.612 155.982 379.437 156.526 379.105C156.945 378.85 157.263 378.457 157.423 377.994C157.526 377.51 157.445 377.006 157.196 376.579C156.894 376.034 156.459 375.573 155.933 375.24C155.34 374.829 154.683 374.522 153.987 374.331C153.298 374.135 152.582 374.049 151.865 374.078C151.236 374.064 150.615 374.226 150.072 374.545C149.636 374.773 149.303 375.156 149.137 375.619C149.018 376.096 149.081 376.6 149.314 377.034C149.61 377.6 150.044 378.082 150.577 378.436C151.168 378.862 151.831 379.179 152.535 379.37C153.246 379.566 153.983 379.647 154.72 379.61ZM152.901 378.107C152.56 378.002 152.233 377.853 151.928 377.665C151.66 377.494 151.442 377.254 151.297 376.97C151.232 376.861 151.19 376.74 151.173 376.614C151.156 376.489 151.163 376.361 151.196 376.238C151.277 376.005 151.438 375.808 151.651 375.682C151.929 375.543 152.236 375.469 152.547 375.467C152.91 375.453 153.272 375.496 153.621 375.594C153.967 375.686 154.296 375.836 154.594 376.036C154.862 376.21 155.086 376.443 155.251 376.718C155.361 376.937 155.388 377.188 155.326 377.425C155.26 377.662 155.107 377.865 154.897 377.994C154.611 378.14 154.296 378.222 153.975 378.234C153.612 378.247 153.25 378.205 152.901 378.107Z" fill="white"/>
<path opacity="0.85" d="M147.608 377.211L148.189 375.328C148.707 373.674 147.811 372.436 145.448 371.678C144.554 371.308 143.572 371.203 142.619 371.375C142.252 371.474 141.917 371.665 141.645 371.93C141.373 372.195 141.173 372.526 141.065 372.891L140.396 374.735C140.257 375.139 140.522 375.48 141.179 375.733C141.836 375.985 142.303 375.884 142.442 375.48L143.086 373.623C143.364 372.789 144.008 372.575 145.032 372.903C146.055 373.232 146.434 373.825 146.156 374.659L145.512 376.541C145.385 376.945 145.676 377.261 146.371 377.501C147.065 377.741 147.469 377.615 147.608 377.211Z" fill="white"/>
<path opacity="0.85" d="M139.474 374.432L140.851 370.73C141.002 370.326 140.737 370.023 140.067 369.758C139.398 369.493 138.994 369.581 138.804 369.985L137.629 373.029L135.394 372.17C134.876 371.968 134.648 371.754 134.737 371.564C134.825 371.375 135.103 371.362 135.634 371.564L136.341 371.817C137.023 372.095 137.44 372.006 137.604 371.602C137.68 371.4 137.604 371.122 137.326 370.768C137.326 370.768 136.985 370.213 136.644 369.619C136.442 369.341 136.291 369.076 136.152 368.861C136.013 368.646 135.949 368.495 135.949 368.495C135.741 368.186 135.447 367.944 135.103 367.8C134.446 367.522 134.042 367.585 133.84 368.002C133.805 368.097 133.795 368.2 133.813 368.3C133.831 368.4 133.875 368.493 133.941 368.571L134.851 369.834C134.653 369.741 134.437 369.693 134.219 369.693C134.001 369.693 133.785 369.741 133.587 369.834C133.213 370.016 132.92 370.331 132.766 370.718C132.692 370.953 132.682 371.203 132.738 371.443C132.793 371.683 132.912 371.904 133.082 372.082C133.481 372.61 134.019 373.017 134.636 373.257L138.211 374.634C138.931 374.912 139.36 374.836 139.474 374.432Z" fill="white"/>
</g>
<g opacity="0.57">
<path opacity="0.57" d="M84.7916 342.411L87.3179 339.417C87.5831 339.088 87.4442 338.709 86.9137 338.242C86.3831 337.775 85.9663 337.724 85.6505 338.027L84.7916 339.025C84.7916 339.025 83.9832 338.343 83.1874 337.611L81.5958 336.196C81.0779 335.716 80.661 335.64 80.3326 335.956C80.0042 336.272 80.1684 336.688 80.6989 337.143L82.2905 338.596C83.0989 339.328 83.9074 340.023 83.9074 340.023L83.4905 340.503C83.4905 340.503 82.6695 339.808 81.861 339.088L80.3453 337.686C79.8021 337.194 79.3726 337.118 79.0821 337.446C78.7916 337.775 78.9179 338.141 79.4231 338.596L81.4568 340.44C81.9747 340.907 82.5053 341.349 82.8968 341.703C83.2884 342.057 83.541 342.272 83.541 342.272C84.0968 342.739 84.4884 342.739 84.7916 342.411Z" fill="white"/>
<path opacity="0.57" d="M78.3874 336.726L81.0526 333.897C81.3432 333.568 81.2547 333.177 80.7368 332.634C80.2189 332.091 79.8021 332.078 79.4737 332.381L76.7705 335.223C76.4674 335.539 76.5937 335.943 77.1368 336.486C77.68 337.029 78.0842 337.042 78.3874 336.726Z" fill="white"/>
<path opacity="0.57" d="M70.8084 330.107C70.948 330.196 71.1108 330.24 71.2758 330.234C71.4021 330.234 72.5389 330.158 74.8884 329.905C74.6358 332.154 74.5221 333.379 74.5221 333.518C74.5203 333.681 74.5593 333.841 74.6358 333.985C74.7266 334.146 74.8369 334.294 74.9642 334.427C75.0958 334.548 75.2398 334.653 75.3937 334.743C75.5403 334.81 75.6998 334.845 75.861 334.844C75.9224 334.845 75.9833 334.833 76.0399 334.809C76.0964 334.785 76.1474 334.75 76.1895 334.705C76.3757 333.832 76.4856 332.945 76.5179 332.053C76.6947 330.36 76.7705 329.463 76.7705 329.312C76.7893 329.157 76.7536 329.001 76.6695 328.869C76.5996 328.707 76.4964 328.56 76.3663 328.44C76.2351 328.314 76.0862 328.207 75.9242 328.124C75.789 328.05 75.636 328.015 75.4821 328.023L72.7537 328.251C71.8585 328.27 70.9668 328.368 70.0884 328.541C70.0265 328.63 69.9954 328.736 70 328.844C70.006 329.01 70.0446 329.173 70.1137 329.324C70.1883 329.481 70.2911 329.622 70.4168 329.741C70.5233 329.887 70.6561 330.011 70.8084 330.107Z" fill="white"/>
<path opacity="0.57" d="M69.52 327.897L72.3747 325.194C72.7031 324.916 72.6021 324.499 72.1221 323.994C72.1221 323.994 71.2379 323.008 70.341 322.036C69.8989 321.556 69.4694 321.038 69.0779 320.672L68.6105 320.002C68.1431 319.484 67.7263 319.37 67.4231 319.648C67.12 319.926 67.1452 320.318 67.6252 320.912L69.0147 322.503L70.4547 324.082L68.5221 325.825C68.5221 325.825 67.8021 325.029 67.0695 324.246C66.3368 323.463 65.6547 322.629 65.6547 322.629C65.1747 322.086 64.7579 321.947 64.3916 322.238C64.0252 322.528 64.1516 322.907 64.5937 323.425L66.4 325.497C67.3473 326.495 68.2694 327.518 68.2694 327.518C68.7368 328.074 69.1916 328.175 69.52 327.897ZM68.901 323.349C68.8346 323.265 68.7629 323.185 68.6863 323.109C68.5473 322.97 68.3705 322.756 68.1937 322.554L67.4863 321.745C67.0316 321.227 66.6147 321.076 66.2231 321.354C65.8316 321.632 65.9705 322.061 66.4379 322.617C66.4379 322.617 66.8042 323.021 67.1452 323.425C67.3221 323.627 67.5242 323.829 67.6379 323.994L67.8779 324.234C68.3579 324.747 68.7789 324.861 69.141 324.575C69.4695 324.297 69.3937 323.88 68.901 323.349Z" fill="white"/>
</g>
<g opacity="0.66">
<path opacity="0.66" d="M268.051 24.9663C268.248 24.2539 268.246 23.5008 268.043 22.7898C267.84 22.0788 267.445 21.4376 266.901 20.9368C266.241 20.2114 265.489 19.5746 264.665 19.0421C264.208 18.7381 263.731 18.4638 263.238 18.221C262.707 17.976 262.163 17.7609 261.608 17.5768C260.538 17.2042 259.427 16.9583 258.299 16.8442C257.316 16.7526 256.326 16.7994 255.356 16.9831C254.616 17.0534 253.909 17.3263 253.314 17.772C252.719 18.2178 252.259 18.8189 251.983 19.5095C251.854 20.2285 251.914 20.969 252.157 21.6578C252.401 22.3467 252.82 22.9602 253.373 23.4379C254.029 24.123 254.777 24.7139 255.596 25.1937C256.523 25.764 257.51 26.23 258.539 26.5831C259.068 26.7616 259.608 26.905 260.156 27.0126C260.663 27.1396 261.178 27.2325 261.697 27.2905C262.644 27.4177 263.604 27.4177 264.552 27.2905C265.289 27.2501 266.002 27.0133 266.617 26.6047C267.233 26.1961 267.727 25.6304 268.051 24.9663ZM266.067 24.1958C265.819 24.6838 265.446 25.0981 264.988 25.3973C264.529 25.6965 264 25.8702 263.453 25.901C261.926 26.0859 260.378 25.9129 258.931 25.3958C255.672 24.2716 253.448 21.9474 254.017 20.0779C254.585 18.2084 257.806 17.5516 261.229 18.6884C262.743 19.1673 264.103 20.039 265.171 21.2147C265.577 21.5833 265.875 22.0555 266.033 22.5807C266.191 23.1059 266.203 23.6643 266.067 24.1958Z" fill="white"/>
</g>
<g opacity="0.83">
<path opacity="0.83" d="M289.789 35.0337C290.066 34.3505 290.15 33.605 290.035 32.8772C289.919 32.1495 289.607 31.467 289.133 30.9032C288.565 30.0987 287.894 29.3725 287.137 28.7432C286.276 28.0302 285.33 27.4276 284.32 26.9495C282.432 25.9698 280.318 25.5078 278.194 25.6105C277.454 25.5823 276.721 25.7583 276.075 26.1193C275.429 26.4802 274.894 27.0122 274.531 27.6569C274.318 28.3525 274.292 29.0916 274.453 29.8007C274.615 30.5098 274.96 31.1642 275.453 31.699C276.719 33.3198 278.351 34.6183 280.215 35.4884C281.191 35.9498 282.211 36.3136 283.259 36.5748C284.183 36.8101 285.135 36.9163 286.088 36.8905C286.813 36.9278 287.535 36.7762 288.184 36.4508C288.833 36.1253 289.386 35.637 289.789 35.0337ZM287.907 34.0484C287.601 34.5018 287.18 34.8666 286.688 35.106C286.196 35.3455 285.649 35.4512 285.103 35.4126C284.388 35.4281 283.674 35.3473 282.981 35.1726C282.182 34.9939 281.406 34.7226 280.669 34.3642C279.937 34.0168 279.242 33.5934 278.598 33.1011C278.029 32.6677 277.523 32.1576 277.095 31.5853C276.73 31.176 276.478 30.6792 276.363 30.1435C276.248 29.6077 276.274 29.0513 276.438 28.5284C276.709 28.0306 277.114 27.6187 277.608 27.3396C278.101 27.0605 278.663 26.9253 279.229 26.9495C279.962 26.9134 280.696 26.9686 281.415 27.1137C283.087 27.505 284.652 28.2597 286 29.3242C286.569 29.7963 287.071 30.3446 287.491 30.9537C287.84 31.3795 288.068 31.892 288.15 32.4367C288.233 32.9815 288.166 33.5384 287.958 34.0484H287.907Z" fill="white"/>
</g>
<g opacity="0.69">
<path opacity="0.69" d="M310.24 47.6905C310.605 47.0483 310.785 46.317 310.758 45.5785C310.731 44.84 310.499 44.1236 310.088 43.5095C309.632 42.6385 309.063 41.8315 308.396 41.1095C307.601 40.2944 306.716 39.5739 305.756 38.9621C305.269 38.6406 304.763 38.3496 304.24 38.0905C303.74 37.8478 303.225 37.6368 302.699 37.459C301.773 37.1386 300.809 36.9432 299.832 36.8779C299.102 36.769 298.356 36.8594 297.673 37.1395C296.991 37.4197 296.397 37.8792 295.954 38.4695C295.655 39.1341 295.536 39.8656 295.609 40.5905C295.683 41.3155 295.945 42.0085 296.371 42.6C296.844 43.4275 297.426 44.1879 298.101 44.8611C298.473 45.2365 298.87 45.5867 299.288 45.9095C299.712 46.2679 300.159 46.5971 300.627 46.8947C301.538 47.5145 302.517 48.0274 303.545 48.4232C304.429 48.7674 305.355 48.9884 306.299 49.08C307.02 49.2158 307.764 49.1588 308.456 48.9148C309.148 48.6708 309.764 48.2485 310.24 47.6905ZM308.497 46.4274C307.373 48.0442 304.177 47.6905 301.284 45.8716C299.976 45.0544 298.878 43.9427 298.076 42.6253C297.761 42.1773 297.569 41.6543 297.521 41.1088C297.472 40.5634 297.567 40.0147 297.798 39.5179C298.132 39.0806 298.579 38.7426 299.091 38.5401C299.603 38.3376 300.16 38.2782 300.703 38.3684C302.29 38.4793 303.817 39.016 305.124 39.9221C308.143 41.88 309.621 44.8863 308.497 46.4653V46.4274Z" fill="white"/>
</g>
<g opacity="0.43">
<path opacity="0.43" d="M328.947 62.7348C329.382 62.1389 329.645 61.4359 329.71 60.7014C329.774 59.967 329.637 59.2288 329.314 58.5663C328.961 57.6654 328.49 56.8158 327.912 56.04C327.235 55.0934 326.446 54.2324 325.562 53.4758C324.704 52.7263 323.748 52.0974 322.72 51.6063C321.84 51.175 320.905 50.8648 319.941 50.6842C319.23 50.4837 318.478 50.4812 317.765 50.6771C317.053 50.873 316.407 51.2598 315.899 51.7958C315.509 52.4247 315.295 53.1469 315.279 53.8869C315.263 54.6268 315.447 55.3574 315.811 56.0021C316.172 56.9065 316.657 57.7566 317.25 58.5284C317.925 59.3807 318.682 60.1635 319.512 60.8653C320.352 61.5627 321.267 62.1643 322.24 62.659C323.074 63.1132 323.966 63.449 324.893 63.6569C325.591 63.8664 326.331 63.8916 327.041 63.73C327.752 63.5684 328.409 63.2255 328.947 62.7348ZM327.356 61.32C326.093 62.7726 322.909 62.0653 320.257 59.88C319.94 59.6088 319.64 59.3177 319.36 59.0084C319.067 58.727 318.797 58.4229 318.552 58.099C318.113 57.5397 317.751 56.9236 317.478 56.2674C317.221 55.7839 317.094 55.2414 317.112 54.6939C317.13 54.1464 317.291 53.6132 317.579 53.1474C317.96 52.7498 318.444 52.4652 318.976 52.3248C319.509 52.1844 320.07 52.1937 320.598 52.3516C321.322 52.4833 322.024 52.7172 322.682 53.0463C323.45 53.4092 324.164 53.8768 324.804 54.4358C327.583 56.7221 328.669 59.8674 327.368 61.32H327.356Z" fill="white"/>
</g>
<path opacity="0.79" d="M345.002 79.1305C344.482 79.4981 343.873 79.721 343.238 79.7765C342.604 79.832 341.966 79.718 341.389 79.4463C340.601 79.1693 339.853 78.7869 339.166 78.3095C338.369 77.7809 337.64 77.1574 336.994 76.4526C334.265 73.5347 333.204 69.9347 334.821 68.2926C336.438 66.6505 340.152 67.7242 343.032 70.8189C343.71 71.5449 344.303 72.3459 344.8 73.2063C345.233 73.9504 345.552 74.7551 345.747 75.5937C345.963 76.1944 346.007 76.8431 345.875 77.4675C345.744 78.092 345.441 78.6676 345.002 79.1305Z" fill="white"/>
<path opacity="0.6" d="M359.642 98.1537C359.077 98.4508 358.443 98.5944 357.805 98.57C357.166 98.5456 356.545 98.3542 356.004 98.0147C355.258 97.6538 354.569 97.1857 353.958 96.6252C353.228 96.0066 352.575 95.3026 352.013 94.5284C351.722 94.1116 351.47 93.7073 351.23 93.2652C350.981 92.8621 350.766 92.4397 350.585 92.0021C350.237 91.2483 349.999 90.4486 349.878 89.6273C349.721 89.008 349.728 88.3583 349.898 87.7425C350.069 87.1268 350.397 86.566 350.851 86.1158C351.392 85.7707 352.017 85.5811 352.659 85.5678C353.3 85.5544 353.933 85.7178 354.488 86.04C355.279 86.3792 356.012 86.8394 356.661 87.4042C357.029 87.7124 357.379 88.0414 357.709 88.3894C358.058 88.7679 358.387 89.1643 358.695 89.5768C359.272 90.3645 359.763 91.2114 360.16 92.1031C360.494 92.9101 360.711 93.7609 360.804 94.6294C360.952 95.267 360.921 95.9327 360.716 96.5542C360.511 97.1756 360.14 97.7289 359.642 98.1537Z" fill="white"/>
<path opacity="0.72" d="M371.895 118.781C371.301 119.015 370.656 119.086 370.026 118.988C369.396 118.891 368.803 118.627 368.307 118.225C367.614 117.769 366.985 117.221 366.438 116.596C365.792 115.893 365.236 115.112 364.783 114.272C363.879 112.73 363.343 111.001 363.217 109.219C363.148 108.587 363.24 107.949 363.482 107.361C363.725 106.774 364.112 106.258 364.606 105.859C365.187 105.576 365.835 105.46 366.477 105.525C367.12 105.589 367.732 105.832 368.244 106.225C369.836 107.211 371.142 108.596 372.034 110.242C372.521 111.109 372.907 112.028 373.183 112.983C373.417 113.805 373.536 114.655 373.537 115.509C373.592 116.153 373.468 116.8 373.178 117.377C372.888 117.955 372.444 118.441 371.895 118.781Z" fill="white"/>
<path opacity="0.82" d="M381.545 140.735C380.925 140.894 380.274 140.887 379.657 140.714C379.041 140.541 378.48 140.208 378.034 139.749C377.404 139.214 376.848 138.598 376.379 137.918C375.831 137.129 375.374 136.282 375.015 135.392C374.29 133.752 373.97 131.963 374.08 130.175C374.078 129.534 374.242 128.904 374.557 128.346C374.871 127.788 375.325 127.322 375.874 126.992C376.485 126.788 377.14 126.756 377.768 126.898C378.396 127.041 378.973 127.353 379.436 127.8C380.885 128.97 381.997 130.505 382.657 132.246C383.042 133.157 383.313 134.112 383.465 135.088C383.574 135.927 383.574 136.776 383.465 137.615C383.465 138.261 383.285 138.895 382.946 139.446C382.607 139.997 382.122 140.443 381.545 140.735Z" fill="white"/>
<path opacity="0.74" d="M388.505 163.712C387.871 163.795 387.227 163.709 386.637 163.463C386.046 163.217 385.532 162.819 385.145 162.309C384.576 161.7 384.091 161.015 383.705 160.276C383.267 159.428 382.912 158.539 382.644 157.623C382.147 155.904 382.052 154.093 382.366 152.331C382.441 151.695 382.68 151.09 383.058 150.574C383.437 150.058 383.943 149.649 384.526 149.387C385.162 149.262 385.819 149.314 386.427 149.536C387.035 149.759 387.571 150.144 387.975 150.651C389.25 151.999 390.159 153.651 390.615 155.451C390.896 156.404 391.058 157.388 391.095 158.381C391.098 159.231 391.004 160.078 390.817 160.907C390.725 161.542 390.461 162.139 390.054 162.633C389.646 163.128 389.11 163.501 388.505 163.712Z" fill="white"/>
<path opacity="0.78" d="M392.623 187.371C391.984 187.369 391.355 187.202 390.8 186.885C390.244 186.569 389.78 186.114 389.453 185.564C388.968 184.892 388.577 184.157 388.291 183.379C387.947 182.486 387.702 181.558 387.558 180.613C387.258 178.841 387.379 177.024 387.912 175.307C388.064 174.684 388.377 174.112 388.821 173.649C389.264 173.185 389.822 172.847 390.438 172.667C391.079 172.611 391.723 172.733 392.298 173.021C392.874 173.308 393.358 173.75 393.697 174.297C394.222 174.969 394.648 175.713 394.96 176.507C395.335 177.423 395.594 178.382 395.731 179.362C395.901 180.338 395.956 181.33 395.895 182.318C395.824 183.184 395.629 184.035 395.314 184.844C395.14 185.472 394.797 186.039 394.323 186.485C393.848 186.93 393.26 187.237 392.623 187.371Z" fill="white"/>
<path opacity="0.4" d="M393.836 211.371C393.201 211.294 392.597 211.052 392.084 210.668C391.572 210.285 391.17 209.773 390.918 209.185C390.503 208.459 390.197 207.676 390.008 206.861C389.779 205.935 389.652 204.986 389.629 204.032C389.55 202.243 389.892 200.46 390.627 198.827C390.851 198.227 391.227 197.696 391.719 197.286C392.211 196.876 392.801 196.602 393.432 196.491C394.076 196.516 394.7 196.717 395.237 197.074C395.774 197.43 396.203 197.928 396.476 198.512C397.398 200.124 397.885 201.947 397.89 203.804C397.917 204.799 397.837 205.795 397.65 206.773C397.457 207.612 397.155 208.423 396.754 209.185C396.509 209.779 396.109 210.295 395.595 210.679C395.082 211.064 394.474 211.303 393.836 211.371Z" fill="white"/>
<g opacity="0.81">
<path opacity="0.81" d="M263.263 37.1179C263.471 36.4284 263.489 35.6952 263.313 34.9967C263.137 34.2982 262.775 33.6605 262.265 33.1516C261.674 32.4337 260.975 31.8116 260.194 31.3074C259.789 31.021 259.367 30.7594 258.931 30.5242C258.451 30.2969 257.933 30.0947 257.402 29.9053C256.393 29.5603 255.345 29.3398 254.282 29.2484C253.36 29.1853 252.433 29.2491 251.528 29.4379C250.816 29.5354 250.142 29.8208 249.576 30.2647C249.01 30.7087 248.572 31.2952 248.307 31.9642C248.167 32.6666 248.209 33.3932 248.431 34.0745C248.652 34.7558 249.044 35.3688 249.571 35.8547C250.172 36.5152 250.865 37.0853 251.629 37.5474C252.482 38.0897 253.404 38.5146 254.371 38.8105C254.861 38.9861 255.363 39.1255 255.874 39.2274C256.357 39.337 256.846 39.4172 257.339 39.4674C258.228 39.5623 259.125 39.5283 260.004 39.3663C260.692 39.2922 261.35 39.0478 261.919 38.6552C262.488 38.2626 262.95 37.7342 263.263 37.1179ZM261.406 36.3979C261.169 36.8801 260.812 37.2934 260.37 37.5986C259.928 37.9037 259.415 38.0905 258.88 38.1411C257.454 38.3587 255.995 38.2198 254.636 37.7369C251.604 36.6758 249.583 34.4147 250.126 32.5453C250.669 30.6758 253.764 29.9305 256.922 31.0295C258.396 31.4571 259.719 32.2936 260.737 33.4421C261.107 33.8275 261.367 34.3045 261.492 34.824C261.616 35.3436 261.6 35.8868 261.444 36.3979H261.406Z" fill="white"/>
</g>
<g opacity="0.77">
<path opacity="0.77" d="M283.651 46.5158C283.937 45.861 284.042 45.1408 283.953 44.4315C283.864 43.7222 283.585 43.0501 283.145 42.4863C282.647 41.6968 282.029 40.9894 281.314 40.3895C280.503 39.6952 279.602 39.1132 278.636 38.659C276.853 37.739 274.851 37.3323 272.851 37.4842C272.135 37.4891 271.434 37.6863 270.82 38.0552C270.207 38.4241 269.704 38.9511 269.364 39.5811C269.142 40.2549 269.097 40.9743 269.232 41.6708C269.366 42.3673 269.677 43.0177 270.135 43.56C271.268 45.1111 272.776 46.3496 274.518 47.16C275.435 47.5949 276.396 47.9295 277.385 48.1579C278.255 48.3541 279.147 48.4306 280.038 48.3853C280.749 48.4046 281.453 48.2432 282.085 47.9163C282.717 47.5893 283.256 47.1075 283.651 46.5158ZM281.882 45.5811C281.602 46.0356 281.207 46.4082 280.737 46.6611C280.266 46.9139 279.738 47.0381 279.204 47.0211C278.534 47.059 277.862 46.9995 277.208 46.8442C276.451 46.6911 275.716 46.4406 275.023 46.099C274.334 45.7652 273.692 45.3404 273.116 44.8358C272.586 44.4186 272.122 43.9248 271.739 43.3705C271.4 42.9594 271.172 42.4691 271.075 41.9454C270.977 41.4218 271.015 40.8821 271.183 40.3769C271.445 39.9059 271.827 39.5135 272.291 39.2403C272.756 38.9671 273.285 38.8231 273.823 38.8232C274.511 38.7585 275.204 38.7925 275.882 38.9242C276.656 39.0879 277.407 39.3467 278.118 39.6947C278.835 40.0342 279.51 40.4583 280.126 40.9579C280.658 41.4025 281.118 41.9265 281.491 42.5116C281.832 42.9377 282.049 43.4497 282.118 43.9913C282.187 44.5328 282.105 45.0829 281.882 45.5811Z" fill="white"/>
</g>
<g opacity="0.55">
<path opacity="0.55" d="M302.712 58.3389C303.076 57.7209 303.268 57.0165 303.268 56.2989C303.268 55.5814 303.076 54.877 302.712 54.2589C302.299 53.4266 301.776 52.6534 301.158 51.96C300.424 51.1845 299.601 50.4977 298.707 49.9137C298.245 49.6205 297.769 49.3507 297.28 49.1053C296.792 48.8863 296.312 48.6968 295.84 48.5368C294.954 48.2461 294.031 48.0845 293.099 48.0568C292.376 47.9687 291.642 48.077 290.975 48.3704C290.309 48.6638 289.733 49.1315 289.309 49.7242C289.006 50.3672 288.872 51.0766 288.918 51.7859C288.965 52.4951 289.191 53.181 289.575 53.7789C290.024 54.5877 290.576 55.335 291.217 56.0021C291.558 56.3432 291.924 56.6716 292.303 56.9874C292.701 57.3258 293.123 57.6341 293.566 57.9095C294.413 58.4736 295.33 58.9237 296.295 59.2484C297.129 59.5628 298.007 59.7501 298.897 59.8042C299.605 59.9068 300.328 59.8259 300.995 59.5694C301.663 59.3128 302.254 58.8892 302.712 58.3389ZM301.069 57.2021C299.958 58.8189 296.914 58.5916 294.211 56.8737C292.979 56.1145 291.962 55.0537 291.255 53.7916C290.966 53.3396 290.799 52.8205 290.77 52.2848C290.741 51.7491 290.852 51.2151 291.091 50.7347C291.397 50.2933 291.817 49.9428 292.306 49.7205C292.795 49.4981 293.335 49.4121 293.869 49.4716C295.366 49.5313 296.816 50.013 298.051 50.8611C300.88 52.7179 302.194 55.5979 301.069 57.2653V57.2021Z" fill="white"/>
</g>
<g opacity="0.76">
<path opacity="0.76" d="M320.181 72.4232C320.617 71.8525 320.892 71.175 320.977 70.4616C321.061 69.7482 320.952 69.0252 320.661 68.3684C320.365 67.4696 319.939 66.6186 319.398 65.8421C318.763 65.0076 318.034 64.249 317.225 63.5811C316.406 62.8887 315.497 62.3108 314.522 61.8632C313.691 61.4653 312.806 61.1929 311.895 61.0547C311.189 60.8941 310.453 60.9266 309.763 61.1489C309.074 61.3711 308.458 61.775 307.979 62.3179C307.603 62.9203 307.386 63.6083 307.348 64.3175C307.311 65.0268 307.454 65.7339 307.764 66.3726C308.078 67.205 308.503 67.9911 309.027 68.7095C309.646 69.515 310.349 70.2519 311.124 70.9074C311.893 71.5635 312.742 72.1195 313.651 72.5621C314.445 72.9761 315.296 73.2699 316.177 73.4337C316.875 73.6289 317.611 73.6383 318.313 73.461C319.016 73.2838 319.66 72.926 320.181 72.4232ZM318.691 71.16C317.427 72.6126 314.396 72.0316 311.933 69.9979C311.623 69.7546 311.335 69.484 311.074 69.1895C310.808 68.899 310.568 68.6211 310.341 68.3305C309.933 67.8026 309.609 67.2146 309.381 66.5874C309.146 66.1075 309.039 65.5753 309.07 65.0421C309.101 64.5088 309.269 63.9926 309.558 63.5432C309.919 63.1423 310.383 62.848 310.9 62.6922C311.416 62.5363 311.966 62.5248 312.488 62.6589C313.176 62.7629 313.844 62.9672 314.472 63.2653C314.822 63.4256 315.159 63.6113 315.482 63.8211C315.825 64.0458 316.154 64.2904 316.467 64.5537C319.044 66.6 320.004 69.6063 318.691 71.0589V71.16Z" fill="white"/>
</g>
<g opacity="0.71">
<path opacity="0.71" d="M335.819 88.4526C336.326 87.9421 336.683 87.3026 336.852 86.6034C337.021 85.9042 336.996 85.1721 336.779 84.4863C336.594 83.5766 336.275 82.6996 335.832 81.8842C335.307 80.9736 334.68 80.126 333.962 79.3579C333.217 78.5672 332.367 77.8828 331.436 77.3242C330.654 76.8225 329.803 76.4394 328.909 76.1874C328.248 75.8835 327.51 75.7894 326.794 75.9177C326.077 76.046 325.418 76.3907 324.903 76.9052C324.389 77.4197 324.044 78.0795 323.916 78.7958C323.787 79.512 323.881 80.2504 324.185 80.9116C324.392 81.7982 324.728 82.6495 325.183 83.4379C325.69 84.3132 326.296 85.127 326.989 85.8632C327.68 86.6096 328.461 87.2673 329.314 87.8211C330.059 88.3156 330.866 88.7105 331.714 88.9958C332.386 89.272 333.118 89.3673 333.839 89.272C334.559 89.1767 335.242 88.8942 335.819 88.4526ZM334.556 86.9621C333.078 88.2253 330.173 87.3032 327.975 84.979C327.45 84.4234 326.993 83.8088 326.61 83.1474C326.264 82.5681 326.012 81.9369 325.865 81.2779C325.688 80.7717 325.647 80.2282 325.744 79.701C325.842 79.1737 326.075 78.6811 326.421 78.2716C326.832 77.927 327.327 77.6985 327.855 77.6096C328.384 77.5208 328.927 77.5749 329.427 77.7663C330.097 77.9538 330.736 78.2389 331.322 78.6126C331.988 79.0371 332.595 79.5467 333.128 80.1284C335.389 82.5284 335.97 85.6737 334.505 86.9621H334.556Z" fill="white"/>
</g>
<g opacity="0.82">
<path opacity="0.82" d="M349.398 106.301C349.956 105.856 350.383 105.27 350.637 104.603C350.89 103.937 350.96 103.214 350.838 102.512C350.76 101.585 350.547 100.674 350.206 99.8084C349.799 98.8286 349.277 97.9001 348.653 97.0421C348.329 96.5964 347.975 96.1743 347.592 95.7789C347.241 95.4077 346.861 95.0655 346.455 94.7558C345.738 94.1591 344.938 93.6697 344.08 93.3031C343.439 92.9796 342.724 92.8313 342.008 92.8735C341.291 92.9156 340.598 93.1467 340 93.5431C339.49 94.0382 339.114 94.6553 338.908 95.3361C338.703 96.0168 338.674 96.7388 338.825 97.4337C338.939 98.3039 339.172 99.1542 339.52 99.96C339.703 100.401 339.927 100.824 340.189 101.223C340.442 101.66 340.721 102.082 341.023 102.486C341.621 103.305 342.316 104.047 343.095 104.697C343.764 105.289 344.517 105.779 345.331 106.149C345.941 106.516 346.634 106.722 347.345 106.748C348.056 106.775 348.762 106.621 349.398 106.301ZM348.286 104.659C346.657 105.745 343.891 104.469 341.971 101.893C341.093 100.744 340.52 99.3931 340.303 97.9642C340.2 97.4385 340.231 96.8951 340.395 96.3848C340.558 95.8746 340.848 95.4141 341.238 95.0463C341.688 94.7565 342.207 94.5909 342.741 94.5665C343.276 94.5421 343.808 94.6597 344.282 94.9074C345.645 95.5159 346.819 96.4802 347.68 97.6989C349.701 100.402 349.878 103.56 348.286 104.659Z" fill="white"/>
</g>
<g opacity="0.77">
<path opacity="0.77" d="M360.728 125.653C361.338 125.271 361.835 124.735 362.168 124.097C362.501 123.46 362.658 122.746 362.623 122.027C362.647 121.1 362.545 120.174 362.32 119.274C362.027 118.239 361.602 117.245 361.057 116.318C360.794 115.842 360.503 115.382 360.185 114.941C359.871 114.523 359.529 114.126 359.162 113.754C358.523 113.083 357.786 112.512 356.977 112.061C356.386 111.659 355.698 111.423 354.984 111.378C354.271 111.334 353.558 111.482 352.922 111.808C352.348 112.228 351.893 112.79 351.603 113.439C351.312 114.088 351.197 114.802 351.267 115.509C351.263 116.407 351.391 117.301 351.646 118.162C351.782 118.635 351.947 119.099 352.139 119.552C352.341 120.019 352.568 120.499 352.821 120.954C353.314 121.839 353.912 122.662 354.602 123.404C355.208 124.076 355.905 124.658 356.674 125.135C357.318 125.536 358.035 125.806 358.783 125.931C359.445 126.033 360.122 125.936 360.728 125.653ZM359.806 123.859C359.319 124.07 358.785 124.15 358.258 124.09C357.73 124.03 357.227 123.833 356.8 123.518C355.597 122.716 354.601 121.641 353.892 120.381C353.183 119.121 352.781 117.712 352.72 116.267C352.683 115.736 352.779 115.203 353 114.718C353.22 114.233 353.558 113.81 353.983 113.488C354.466 113.254 355.003 113.153 355.538 113.195C356.073 113.237 356.587 113.421 357.027 113.728C358.321 114.483 359.375 115.586 360.072 116.912C360.83 118.192 361.227 119.655 361.221 121.143C361.252 121.681 361.136 122.218 360.887 122.696C360.638 123.174 360.265 123.576 359.806 123.859Z" fill="white"/>
</g>
<g opacity="0.56">
<path opacity="0.56" d="M369.659 146.217C370.312 145.914 370.871 145.441 371.278 144.848C371.684 144.254 371.924 143.562 371.971 142.844C372.097 141.926 372.097 140.996 371.971 140.078C371.839 139.019 371.554 137.985 371.124 137.008C370.411 135.133 369.186 133.496 367.587 132.284C367.046 131.812 366.387 131.494 365.681 131.363C364.974 131.232 364.246 131.293 363.571 131.539C362.955 131.894 362.442 132.401 362.079 133.011C361.716 133.622 361.517 134.315 361.499 135.025C361.319 136.931 361.623 138.851 362.383 140.608C362.771 141.547 363.267 142.438 363.861 143.261C364.376 143.994 364.992 144.649 365.693 145.206C366.217 145.692 366.854 146.04 367.547 146.216C368.24 146.393 368.966 146.393 369.659 146.217ZM368.964 144.347C368.45 144.488 367.908 144.494 367.391 144.366C366.873 144.238 366.397 143.979 366.008 143.615C365.475 143.207 365.01 142.716 364.632 142.162C364.163 141.549 363.785 140.873 363.507 140.154C363.217 139.447 363.01 138.71 362.888 137.956C362.795 137.285 362.795 136.605 362.888 135.935C362.91 135.404 363.066 134.888 363.342 134.435C363.618 133.982 364.006 133.607 364.467 133.345C364.975 133.169 365.521 133.13 366.049 133.232C366.576 133.334 367.068 133.574 367.474 133.926C368.026 134.346 368.519 134.839 368.939 135.392C369.421 136.025 369.812 136.722 370.101 137.463C370.409 138.195 370.621 138.963 370.733 139.749C370.84 140.436 370.84 141.135 370.733 141.821C370.686 142.36 370.498 142.878 370.187 143.321C369.877 143.765 369.455 144.119 368.964 144.347Z" fill="white"/>
</g>
<g opacity="0.66">
<path opacity="0.66" d="M376.025 167.703C376.708 167.48 377.319 167.079 377.797 166.542C378.274 166.005 378.6 165.351 378.741 164.646C379.2 162.7 379.16 160.67 378.623 158.744C378.086 156.818 377.071 155.059 375.672 153.632C375.125 153.093 374.464 152.683 373.739 152.432C373.107 152.223 372.425 152.223 371.794 152.432C371.154 152.627 370.598 153.032 370.215 153.581C369.786 154.2 369.477 154.894 369.305 155.627C368.928 157.502 368.997 159.439 369.506 161.282C370.015 163.125 370.95 164.823 372.236 166.238C372.691 166.783 373.278 167.204 373.941 167.46C374.604 167.716 375.321 167.8 376.025 167.703ZM375.57 165.758C375.044 165.838 374.506 165.782 374.009 165.594C373.511 165.406 373.07 165.092 372.728 164.684C372.22 164.219 371.793 163.673 371.465 163.067C371.08 162.405 370.783 161.696 370.581 160.958C370.383 160.22 370.272 159.461 370.253 158.697C370.224 158.027 370.284 157.356 370.429 156.701C370.517 156.174 370.737 155.677 371.068 155.258C371.4 154.838 371.832 154.509 372.324 154.301C372.847 154.185 373.392 154.211 373.901 154.378C374.41 154.544 374.864 154.845 375.217 155.248C375.718 155.725 376.144 156.274 376.48 156.878C376.871 157.565 377.173 158.299 377.377 159.063C377.603 159.822 377.726 160.608 377.743 161.4C377.752 162.091 377.663 162.78 377.478 163.446C377.389 163.964 377.166 164.45 376.831 164.856C376.497 165.261 376.062 165.572 375.57 165.758Z" fill="white"/>
</g>
<path opacity="0.45" d="M379.663 188.823C379.041 188.841 378.425 188.697 377.874 188.408C377.323 188.118 376.856 187.691 376.518 187.168C376.032 186.547 375.64 185.858 375.356 185.122C375.025 184.311 374.791 183.462 374.661 182.596C374.52 181.715 374.49 180.819 374.573 179.93C374.627 179.149 374.793 178.379 375.065 177.644C375.236 177.042 375.557 176.494 375.999 176.052C376.442 175.61 376.99 175.288 377.592 175.118C378.215 175.049 378.846 175.151 379.416 175.413C379.985 175.676 380.473 176.089 380.825 176.608C381.351 177.225 381.777 177.919 382.088 178.667C382.468 179.523 382.724 180.429 382.846 181.358C382.988 182.273 383.018 183.202 382.935 184.124C382.842 184.933 382.633 185.724 382.316 186.474C382.125 187.067 381.778 187.599 381.312 188.012C380.845 188.425 380.275 188.706 379.663 188.823Z" fill="white"/>
<path opacity="0.9" d="M380.737 211.206C380.117 211.145 379.523 210.926 379.012 210.57C378.501 210.214 378.091 209.733 377.819 209.173C377.416 208.501 377.113 207.773 376.922 207.013C376.685 206.156 376.553 205.274 376.53 204.385C376.459 202.7 376.811 201.024 377.554 199.509C377.796 198.937 378.181 198.437 378.672 198.057C379.163 197.676 379.743 197.428 380.358 197.337C380.984 197.349 381.596 197.528 382.129 197.857C382.663 198.186 383.098 198.652 383.389 199.206C384.316 200.686 384.803 202.399 384.792 204.145C384.833 205.079 384.748 206.014 384.539 206.924C384.359 207.714 384.061 208.472 383.655 209.173C383.398 209.744 382.991 210.235 382.477 210.593C381.963 210.951 381.362 211.163 380.737 211.206Z" fill="white"/>
<g opacity="0.65">
<path opacity="0.65" d="M258.564 49.2695C258.771 48.599 258.801 47.8867 258.653 47.2009C258.505 46.5152 258.183 45.8791 257.718 45.3537C257.174 44.6732 256.536 44.0736 255.823 43.5726C255.416 43.3017 254.994 43.0529 254.56 42.8274C254.097 42.6034 253.62 42.4093 253.133 42.2463C252.195 41.9234 251.217 41.728 250.227 41.6653C249.356 41.6145 248.483 41.6997 247.638 41.9179C246.949 42.0317 246.303 42.3252 245.764 42.7687C245.225 43.2123 244.813 43.7903 244.568 44.4442C244.425 45.1155 244.447 45.8118 244.634 46.4724C244.821 47.1329 245.167 47.7376 245.642 48.2337C246.183 48.8733 246.817 49.427 247.524 49.8758C248.304 50.4119 249.154 50.837 250.051 51.139C250.508 51.2987 250.977 51.4254 251.453 51.5179C251.897 51.6204 252.349 51.688 252.804 51.72C253.65 51.797 254.502 51.7416 255.331 51.5558C256.017 51.4738 256.673 51.2218 257.237 50.8226C257.802 50.4234 258.258 49.8895 258.564 49.2695ZM256.834 48.6C256.611 49.0736 256.273 49.4843 255.852 49.7952C255.431 50.1061 254.939 50.3074 254.421 50.3811C253.091 50.6373 251.718 50.5326 250.442 50.0779C247.625 49.0926 245.768 46.8947 246.337 45.0253C246.905 43.1558 249.773 42.36 252.741 43.3832C254.083 43.8023 255.271 44.6114 256.152 45.7074C256.505 46.0897 256.754 46.5571 256.873 47.0639C256.993 47.5708 256.979 48.1 256.834 48.6Z" fill="white"/>
</g>
<g opacity="0.6">
<path opacity="0.6" d="M277.474 58.0232C277.766 57.3852 277.885 56.6814 277.818 55.9829C277.752 55.2843 277.502 54.6156 277.095 54.0442C276.652 53.2921 276.093 52.6144 275.44 52.0358C274.682 51.3685 273.831 50.8153 272.914 50.3937C271.243 49.5408 269.36 49.194 267.495 49.3958C266.794 49.4389 266.116 49.6629 265.527 50.0458C264.938 50.4288 264.458 50.9577 264.135 51.5811C263.914 52.2381 263.857 52.9388 263.967 53.6231C264.077 54.3073 264.351 54.9547 264.766 55.5095C265.781 56.9824 267.173 58.1558 268.796 58.9074C269.645 59.3225 270.546 59.6241 271.474 59.8042C272.302 59.9932 273.155 60.0444 274 59.9558C274.693 59.9439 275.373 59.7613 275.979 59.4242C276.585 59.0871 277.098 58.6059 277.474 58.0232ZM275.832 57.1516C275.564 57.5865 275.194 57.9488 274.753 58.2066C274.313 58.4644 273.815 58.6096 273.305 58.6295C272.68 58.6847 272.05 58.6464 271.436 58.5158C270.733 58.3944 270.051 58.1688 269.415 57.8463C268.767 57.5412 268.164 57.1504 267.621 56.6842C267.133 56.277 266.707 55.8004 266.358 55.2695C266.044 54.8526 265.839 54.3639 265.762 53.8477C265.684 53.3315 265.737 52.8042 265.916 52.3137C266.166 51.8537 266.529 51.4651 266.971 51.1844C267.413 50.9037 267.919 50.7403 268.442 50.7095C269.091 50.6101 269.751 50.6101 270.4 50.7095C271.124 50.8413 271.826 51.0752 272.484 51.4042C273.153 51.7404 273.773 52.1653 274.328 52.6674C274.829 53.0912 275.256 53.5949 275.592 54.1579C275.893 54.5899 276.078 55.0916 276.131 55.6154C276.185 56.1393 276.103 56.668 275.895 57.1516H275.832Z" fill="white"/>
</g>
<g opacity="0.82">
<path opacity="0.82" d="M295.183 68.9747C295.544 68.3775 295.743 67.6964 295.761 66.9987C295.779 66.3009 295.615 65.6107 295.284 64.9958C294.93 64.1967 294.458 63.4556 293.882 62.7979C293.214 62.059 292.449 61.4132 291.608 60.8779C291.206 60.5999 290.783 60.3509 290.345 60.1326C289.901 59.9346 289.445 59.7617 288.981 59.6148C288.164 59.358 287.311 59.2302 286.455 59.2358C285.733 59.1785 285.009 59.3173 284.36 59.6374C283.711 59.9576 283.16 60.4473 282.766 61.0548C282.46 61.6759 282.313 62.3633 282.337 63.0554C282.361 63.7475 282.556 64.4228 282.905 65.0211C283.274 65.7728 283.75 66.4665 284.32 67.08C284.643 67.4149 284.984 67.7312 285.343 68.0274C285.708 68.3468 286.096 68.6382 286.505 68.899C287.29 69.4268 288.139 69.8514 289.032 70.1621C289.827 70.4285 290.656 70.5816 291.495 70.6169C292.198 70.6721 292.903 70.5508 293.547 70.2641C294.192 69.9773 294.754 69.5341 295.183 68.9747ZM293.655 67.9263C292.531 69.5432 289.638 69.4295 287.149 67.8379C286.005 67.1233 285.072 66.116 284.446 64.92C284.184 64.4674 284.039 63.956 284.026 63.4329C284.013 62.9097 284.131 62.3916 284.371 61.9263C284.673 61.5025 285.079 61.1636 285.55 60.9424C286.022 60.7212 286.542 60.625 287.061 60.6632C288.461 60.6973 289.821 61.136 290.977 61.9263C293.579 63.5811 294.842 66.3348 293.655 67.9263Z" fill="white"/>
</g>
<g opacity="0.71">
<path opacity="0.71" d="M311.402 82.0484C311.841 81.5004 312.128 80.8466 312.234 80.1527C312.341 79.4587 312.263 78.749 312.008 78.0947C311.752 77.2604 311.373 76.4686 310.884 75.7452C310.31 74.9305 309.631 74.1957 308.863 73.56C308.103 72.9132 307.251 72.3813 306.337 71.981C305.535 71.6209 304.683 71.3825 303.811 71.2737C303.124 71.1405 302.414 71.1867 301.75 71.408C301.086 71.6293 300.491 72.0181 300.021 72.5368C299.638 73.1147 299.406 73.7794 299.346 74.4702C299.287 75.1609 299.401 75.8556 299.68 76.4905C299.949 77.2815 300.336 78.0268 300.829 78.701C301.387 79.4673 302.032 80.1666 302.749 80.7852C303.47 81.3902 304.269 81.8958 305.124 82.2884C305.881 82.6607 306.691 82.9162 307.524 83.0463C308.203 83.2131 308.912 83.2092 309.589 83.0351C310.265 82.8609 310.888 82.522 311.402 82.0484ZM310.025 80.7852C308.762 82.2505 305.857 81.7958 303.571 79.901C303.285 79.6746 303.023 79.4208 302.787 79.1431C302.544 78.896 302.32 78.6299 302.118 78.3473C301.742 77.8404 301.448 77.2778 301.246 76.68C301.045 76.1955 300.967 75.6689 301.017 75.1468C301.068 74.6247 301.246 74.1231 301.537 73.6863C301.883 73.2927 302.327 72.9976 302.824 72.8312C303.321 72.6648 303.853 72.633 304.366 72.7389C305.014 72.8143 305.645 72.9934 306.236 73.2694C306.569 73.406 306.89 73.5708 307.196 73.7621C307.499 73.9642 307.802 74.1916 308.118 74.4442C310.505 76.4526 311.326 79.3579 310 80.7979L310.025 80.7852Z" fill="white"/>
</g>
<g opacity="0.45">
<path opacity="0.45" d="M325.928 96.9663C326.422 96.4827 326.782 95.8793 326.972 95.215C327.162 94.5508 327.177 93.8485 327.015 93.1768C326.867 92.2972 326.586 91.4452 326.181 90.6505C325.706 89.7749 325.12 88.964 324.438 88.2379C323.763 87.5132 322.989 86.8881 322.139 86.381C321.396 85.9219 320.586 85.5809 319.739 85.3705C319.068 85.1582 318.353 85.1258 317.666 85.2766C316.979 85.4273 316.343 85.7559 315.823 86.2295C315.384 86.7616 315.083 87.3944 314.949 88.0712C314.814 88.7481 314.85 89.4477 315.053 90.1074C315.232 90.9293 315.529 91.7208 315.937 92.4568C316.4 93.2822 316.96 94.0497 317.604 94.7431C318.245 95.4353 318.976 96.0385 319.777 96.5368C320.482 96.9955 321.253 97.3447 322.063 97.5726C322.707 97.7978 323.397 97.8602 324.072 97.7545C324.746 97.6487 325.384 97.3779 325.928 96.9663ZM324.665 95.5895C323.187 96.8526 320.408 96.0695 318.349 93.9095C317.863 93.3881 317.439 92.8116 317.086 92.1916C316.783 91.6355 316.558 91.0405 316.417 90.4231C316.279 89.9202 316.267 89.391 316.381 88.8822C316.496 88.3735 316.733 87.9006 317.074 87.5053C317.469 87.1614 317.947 86.926 318.461 86.822C318.974 86.7179 319.506 86.7488 320.004 86.9116C320.631 87.0716 321.231 87.3227 321.785 87.6568C322.423 88.0386 323.001 88.5109 323.503 89.0589C325.714 91.3705 326.194 94.301 324.716 95.5895H324.665Z" fill="white"/>
</g>
<path opacity="0.46" d="M338.042 112.844C337.52 113.153 336.928 113.327 336.321 113.349C335.715 113.371 335.112 113.241 334.568 112.971C333.89 112.678 333.256 112.291 332.686 111.821C332.043 111.299 331.47 110.696 330.981 110.027C330.73 109.683 330.506 109.32 330.312 108.941C330.11 108.592 329.932 108.229 329.781 107.855C329.495 107.175 329.316 106.455 329.25 105.72C329.156 105.119 329.213 104.504 329.416 103.931C329.619 103.358 329.961 102.844 330.413 102.436C330.915 102.086 331.499 101.874 332.109 101.821C332.718 101.767 333.331 101.875 333.886 102.133C334.596 102.412 335.26 102.795 335.857 103.269C336.192 103.529 336.513 103.808 336.817 104.103C337.107 104.419 337.373 104.773 337.651 105.126C338.165 105.828 338.589 106.592 338.914 107.4C339.181 108.118 339.343 108.871 339.394 109.636C339.464 110.242 339.377 110.856 339.14 111.418C338.903 111.98 338.525 112.471 338.042 112.844Z" fill="white"/>
<path opacity="0.78" d="M348.678 130.731C348.116 130.96 347.507 131.051 346.903 130.996C346.298 130.941 345.716 130.742 345.204 130.415C344.568 130.046 343.99 129.586 343.486 129.051C342.903 128.459 342.401 127.792 341.996 127.067C341.211 125.704 340.802 124.156 340.808 122.583C340.785 121.977 340.912 121.375 341.179 120.83C341.446 120.286 341.844 119.816 342.337 119.463C342.879 119.18 343.484 119.042 344.095 119.062C344.706 119.082 345.301 119.259 345.823 119.577C347.266 120.368 348.446 121.561 349.221 123.013C349.642 123.774 349.969 124.585 350.194 125.425C350.372 126.165 350.436 126.927 350.383 127.686C350.391 128.299 350.238 128.903 349.939 129.437C349.639 129.972 349.204 130.418 348.678 130.731Z" fill="white"/>
<path opacity="0.68" d="M357.078 149.804C356.496 149.972 355.881 149.995 355.289 149.869C354.696 149.744 354.144 149.474 353.68 149.084C353.086 148.644 352.562 148.116 352.126 147.518C351.615 146.859 351.191 146.137 350.863 145.371C350.249 143.925 350.031 142.343 350.232 140.785C350.317 140.15 350.532 139.54 350.863 138.992C351.173 138.508 351.61 138.119 352.126 137.867C352.653 137.631 353.237 137.557 353.806 137.653C354.444 137.778 355.05 138.031 355.587 138.398C356.912 139.349 357.93 140.666 358.518 142.187C358.865 142.992 359.095 143.843 359.2 144.714C359.291 145.471 359.265 146.238 359.124 146.987C359.06 147.595 358.837 148.175 358.478 148.67C358.119 149.164 357.636 149.555 357.078 149.804Z" fill="white"/>
<path opacity="0.67" d="M363.128 169.749C362.527 169.852 361.909 169.802 361.332 169.606C360.754 169.41 360.234 169.073 359.819 168.625C359.288 168.119 358.837 167.535 358.48 166.895C358.062 166.178 357.739 165.409 357.52 164.608C357.07 163.1 357.039 161.497 357.432 159.973C357.551 159.378 357.818 158.823 358.209 158.359C358.6 157.896 359.101 157.538 359.667 157.32C360.269 157.169 360.901 157.182 361.496 157.357C362.092 157.533 362.629 157.864 363.053 158.318C364.263 159.427 365.119 160.868 365.516 162.461C365.747 163.284 365.87 164.133 365.882 164.987C365.879 165.75 365.764 166.507 365.541 167.236C365.39 167.827 365.089 168.37 364.666 168.81C364.243 169.251 363.713 169.574 363.128 169.749Z" fill="white"/>
<path opacity="0.55" d="M366.703 190.288C366.094 190.313 365.487 190.186 364.939 189.919C364.39 189.652 363.916 189.254 363.558 188.76C363.088 188.195 362.709 187.56 362.434 186.878C362.114 186.116 361.885 185.319 361.752 184.503C361.648 183.664 361.648 182.816 361.752 181.977C361.82 181.247 361.999 180.531 362.282 179.855C362.476 179.282 362.808 178.766 363.249 178.352C363.689 177.938 364.225 177.638 364.808 177.48C365.415 177.402 366.031 177.486 366.595 177.723C367.159 177.96 367.649 178.343 368.017 178.832C368.533 179.399 368.959 180.042 369.28 180.739C369.988 182.323 370.254 184.069 370.051 185.792C369.952 186.548 369.739 187.285 369.419 187.977C369.212 188.568 368.851 189.094 368.374 189.5C367.897 189.906 367.32 190.178 366.703 190.288Z" fill="white"/>
<path opacity="0.43" d="M367.752 211.08C367.142 211.035 366.554 210.836 366.041 210.503C365.529 210.169 365.109 209.712 364.821 209.173C364.42 208.563 364.118 207.893 363.924 207.189C363.691 206.397 363.564 205.577 363.545 204.752C363.479 203.182 363.828 201.622 364.556 200.229C364.827 199.684 365.226 199.212 365.719 198.854C366.211 198.495 366.783 198.261 367.385 198.171C367.998 198.175 368.599 198.337 369.131 198.643C369.662 198.948 370.105 199.386 370.417 199.914C371.323 201.276 371.807 202.875 371.806 204.512C371.836 205.361 371.751 206.211 371.554 207.038C371.364 207.773 371.066 208.475 370.669 209.122C370.397 209.675 369.984 210.147 369.472 210.491C368.96 210.834 368.367 211.037 367.752 211.08Z" fill="white"/>
<path opacity="0.55" d="M28.6316 118.2C28.6316 118.2 28.0758 119.349 27.1158 121.383C26.1558 123.417 24.8674 126.322 23.4147 129.897C19.8879 138.604 16.992 147.553 14.7495 156.676C13.4863 161.728 12.5011 166.68 11.7558 171.417C11.0105 176.154 10.4168 180.613 10.0758 184.44C10 185.387 9.91158 186.297 9.8358 187.168C9.76001 188.04 9.70948 188.874 9.67158 189.695C9.63369 190.516 9.5579 191.211 9.52001 191.88C9.48211 192.549 9.44422 193.143 9.41895 193.737C9.41895 194.848 9.34316 195.733 9.3179 196.339C9.29263 196.945 9.3179 197.248 9.3179 197.248L1.09474 197.008C1.09474 197.008 1.09474 196.68 1.09474 196.048C1.09474 195.417 1.09474 194.507 1.20843 193.358C1.20843 192.764 1.27158 192.095 1.28422 191.425C1.29685 190.756 1.41053 189.96 1.44842 189.152C1.48632 188.343 1.56211 187.459 1.62527 186.562C1.68843 185.665 1.80211 184.705 1.89053 183.707C2.25685 179.728 2.85053 175.093 3.63369 170.141C4.41685 165.189 5.51579 160.036 6.75369 154.781C9.08428 145.264 12.1071 135.929 15.7979 126.853C17.3137 123.063 18.6905 120.095 19.5874 118.011C20.4842 115.926 21.1663 114.688 21.1663 114.688L28.6316 118.2Z" fill="white"/>
<path opacity="0.86" d="M9.28 197.198C9.28 197.198 9.28 198.853 9.20421 201.354C9.12842 203.855 9.20421 207.189 9.34315 210.524C9.4821 213.859 9.70947 217.181 9.92421 219.682C9.92421 220.314 10.0253 220.882 10.0505 221.375C10.0758 221.867 10.1642 222.322 10.2021 222.701C10.2779 223.408 10.3158 223.838 10.3158 223.838L2.13052 224.709C2.13052 224.709 2.13052 224.293 2.01684 223.522C2.01684 223.143 1.94105 222.676 1.87789 222.171C1.81473 221.665 1.77684 221.046 1.72631 220.389C1.49894 217.787 1.27157 214.314 1.13263 210.84C0.993679 207.366 0.968418 203.905 0.993681 201.291C1.01894 198.676 1.05684 196.958 1.05684 196.958L9.28 197.198Z" fill="white"/>
<path opacity="0.75" d="M95.8569 41.3495L92.1937 43.8758C91.0316 44.6969 89.6674 45.6948 88.0632 46.8442C86.459 47.9937 84.6905 49.3706 82.8211 50.8611C79.0316 53.8674 74.6863 57.5306 70.2779 61.6611C65.8695 65.7916 61.36 70.5032 57.1158 75.3032C52.8716 80.1032 48.8547 85.2442 45.3305 90.1706C41.8063 95.0969 38.7495 99.8463 36.2863 104.065C35.6674 105.101 35.0232 106.112 34.5558 107.072C34.0884 108.032 33.4695 108.941 33.0021 109.8C32.08 111.543 31.259 113.034 30.6147 114.31C29.9705 115.585 29.4779 116.545 29.1368 117.227C28.997 117.477 28.8705 117.735 28.7579 117.998C28.6695 118.175 28.6316 118.276 28.6316 118.276L21.2295 114.676C21.2771 114.586 21.3193 114.493 21.3558 114.398C21.4568 114.208 21.5705 113.943 21.7474 113.589C22.1137 112.895 22.6316 111.846 23.3011 110.545C23.9705 109.244 24.8295 107.653 25.8274 105.846C26.32 104.937 26.8758 104.002 27.4442 103.004C28.0126 102.006 28.5937 100.945 29.2632 99.859C31.7895 95.5137 35.0105 90.5495 38.6863 85.4337C42.3621 80.3179 46.4926 74.9495 50.9263 69.8969C55.36 64.8442 60.0463 59.9937 64.6442 55.6863C69.2421 51.379 73.7895 47.5263 77.7053 44.3937C79.6632 42.8021 81.4948 41.4505 83.1748 40.2L87.4948 37.0548L91.2842 34.4527L95.8569 41.3495Z" fill="white"/>
<path opacity="0.47" d="M139.221 19.8126L138.703 19.9895L137.263 20.4948L135.015 21.3411C134.156 21.6695 133.171 22.0105 132.109 22.4526C127.878 24.0821 122.295 26.52 116.863 29.2232C111.432 31.9263 106.152 34.92 102.261 37.2821L99.621 38.9242L97.6126 40.1874L95.8568 41.3242L91.3095 34.5284L93.1284 33.2653C93.7221 32.8863 94.3916 32.4442 95.2379 31.9011L97.979 30.2211C102.034 27.6948 107.541 24.6126 113.213 21.8084C118.884 19.0042 124.669 16.4526 129.103 14.7348C130.202 14.2926 131.225 13.9263 132.135 13.5853L134.459 12.7011L135.987 12.1832L136.518 11.9937L139.221 19.8126Z" fill="white"/>
<path opacity="0.61" d="M58.96 93.3537C58.96 93.3537 58.8842 93.4674 58.72 93.6695C58.5558 93.8716 58.3284 94.1874 58.0505 94.5789C57.7726 94.9705 57.3937 95.4505 56.9895 96.0063C56.5853 96.5621 56.1179 97.1684 55.6379 97.8631C53.68 100.592 51.1916 104.318 48.8168 108.12C46.4421 111.922 44.2947 115.863 42.7284 118.832C41.9579 120.322 41.3389 121.573 40.8968 122.444C40.4547 123.316 40.2147 123.821 40.2147 123.821L32.8 120.221C32.8 120.221 33.0653 119.703 33.5074 118.781C33.9495 117.859 34.6316 116.558 35.4526 114.992C37.0821 111.884 39.3684 107.779 41.8316 103.8C44.2947 99.821 46.8842 95.9179 48.9432 93.0758C49.4484 92.3431 49.9411 91.6989 50.3579 91.1305C50.7747 90.5621 51.1537 90.0568 51.4568 89.64L52.1642 88.68C52.2573 88.5776 52.3418 88.4678 52.4168 88.3516L58.96 93.3537Z" fill="white"/>
<path opacity="0.8" d="M40.2147 123.821C40.2147 123.821 40.0253 124.187 39.7095 124.844C39.3937 125.501 38.9137 126.499 38.3579 127.762C37.221 130.288 35.5916 133.914 33.9116 138.36C32.2316 142.806 30.4379 148.061 28.8589 153.783C27.1715 159.756 25.8054 165.815 24.7663 171.935C23.7115 178.053 22.9737 184.221 22.5558 190.415C22.1389 196.339 22.0632 201.897 22.1389 206.646C22.2274 209.008 22.2653 211.194 22.4042 213.126C22.4042 214.086 22.5053 214.996 22.5558 215.83C22.6063 216.663 22.6947 217.408 22.7453 218.103C22.8463 219.493 22.9474 220.63 23.0484 221.324C23.1495 222.019 23.1621 222.461 23.1621 222.461L14.9768 223.333C14.9768 223.333 14.9768 222.916 14.8505 222.158C14.7242 221.4 14.6737 220.238 14.56 218.798C14.56 218.078 14.421 217.282 14.3453 216.411C14.2695 215.539 14.2442 214.604 14.2063 213.581C14.0421 211.585 14.0042 209.299 13.9158 206.811C13.8526 201.846 13.9158 196.048 14.3453 189.846C14.7804 183.373 15.552 176.926 16.6568 170.533C17.7599 164.148 19.1892 157.824 20.9389 151.585C22.6189 145.598 24.501 140.103 26.2821 135.455C28.0632 130.806 29.7179 127.017 30.9053 124.377C31.4989 123.051 32.0168 122.027 32.3326 121.333C32.6484 120.638 32.8379 120.246 32.8379 120.246L40.2147 123.821Z" fill="white"/>
<path opacity="0.6" d="M81.3684 68.899C81.3684 68.899 80.9895 69.2653 80.32 69.859L79.0569 70.9832C78.5895 71.4127 78.0842 71.9179 77.5284 72.4484C75.2674 74.5958 72.3874 77.5769 69.5832 80.6337C68.2063 82.1748 66.8042 83.7158 65.5663 85.2063C64.3284 86.6969 63.1663 88.0863 62.1937 89.3116L61.4737 90.1579L60.8548 90.9663C60.4632 91.459 60.1348 91.9011 59.8569 92.2295L58.9726 93.3663L52.3916 88.44L53.3011 87.2653C53.6042 86.8863 53.9453 86.4316 54.3495 85.9011L54.9937 85.08C55.2337 84.7895 55.4611 84.4863 55.7263 84.1706C56.7495 82.9074 57.9369 81.4169 59.2758 79.8885C59.9327 79.1306 60.539 78.2969 61.3095 77.5263L63.4695 75.1137C66.4 71.9053 69.419 68.7979 71.7684 66.5621L73.3726 65.0084L74.6358 63.859L75.7221 62.8484L81.3684 68.899Z" fill="white"/>
<path opacity="0.47" d="M155.44 28.2126L154.493 28.4653L151.966 29.2232C151.398 29.3874 150.792 29.5516 150.122 29.7663L147.949 30.4611C146.396 30.9284 144.665 31.5474 142.783 32.1789C138.994 33.5432 134.674 35.1979 130.152 37.2316C125.629 39.2653 120.792 41.6021 116.131 44.1663C111.469 46.7305 106.897 49.5095 102.754 52.2884C98.6105 55.0674 94.8589 57.8337 91.6884 60.2968C90.9053 60.9032 90.16 61.56 89.4526 62.0779C88.7453 62.5958 88.0758 63.2147 87.4568 63.7326C86.8379 64.2505 86.1937 64.7179 85.7011 65.1853C85.2084 65.6526 84.7032 66.0568 84.2611 66.4484C83.3642 67.2189 82.6821 67.8 82.2147 68.2295C81.7474 68.6589 81.52 68.8863 81.52 68.8863L75.9874 62.7853L76.7326 62.1158C77.2 61.6737 77.9958 61.0547 78.8421 60.2463L80.3705 58.9832C80.9137 58.5032 81.5326 58.0105 82.1895 57.4674C82.8463 56.9242 83.5284 56.3305 84.2737 55.7368L86.6232 53.88C89.9326 51.3537 93.8358 48.3979 98.1937 45.5053C102.552 42.6126 107.288 39.7074 112.177 37.0295C117.065 34.3516 122.055 31.8884 126.842 29.7663C131.629 27.6442 136.152 25.9137 140.105 24.499C142.063 23.8295 143.895 23.2358 145.499 22.6926L147.76 21.9726L149.705 21.4042L152.408 20.6084L153.381 20.3558L155.44 28.2126Z" fill="white"/>
<path opacity="0.4" d="M35.8947 185.375C35.8947 185.375 35.7684 186.878 35.5537 189.164C35.4779 190.301 35.3895 191.691 35.2884 193.042C35.1874 194.394 35.1621 195.973 35.0863 197.476C35.0105 198.979 35.0863 200.507 34.9979 201.922C34.9095 203.337 34.9979 204.663 34.9979 205.787C34.9979 206.912 35.0611 207.872 35.0863 208.528C35.1116 209.185 35.0863 209.577 35.0863 209.577L26.8632 209.893C26.8632 209.893 26.8632 209.501 26.8632 208.794C26.8632 208.086 26.8632 207.126 26.7747 205.926C26.6863 204.726 26.7747 203.4 26.7747 201.859C26.7747 200.318 26.8505 198.802 26.8632 197.211C26.8758 195.619 27.0147 194.04 27.0905 192.55C27.1663 191.059 27.2926 189.707 27.3684 188.507C27.5832 186.145 27.7347 184.566 27.7347 184.566L35.8947 185.375Z" fill="white"/>
<path opacity="0.7" d="M35.0737 209.539C35.0737 209.539 35.0737 209.703 35.0737 210.032C35.0737 210.36 35.0737 210.789 35.1368 211.295C35.2126 212.381 35.2505 213.821 35.3642 215.261C35.4779 216.701 35.6042 218.154 35.7053 219.227C35.8063 220.301 35.9074 221.034 35.9074 221.034L27.7221 221.905C27.7221 221.905 27.6337 221.16 27.52 220.023C27.4063 218.886 27.28 217.383 27.1663 215.855C27.0526 214.326 26.9895 212.823 26.9137 211.686C26.9137 211.118 26.9137 210.651 26.8379 210.322C26.7621 209.994 26.8379 209.804 26.8379 209.804L35.0737 209.539Z" fill="white"/>
<path opacity="0.7" d="M110.118 62.7979L109.764 63.0379L108.728 63.7326L107.086 64.8569C106.429 65.299 105.709 65.8421 104.888 66.4358C101.604 68.7979 96.9937 72.3095 91.7768 76.8947C91.4484 77.1853 91.1074 77.4632 90.7916 77.7663C90.4758 78.0695 90.1221 78.36 89.8063 78.6758C89.1368 79.2695 88.4547 79.939 87.76 80.5453C86.4968 81.8084 85.0063 83.1726 83.6295 84.5874C82.2526 86.0021 80.8126 87.4926 79.3853 89.0084C77.9579 90.5242 76.5432 92.1411 75.1537 93.8084C72.3368 97.1053 69.5453 100.604 66.8547 104.305C64.1642 108.006 61.6379 111.884 59.2758 115.8C54.5662 123.548 50.498 131.667 47.1116 140.078C45.4947 144.095 44.0926 148.036 42.8547 151.813C42.3116 153.733 41.6926 155.602 41.2253 157.358C40.9726 158.267 40.72 159.152 40.5053 160.023C40.2905 160.895 40.0758 161.754 39.8484 162.549C38.1937 169.282 37.2463 175.004 36.6779 178.971C36.6147 179.488 36.5389 179.956 36.4632 180.398C36.3874 180.84 36.3621 181.269 36.3116 181.661C36.2189 182.444 36.1432 183.101 36.0842 183.632C35.9326 184.718 35.8821 185.299 35.8821 185.299L27.7095 184.453C27.7095 184.453 27.7095 183.846 27.8989 182.722C27.9747 182.154 28.0505 181.459 28.1516 180.651C28.1516 180.221 28.2526 179.792 28.3032 179.312C28.3537 178.832 28.4547 178.352 28.5179 177.834C29.3284 172.023 30.4458 166.259 31.8653 160.566C32.08 159.682 32.32 158.773 32.5474 157.863C32.7747 156.954 33.04 156.006 33.3179 155.072C33.7979 153.177 34.4295 151.282 35.0232 149.261C36.2863 145.295 37.7895 141.139 39.4821 136.92C43.0293 128.143 47.2833 119.669 52.2021 111.581C54.7284 107.425 57.4063 103.383 60.2105 99.5053C63.0147 95.6274 65.9453 91.9263 68.9011 88.5032C70.3663 86.7474 71.8695 85.1053 73.3347 83.4505C74.8 81.7958 76.3032 80.28 77.7811 78.8147C79.259 77.3495 80.7242 75.9347 82.139 74.5705L84.2611 72.6L85.2968 71.6526C85.6505 71.3495 85.9916 71.0463 86.32 70.7305C91.7895 65.9179 96.64 62.2547 100.076 59.7663C100.947 59.1474 101.705 58.579 102.375 58.1116L104.118 56.9368L105.192 56.2042C105.309 56.1174 105.431 56.0372 105.558 55.9642L110.118 62.7979Z" fill="white"/>
<path opacity="0.67" d="M143.124 45.7832C143.124 45.7832 142.581 45.9853 141.634 46.3769L139.941 47.0463C139.284 47.3116 138.539 47.6021 137.743 47.9684C134.522 49.2316 130.291 51.2526 126.16 53.3874C124.076 54.4358 122.055 55.5726 120.147 56.6337L117.419 58.2126C116.56 58.7053 115.777 59.2232 115.006 59.6653C113.528 60.5748 112.316 61.3705 111.457 61.9263L110.118 62.7979L105.558 56.0021L106.973 55.08C107.869 54.499 109.133 53.6653 110.762 52.7053C111.545 52.2379 112.366 51.6948 113.288 51.1769L116.131 49.5221C118.126 48.4105 120.261 47.2232 122.446 46.1116C126.779 43.8884 131.213 41.8421 134.598 40.4274C135.419 40.0611 136.202 39.7579 136.897 39.48L138.678 38.76C139.663 38.3558 140.244 38.1537 140.244 38.1537L143.124 45.7832Z" fill="white"/>
<path opacity="0.65" d="M208.227 34.8947H205.373C204.918 34.8947 204.413 34.8947 203.869 34.8947H202.076C200.813 34.8947 199.385 34.8947 197.832 34.9705L195.406 35.0463L192.804 35.1853C191.023 35.2737 189.154 35.4632 187.208 35.6147C183.331 36.0063 179.213 36.4737 175.12 37.1811C167.611 38.4422 160.196 40.2105 152.926 42.4737C149.958 43.3958 147.507 44.2547 145.802 44.8737L143.124 45.859L140.194 38.179L142.998 37.1432C144.804 36.499 147.356 35.5895 150.488 34.6168C158.111 32.2316 165.889 30.3787 173.768 29.0716C178.063 28.3137 182.383 27.8084 186.4 27.4042C188.446 27.24 190.404 27.0505 192.261 26.9747L194.977 26.8232L197.503 26.7347C199.158 26.6716 200.648 26.6716 201.987 26.6463H203.895H205.486H208.493L208.227 34.8947Z" fill="white"/>
</svg>
