<svg width="178" height="179" viewBox="0 0 178 179" fill="none" xmlns="http://www.w3.org/2000/svg">
<g opacity="0.56">
<path opacity="0.56" d="M15.4884 39.939C15.4884 39.939 15.8042 39.459 16.4105 38.5747C17.0168 37.6905 18.0021 36.44 19.2021 34.7853C22.6495 30.4231 26.484 26.3814 30.659 22.7095L31.6442 21.8379C31.9726 21.5347 32.3263 21.2821 32.6674 20.9916L34.8148 19.2863L35.3579 18.8316L35.9263 18.4274C36.3179 18.1621 36.6969 17.8716 37.0884 17.5937L38.2758 16.7474C38.6797 16.4405 39.1015 16.1579 39.539 15.9011C40.3474 15.3579 41.1937 14.8274 42.0653 14.2716C42.2547 14.1327 42.4948 13.9811 42.7095 13.8548C42.9242 13.7284 43.139 13.6021 43.3537 13.4632L44.6926 12.6927C46.4737 11.5937 48.3811 10.6716 50.3011 9.69897C54.2955 7.77971 58.4193 6.14203 62.6421 4.79791C67.0242 3.45789 71.4996 2.4446 76.0316 1.76634C80.5474 1.09735 85.1088 0.784804 89.6737 0.831597C91.9474 0.831597 94.1832 0.983183 96.3811 1.13476L99.6779 1.46318L101.282 1.67792L102.899 1.93055L104.491 2.17055L106.044 2.49897C107.08 2.7137 108.103 2.89054 109.114 3.13054L112.095 3.88845L112.815 4.07791L113.535 4.29266L114.975 4.72213C116.869 5.27792 118.663 5.98528 120.406 6.57897C120.861 6.74318 121.278 6.92002 121.669 7.09686L122.933 7.61476L124.196 8.10739C124.6 8.28423 125.004 8.44844 125.396 8.63791C130.416 10.9701 135.214 13.752 139.733 16.9495C141.362 18.1369 142.613 19.0969 143.522 19.7284L144.785 20.7769L138.04 28.8863L137.749 28.6463L136.903 27.9516C136.145 27.3958 135.046 26.5368 133.619 25.5263C129.604 22.6957 125.333 20.2472 120.861 18.2127C120.166 17.8842 119.446 17.619 118.726 17.2906C118.356 17.1474 117.989 16.9958 117.627 16.8358C117.438 16.8358 117.248 16.6842 117.059 16.6084L116.478 16.4063L114.141 15.56L113.56 15.3327L112.941 15.1558L111.678 14.7769C110.036 14.2337 108.293 13.8295 106.524 13.3748C105.64 13.1726 104.718 13.0084 103.808 12.819C103.354 12.7179 102.899 12.6169 102.432 12.5537L101.042 12.3263L99.6274 12.1116L98.92 11.9979L98.1874 11.9348L95.3074 11.619C93.3621 11.5053 91.379 11.3537 89.3958 11.379H87.8926C87.3874 11.379 86.8821 11.379 86.3895 11.379H84.8737C84.3811 11.379 83.8758 11.379 83.3706 11.4674L80.3642 11.7326L77.3579 12.1242C73.3724 12.7278 69.4373 13.6271 65.5853 14.8148C61.8692 15.9983 58.2395 17.4375 54.7221 19.1221L52.1958 20.3853L51.5642 20.7011L50.9579 21.0548L49.7705 21.7369C48.179 22.6084 46.7011 23.6442 45.2358 24.5663C44.5032 25.0463 43.8084 25.5895 43.139 26.0695C42.4695 26.5495 41.7621 27.0295 41.1432 27.56C39.88 28.5958 38.6169 29.5432 37.4926 30.5916C33.8056 33.8245 30.423 37.3889 27.3874 41.24L25.9474 43.1348C25.5432 43.6905 25.1768 44.1579 24.9116 44.5495C24.3937 45.3453 24.1032 45.7495 24.1032 45.7495L15.4884 39.939Z" fill="white"/>
<path opacity="0.56" d="M24.179 46.0021L15.4758 39.9769L16.4105 38.6C16.8147 38.0063 17.3705 37.2484 18.0905 36.3137C18.4316 35.859 18.8105 35.3663 19.1769 34.8358C22.637 30.4806 26.4797 26.4434 30.659 22.7727L31.3284 22.1663L31.6442 21.8885C31.8463 21.6863 32.099 21.5221 32.339 21.32C32.579 21.1179 32.5663 21.1432 32.6547 21.0421L33.64 20.2716L34.8021 19.3369L35.3579 18.9074L35.9263 18.4779L36.5958 17.9979L37.0884 17.6442L37.7453 17.1642L38.2758 16.7979L38.3516 16.7221C38.7179 16.4569 39.0716 16.1916 39.4758 15.9516L41.4463 14.6885L42.0021 14.3348C42.2084 14.187 42.4236 14.0521 42.6463 13.9306C42.7853 13.8295 42.9369 13.7537 43.0884 13.6527L43.48 13.4253L44.6421 12.7558C46.0316 11.8969 47.4842 11.1642 49.0126 10.3937C49.4042 10.1663 49.8337 9.96424 50.2758 9.74951C54.2794 7.83493 58.4115 6.2015 62.6421 4.86108C67.0144 3.51618 71.4818 2.50278 76.0063 1.8295C80.3131 1.18753 84.6625 0.875046 89.0168 0.894769H90.0148C91.859 0.894769 93.7158 1.00845 95.5095 1.12214L96.6084 1.21056L99.6779 1.52635C100.208 1.52635 100.701 1.65266 101.307 1.74108L102.368 1.90529L102.912 1.99372L103.922 2.14529L104.491 2.23371L105.349 2.41055L106.044 2.5495L107.017 2.75161C107.712 2.87793 108.432 3.0295 109.126 3.19371L112.107 3.93897L112.827 4.14108L113.56 4.35582L114.987 4.7853C116.503 5.2274 117.956 5.75793 119.371 6.26319L120.432 6.64213C120.874 6.80634 121.316 6.97055 121.695 7.14739L121.859 7.22319L122.945 7.67793L123.413 7.86739C123.665 7.96845 123.918 8.08214 124.171 8.17056L124.423 8.28424C124.726 8.41055 125.055 8.5495 125.371 8.70108C130.418 11.0053 135.246 13.7618 139.796 16.9369L142.676 19.0842L143.535 19.7284L144.798 20.7769L138.002 28.9242C137.9 28.8513 137.803 28.7711 137.712 28.6842L137.547 28.5579C137.383 28.419 137.156 28.2169 136.865 28.0021L135.981 27.3579C135.337 26.8527 134.528 26.2463 133.581 25.5642C129.576 22.7674 125.322 20.3445 120.874 18.3263C120.444 18.1369 120.027 17.9474 119.611 17.7705L118.802 17.4295L117.691 16.9621H117.552L117.135 16.7979L116.895 16.6969C116.781 16.6969 116.667 16.6211 116.554 16.5832L115.619 16.2421L114.217 15.7369L113.787 15.5853H113.623L113.131 15.4337L111.779 15.0169C110.516 14.6127 109.253 14.2842 107.989 13.9558L106.726 13.6148C106.171 13.4884 105.59 13.3748 105.021 13.2737L104.036 13.059L103.581 12.9706L102.659 12.7937L101.244 12.579L99.1221 12.2379L97 11.8969L95.3832 11.7327L94.2211 11.6442C92.6674 11.5685 91.0884 11.4674 89.4842 11.48H87.9811C87.6653 11.48 87.3242 11.48 87.0084 11.48H86.4779H84.9747C84.4695 11.48 83.9642 11.48 83.459 11.5811L81.9558 11.7074L80.4526 11.8337L77.4463 12.2253C73.4679 12.8384 69.538 13.7333 65.6863 14.9032C61.9754 16.0995 58.3501 17.547 54.8358 19.2358L52.3095 20.499L51.6905 20.8148L51.0969 21.1684L50.4905 21.5095L49.8969 21.8506C48.7474 22.4821 47.6484 23.2021 46.5874 23.8842L45.3242 24.68C44.8568 24.9832 44.4274 25.3116 43.9853 25.6274L43.2274 26.1706C43.0208 26.3334 42.8058 26.4852 42.5832 26.6253C42.1032 26.979 41.6611 27.3074 41.2316 27.6737L40.12 28.5579C39.2232 29.2779 38.3642 29.96 37.5937 30.6927C33.9199 33.9393 30.5385 37.5025 27.4884 41.3411L26.0863 43.2484C25.9347 43.4253 25.8084 43.6021 25.6948 43.7537C25.5811 43.9053 25.2147 44.3853 25.0505 44.6505L24.2295 45.9137L24.179 46.0021ZM15.539 39.939L24.1663 45.8758L25 44.739C25.1769 44.4737 25.3916 44.1832 25.6442 43.8421L26.0358 43.3369C26.4274 42.7811 26.8948 42.1621 27.4505 41.4295C30.4842 37.5728 33.8669 34.004 37.5558 30.7684C38.3263 30.0232 39.1853 29.3537 40.0821 28.6211L41.1937 27.7369C41.6232 27.3705 42.0905 27.0421 42.5705 26.7011L43.2147 26.2463L43.96 25.6905C44.3895 25.3748 44.8316 25.059 45.2863 24.7558C45.7411 24.4526 46.12 24.2253 46.5495 23.9474C47.6105 23.2653 48.7221 22.5453 49.8716 21.9137L50.4653 21.5727L51.059 21.219L51.6653 20.8779L52.2842 20.5621L54.8105 19.299C58.3308 17.6175 61.96 16.1742 65.6737 14.979C69.5261 13.7958 73.4612 12.9007 77.4463 12.3011L80.4653 11.8969L81.9684 11.7705L83.4716 11.6316C83.9769 11.6316 84.4821 11.6316 84.9747 11.5558L86.4905 11.48H86.8948H87.8674H89.7242C91.2148 11.48 92.68 11.5684 94.1074 11.6569L95.2821 11.72L96.8863 11.8969L98.8948 12.099L101.017 12.44C101.484 12.5032 101.939 12.5663 102.406 12.6548L103.354 12.8316L103.796 12.92C104.124 12.9958 104.453 13.059 104.794 13.1095L106.512 13.4884L107.775 13.8042C109.126 14.1579 110.389 14.4863 111.627 14.8905L112.979 15.3074L113.472 15.4463L113.648 15.5095L114.078 15.6611L115.455 16.1663L116.427 16.5074C116.537 16.5591 116.651 16.6014 116.768 16.6337L116.996 16.7221L117.4 16.8863H117.552L118.651 17.3411L119.472 17.6821L120.735 18.2505C125.248 20.2449 129.566 22.6554 133.632 25.4505C134.592 26.1453 135.4 26.7137 136.057 27.2442L136.916 27.9011C137.219 28.1158 137.446 28.3179 137.623 28.4569L137.775 28.5832L138.027 28.7979L144.735 20.7642L143.472 19.7411C143.232 19.5516 142.916 19.3369 142.613 19.0842C141.842 18.5158 140.882 17.8211 139.733 16.9495C135.19 13.7739 130.365 11.0213 125.32 8.72634L124.385 8.29687L124.12 8.19582C123.867 8.09476 123.627 7.98108 123.375 7.89266L122.895 7.69055L121.808 7.23582H121.632C121.24 7.05897 120.798 6.88214 120.368 6.73056L119.32 6.35161C117.905 5.83371 116.465 5.30319 114.937 4.87372L113.509 4.44424L112.789 4.21687L112.057 4.04003L109.076 3.28214C108.394 3.11792 107.674 2.96635 106.979 2.8274L106.006 2.63792L105.312 2.48635C105.021 2.48635 104.743 2.3853 104.453 2.30951L103.897 2.23371L102.861 2.08214L102.331 1.99372L101.257 1.8295C100.651 1.74108 100.158 1.66529 99.6527 1.61477L96.5832 1.29898H96.3558H95.4716C93.6905 1.18529 91.8337 1.07161 89.9895 1.07161H88.9916C84.6454 1.05583 80.3043 1.37254 76.0063 2.01898C71.4801 2.68345 67.012 3.697 62.6421 5.05056C58.4157 6.39103 54.2878 8.02445 50.2884 9.93897L49.0253 10.5579C47.4969 11.3411 46.0569 12.0737 44.6547 12.9327L43.4926 13.6021L43.1011 13.8295C42.9621 13.9179 42.7979 13.9937 42.659 14.0948C42.52 14.1958 42.2674 14.3474 42.04 14.5116L41.4716 14.8653L39.5011 16.1285C39.1095 16.3685 38.7432 16.6337 38.3769 16.899L38.2884 16.9748L37.7705 17.3411L37.1137 17.8211L36.6211 18.1748C36.3937 18.3263 36.179 18.4906 35.9642 18.6548C35.7495 18.819 35.5726 18.9326 35.3832 19.0716L34.84 19.5011L33.6653 20.4485L32.7053 21.2063C32.5916 21.3074 32.4653 21.3958 32.3642 21.4969C32.1216 21.6725 31.8896 21.8623 31.6695 22.0653L31.3537 22.3432C31.1263 22.5327 30.9242 22.7348 30.7095 22.9242C26.5245 26.5897 22.6852 30.6319 19.24 35C18.8358 35.5179 18.4695 36.0105 18.1411 36.4653C17.4211 37.4 16.8779 38.1453 16.4484 38.7516C16.019 39.3579 15.6274 39.8 15.539 39.939Z" fill="white"/>
</g>
<g opacity="0.78">
<path opacity="0.78" d="M1.87158 105.661C1.87158 105.661 1.87157 105.408 1.74525 104.954C1.74525 104.714 1.65684 104.436 1.59368 104.095C1.53052 103.754 1.45473 103.362 1.40421 102.933C1.29052 102.061 1.15158 101.013 0.974737 99.7747C0.886316 99.1937 0.861048 98.5116 0.772627 97.8547C0.684206 97.1979 0.658947 96.44 0.60842 95.6947C0.100166 88.3437 0.494686 80.9581 1.78316 73.7031C2.2 71.7326 2.54105 69.7495 3.04631 67.8295L3.4 66.4147C3.52631 65.9221 3.65263 65.4547 3.79157 64.9874C4.0821 64.0779 4.34736 63.1558 4.63789 62.2463C4.92841 61.3368 5.21894 60.4905 5.5221 59.6316C5.82526 58.7726 6.14104 57.9389 6.4442 57.1052C6.74736 56.2716 7.08841 55.5389 7.4042 54.7937C7.71999 54.0484 8.01052 53.3158 8.33894 52.6337C8.66736 51.9516 8.97052 51.3073 9.27368 50.6758C9.57684 50.0442 9.82947 49.4758 10.1326 48.9326C10.701 47.8589 11.2189 46.9242 11.6232 46.141C11.7368 45.9516 11.8379 45.7621 11.9263 45.5979C12.0147 45.4337 12.1158 45.2695 12.2168 45.1179C12.3179 44.9663 12.5326 44.5747 12.6463 44.3726L13.0253 43.7663L22.0189 49.2989L21.6779 49.8421C21.4758 50.2084 21.1347 50.701 20.781 51.3958L19.5179 53.9221C19.0379 54.8821 18.5326 55.981 17.9389 57.1684C15.2844 63.0969 13.3505 69.3224 12.1789 75.7116C12.0526 76.5831 11.9137 77.4547 11.7874 78.3389C11.7116 78.7558 11.6358 79.1979 11.5979 79.6021C11.56 80.0063 11.4968 80.4737 11.4589 80.8653C11.3831 81.7242 11.2442 82.5831 11.2063 83.3916C11.1684 84.2 11.1053 85.0842 11.0547 85.9179C11.0042 86.7516 11.0547 87.56 11.0547 88.3684C11.0547 89.1768 11.0547 89.9347 11.0547 90.6926C11.0547 91.4505 11.0547 92.2084 11.1305 92.9158C11.2063 93.6231 11.1305 94.3179 11.2316 94.9873C11.3326 95.6568 11.3579 96.2505 11.4084 96.8695C11.4589 97.4884 11.4968 98.0568 11.5853 98.5874C11.7368 99.6484 11.8505 100.583 11.9516 101.354C12.0526 102.124 12.2042 102.718 12.2674 103.135C12.3305 103.552 12.381 103.754 12.381 103.754L1.87158 105.661Z" fill="white"/>
<path opacity="0.78" d="M1.8463 105.712C1.8463 105.712 1.8463 105.459 1.71998 105.004C1.71998 104.84 1.71998 104.651 1.63156 104.436L1.55578 103.968C1.55578 103.678 1.42946 103.337 1.37893 102.971C1.32841 102.604 1.27788 102.124 1.20209 101.707C1.1263 101.291 1.05051 100.545 0.96209 99.8884C0.96209 99.4842 0.861039 99.08 0.835776 98.6253C0.822731 98.3981 0.822731 98.1703 0.835776 97.9432C0.835776 97.6274 0.835776 97.299 0.747355 96.9705C0.658934 96.6421 0.671563 96.2 0.6463 95.7958C0.143947 88.4359 0.542694 81.0422 1.83367 73.7789L2.17472 72.0611C2.45261 70.6968 2.74314 69.2695 3.12209 67.9179C3.22314 67.4253 3.33682 66.9579 3.46314 66.4905V66.2631C3.57682 65.8463 3.67788 65.4547 3.80419 65.0758C3.93051 64.6968 4.13262 63.9768 4.30946 63.4337C4.4863 62.8905 4.52419 62.701 4.63787 62.3347C4.82735 61.6779 5.07998 61.0084 5.29472 60.3768C5.38314 60.1495 5.45892 59.9347 5.53471 59.7074L5.87577 58.7726C6.07788 58.2295 6.25472 57.7116 6.45682 57.2063L6.78525 56.3853L7.41683 54.8821L7.5684 54.5031C7.84629 53.8716 8.0863 53.24 8.35156 52.7221C8.61682 52.2042 8.86945 51.661 9.10945 51.1558L9.27367 50.7768C9.37472 50.5874 9.45051 50.3979 9.53893 50.221C9.74104 49.8042 9.93051 49.4 10.1326 48.9579L10.8652 47.6189L11.6484 46.1789C11.6484 46.0652 11.7621 45.9516 11.8 45.8758C11.8379 45.8 11.8884 45.6989 11.9263 45.6231C11.9747 45.5599 12.017 45.4922 12.0526 45.421L12.2295 45.1558C12.3138 44.9911 12.4065 44.8309 12.5073 44.6758L12.6589 44.4105L13.0505 43.7916L22.0694 49.3495L21.741 49.8926C21.6775 50.0112 21.6057 50.1251 21.5263 50.2337C21.3368 50.5621 21.0968 50.941 20.8568 51.4968C20.6168 52.0526 20.4273 52.3053 20.1747 52.76L19.5305 53.9347C19.24 54.5158 18.9368 55.1979 18.621 55.8168C18.4189 56.2589 18.2042 56.7263 17.9642 57.1937C15.3031 63.1153 13.369 69.3375 12.2042 75.7242L12.0652 76.6211C11.9768 77.1895 11.8884 77.7579 11.8252 78.339C11.7879 78.4668 11.7625 78.5979 11.7495 78.7305C11.6818 79.0296 11.6395 79.3338 11.6231 79.64V79.9305C11.6231 80.2716 11.5474 80.6126 11.5221 80.9411L11.4084 81.9389C11.4084 82.4442 11.2947 83 11.2568 83.5179C11.2189 84.0358 11.181 84.7811 11.1558 85.3621V86.0442C11.1558 86.6 11.1558 87.1558 11.1558 87.6989C11.1558 87.9516 11.1558 88.2295 11.1558 88.4947V88.8484C11.1558 89.5305 11.1558 90.1747 11.1558 90.8189C11.1558 91.4632 11.1558 92.3221 11.2442 93.0295V93.3326C11.2442 93.9516 11.2442 94.52 11.3452 95.1011C11.4463 95.6821 11.4589 96.2632 11.5095 96.9958V97.3116C11.5095 97.8042 11.5852 98.2716 11.661 98.7137L11.7621 99.56C11.8631 100.255 11.9516 100.912 12.0147 101.48C12.0779 102.048 12.141 102.263 12.2168 102.592C12.2926 102.92 12.3052 103.072 12.3305 103.261C12.4063 103.653 12.4568 103.88 12.4568 103.88L1.8463 105.712ZM13.0505 43.8168C13.0505 43.8926 12.8863 44.1074 12.6968 44.4105L12.5452 44.6631C12.4444 44.8183 12.3517 44.9785 12.2673 45.1432C12.2081 45.2287 12.1533 45.3172 12.1031 45.4084L11.9768 45.6231C11.9296 45.7003 11.8874 45.7805 11.8505 45.8631C11.7861 45.9609 11.7271 46.0621 11.6737 46.1663C11.4463 46.5958 11.181 47.0758 10.9158 47.6063C10.6505 48.1368 10.4358 48.4779 10.1831 48.9579C9.9305 49.4379 9.77893 49.7284 9.57682 50.1452C9.50103 50.3347 9.41261 50.5116 9.32419 50.701L9.14735 51.08C8.89471 51.5853 8.65472 52.1158 8.38945 52.6589C8.12419 53.2021 7.87156 53.7958 7.6063 54.4274L7.45472 54.8063C7.25261 55.2989 7.06314 55.7916 6.8484 56.3095L6.49472 57.1305C6.29261 57.6358 6.11577 58.141 5.9263 58.6842C5.79998 59 5.69893 59.3031 5.57262 59.6189C5.4463 59.9347 5.43367 60.0611 5.34525 60.3011C5.11788 60.9326 4.87787 61.5642 4.6884 62.2463C4.56209 62.6126 4.46104 62.9789 4.34735 63.3579C4.23367 63.7368 4.01893 64.4316 3.84209 64.9874C3.66525 65.5431 3.62735 65.7453 3.5263 66.1747V66.3895C3.41261 66.8695 3.27367 67.3368 3.17262 67.8168C2.79367 69.1684 2.51577 70.5958 2.22525 71.9726C2.11156 72.5284 1.99787 73.1095 1.88419 73.6905C0.594873 80.9412 0.204562 88.3232 0.722087 95.6695C0.722087 96.0737 0.722086 96.4779 0.810507 96.8568C0.898928 97.2358 0.810507 97.5011 0.898928 97.8295C0.987349 98.1579 0.898928 98.2716 0.898928 98.4989C0.898928 98.9411 0.974721 99.3579 1.05051 99.7621C1.1263 100.419 1.20209 101.025 1.29051 101.581C1.37893 102.137 1.41683 102.503 1.45472 102.907C1.49261 103.312 1.55577 103.615 1.61893 103.918L1.70735 104.373C1.70735 104.587 1.78314 104.764 1.79577 104.928C1.8084 105.093 1.90945 105.497 1.93472 105.598L12.2421 103.792C12.2421 103.792 12.2421 103.526 12.1158 103.223C12.0952 102.998 12.0614 102.775 12.0147 102.554C12.0147 102.238 11.8884 101.859 11.8252 101.442C11.7621 101.025 11.661 100.179 11.5726 99.5095L11.4589 98.6758C11.3705 98.2337 11.3452 97.7663 11.2947 97.2611V96.9453C11.2947 96.2126 11.1937 95.6821 11.1305 95.0632C11.0673 94.4442 11.1305 93.901 11.0295 93.2821V92.9916C11.0295 92.2842 11.0295 91.5263 10.9663 90.7684C10.9031 90.0105 10.9663 89.5053 10.9663 88.7979V88.4442C10.9663 88.179 10.9663 87.9011 10.9663 87.6484C10.9663 87.1053 10.9663 86.5495 10.9663 85.9937V85.3116C10.9663 84.6926 10.9663 84.0484 11.0673 83.4674C11.1684 82.8863 11.1558 82.3937 11.2189 81.8758L11.3326 80.8779C11.3326 80.5495 11.3326 80.2084 11.4337 79.8674V79.5768C11.4337 79.2611 11.5221 78.9579 11.56 78.6674C11.5979 78.3768 11.56 78.4021 11.6358 78.2631C11.7116 77.7074 11.8 77.1389 11.8884 76.5705L12.0274 75.6484C13.1905 69.2557 15.129 63.0286 17.8 57.1052C18.04 56.6379 18.2421 56.1705 18.4568 55.7158C18.7726 55.0463 19.0758 54.4526 19.3663 53.8463L19.9979 52.6716C20.2379 52.1916 20.4779 51.7747 20.68 51.4084C20.8821 51.0421 21.1726 50.5242 21.3747 50.1452C21.4631 50.0189 21.5137 49.9052 21.5895 49.8042C21.6792 49.6292 21.7804 49.4604 21.8926 49.2989L13.0505 43.8168Z" fill="white"/>
</g>
<g opacity="0.74">
<path opacity="0.74" d="M151.177 26.5621L151.998 27.4084C152.528 27.939 153.337 28.6716 154.259 29.7832C155.181 30.8948 156.368 32.1074 157.632 33.6611L158.579 34.8484C158.895 35.2653 159.261 35.6821 159.577 36.1116C160.221 36.9958 160.84 37.9432 161.623 38.9158C164.75 43.4824 167.456 48.3233 169.707 53.379C172.29 59.1827 174.225 65.2529 175.48 71.48C176.72 77.6963 177.3 84.0261 177.211 90.3642C177.119 95.8821 176.514 101.379 175.404 106.785C175.291 107.366 175.164 107.96 175.051 108.541C174.937 109.122 174.773 109.64 174.634 110.183C174.368 111.244 174.128 112.267 173.851 113.215C173.573 114.162 173.307 115.034 173.042 115.855C172.916 116.259 172.815 116.651 172.688 117.03C172.562 117.408 172.423 117.724 172.297 118.078C171.817 119.341 171.463 120.453 171.173 121.147L170.731 122.234L160.992 118.154C160.992 118.154 161.118 117.825 161.396 117.206C161.674 116.587 161.939 115.653 162.368 114.503C162.469 114.2 162.583 113.897 162.697 113.581C162.811 113.265 162.912 112.886 163.025 112.545C163.24 111.813 163.48 111.042 163.733 110.234C163.985 109.425 164.175 108.478 164.427 107.543C164.541 107.076 164.667 106.596 164.781 106.078C164.895 105.56 164.983 105.08 165.097 104.562C166.064 99.7915 166.584 94.941 166.651 90.0737C166.717 84.4893 166.197 78.9134 165.097 73.4379C163.996 67.9731 162.301 62.6447 160.044 57.5474C158.066 53.0985 155.677 48.8442 152.907 44.84C152.288 43.9685 151.644 43.1348 151.114 42.3137C150.583 41.4927 149.939 40.8232 149.396 40.1411C149.105 39.8 148.853 39.4716 148.613 39.1558C148.373 38.84 148.082 38.5621 147.829 38.2716C147.337 37.7032 146.869 37.1853 146.453 36.7306C146.263 36.4906 146.061 36.2758 145.859 36.0611C145.657 35.8464 145.493 35.6821 145.341 35.5053L144.457 34.6211L143.749 33.9011L151.177 26.5621Z" fill="white"/>
<path opacity="0.74" d="M170.705 122.322L160.916 118.217C160.916 118.217 161.042 117.876 161.307 117.269C161.573 116.663 161.749 116.006 162.078 115.135L162.293 114.541C162.394 114.263 162.507 113.96 162.621 113.632C162.735 113.303 162.836 112.95 162.937 112.596C163.152 111.876 163.392 111.105 163.657 110.272C163.796 109.754 163.947 109.185 164.086 108.604C164.175 108.276 164.251 107.935 164.352 107.606C164.453 107.278 164.415 107.253 164.465 107.088C164.516 106.924 164.629 106.469 164.693 106.154C164.806 105.648 164.895 105.143 165.021 104.613C165.984 99.8499 166.504 95.0082 166.575 90.1495C166.639 84.5694 166.118 78.9979 165.021 73.5263C163.925 68.0602 162.23 62.7313 159.968 57.6358C157.994 53.1942 155.613 48.9446 152.857 44.9411L152.326 44.2084C151.872 43.6021 151.455 43.0211 151.063 42.4527L149.964 41.0379C149.749 40.7853 149.535 40.5327 149.345 40.28C149.156 40.0274 148.891 39.699 148.663 39.4337L148.562 39.2948C148.411 39.1053 148.246 38.9284 148.095 38.7516L147.779 38.4106L147.059 37.5895L146.415 36.8695C146.213 36.6295 146.023 36.4021 145.821 36.2C145.619 35.9979 145.493 35.859 145.328 35.6948C145.126 35.4927 144.949 35.3285 144.798 35.1516L144.457 34.8232L143.737 34.0906L151.316 26.6632C151.316 26.6632 151.619 26.9537 152.124 27.4969C152.289 27.6476 152.445 27.8078 152.592 27.9769C153.097 28.4695 153.716 29.0885 154.398 29.8842L155.118 30.6927C155.914 31.5769 156.798 32.5748 157.72 33.7621L158.112 34.2548C158.301 34.4821 158.465 34.7095 158.68 34.9495L158.983 35.3411C159.211 35.6316 159.451 35.9221 159.665 36.2253C160.309 37.1095 161.004 38.0695 161.699 39.0548C164.843 43.6127 167.554 48.4549 169.796 53.5179C172.374 59.3232 174.31 65.393 175.568 71.619C176.808 77.8567 177.393 84.2071 177.312 90.5663C177.22 96.0842 176.615 101.582 175.505 106.987L175.354 107.695C175.278 108.036 175.215 108.39 175.139 108.731C175.063 109.072 174.962 109.526 174.861 109.893C174.861 110.069 174.785 110.221 174.747 110.373C174.709 110.524 174.583 110.954 174.52 111.257C174.318 112.015 174.141 112.735 173.939 113.417C173.737 114.099 173.434 115.072 173.143 116.069C173.143 116.246 173.029 116.423 172.966 116.613C172.903 116.802 172.84 117.029 172.789 117.244L172.638 117.598C172.549 117.825 172.474 118.053 172.385 118.267C172.221 118.735 172.057 119.164 171.918 119.531C171.665 120.276 171.45 120.869 171.261 121.324C170.983 122.044 170.819 122.411 170.819 122.411L170.705 122.322ZM160.992 118.154L170.667 122.221C170.667 122.107 170.857 121.741 171.084 121.173C171.312 120.604 171.476 120.124 171.741 119.379C171.893 118.987 172.032 118.558 172.196 118.116L172.461 117.459L172.587 117.08C172.663 116.865 172.726 116.663 172.777 116.461C172.827 116.259 172.891 116.095 172.954 115.905C173.257 114.933 173.509 114.074 173.749 113.265C173.989 112.457 174.141 111.863 174.331 111.105C174.394 110.815 174.469 110.524 174.558 110.246C174.646 109.968 174.634 109.918 174.672 109.741C174.709 109.564 174.874 108.983 174.949 108.592C175.025 108.2 175.101 107.897 175.177 107.543C175.253 107.189 175.265 107.076 175.316 106.836C176.43 101.431 177.031 95.9328 177.109 90.4148C177.204 84.0806 176.624 77.7544 175.379 71.5432C174.12 65.3228 172.189 59.2577 169.619 53.4548C167.376 48.392 164.666 43.5499 161.522 38.9916L159.488 36.1748C159.274 35.8716 159.046 35.5811 158.819 35.3032L158.491 34.9116C158.314 34.6716 158.124 34.4316 157.935 34.2042L157.543 33.7116C156.634 32.5369 155.737 31.539 154.954 30.6548L154.221 29.8337C153.539 29.0505 152.958 28.4316 152.44 27.9263C152.263 27.7495 152.099 27.5979 151.973 27.4463C151.531 27.0042 151.278 26.739 151.177 26.6505L143.724 34.0021C143.8 34.0779 144.027 34.3179 144.406 34.6842L144.735 35.0253L145.265 35.5685V35.6316L145.758 36.1242C145.935 36.3516 146.137 36.5663 146.339 36.7937L146.983 37.5137L147.716 38.3474L148.019 38.6758C148.183 38.8527 148.335 39.0421 148.486 39.2316L148.587 39.3706L149.269 40.2042C149.472 40.4695 149.686 40.7095 149.876 40.9621C150.242 41.4169 150.621 41.8842 151 42.3895L152.263 44.1327L152.794 44.8653C155.565 48.8728 157.954 53.1315 159.931 57.5853C162.185 62.6878 163.88 68.0201 164.983 73.4884C167.074 83.7664 167.074 94.36 164.983 104.638C164.869 105.143 164.768 105.674 164.655 106.154C164.541 106.634 164.516 106.785 164.44 107.088C164.364 107.392 164.352 107.429 164.301 107.619C164.251 107.808 164.137 108.276 164.061 108.604C163.922 109.211 163.783 109.754 163.632 110.297L162.899 112.608L162.596 113.644C162.469 113.973 162.356 114.288 162.255 114.566L162.053 115.147C161.724 116.044 161.472 116.764 161.269 117.295C161.067 117.825 161.042 118.002 160.992 118.154Z" fill="white"/>
</g>
<g opacity="0.62">
<path opacity="0.62" d="M167.282 129.623C167.282 129.623 167.067 130.04 166.676 130.76C166.284 131.48 165.766 132.516 165.021 133.703C164.276 134.891 163.493 136.305 162.495 137.745C161.989 138.478 161.497 139.236 160.979 139.981L159.312 142.217C159.046 142.583 158.756 142.949 158.491 143.328C158.225 143.707 157.897 144.036 157.606 144.402C157.013 145.109 156.457 145.804 155.888 146.474C155.623 146.802 155.32 147.131 155.042 147.421C154.764 147.712 154.461 148.027 154.208 148.331C153.665 148.924 153.16 149.48 152.667 149.998C151.707 150.996 150.861 151.792 150.28 152.373L149.371 153.269L142.234 145.488L143.029 144.693C143.547 144.175 144.293 143.429 145.152 142.596L146.503 141.143L147.223 140.335C147.349 140.208 147.488 140.069 147.602 139.931L147.968 139.488C148.941 138.288 150.027 137.076 150.987 135.699L152.44 133.728C152.895 133.072 153.337 132.465 153.703 131.758C154.6 130.495 155.282 129.232 155.926 128.221C156.103 127.956 156.242 127.691 156.394 127.463C156.545 127.236 156.659 126.983 156.773 126.768C157.013 126.326 157.215 125.947 157.392 125.644C157.72 125 157.922 124.634 157.922 124.634L167.282 129.623Z" fill="white"/>
<path opacity="0.62" d="M149.371 153.371L142.196 145.552L142.979 144.768L143.509 144.251C143.964 143.821 144.507 143.291 145.114 142.672C145.518 142.204 145.985 141.724 146.453 141.206C146.705 140.941 146.971 140.651 147.185 140.398C147.4 140.145 147.438 140.133 147.552 139.994C147.614 139.925 147.673 139.854 147.728 139.779C147.802 139.714 147.87 139.642 147.931 139.564L148.916 138.301C149.585 137.493 150.305 136.646 150.937 135.775L151.846 134.512L152.402 133.779C152.844 133.109 153.286 132.44 153.665 131.821C154.284 130.949 154.827 130.015 155.307 129.219C155.497 128.903 155.699 128.562 155.888 128.272C155.944 128.155 156.011 128.045 156.091 127.943L156.343 127.501C156.482 127.274 156.621 127.021 156.722 126.819C156.823 126.617 157.063 126.175 157.215 125.909L157.341 125.695C157.669 125.051 157.872 124.684 157.872 124.684L167.232 129.648C167.232 129.648 167.029 130.078 166.638 130.785C166.524 131 166.398 131.227 166.272 131.48C165.918 132.099 165.501 132.895 165.008 133.741L164.503 134.587C163.909 135.573 163.24 136.672 162.482 137.796C162.229 138.162 161.952 138.541 161.699 138.92L160.966 140.019C160.739 140.322 160.499 140.625 160.284 140.941C160.069 141.257 159.627 141.813 159.299 142.204L158.819 142.848C158.705 142.987 158.579 143.152 158.478 143.303C158.324 143.509 158.159 143.707 157.985 143.897C157.865 144.065 157.734 144.225 157.594 144.377L156.634 145.552C156.368 145.855 156.128 146.158 155.888 146.448C155.648 146.739 155.282 147.143 155.017 147.421L154.575 147.914L154.183 148.331C153.653 148.924 153.135 149.467 152.667 149.985C151.973 150.705 151.341 151.324 150.823 151.817L150.267 152.36L149.358 153.269L149.371 153.371ZM142.297 145.526L149.371 153.257C149.472 153.143 149.775 152.853 150.255 152.373L150.811 151.829C151.316 151.324 151.947 150.718 152.655 149.985L154.183 148.343L154.549 147.926L155.017 147.434C155.269 147.168 155.585 146.815 155.851 146.486C156.116 146.158 156.356 145.88 156.608 145.564C156.861 145.248 157.253 144.794 157.581 144.402L157.973 143.922C158.137 143.72 158.288 143.518 158.453 143.328C158.617 143.139 158.68 143.013 158.806 142.874C158.933 142.735 159.122 142.432 159.286 142.229C159.602 141.787 159.943 141.345 160.246 140.966C160.549 140.587 160.726 140.36 160.941 140.032C161.156 139.703 161.446 139.324 161.686 138.945L162.457 137.808C163.24 136.722 163.897 135.598 164.491 134.613C164.655 134.309 164.832 134.044 164.996 133.779C165.514 132.92 165.931 132.137 166.259 131.505C166.385 131.253 166.524 131.038 166.638 130.823C166.941 130.229 167.156 129.851 167.219 129.724L157.973 124.823C157.973 124.924 157.733 125.265 157.467 125.783L157.328 126.011L156.861 126.907L156.469 127.602C156.394 127.741 156.293 127.893 156.217 128.044C156.141 128.196 156.078 128.259 156.015 128.36L155.434 129.32C154.954 130.128 154.423 131.038 153.779 131.922L152.516 133.867L151.947 134.613C151.657 135.042 151.341 135.446 151.051 135.876C150.406 136.76 149.699 137.619 149.017 138.402C148.676 138.806 148.347 139.198 148.044 139.589L147.842 139.817C147.842 139.893 147.716 139.956 147.653 140.044C147.589 140.133 147.413 140.309 147.274 140.436C147.135 140.562 146.806 140.992 146.541 141.244C146.074 141.762 145.632 142.255 145.202 142.709C144.773 143.164 144.053 143.859 143.611 144.301L143.093 144.794L142.297 145.526Z" fill="white"/>
</g>
<g opacity="0.69">
<path opacity="0.69" d="M16.461 140.385L16.2589 140.082C16.046 139.811 15.8478 139.528 15.6653 139.236C15.1853 138.516 14.5032 137.455 13.6821 136.192C13.48 135.876 13.2653 135.535 13.0632 135.181C12.8611 134.827 12.6463 134.474 12.4316 134.082C11.9895 133.337 11.5347 132.554 11.08 131.733L9.81685 129.206C9.60211 128.752 9.34947 128.322 9.14737 127.867C8.94526 127.413 8.73052 126.945 8.51579 126.503C6.9735 123.153 5.64042 119.711 4.52422 116.196C4.10737 114.743 3.76632 113.53 3.51369 112.684C3.37566 112.244 3.26181 111.797 3.17264 111.345L13.4295 108.819C13.4219 108.924 13.4219 109.03 13.4295 109.135C13.4295 109.337 13.5684 109.64 13.6821 110.006C13.8968 110.752 14.1747 111.825 14.5663 113.101C14.7937 113.72 15.0211 114.364 15.2611 115.122C15.3874 115.476 15.501 115.842 15.64 116.221C15.7789 116.6 15.9179 116.979 16.0695 117.358C16.3853 118.128 16.701 118.937 17.0042 119.745L18.1032 122.158C18.2674 122.562 18.4568 122.979 18.6463 123.358C18.8358 123.737 19.0505 124.154 19.2526 124.533C19.6442 125.316 20.0358 126.074 20.4147 126.819C20.7937 127.564 21.2232 128.221 21.6147 128.89C22.0063 129.56 22.3221 130.154 22.7137 130.735C23.4337 131.846 24.04 132.768 24.4442 133.425C24.6716 133.754 24.8484 133.994 24.9747 134.158C25.031 134.25 25.0989 134.335 25.1768 134.41L16.461 140.385Z" fill="white"/>
<path opacity="0.69" d="M16.4484 140.448L16.2337 140.158C16.1817 140.069 16.1225 139.984 16.0568 139.905C15.9432 139.754 15.8042 139.552 15.6526 139.312C15.0968 138.427 14.3895 137.341 13.6568 136.242L13.0505 135.244L12.8484 134.89C12.7095 134.663 12.5705 134.41 12.4316 134.145C12.3035 133.949 12.1855 133.747 12.0779 133.539L11.0674 131.808C10.701 131.063 10.2968 130.318 9.91788 129.573L9.74104 129.219C9.63999 129.029 9.55157 128.827 9.43789 128.65C9.3242 128.474 9.18525 128.133 9.07157 127.88C8.85683 127.413 8.64209 126.933 8.43999 126.516C6.89848 123.157 5.56544 119.706 4.44841 116.183C4.18315 115.286 3.95578 114.465 3.75367 113.77C3.62735 113.366 3.5263 113 3.43788 112.672C3.18525 111.85 3.0842 111.333 3.0842 111.333L13.3789 108.806L13.4421 109.135C13.4421 109.324 13.5937 109.627 13.7074 109.994C13.821 110.36 13.8337 110.474 13.9095 110.752C14.0989 111.396 14.3137 112.192 14.5916 113.076C14.7684 113.581 14.9453 114.124 15.1474 114.68L15.3368 115.312C15.4505 115.589 15.5516 115.905 15.6526 116.208C15.7537 116.512 15.8547 116.789 15.981 117.093L16.1074 117.345C16.3979 118.128 16.7137 118.924 17.0168 119.733L17.5853 120.996C17.7621 121.375 17.9516 121.766 18.1158 122.145L18.2674 122.512C18.4063 122.789 18.52 123.08 18.6589 123.345C18.7979 123.61 18.9368 123.914 19.0758 124.166L19.2526 124.533C19.6568 125.278 20.0232 126.036 20.3895 126.756L21.0842 128.019L21.5895 128.878L21.9432 129.472C22.1565 129.912 22.4057 130.335 22.6884 130.735C23.0042 131.227 23.2821 131.669 23.56 132.074L24.4316 133.438C24.5579 133.64 24.6716 133.792 24.7726 133.93L24.9495 134.183L25.1263 134.423L16.4484 140.448ZM3.15998 111.333C3.15998 111.459 3.2863 111.926 3.48841 112.596C3.58946 112.899 3.69051 113.278 3.8042 113.695C4.0063 114.389 4.23367 115.185 4.51156 116.107C5.62999 119.616 6.95872 123.053 8.49052 126.402C8.69262 126.844 8.91999 127.312 9.10946 127.779C9.23578 128.032 9.37473 128.284 9.50105 128.549C9.62736 128.815 9.70315 128.916 9.79157 129.13L9.96841 129.472C10.36 130.204 10.7389 130.962 11.1305 131.695C11.5221 132.427 11.7874 132.869 12.1158 133.438L12.4695 134.044L12.8989 134.802L13.1137 135.143C13.3158 135.497 13.5053 135.825 13.7074 136.141C14.4274 137.227 15.1347 138.314 15.7032 139.21C15.8421 139.438 15.9937 139.64 16.1074 139.792C16.172 139.869 16.2271 139.954 16.2716 140.044C16.3853 140.158 16.4358 140.259 16.4737 140.284L25.0884 134.36L24.9495 134.158L24.7726 133.918L24.4189 133.413L23.5474 132.061L22.6758 130.709C22.4035 130.303 22.1547 129.881 21.9305 129.446L21.5768 128.853C21.4 128.562 21.2358 128.272 21.0716 127.981C20.9074 127.69 20.6295 127.185 20.3768 126.718C20.0105 126.01 19.6189 125.265 19.24 124.507C19.1844 124.39 19.1211 124.276 19.0505 124.166C18.9116 123.888 18.76 123.61 18.6337 123.32C18.5074 123.029 18.3684 122.764 18.2421 122.486L18.0779 122.133C17.9137 121.741 17.7495 121.349 17.5474 120.97C17.3453 120.592 17.1811 120.124 16.9916 119.707C16.6758 118.912 16.3726 118.103 16.0568 117.333L15.9558 117.067C15.8295 116.764 15.7158 116.486 15.6274 116.196C15.5389 115.905 15.4126 115.577 15.3116 115.274L15.1095 114.667L14.5537 113.05C14.2758 112.154 14.061 111.358 13.8842 110.714C13.8084 110.436 13.7326 110.183 13.6695 109.968C13.6063 109.754 13.4674 109.299 13.4042 109.109C13.3964 109.013 13.3964 108.916 13.4042 108.819L3.15998 111.333Z" fill="white"/>
</g>
<g opacity="0.8">
<path opacity="0.8" d="M96.2547 177.952L95.2821 178.027C94.6632 178.091 93.7411 178.103 92.5789 178.141L90.6463 178.229H87.1221C86.6926 178.229 86.2379 178.229 85.7832 178.229L82.9158 178.053C78.3721 177.725 73.8588 177.062 69.4126 176.069C64.318 174.91 59.338 173.295 54.5326 171.244C49.7196 169.204 45.0955 166.744 40.7137 163.893C36.9033 161.411 33.2923 158.637 29.9137 155.594C29.1811 154.912 28.4611 154.255 27.7916 153.661C27.1221 153.067 26.5284 152.398 25.9726 151.829C25.4168 151.261 24.8737 150.718 24.381 150.2C23.8884 149.682 23.4716 149.189 23.1179 148.773C22.3347 147.888 21.7284 147.219 21.3242 146.739L20.7179 145.994L28.9284 139.362L29.0547 139.526C29.1558 139.64 29.2695 139.817 29.4716 140.032L31.0505 141.8C31.4042 142.192 31.7579 142.621 32.1874 143.063C32.6168 143.505 33.0842 143.985 33.6021 144.491C33.8547 144.743 34.1074 145.021 34.3726 145.274C34.6379 145.526 34.9158 145.829 35.2063 146.095L37.0758 147.813C40.0551 150.495 43.2396 152.94 46.6 155.126C50.4662 157.62 54.5402 159.775 58.7769 161.568C63.0159 163.358 67.403 164.774 71.8884 165.8C75.8144 166.674 79.8003 167.252 83.8126 167.531L86.339 167.695C87.1474 167.695 87.8926 167.695 88.6253 167.695C89.3579 167.695 90.0147 167.695 90.6337 167.695L92.339 167.632C93.3621 167.632 94.1832 167.632 94.7137 167.543L95.5474 167.442L96.2547 177.952Z" fill="white"/>
<path opacity="0.8" d="M90.6842 178.28H88.3979H87.1347H86.8947C86.5158 178.28 86.1368 178.28 85.7326 178.28L84.6716 178.204L82.8653 178.116C78.3385 177.771 73.8426 177.1 69.4126 176.107C64.3141 174.927 59.3272 173.308 54.5074 171.269C49.6999 169.226 45.0803 166.766 40.701 163.918C36.8745 161.449 33.258 158.669 29.8884 155.606L29.3705 155.139C28.8147 154.634 28.2842 154.141 27.7537 153.674C27.2231 153.206 26.9705 152.903 26.6042 152.512L25.9474 151.842C25.5811 151.476 25.24 151.135 24.9242 150.794L24.3432 150.213L23.08 148.785C22.8021 148.457 22.5368 148.166 22.2842 147.901C21.8926 147.421 21.539 147.055 21.299 146.764C20.8947 146.272 20.6926 146.006 20.6926 146.006L28.9284 139.349L29.08 139.514L29.1937 139.665C29.2795 139.784 29.3723 139.898 29.4716 140.006L30.4063 141.055L31.0632 141.762C31.1768 141.926 31.3032 142.065 31.4295 142.217L32.2 143.051L33.0084 143.884L33.6147 144.478C33.7663 144.642 33.9305 144.794 34.0821 144.971C34.2337 145.147 34.2842 145.16 34.3726 145.261L34.5368 145.438C34.7516 145.64 34.9663 145.867 35.2189 146.082L35.56 146.398C36.04 146.853 36.5579 147.307 37.0884 147.8C40.0635 150.478 43.2438 152.919 46.6 155.101C50.4624 157.593 54.5321 159.749 58.7642 161.543C66.7117 164.92 75.1709 166.936 83.7874 167.505C84.0779 167.505 84.3558 167.505 84.6337 167.568C85.2147 167.568 85.7705 167.568 86.3137 167.669H89.2695C89.7368 167.669 90.1789 167.669 90.6084 167.669H91.3158H92.3137H93.1726C93.8042 167.669 94.2968 167.669 94.6884 167.594L95.5221 167.505L96.2421 178.091L95.2695 178.179C94.8653 178.179 94.2969 178.179 93.6147 178.267C93.2655 178.249 92.9156 178.249 92.5663 178.267L90.6463 178.343L90.6842 178.28ZM20.8063 145.943L21.3747 146.651L22.36 147.787C22.6126 148.053 22.8653 148.356 23.1558 148.672C23.4463 148.987 23.9768 149.594 24.4189 150.099L25 150.693C25.3284 151.008 25.6695 151.362 26.0232 151.741C26.3768 152.12 26.4653 152.183 26.7053 152.398C26.9453 152.613 27.4379 153.168 27.8421 153.56L29.4589 155.025L29.9642 155.493C33.3385 158.541 36.9499 161.316 40.7642 163.792C45.1463 166.635 49.7655 169.094 54.5705 171.143C59.3848 173.17 64.3627 174.785 69.4505 175.968C73.8977 176.955 78.4106 177.618 82.9537 177.952L84.7474 178.053H85.821H86.9705H90.6842C91.3916 178.053 92.0484 178.053 92.6295 177.989H93.6526C94.3347 177.989 94.9158 177.989 95.3326 177.914L96.2421 177.838L95.5347 167.379L94.7516 167.467C94.36 167.467 93.8547 167.467 93.2231 167.543H92.3642C92.0484 167.543 91.7074 167.543 91.379 167.543H90.6589C90.2295 167.543 89.7874 167.543 89.32 167.543H87.7916C87.3747 167.543 86.8821 167.543 86.3642 167.543L84.6716 167.442H83.8379C79.8249 167.163 75.8388 166.58 71.9137 165.699C62.9295 163.651 54.3773 160.033 46.6505 155.013C43.2796 152.835 40.0865 150.394 37.1011 147.712C36.5832 147.219 36.0779 146.764 35.5853 146.322L35.2442 145.994C35.0047 145.788 34.777 145.568 34.5621 145.337L34.4105 145.185C34.3159 145.082 34.2146 144.985 34.1074 144.895C33.9629 144.708 33.7976 144.539 33.6147 144.389L33.0337 143.796L32.2126 142.949C31.9474 142.659 31.6947 142.394 31.4674 142.116L31.0758 141.674L30.4316 140.954C30.0526 140.524 29.7368 140.171 29.4968 139.918C29.2568 139.665 29.2821 139.665 29.2063 139.564L29.08 139.413L28.9916 139.286L20.8063 145.943Z" fill="white"/>
</g>
<g opacity="0.54">
<path opacity="0.54" d="M149.901 154.394L148.196 155.897C147.918 156.149 147.615 156.427 147.286 156.705C146.947 157.029 146.588 157.333 146.213 157.615C145.429 158.259 144.533 158.979 143.56 159.749C143.08 160.154 142.537 160.507 142.006 160.912L140.314 162.175C140.023 162.389 139.733 162.604 139.417 162.806L138.495 163.425L136.575 164.688C136.246 164.891 135.918 165.118 135.564 165.307L134.541 165.926C133.846 166.318 133.152 166.722 132.432 167.114L131.914 167.442L131.345 167.72L130.272 168.301C129.514 168.663 128.768 169.042 128.036 169.438L125.775 170.474L124.651 170.966C124.272 171.156 123.88 171.307 123.514 171.459L121.253 172.356C120.886 172.495 120.507 172.659 120.141 172.785C119.777 172.935 119.406 173.065 119.029 173.177C116.086 174.225 113.295 175.034 110.882 175.64L107.56 176.411C106.575 176.6 105.703 176.752 105.034 176.903L103.379 177.181L102.773 177.282L101.295 166.823C101.47 166.814 101.644 166.785 101.813 166.735L103.278 166.482C103.909 166.356 104.68 166.229 105.552 166.04C106.423 165.851 107.408 165.623 108.482 165.358C113.671 164.021 118.711 162.164 123.526 159.813C124.171 159.472 124.789 159.143 125.472 158.802C126.154 158.461 126.735 158.158 127.404 157.792L129.261 156.705L130.171 156.175C130.448 155.985 130.752 155.808 131.029 155.632C133.379 154.166 135.438 152.651 137.181 151.324C138.053 150.629 138.836 150.061 139.543 149.429C140.251 148.798 140.806 148.343 141.261 147.926C142.234 147.08 142.789 146.575 142.789 146.575L149.901 154.394Z" fill="white"/>
<path opacity="0.54" d="M102.709 177.269L101.232 166.76C101.406 166.754 101.579 166.733 101.749 166.697L102.432 166.571L103.215 166.419L103.909 166.305L105.476 166.002L106.461 165.787L108.406 165.32C113.619 163.981 118.684 162.123 123.526 159.775C123.893 159.573 124.272 159.396 124.651 159.206C125.029 159.017 125.194 158.916 125.472 158.764L126.015 158.486C126.495 158.259 126.949 158.006 127.392 157.754L129.248 156.667C129.552 156.503 129.855 156.339 130.145 156.149L131.029 155.581C133.429 154.091 135.577 152.512 137.181 151.286C137.636 150.907 138.078 150.541 138.507 150.213L139.518 149.404C140.036 148.987 140.478 148.583 140.882 148.229C140.998 148.109 141.12 147.995 141.248 147.888C142.221 147.042 142.764 146.537 142.764 146.537L149.888 154.394L148.208 155.897C148.083 156.032 147.948 156.159 147.804 156.276C147.653 156.427 147.488 156.554 147.337 156.718L147.135 156.895C146.857 157.135 146.566 157.387 146.238 157.64C145.657 158.082 145.038 158.6 144.368 159.143L143.585 159.762C143.282 160.015 142.954 160.255 142.6 160.507L142.032 160.924L141.337 161.417L140.339 162.137L140.213 162.238L139.455 162.781C139.135 162.964 138.827 163.166 138.533 163.387C137.939 163.766 137.269 164.196 136.6 164.651C136.474 164.714 136.385 164.789 136.259 164.865C136.133 164.941 135.829 165.143 135.589 165.269L134.566 165.876L133.884 166.28L132.444 167.088L131.939 167.404L130.891 167.935L130.284 168.263L128.756 169.021C128.528 169.16 128.288 169.274 128.048 169.4C127.808 169.526 127.429 169.691 127.114 169.817L125.851 170.436L124.714 170.928C124.344 171.114 123.965 171.278 123.577 171.421C122.794 171.724 122.048 172.015 121.328 172.318C120.949 172.469 120.571 172.621 120.204 172.747L119.497 173L119.093 173.139C116.42 174.096 113.701 174.918 110.945 175.602L107.611 176.373L105.084 176.865L103.429 177.156L102.836 177.244L102.709 177.269ZM101.307 166.811L102.773 177.168L103.328 177.08L104.996 176.789L107.522 176.309C108.52 176.057 109.619 175.804 110.857 175.539C113.535 174.857 116.339 174.023 118.979 173.076L119.396 172.937L120.091 172.684L121.202 172.242C121.947 171.952 122.693 171.648 123.451 171.371C123.839 171.219 124.218 171.046 124.587 170.853C124.979 170.701 125.358 170.537 125.724 170.373L127.051 169.766C127.366 169.615 127.682 169.476 127.985 169.312L128.705 168.971C129.223 168.705 129.716 168.44 130.221 168.2L130.853 167.859L131.307 167.619L131.863 167.341L132.381 167.025C132.874 166.76 133.341 166.482 133.796 166.217L134.503 165.813L135.526 165.219L136.196 164.802L136.524 164.575C137.168 164.145 137.863 163.716 138.444 163.312L139.366 162.68C139.632 162.516 139.889 162.339 140.137 162.149L140.263 162.061L141.274 161.341L141.943 160.836C142.145 160.697 142.335 160.545 142.537 160.419C142.739 160.293 143.206 159.952 143.509 159.686L144.28 159.055C144.949 158.512 145.543 158.019 146.162 157.552C146.478 157.299 146.768 157.059 147.034 156.806L147.236 156.629C147.4 156.491 147.577 156.339 147.716 156.2L148.133 155.834C149.093 155.013 149.674 154.482 149.813 154.343L142.764 146.613L141.299 147.876L140.907 148.217C140.516 148.583 140.074 148.987 139.556 149.392C139.038 149.796 138.899 149.935 138.545 150.213C138.192 150.49 137.674 150.92 137.206 151.286C135.615 152.549 133.417 154.078 131.042 155.568L130.183 156.149C129.88 156.326 129.577 156.503 129.261 156.667C128.655 157.046 127.998 157.4 127.417 157.754C126.836 158.107 126.495 158.259 126.027 158.499L125.484 158.764C125.219 158.928 124.941 159.055 124.663 159.206C124.385 159.358 123.918 159.573 123.552 159.775C118.698 162.115 113.619 163.956 108.394 165.269L106.423 165.724L105.463 165.939C104.895 166.078 104.364 166.166 103.884 166.242L103.189 166.381L102.394 166.52L101.724 166.634L101.307 166.811Z" fill="white"/>
</g>
</svg>
