<svg width="454" height="454" viewBox="0 0 454 454" fill="none" xmlns="http://www.w3.org/2000/svg">
<path opacity="0.78" d="M61.1242 381.697L60.3663 380.876L75.9789 366.4L76.6484 367.12L61.1242 381.697Z" fill="white"/>
<path opacity="0.68" d="M67.0737 387.823L82.1053 372.716C82.3326 372.943 82.5853 373.183 82.8 373.423L67.8947 388.581L67.0737 387.823Z" fill="white"/>
<path opacity="0.63" d="M54.6821 374.522C54.4295 374.232 54.1895 373.966 53.9495 373.676L70.1179 359.882C70.3074 360.135 70.5347 360.375 70.7621 360.64L54.6821 374.522Z" fill="white"/>
<path opacity="0.53" d="M74.0589 394.467L88.421 378.754C88.7242 379.032 88.9389 379.234 89.1789 379.436L74.9053 395.238L74.0716 394.48L74.0589 394.467Z" fill="white"/>
<path opacity="0.62" d="M48.5305 367.069L47.8358 366.211L64.5853 353.137C64.7874 353.402 65.0021 353.667 65.2168 353.92L48.5305 367.069Z" fill="white"/>
<path opacity="0.4" d="M81.3474 400.834L94.9895 384.552L95.76 385.196L82.2063 401.617L81.3474 400.834Z" fill="white"/>
<path opacity="0.65" d="M42.7326 359.352C42.5053 359.061 42.2905 358.758 42.0758 358.455L59.3684 346.051C59.5453 346.291 59.7095 346.543 59.9747 346.859L42.7326 359.352Z" fill="white"/>
<path opacity="0.59" d="M88.8758 406.897L101.811 389.996L102.531 390.564L102.606 390.627L89.7853 407.554C89.5705 407.402 89.3684 407.263 89.1789 407.099L88.8758 406.897Z" fill="white"/>
<path opacity="0.77" d="M37.2126 351.394L36.6063 350.459L54.4042 338.838C54.5811 339.116 54.7705 339.381 54.96 339.697L37.2126 351.394Z" fill="white"/>
<path opacity="0.62" d="M96.6821 412.581L108.884 395.187C109.137 395.352 109.389 395.541 109.655 395.705L109.731 395.768L97.6042 413.213C97.3263 413.023 97.0484 412.834 96.7832 412.632L96.6821 412.581Z" fill="white"/>
<path opacity="0.61" d="M32.0716 343.208C31.8947 342.893 31.6926 342.564 31.5032 342.248L49.7684 331.423C49.9074 331.676 50.0842 331.954 50.2863 332.295L32.0716 343.208Z" fill="white"/>
<path opacity="0.42" d="M104.703 417.962L116.211 400.038L117.057 400.568L105.688 418.531C105.398 418.354 105.082 418.164 104.741 417.937L104.703 417.962Z" fill="white"/>
<path opacity="0.59" d="M27.2716 334.821C27.1074 334.493 26.9179 334.164 26.7537 333.823L45.4737 323.756C45.6 323.996 45.7263 324.21 45.84 324.463L45.9411 324.64L46.0547 324.564L45.9663 324.665L27.2716 334.821Z" fill="white"/>
<path opacity="0.71" d="M112.964 423.002L123.613 404.623L124.497 405.141L113.924 423.583L112.939 423.015L112.964 423.002Z" fill="white"/>
<path opacity="0.79" d="M22.8505 326.219C22.6863 325.891 22.5095 325.537 22.3579 325.208L41.6084 315.949V316.013C41.7221 316.316 41.8863 316.632 42.0253 316.922L22.8505 326.219Z" fill="white"/>
<path opacity="0.7" d="M121.415 427.651L131.28 408.829C131.558 408.956 131.874 409.133 132.177 409.284L122.413 428.156L121.415 427.638V427.651Z" fill="white"/>
<path opacity="0.78" d="M18.7832 317.402C18.6442 317.061 18.5053 316.733 18.3284 316.379L37.8947 307.954C38.021 308.232 38.16 308.56 38.3116 308.876L18.7832 317.402Z" fill="white"/>
<path opacity="0.48" d="M130.105 431.971L139.137 412.745L140.059 413.162L131.116 432.425L130.105 431.958V431.971Z" fill="white"/>
<path opacity="0.57" d="M15.1579 308.446C15.0189 308.105 14.9053 307.764 14.7663 307.411L34.6484 299.832C34.7621 300.147 34.8758 300.463 35.0021 300.792L15.1579 308.446Z" fill="white"/>
<path opacity="0.6" d="M138.947 435.874L147.158 416.282C147.461 416.408 147.79 416.535 148.08 416.674L139.945 436.303L138.947 435.949V435.874Z" fill="white"/>
<path opacity="0.48" d="M11.8232 299.339C11.6968 298.985 11.5705 298.632 11.4568 298.278L31.6674 291.608C31.7937 291.937 31.9074 292.253 32.0084 292.568L11.8232 299.339Z" fill="white"/>
<path opacity="0.74" d="M147.865 439.411L155.229 419.528C155.545 419.667 155.848 419.756 156.164 419.869L148.888 439.827L147.827 439.448L147.865 439.411Z" fill="white"/>
<path opacity="0.72" d="M8.93052 290.093C8.82947 289.764 8.72842 289.398 8.62737 289.019L29.0526 283.107C29.1537 283.423 29.2547 283.752 29.3432 284.067L8.93052 290.093Z" fill="white"/>
<path opacity="0.9" d="M156.973 442.556L163.478 422.345L164.413 422.648L157.996 442.859L157.364 442.657L156.973 442.556Z" fill="white"/>
<path opacity="0.43" d="M6.45474 280.733C6.35369 280.366 6.25264 280 6.17685 279.646L26.8547 274.707C26.9168 275.04 26.9969 275.369 27.0947 275.693L6.45474 280.733Z" fill="white"/>
<path opacity="0.82" d="M166.219 445.373V445.297L171.878 424.821H171.954C172.244 424.897 172.573 424.973 172.888 425.074L167.343 445.587C167.015 445.524 166.648 445.423 166.269 445.322L166.219 445.373Z" fill="white"/>
<path opacity="0.51" d="M4.34527 271.297V271.171C4.34527 270.829 4.20632 270.501 4.15579 270.16L25.0105 266.118C25.0737 266.446 25.1242 266.787 25.2 267.116L4.34527 271.297Z" fill="white"/>
<path opacity="0.45" d="M175.579 447.684L180.341 426.968C180.644 427.056 180.952 427.128 181.263 427.183L176.602 447.912C176.363 447.866 176.127 447.807 175.895 447.735L175.579 447.684Z" fill="white"/>
<path opacity="0.49" d="M2.66526 261.747C2.58947 261.293 2.55158 260.964 2.50105 260.648H2.52632L23.5453 257.49L23.6968 258.476H23.76H23.6968L2.66526 261.747Z" fill="white"/>
<path opacity="0.45" d="M185.04 449.655L188.918 428.762C189.246 428.762 189.562 428.888 189.903 428.952L186.114 449.857L185.027 449.655H185.04Z" fill="white"/>
<path opacity="0.47" d="M1.38947 252.16C1.38947 251.781 1.30105 251.427 1.26315 251.048L22.3705 248.787C22.3705 249.027 22.4337 249.267 22.4589 249.507V249.811L1.38947 252.16Z" fill="white"/>
<path opacity="0.8" d="M194.526 451.221L197.52 430.177C197.848 430.177 198.189 430.265 198.531 430.29L195.638 451.335L194.539 451.183L194.526 451.221Z" fill="white"/>
<path opacity="0.56" d="M0.517898 242.522C0.517898 242.181 0.517898 241.789 0.442108 241.411L21.6632 240.046C21.6632 240.387 21.6632 240.716 21.6632 241.057L0.517898 242.522Z" fill="white"/>
<path opacity="0.52" d="M204.152 452.371L206.236 431.225C206.579 431.244 206.92 431.282 207.259 431.339L205.263 452.484L204.152 452.383V452.371Z" fill="white"/>
<path opacity="0.5" d="M0.0631579 232.884C0.0631579 232.505 0.0631579 232.139 0.0631579 231.76H0L21.3221 231.318C21.3221 231.634 21.3221 231.975 21.3221 232.316L0.0631579 232.884Z" fill="white"/>
<path opacity="0.87" d="M213.789 453.116L214.989 431.907H215.065H215.987L214.888 453.116C214.56 453.116 214.206 453.116 213.777 453.053L213.789 453.116Z" fill="white"/>
<path opacity="0.61" d="M0 223.208C0 222.842 0 222.463 0 222.097L21.2337 222.564C21.2337 222.893 21.2337 223.221 21.2337 223.562L0 223.208Z" fill="white"/>
<path opacity="0.5" d="M223.453 453.457L223.756 432.223H224.842L224.64 453.469H223.503L223.453 453.457Z" fill="white"/>
<path opacity="0.56" d="M0.366318 213.558L0.442107 212.371L21.6379 213.722C21.6379 214.038 21.6379 214.354 21.5621 214.72L0.366318 213.558Z" fill="white"/>
<path opacity="0.59" d="M233.103 453.394L232.497 432.173H233.507L234.215 453.419H233.116L233.103 453.394Z" fill="white"/>
<path opacity="0.8" d="M1.13684 203.933C1.13684 203.566 1.21263 203.2 1.26316 202.834L22.3958 205.082V205.183L22.32 206.105L1.13684 203.933Z" fill="white"/>
<path opacity="0.46" d="M242.754 452.926L241.263 431.718H241.364C241.667 431.718 241.983 431.718 242.299 431.629L243.903 452.787L242.792 452.888L242.754 452.926Z" fill="white"/>
<path opacity="0.76" d="M2.3242 194.333C2.3242 193.966 2.42526 193.587 2.47578 193.221H2.52631L23.5453 196.354C23.5453 196.644 23.4568 196.973 23.3937 197.339L2.3242 194.333Z" fill="white"/>
<path opacity="0.82" d="M252.392 452.029L249.979 430.897L250.989 430.771L253.516 451.865L252.392 451.992V452.029Z" fill="white"/>
<path opacity="0.59" d="M3.90315 184.821C3.97894 184.455 4.0421 184.101 4.09263 183.735L24.9474 187.764C24.8716 188.093 24.8337 188.408 24.7579 188.749L3.90315 184.821Z" fill="white"/>
<path opacity="0.53" d="M261.979 450.754L258.695 429.785C259.036 429.785 259.339 429.672 259.68 429.634L263.091 450.602L262.004 450.779L261.979 450.754Z" fill="white"/>
<path opacity="0.52" d="M5.87369 175.373C5.96211 175.019 6.05053 174.653 6.12632 174.299L26.8042 179.2C26.7284 179.516 26.64 179.844 26.5768 180.16V180.097L5.87369 175.373Z" fill="white"/>
<path opacity="0.83" d="M271.503 449.023L267.297 428.194H267.587L268.307 428.042V427.979L268.371 428.055L272.678 448.859L271.592 449.086L271.503 449.023Z" fill="white"/>
<path opacity="0.41" d="M8.26105 166.025C8.37473 165.596 8.47578 165.267 8.57684 164.952L29.0526 170.686C28.9642 171.002 28.8632 171.331 28.7874 171.659L8.26105 166.025Z" fill="white"/>
<path opacity="0.71" d="M280.939 446.914L275.886 426.299C276.215 426.223 276.543 426.122 276.859 426.059L282.038 446.661C281.659 446.762 281.305 446.863 280.952 446.926L280.939 446.914Z" fill="white"/>
<path opacity="0.59" d="M11.0274 156.792C11.1411 156.425 11.2674 156.084 11.3811 155.731H11.3684L31.579 162.387C31.4526 162.728 31.3642 163.044 31.2632 163.335L11.0274 156.792Z" fill="white"/>
<path opacity="0.5" d="M290.312 444.4L284.362 424L285.347 423.722L291.398 444.084L290.324 444.413L290.312 444.4Z" fill="white"/>
<path opacity="0.4" d="M14.2105 147.659L14.6021 146.636H14.6779L34.5474 154.139L34.1937 155.061L14.2105 147.659Z" fill="white"/>
<path opacity="0.82" d="M299.533 441.482L292.724 421.373L293.659 421.057L300.581 441.141L299.52 441.52L299.533 441.482Z" fill="white"/>
<path opacity="0.72" d="M17.76 138.703C17.9116 138.375 18.0505 138.034 18.1768 137.68L37.7179 146.017C37.5789 146.32 37.4653 146.623 37.3263 146.914L17.76 138.703Z" fill="white"/>
<path opacity="0.71" d="M308.64 438.198L300.973 418.379C301.276 418.265 301.579 418.152 301.92 418H302.008L301.945 418.076L309.714 437.832C309.373 437.97 309.019 438.122 308.665 438.248L308.64 438.198Z" fill="white"/>
<path opacity="0.86" d="M21.701 129.899C21.8653 129.558 22.0168 129.229 22.1937 128.901L41.3432 138.084C41.2042 138.4 41.0653 138.691 40.9137 138.994L21.701 129.899Z" fill="white"/>
<path opacity="0.4" d="M317.608 434.484L309.095 415.019L310.017 414.602L318.632 434.017C318.291 434.181 317.949 434.307 317.621 434.472L317.608 434.484Z" fill="white"/>
<path opacity="0.59" d="M26.0337 121.246L26.5516 120.261L45.3221 130.265C45.1579 130.568 45.019 130.872 44.8547 131.162L26.0337 121.246Z" fill="white"/>
<path opacity="0.48" d="M326.4 430.404L317.053 411.318L317.912 410.863L327.373 429.912L326.375 430.404H326.4Z" fill="white"/>
<path opacity="0.84" d="M30.7074 112.783C30.8842 112.455 31.0611 112.152 31.2632 111.823L49.5663 122.611L49.0484 123.482L30.7074 112.783Z" fill="white"/>
<path opacity="0.82" d="M334.989 425.958L324.884 407.301L325.756 406.846L336 425.402H335.924L335.015 425.92L334.989 425.958Z" fill="white"/>
<path opacity="0.52" d="M35.7474 104.547C35.9368 104.232 36.1516 103.928 36.3537 103.613L54.2147 115.107C54.0379 115.398 53.8484 115.676 53.6716 115.954L35.7474 104.547Z" fill="white"/>
<path opacity="0.65" d="M343.389 421.145L332.425 402.968C332.703 402.792 332.981 402.615 333.272 402.451H333.335L344.387 420.577C344.059 420.754 343.756 420.956 343.427 421.158L343.389 421.145Z" fill="white"/>
<path opacity="0.89" d="M41.1411 96.5263C41.3432 96.2105 41.5705 95.9073 41.7853 95.6168L59.1032 107.933L58.5347 108.754L41.1411 96.5263Z" fill="white"/>
<path opacity="0.56" d="M351.562 415.992L339.84 398.307C340.132 398.128 340.414 397.934 340.686 397.726L352.509 415.411L351.562 416.017V415.992Z" fill="white"/>
<path opacity="0.45" d="M46.8884 88.7453L47.5705 87.8484L64.4211 100.884L63.8021 101.693L46.8884 88.7453Z" fill="white"/>
<path opacity="0.61" d="M359.495 410.472L347.027 393.28L347.848 392.686L360.404 409.827L359.507 410.484L359.495 410.472Z" fill="white"/>
<path opacity="0.61" d="M52.9263 81.2169L53.0526 81.1284C53.28 80.8758 53.5074 80.5979 53.7221 80.3453L69.8905 94.0884C69.701 94.3411 69.4863 94.5937 69.2842 94.8211L52.9263 81.2169Z" fill="white"/>
<path opacity="0.81" d="M367.213 404.636L354.013 387.95L354.808 387.331L368.084 403.916C367.865 404.068 367.654 404.233 367.453 404.408L367.213 404.636Z" fill="white"/>
<path opacity="0.85" d="M59.3684 73.9411C59.6211 73.6758 59.8611 73.3979 60.0884 73.1453L75.6884 87.5326C75.461 87.7726 75.2337 88.0253 75.0189 88.2779L59.3684 73.9411Z" fill="white"/>
<path opacity="0.45" d="M374.64 398.472L360.745 382.392C361.023 382.177 361.263 381.962 361.516 381.735L375.486 397.752C375.246 397.979 374.981 398.206 374.665 398.484L374.64 398.472Z" fill="white"/>
<path opacity="0.64" d="M65.9747 66.9558C66.2274 66.7032 66.4926 66.4379 66.7579 66.1979L81.7768 81.2421L81.0695 81.9495L65.9747 66.9558Z" fill="white"/>
<path opacity="0.66" d="M381.827 392.004L367.276 376.543L367.288 376.505L381.84 391.979L381.827 392.004Z" fill="white"/>
<path opacity="0.51" d="M87.36 75.9495L72.9347 60.2611L73.7684 59.5284L88.1053 75.1916L87.4232 75.8105L87.36 75.9495Z" fill="white"/>
<path opacity="0.61" d="M369.486 374.434C369.726 374.219 369.954 373.979 370.194 373.739L385.061 388.897L384.253 389.667L369.486 374.434Z" fill="white"/>
<path opacity="0.6" d="M93.9411 70.1011L80.1726 53.8569L81.019 53.1495L94.7368 69.4063C94.4842 69.6337 94.2316 69.8358 93.979 70.0505L93.9411 70.1011Z" fill="white"/>
<path opacity="0.87" d="M375.651 368.181C375.903 367.916 376.13 367.676 376.333 367.436L391.794 382L391.023 382.821L375.651 368.181Z" fill="white"/>
<path opacity="0.63" d="M100.636 64.581L87.6631 47.7684L88.5474 47.0863L101.558 63.9116L100.762 64.5179H100.648L100.636 64.581Z" fill="white"/>
<path opacity="0.44" d="M381.537 361.701L382.206 360.943L398.274 374.838C397.996 375.141 397.756 375.432 397.541 375.672L381.537 361.701Z" fill="white"/>
<path opacity="0.76" d="M107.747 59.3263L95.4442 42.0211L96.3663 41.3768L108.632 58.72L107.836 59.2884L107.747 59.3263Z" fill="white"/>
<path opacity="0.49" d="M387.171 354.981C387.347 354.792 387.524 354.577 387.688 354.375L387.827 354.198L404.488 367.398C404.248 367.688 404.008 367.966 403.781 368.27L387.171 354.981Z" fill="white"/>
<path opacity="0.88" d="M114.947 54.4L103.389 36.5895C103.693 36.3747 103.996 36.1853 104.312 35.9832L115.794 53.8695L114.947 54.4126V54.4Z" fill="white"/>
<path opacity="0.55" d="M392.501 348.046L393.095 347.25L410.299 359.693L409.655 360.602L392.501 348.046Z" fill="white"/>
<path opacity="0.73" d="M122.438 49.7895L111.625 31.4737L112.585 30.9053L123.297 49.2716L122.425 49.7895H122.438Z" fill="white"/>
<path opacity="0.76" d="M397.528 340.872C397.731 340.568 397.933 340.253 398.097 340.038L415.781 351.747L415.175 352.682L397.528 340.872Z" fill="white"/>
<path opacity="0.76" d="M130.105 45.4947L120.076 26.6863L121.061 26.1684L130.977 44.9642L130.093 45.4442L130.105 45.4947Z" fill="white"/>
<path opacity="0.81" d="M402.253 333.482C402.442 333.217 402.606 332.926 402.783 332.636L420.985 343.562L420.872 343.739C420.72 344.004 420.556 344.269 420.392 344.535L402.253 333.482Z" fill="white"/>
<path opacity="0.64" d="M137.899 41.5537L128.716 22.3916L129.726 21.9116L138.821 41.1242L137.924 41.5663L137.899 41.5537Z" fill="white"/>
<path opacity="0.65" d="M406.623 325.903C406.787 325.6 406.939 325.309 407.116 325.019L425.773 335.124L425.255 336.084H425.192L406.623 325.903Z" fill="white"/>
<path opacity="0.44" d="M145.895 37.9158L137.533 18.3621L138.556 17.92L146.804 37.4863L145.857 37.8779L145.895 37.9158Z" fill="white"/>
<path opacity="0.59" d="M410.678 318.135L411.107 317.25H411.044H411.183L430.244 326.573L429.739 327.57L410.678 318.135Z" fill="white"/>
<path opacity="0.86" d="M154.029 34.6442L146.526 14.7495L147.575 14.3579L155.002 34.2653L154.055 34.6189L154.029 34.6442Z" fill="white"/>
<path opacity="0.81" d="M414.392 310.227L414.808 309.318L434.274 317.844C434.11 318.173 433.958 318.526 433.819 318.855L414.392 310.227Z" fill="white"/>
<path opacity="0.57" d="M162.291 31.7389L155.659 11.5284L156.644 11.2126H156.733L163.288 31.4232C162.96 31.5116 162.644 31.6253 162.341 31.7263L162.291 31.7389Z" fill="white"/>
<path opacity="0.79" d="M417.764 302.194C417.891 301.865 418.017 301.562 418.131 301.246L437.937 308.914C437.823 309.204 437.709 309.482 437.608 309.773L437.533 309.975L417.764 302.194Z" fill="white"/>
<path opacity="0.56" d="M170.703 29.2126L164.931 8.7621L166.017 8.45894L171.676 28.9347C171.347 29.0231 171.032 29.0989 170.716 29.2L170.703 29.2126Z" fill="white"/>
<path opacity="0.6" d="M420.783 293.996C420.884 293.68 421.011 293.352 421.112 293.036L441.221 299.869C441.107 300.223 440.994 300.589 440.855 300.931L420.783 293.996Z" fill="white"/>
<path opacity="0.56" d="M179.179 26.9516L174.316 6.26104C174.619 6.17262 174.947 6.10947 175.263 6.03368H175.415L180.215 26.6863L179.229 26.9137L179.179 26.9516Z" fill="white"/>
<path opacity="0.84" d="M423.461 285.634C423.562 285.318 423.663 285.015 423.752 284.674L444.177 290.686C444.076 291.002 443.987 291.28 443.899 291.583L443.836 291.785L423.461 285.634Z" fill="white"/>
<path opacity="0.82" d="M187.768 25.12L183.777 4.25263L184.851 4.05052L188.741 24.9558L187.756 25.1326L187.768 25.12Z" fill="white"/>
<path opacity="0.61" d="M425.773 277.246C425.874 276.931 425.949 276.602 426.025 276.261L446.665 281.314L446.602 281.541C446.526 281.844 446.451 282.135 446.387 282.413L425.773 277.246Z" fill="white"/>
<path opacity="0.61" d="M196.408 23.6547L193.263 2.61052L194.362 2.45894L197.381 23.5537L196.623 23.6674L196.408 23.6547Z" fill="white"/>
<path opacity="0.57" d="M427.743 268.72C427.819 268.366 427.895 268.025 427.945 267.747L448.762 271.954C448.686 272.295 448.611 272.674 448.547 273.04L427.743 268.72Z" fill="white"/>
<path opacity="0.88" d="M205.099 22.5558L202.901 1.42315L204.013 1.3221L206.122 22.4674H206.021L205.086 22.5684L205.099 22.5558Z" fill="white"/>
<path opacity="0.47" d="M429.322 260.105C429.385 259.764 429.448 259.436 429.499 259.107L450.48 262.429V262.568C450.48 262.909 450.366 263.225 450.303 263.566L429.322 260.105Z" fill="white"/>
<path opacity="0.65" d="M213.84 21.8232L212.577 0.614747L213.688 0.538956L214.952 21.7474C214.611 21.7474 214.269 21.7474 213.941 21.7474L213.84 21.8232Z" fill="white"/>
<path opacity="0.67" d="M430.573 251.44V251.288L430.686 250.429L451.819 252.792C451.819 253.158 451.731 253.524 451.693 253.903L430.573 251.44Z" fill="white"/>
<path opacity="0.65" d="M222.606 21.4695L222.189 0.159988H223.301L223.617 21.4063H222.568L222.606 21.4695Z" fill="white"/>
<path opacity="0.81" d="M431.432 242.686C431.432 242.333 431.432 242.004 431.507 241.676L452.703 243.204C452.703 243.571 452.703 243.949 452.615 244.303L431.432 242.686Z" fill="white"/>
<path opacity="0.81" d="M231.36 21.4947L231.853 0.261063H232.863H232.989L232.421 21.5074H231.423L231.36 21.4947Z" fill="white"/>
<path opacity="0.46" d="M431.924 233.983C431.924 233.68 431.924 233.415 431.924 233.124V232.947L453.158 233.579V234.691L431.924 233.983Z" fill="white"/>
<path opacity="0.88" d="M240.126 21.8611L241.516 0.665268L242.488 0.728427H242.653L241.149 21.9242L240.164 21.8611H240.126Z" fill="white"/>
<path opacity="0.77" d="M432 225.229V224.206L453.246 223.954C453.246 224.295 453.246 224.674 453.246 225.065L432 225.229Z" fill="white"/>
<path opacity="0.9" d="M248.842 22.6569L251.116 1.53685L252.139 1.66317H252.24L249.853 22.7958L248.855 22.6695L248.842 22.6569Z" fill="white"/>
<path opacity="0.6" d="M431.785 216.463C431.785 216.135 431.785 215.794 431.785 215.44L452.994 214.278C452.994 214.644 452.994 215.023 452.994 215.402L431.785 216.463Z" fill="white"/>
<path opacity="0.56" d="M257.533 23.7558L260.716 2.68633L261.815 2.86317L258.531 23.8695L257.533 23.7305V23.7558Z" fill="white"/>
<path opacity="0.82" d="M431.166 207.722C431.166 207.394 431.166 207.053 431.065 206.712L452.211 204.602C452.211 204.981 452.274 205.36 452.312 205.714L431.166 207.722Z" fill="white"/>
<path opacity="0.63" d="M266.147 25.2463L270.215 4.39159C270.581 4.45474 270.96 4.5179 271.314 4.60632L267.183 25.4232L266.198 25.2211L266.147 25.2463Z" fill="white"/>
<path opacity="0.71" d="M430.168 199.006C430.168 198.691 430.067 198.362 430.029 198.034L451.061 195.091L451.2 196.202L430.168 199.006Z" fill="white"/>
<path opacity="0.86" d="M274.699 27.1032L279.663 6.47578L280.737 6.74105L275.684 27.381L274.712 27.141L274.699 27.1032Z" fill="white"/>
<path opacity="0.67" d="M428.817 190.341C428.754 189.937 428.691 189.646 428.64 189.356L449.533 185.491C449.596 185.869 449.684 186.248 449.735 186.589L428.817 190.341Z" fill="white"/>
<path opacity="0.66" d="M283.162 29.3137L288.998 8.87581L290.072 9.17897L284.211 29.6169L283.263 29.339L283.162 29.3137Z" fill="white"/>
<path opacity="0.65" d="M427.074 181.752C427.074 181.423 426.935 181.095 426.872 180.754L447.575 176.017C447.651 176.307 447.714 176.598 447.777 176.876V177.128L427.074 181.752Z" fill="white"/>
<path opacity="0.9" d="M291.512 31.9411L298.194 11.7305L299.242 12.0969L292.434 32.2316L291.474 31.9158L291.512 31.9411Z" fill="white"/>
<path opacity="0.6" d="M424.977 173.213C424.888 172.922 424.813 172.644 424.724 172.366V172.227L445.225 166.606C445.314 166.909 445.377 167.2 445.465 167.491L445.528 167.718L424.977 173.213Z" fill="white"/>
<path opacity="0.56" d="M299.747 34.8211L307.326 14.9769L308.375 15.3811L300.796 35.2H300.72L299.836 34.8716L299.747 34.8211Z" fill="white"/>
<path opacity="0.59" d="M422.463 164.825V164.686C422.362 164.408 422.286 164.131 422.185 163.865L442.396 157.373C442.522 157.764 442.623 158.093 442.712 158.421H442.775H442.712L422.463 164.825Z" fill="white"/>
<path opacity="0.53" d="M307.819 38.1558V38.08L316.206 18.5516L317.217 18.9811L308.741 38.459C308.438 38.3326 308.135 38.2063 307.832 38.0547L307.819 38.1558Z" fill="white"/>
<path opacity="0.88" d="M419.709 156.514L419.634 156.337C419.533 156.072 419.444 155.806 419.356 155.554L439.276 148.189C439.377 148.48 439.503 148.859 439.642 149.225L419.709 156.514Z" fill="white"/>
<path opacity="0.57" d="M315.789 41.7053L324.998 22.5558C325.352 22.7074 325.68 22.8716 326.021 23.0358L316.712 42.1348L315.789 41.7179V41.7053Z" fill="white"/>
<path opacity="0.61" d="M416.526 148.328C416.413 148.038 416.286 147.747 416.185 147.469V147.368L435.789 139.107C435.941 139.448 436.08 139.802 436.219 140.143L416.526 148.328Z" fill="white"/>
<path opacity="0.9" d="M323.596 45.6337L333.625 26.901C333.916 27.0779 334.244 27.2421 334.598 27.4316L324.493 46.1137L323.76 45.7221L323.596 45.6337Z" fill="white"/>
<path opacity="0.7" d="M413.053 140.282C412.914 139.992 412.762 139.676 412.623 139.36L431.798 130.265C431.962 130.594 432.114 130.947 432.265 131.276L413.053 140.282Z" fill="white"/>
<path opacity="0.83" d="M331.225 49.9663L342.051 31.6758L342.985 32.2316L332.084 50.459L331.225 49.9537V49.9663Z" fill="white"/>
<path opacity="0.63" d="M409.149 132.413L408.695 131.541L427.49 121.651C427.667 122.004 427.819 122.32 427.996 122.636H428.059H427.983L409.149 132.413Z" fill="white"/>
<path opacity="0.46" d="M338.526 54.7032L350.274 36.7916C350.602 37.0063 350.905 37.1958 351.183 37.3979L351.284 37.2968L351.208 37.4232L339.524 55.1074L338.703 54.5642L338.526 54.7032Z" fill="white"/>
<path opacity="0.52" d="M404.943 124.733L404.438 123.848L422.817 113.187C422.994 113.516 423.183 113.819 423.36 114.16L404.943 124.733Z" fill="white"/>
<path opacity="0.82" d="M345.891 59.5284L358.257 42.2358L359.179 42.8926L346.749 60.1221C346.459 59.9326 346.194 59.7432 345.916 59.5411L345.891 59.5284Z" fill="white"/>
<path opacity="0.74" d="M400.421 117.229C400.257 116.939 400.055 116.661 399.878 116.371L417.777 104.914L418.371 105.848L400.421 117.229Z" fill="white"/>
<path opacity="0.71" d="M352.901 64.7579L365.987 48.0211C366.24 48.2232 366.505 48.4505 366.872 48.7158L353.684 65.4021L352.876 64.7832L352.901 64.7579Z" fill="white"/>
<path opacity="0.66" d="M395.583 109.928C395.394 109.651 395.204 109.385 395.027 109.107L412.421 96.9053C412.636 97.2337 412.851 97.5369 413.053 97.8147L395.583 109.928Z" fill="white"/>
<path opacity="0.71" d="M359.697 70.2905L373.465 54.1095L374.286 54.8295L360.392 70.9347L359.634 70.2905H359.697Z" fill="white"/>
<path opacity="0.42" d="M390.442 102.855L389.836 102.059L406.674 89.1116C406.876 89.3895 407.065 89.6547 407.267 89.9074L407.356 90.021L390.442 102.855Z" fill="white"/>
<path opacity="0.62" d="M366.24 76.1263L380.703 60.539L381.512 61.3095L366.998 76.8337L366.24 76.139V76.1263Z" fill="white"/>
<path opacity="0.82" d="M384.985 95.9705L384.341 95.1874L400.636 81.5705L401.356 82.4295L385.011 95.9705H384.985Z" fill="white"/>
<path opacity="0.56" d="M372.531 82.2653L387.625 67.3221C387.878 67.5495 388.143 67.8274 388.408 68.1179L373.25 82.9853C373.01 82.7453 372.77 82.5179 372.543 82.2653H372.531Z" fill="white"/>
<path opacity="0.51" d="M379.263 89.339L378.581 88.5937L394.295 74.2821L394.371 74.3705C394.585 74.6358 394.825 74.8758 395.053 75.1284L379.263 89.339Z" fill="white"/>
</svg>
