<svg width="76" height="96" viewBox="0 0 76 96" fill="none" xmlns="http://www.w3.org/2000/svg">
<g filter="url(#filter0_d_470_3586)">
<path d="M32.5718 30.1964C32.5718 27.0463 35.0484 24.4926 38.1036 24.4926C41.1587 24.4926 43.6353 27.0463 43.6353 30.1964C43.6353 33.3465 41.1587 35.9002 38.1036 35.9002C35.0484 35.9002 32.5718 33.3465 32.5718 30.1964Z" fill="white"/>
<path fill-rule="evenodd" clip-rule="evenodd" d="M30.8722 35.0951C30.9509 34.7578 31.4049 34.704 31.5863 34.9951C32.9656 37.2093 35.375 38.6762 38.1168 38.6762C40.8637 38.6762 43.2772 37.2036 44.6551 34.9824C44.8365 34.69 45.2913 34.7446 45.3676 35.0836C45.4611 35.4996 45.5555 35.9371 45.6549 36.3981L45.655 36.3984C46.361 39.671 47.3211 44.1215 50.0245 50.3736C50.2838 50.8714 50.5148 51.3904 50.7151 51.9251C50.7188 51.9349 50.7216 51.9451 50.7246 51.9553C50.7285 51.9695 50.7325 51.9838 50.7388 51.997C51.3514 53.6445 51.6879 55.4398 51.6661 57.3208C51.6159 65.2069 45.541 71.5595 38.0917 71.5072C30.6452 71.4604 24.6498 65.0295 24.7 57.1434C24.7124 55.1148 25.1241 53.1873 25.8598 51.4409L25.8679 51.4269C25.8748 51.4152 25.8802 51.406 25.8842 51.3939C26.045 51.0141 26.2217 50.6401 26.4116 50.28C28.5513 45.5883 29.5674 40.9771 30.3929 37.2304L30.3931 37.2293C30.5579 36.4813 30.7151 35.7679 30.8722 35.0951ZM38.2384 66.315C42.542 66.315 46.0308 62.6828 46.0308 58.2023C46.0308 53.7218 42.542 50.0896 38.2384 50.0896C33.9348 50.0896 30.446 53.7218 30.446 58.2023C30.446 62.6828 33.9348 66.315 38.2384 66.315Z" fill="white"/>
<path d="M43.7433 58.1746C43.7433 61.3247 41.2905 63.8784 38.2647 63.8784C35.239 63.8784 32.7861 61.3247 32.7861 58.1746C32.7861 55.0245 35.239 52.4708 38.2647 52.4708C41.2905 52.4708 43.7433 55.0245 43.7433 58.1746Z" fill="white"/>
</g>
<defs>
<filter id="filter0_d_470_3586" x="0.859707" y="0.652569" width="74.6475" height="94.6949" filterUnits="userSpaceOnUse" color-interpolation-filters="sRGB">
<feFlood flood-opacity="0" result="BackgroundImageFix"/>
<feColorMatrix in="SourceAlpha" type="matrix" values="0 0 0 0 0 0 0 0 0 0 0 0 0 0 0 0 0 0 127 0" result="hardAlpha"/>
<feOffset/>
<feGaussianBlur stdDeviation="11.92"/>
<feColorMatrix type="matrix" values="0 0 0 0 1 0 0 0 0 1 0 0 0 0 1 0 0 0 1 0"/>
<feBlend mode="normal" in2="BackgroundImageFix" result="effect1_dropShadow_470_3586"/>
<feBlend mode="normal" in="SourceGraphic" in2="effect1_dropShadow_470_3586" result="shape"/>
</filter>
</defs>
</svg>
