<svg width="26" height="26" viewBox="0 0 26 26" fill="none" xmlns="http://www.w3.org/2000/svg">
<path d="M16.8412 0.5H9.17188C2.16664 0.5 0.5 2.16664 0.5 9.15883V16.8281C0.5 23.8333 2.15368 25.5 9.15883 25.5H16.8281C23.8334 25.5 25.5 23.8463 25.5 16.8411V9.17188C25.5 2.16664 23.8463 0.5 16.8412 0.5ZM20.6823 18.3385H18.8594C18.1693 18.3385 17.9609 17.7786 16.724 16.5416C15.6432 15.5 15.1875 15.3698 14.9141 15.3698C14.5365 15.3698 14.4323 15.4739 14.4323 15.9948V17.6354C14.4323 18.0781 14.2891 18.3385 13.1302 18.3385C12.0057 18.263 10.9152 17.9213 9.9486 17.3418C8.98196 16.7623 8.16682 15.9614 7.57031 15.0052C6.1542 13.2425 5.16888 11.1738 4.69274 8.96351C4.69274 8.69008 4.79687 8.44266 5.31774 8.44266H7.14062C7.60938 8.44266 7.77868 8.65101 7.96094 9.13281C8.84633 11.7369 10.3568 14.0026 10.9688 14.0026C11.2031 14.0026 11.3073 13.8984 11.3073 13.3125V10.6302C11.2291 9.40625 10.5781 9.30204 10.5781 8.85938C10.5867 8.74259 10.6404 8.63374 10.728 8.55593C10.8155 8.47813 10.9299 8.4375 11.0469 8.44266H13.9115C14.3021 8.44266 14.4323 8.63797 14.4323 9.10672V12.7266C14.4323 13.1172 14.6016 13.2473 14.7188 13.2473C14.9531 13.2473 15.1354 13.1172 15.5651 12.6875C16.4884 11.5615 17.2429 10.307 17.8047 8.96351C17.862 8.80186 17.9707 8.66342 18.1142 8.56937C18.2576 8.47531 18.4279 8.43081 18.599 8.44266H20.4219C20.9688 8.44266 21.0859 8.7161 20.9688 9.10672C20.3055 10.5921 19.4848 12.0021 18.5209 13.3125C18.3256 13.6119 18.2474 13.7682 18.5209 14.1198C18.7031 14.3932 19.3412 14.927 19.7709 15.4348C20.3958 16.0583 20.9148 16.7796 21.3073 17.5703C21.4635 18.0781 21.2031 18.3385 20.6823 18.3385V18.3385Z" fill="white"/>
</svg>
