<svg width="83" height="83" viewBox="0 0 83 83" fill="none" xmlns="http://www.w3.org/2000/svg">
<g filter="url(#filter0_d_638_70)">
<path d="M43.2462 48.5021H32.7483C32.2842 48.5021 31.8392 48.6864 31.5111 49.0145C31.183 49.3427 30.9986 49.7877 30.9986 50.2517C30.9986 50.7158 31.183 51.1608 31.5111 51.4889C31.8392 51.8171 32.2842 52.0014 32.7483 52.0014H43.2462C43.7102 52.0014 44.1553 51.8171 44.4834 51.4889C44.8115 51.1608 44.9958 50.7158 44.9958 50.2517C44.9958 49.7877 44.8115 49.3427 44.4834 49.0145C44.1553 48.6864 43.7102 48.5021 43.2462 48.5021ZM36.2476 38.0042H39.7469C40.2109 38.0042 40.656 37.8198 40.9841 37.4917C41.3122 37.1636 41.4965 36.7186 41.4965 36.2545C41.4965 35.7905 41.3122 35.3455 40.9841 35.0173C40.656 34.6892 40.2109 34.5049 39.7469 34.5049H36.2476C35.7835 34.5049 35.3385 34.6892 35.0104 35.0173C34.6823 35.3455 34.4979 35.7905 34.4979 36.2545C34.4979 36.7186 34.6823 37.1636 35.0104 37.4917C35.3385 37.8198 35.7835 38.0042 36.2476 38.0042ZM57.2434 41.5035H51.9944V25.7566C51.9957 25.4483 51.9154 25.1451 51.7618 24.8778C51.6082 24.6105 51.3866 24.3886 51.1196 24.2344C50.8536 24.0808 50.5519 24 50.2448 24C49.9377 24 49.636 24.0808 49.37 24.2344L44.121 27.2438L38.8721 24.2344C38.6061 24.0808 38.3044 24 37.9972 24C37.6901 24 37.3884 24.0808 37.1224 24.2344L31.8734 27.2438L26.6245 24.2344C26.3585 24.0808 26.0568 24 25.7497 24C25.4425 24 25.1408 24.0808 24.8748 24.2344C24.6078 24.3886 24.3863 24.6105 24.2327 24.8778C24.0791 25.1451 23.9988 25.4483 24 25.7566V53.751C24 55.1432 24.553 56.4782 25.5374 57.4626C26.5218 58.447 27.8569 59 29.249 59H53.7441C55.1362 59 56.4713 58.447 57.4557 57.4626C58.44 56.4782 58.9931 55.1432 58.9931 53.751V43.2531C58.9931 42.7891 58.8087 42.3441 58.4806 42.0159C58.1525 41.6878 57.7074 41.5035 57.2434 41.5035ZM29.249 55.5007C28.7849 55.5007 28.3399 55.3164 28.0118 54.9882C27.6837 54.6601 27.4993 54.2151 27.4993 53.751V28.7835L30.9986 30.7781C31.2687 30.9192 31.5688 30.9928 31.8734 30.9928C32.1781 30.9928 32.4782 30.9192 32.7483 30.7781L37.9972 27.7687L43.2462 30.7781C43.5162 30.9192 43.8164 30.9928 44.121 30.9928C44.4257 30.9928 44.7258 30.9192 44.9958 30.7781L48.4951 28.7835V53.751C48.4999 54.3479 48.6064 54.9396 48.8101 55.5007H29.249ZM55.4938 53.751C55.4938 54.2151 55.3094 54.6601 54.9813 54.9882C54.6532 55.3164 54.2081 55.5007 53.7441 55.5007C53.2801 55.5007 52.835 55.3164 52.5069 54.9882C52.1788 54.6601 51.9944 54.2151 51.9944 53.751V45.0028H55.4938V53.751ZM43.2462 41.5035H32.7483C32.2842 41.5035 31.8392 41.6878 31.5111 42.0159C31.183 42.3441 30.9986 42.7891 30.9986 43.2531C30.9986 43.7172 31.183 44.1622 31.5111 44.4903C31.8392 44.8184 32.2842 45.0028 32.7483 45.0028H43.2462C43.7102 45.0028 44.1553 44.8184 44.4834 44.4903C44.8115 44.1622 44.9958 43.7172 44.9958 43.2531C44.9958 42.7891 44.8115 42.3441 44.4834 42.0159C44.1553 41.6878 43.7102 41.5035 43.2462 41.5035Z" fill="white"/>
</g>
<defs>
<filter id="filter0_d_638_70" x="0.16" y="0.16" width="82.6732" height="82.68" filterUnits="userSpaceOnUse" color-interpolation-filters="sRGB">
<feFlood flood-opacity="0" result="BackgroundImageFix"/>
<feColorMatrix in="SourceAlpha" type="matrix" values="0 0 0 0 0 0 0 0 0 0 0 0 0 0 0 0 0 0 127 0" result="hardAlpha"/>
<feOffset/>
<feGaussianBlur stdDeviation="11.92"/>
<feColorMatrix type="matrix" values="0 0 0 0 1 0 0 0 0 1 0 0 0 0 1 0 0 0 1 0"/>
<feBlend mode="normal" in2="BackgroundImageFix" result="effect1_dropShadow_638_70"/>
<feBlend mode="normal" in="SourceGraphic" in2="effect1_dropShadow_638_70" result="shape"/>
</filter>
</defs>
</svg>
