<svg width="18" height="16" viewBox="0 0 18 16" fill="none" xmlns="http://www.w3.org/2000/svg">
<path d="M16.5031 0.175781L9.99984 5.02606L11.2025 2.16446L16.5031 0.175781Z" fill="#E2761B"/>
<path d="M1.48996 0.175781L7.94094 5.072L6.79715 2.16446L1.48996 0.175781ZM14.1632 11.4187L12.4311 14.0834L16.137 15.1073L17.2024 11.4778L14.1632 11.4187ZM0.803689 11.4778L1.86251 15.1073L5.5684 14.0834L3.83637 11.4187L0.803689 11.4778Z" fill="#E4761B"/>
<path d="M5.35932 6.91629L4.32664 8.48492L8.00638 8.649L7.87566 4.6782L5.35932 6.91629ZM12.6338 6.91629L10.0848 4.63226L9.99984 8.649L13.673 8.48492L12.6338 6.91629ZM5.5684 14.0834L7.77762 13.0005L5.86912 11.504L5.5684 14.0834ZM10.2155 13.0005L12.4311 14.0834L12.124 11.504L10.2155 13.0005Z" fill="#E4761B"/>
<path d="M12.4311 14.0834L10.2155 13.0005L10.3919 14.4509L10.3723 15.0613L12.4311 14.0834ZM5.5684 14.0834L7.62722 15.0613L7.61415 14.4509L7.77762 13.0005L5.5684 14.0834Z" fill="#D7C1B3"/>
<path d="M7.65994 10.5458L5.8168 10.001L7.11745 9.40379L7.65994 10.5458ZM10.3331 10.5458L10.8756 9.40379L12.1828 10.001L10.3331 10.5458Z" fill="#233447"/>
<path d="M5.5684 14.0834L5.88218 11.4187L3.83642 11.4778L5.5684 14.0834ZM12.1175 11.4187L12.4311 14.0834L14.1632 11.4778L12.1175 11.4187ZM13.673 8.48492L9.99984 8.649L10.3397 10.5458L10.8822 9.40377L12.1894 10.001L13.673 8.48492ZM5.8168 10.001L7.12401 9.40377L7.65994 10.5458L8.00638 8.649L4.32664 8.48492L5.8168 10.001Z" fill="#CD6116"/>
<path d="M4.32664 8.48492L5.86912 11.504L5.8168 10.001L4.32664 8.48492ZM12.1894 10.001L12.124 11.504L13.673 8.48492L12.1894 10.001ZM8.00638 8.649L7.65994 10.5458L8.09134 12.7839L8.18938 9.83694L8.00638 8.649ZM9.99984 8.649L9.82337 9.83038L9.9018 12.7839L10.3397 10.5458L9.99984 8.649Z" fill="#E4751F"/>
<path d="M10.3397 10.5458L9.9018 12.7839L10.2155 13.0005L12.124 11.504L12.1894 10.001L10.3397 10.5458ZM5.8168 10.001L5.86912 11.504L7.77762 13.0005L8.09134 12.7839L7.65994 10.5458L5.8168 10.001Z" fill="#F6851B"/>
<path d="M10.3723 15.0613L10.3919 14.4509L10.2285 14.3066H7.76448L7.61415 14.4509L7.62722 15.0613L5.5684 14.0834L6.28735 14.6741L7.74487 15.6914H10.2481L11.7122 14.6741L12.4311 14.0834L10.3723 15.0613Z" fill="#C0AD9E"/>
<path d="M10.2155 13.0005L9.9018 12.7839H8.09134L7.77762 13.0005L7.61415 14.4509L7.76448 14.3066H10.2285L10.3919 14.4509L10.2155 13.0005Z" fill="#161616"/>
<path d="M16.7776 5.3411L17.3331 2.66328L16.5031 0.175781L10.2155 4.86198L12.6338 6.91629L16.0521 7.92048L16.8103 7.03443L16.4835 6.79815L17.0063 6.31903L16.6011 6.00399L17.124 5.60363L16.7776 5.3411ZM0.666458 2.66328L1.22201 5.3411L0.869073 5.60363L1.39195 6.00399L0.993256 6.31903L1.51613 6.79815L1.18933 7.03443L1.94097 7.92048L5.35932 6.91629L7.77757 4.86198L1.48996 0.175781L0.666458 2.66328Z" fill="#763D16"/>
<path d="M16.0521 7.92048L12.6338 6.91629L13.673 8.48492L12.124 11.504L14.1632 11.4778L17.2024 11.4778L16.0521 7.92048ZM5.35932 6.91629L1.94097 7.92048L0.803689 11.4778L3.83642 11.4778L5.86912 11.504L4.32664 8.48492L5.35932 6.91629ZM9.99984 8.649L10.2155 4.86198L11.2089 2.16445L6.79715 2.16446L7.77757 4.86198L8.00638 8.649L8.08474 9.84351L8.09134 12.7839H9.9018L9.9148 9.84351L9.99984 8.649Z" fill="#F6851B"/>
</svg>
