<svg width="86" height="86" viewBox="0 0 86 86" fill="none" xmlns="http://www.w3.org/2000/svg">
<g filter="url(#filter0_d_638_69)">
<path d="M46.5 37.125H39C38.5027 37.125 38.0258 37.3225 37.6742 37.6742C37.3225 38.0258 37.125 38.5027 37.125 39V46.5C37.125 46.9973 37.3225 47.4742 37.6742 47.8258C38.0258 48.1775 38.5027 48.375 39 48.375H46.5C46.9973 48.375 47.4742 48.1775 47.8258 47.8258C48.1775 47.4742 48.375 46.9973 48.375 46.5V39C48.375 38.5027 48.1775 38.0258 47.8258 37.6742C47.4742 37.3225 46.9973 37.125 46.5 37.125ZM44.625 44.625H40.875V40.875H44.625V44.625ZM59.625 44.625C60.1223 44.625 60.5992 44.4275 60.9508 44.0758C61.3025 43.7242 61.5 43.2473 61.5 42.75C61.5 42.2527 61.3025 41.7758 60.9508 41.4242C60.5992 41.0725 60.1223 40.875 59.625 40.875H55.875V37.125H59.625C60.1223 37.125 60.5992 36.9275 60.9508 36.5758C61.3025 36.2242 61.5 35.7473 61.5 35.25C61.5 34.7527 61.3025 34.2758 60.9508 33.9242C60.5992 33.5725 60.1223 33.375 59.625 33.375H55.5375C55.2575 32.5886 54.8061 31.8744 54.2158 31.2842C53.6256 30.6939 52.9114 30.2425 52.125 29.9625V25.875C52.125 25.3777 51.9275 24.9008 51.5758 24.5492C51.2242 24.1975 50.7473 24 50.25 24C49.7527 24 49.2758 24.1975 48.9242 24.5492C48.5725 24.9008 48.375 25.3777 48.375 25.875V29.625H44.625V25.875C44.625 25.3777 44.4275 24.9008 44.0758 24.5492C43.7242 24.1975 43.2473 24 42.75 24C42.2527 24 41.7758 24.1975 41.4242 24.5492C41.0725 24.9008 40.875 25.3777 40.875 25.875V29.625H37.125V25.875C37.125 25.3777 36.9275 24.9008 36.5758 24.5492C36.2242 24.1975 35.7473 24 35.25 24C34.7527 24 34.2758 24.1975 33.9242 24.5492C33.5725 24.9008 33.375 25.3777 33.375 25.875V29.9625C32.5886 30.2425 31.8744 30.6939 31.2842 31.2842C30.6939 31.8744 30.2425 32.5886 29.9625 33.375H25.875C25.3777 33.375 24.9008 33.5725 24.5492 33.9242C24.1975 34.2758 24 34.7527 24 35.25C24 35.7473 24.1975 36.2242 24.5492 36.5758C24.9008 36.9275 25.3777 37.125 25.875 37.125H29.625V40.875H25.875C25.3777 40.875 24.9008 41.0725 24.5492 41.4242C24.1975 41.7758 24 42.2527 24 42.75C24 43.2473 24.1975 43.7242 24.5492 44.0758C24.9008 44.4275 25.3777 44.625 25.875 44.625H29.625V48.375H25.875C25.3777 48.375 24.9008 48.5725 24.5492 48.9242C24.1975 49.2758 24 49.7527 24 50.25C24 50.7473 24.1975 51.2242 24.5492 51.5758C24.9008 51.9275 25.3777 52.125 25.875 52.125H29.9625C30.2425 52.9114 30.6939 53.6256 31.2842 54.2158C31.8744 54.8061 32.5886 55.2575 33.375 55.5375V59.625C33.375 60.1223 33.5725 60.5992 33.9242 60.9508C34.2758 61.3025 34.7527 61.5 35.25 61.5C35.7473 61.5 36.2242 61.3025 36.5758 60.9508C36.9275 60.5992 37.125 60.1223 37.125 59.625V55.875H40.875V59.625C40.875 60.1223 41.0725 60.5992 41.4242 60.9508C41.7758 61.3025 42.2527 61.5 42.75 61.5C43.2473 61.5 43.7242 61.3025 44.0758 60.9508C44.4275 60.5992 44.625 60.1223 44.625 59.625V55.875H48.375V59.625C48.375 60.1223 48.5725 60.5992 48.9242 60.9508C49.2758 61.3025 49.7527 61.5 50.25 61.5C50.7473 61.5 51.2242 61.3025 51.5758 60.9508C51.9275 60.5992 52.125 60.1223 52.125 59.625V55.5375C52.9114 55.2575 53.6256 54.8061 54.2158 54.2158C54.8061 53.6256 55.2575 52.9114 55.5375 52.125H59.625C60.1223 52.125 60.5992 51.9275 60.9508 51.5758C61.3025 51.2242 61.5 50.7473 61.5 50.25C61.5 49.7527 61.3025 49.2758 60.9508 48.9242C60.5992 48.5725 60.1223 48.375 59.625 48.375H55.875V44.625H59.625ZM52.125 50.25C52.125 50.7473 51.9275 51.2242 51.5758 51.5758C51.2242 51.9275 50.7473 52.125 50.25 52.125H35.25C34.7527 52.125 34.2758 51.9275 33.9242 51.5758C33.5725 51.2242 33.375 50.7473 33.375 50.25V35.25C33.375 34.7527 33.5725 34.2758 33.9242 33.9242C34.2758 33.5725 34.7527 33.375 35.25 33.375H50.25C50.7473 33.375 51.2242 33.5725 51.5758 33.9242C51.9275 34.2758 52.125 34.7527 52.125 35.25V50.25Z" fill="white"/>
</g>
<defs>
<filter id="filter0_d_638_69" x="0.16" y="0.16" width="85.18" height="85.18" filterUnits="userSpaceOnUse" color-interpolation-filters="sRGB">
<feFlood flood-opacity="0" result="BackgroundImageFix"/>
<feColorMatrix in="SourceAlpha" type="matrix" values="0 0 0 0 0 0 0 0 0 0 0 0 0 0 0 0 0 0 127 0" result="hardAlpha"/>
<feOffset/>
<feGaussianBlur stdDeviation="11.92"/>
<feColorMatrix type="matrix" values="0 0 0 0 1 0 0 0 0 1 0 0 0 0 1 0 0 0 1 0"/>
<feBlend mode="normal" in2="BackgroundImageFix" result="effect1_dropShadow_638_69"/>
<feBlend mode="normal" in="SourceGraphic" in2="effect1_dropShadow_638_69" result="shape"/>
</filter>
</defs>
</svg>
