<svg width="83" height="83" viewBox="0 0 83 83" fill="none" xmlns="http://www.w3.org/2000/svg">
<g filter="url(#filter0_d_470_3217)">
<path fill-rule="evenodd" clip-rule="evenodd" d="M45.0508 25.7833V25.7834L45.2268 27.5436C45.3902 29.1771 45.4719 29.9939 46.0247 30.2229C46.5775 30.4519 47.2128 29.9321 48.4834 28.8925L49.8525 27.7723C50.5182 27.2276 50.8511 26.9552 51.236 26.9744C51.6208 26.9936 51.9249 27.2978 52.5332 27.906L54.9102 30.2831C55.5185 30.8913 55.8226 31.1955 55.8418 31.5803C55.861 31.9651 55.5887 32.298 55.0439 32.9638L53.9237 34.333C52.8841 35.6035 52.3643 36.2388 52.5933 36.7917C52.8223 37.3445 53.6391 37.4261 55.2726 37.5895L57.033 37.7655C57.8889 37.8511 58.3169 37.8939 58.5754 38.1796C58.834 38.4653 58.834 38.8954 58.834 39.7556V43.1173C58.834 43.9775 58.834 44.4076 58.5754 44.6933C58.3169 44.979 57.8889 45.0218 57.033 45.1074L55.2733 45.2833C53.6398 45.4467 52.823 45.5284 52.594 46.0812C52.365 46.634 52.8848 47.2693 53.9244 48.5399L55.044 49.9083C55.5887 50.5741 55.8611 50.907 55.8419 51.2918C55.8227 51.6766 55.5186 51.9808 54.9103 52.589L54.9103 52.589L52.5333 54.9661C51.925 55.5744 51.6209 55.8785 51.236 55.8977C50.8512 55.9169 50.5183 55.6445 49.8526 55.0998L48.4834 53.9796C47.2129 52.94 46.5776 52.4203 46.0247 52.6492C45.4719 52.8782 45.3903 53.695 45.2269 55.3285L45.0508 57.0896C44.9652 57.9455 44.9224 58.3735 44.6367 58.632C44.351 58.8905 43.9209 58.8905 43.0607 58.8905H39.699C38.8388 58.8905 38.4087 58.8905 38.123 58.632C37.8374 58.3735 37.7946 57.9455 37.709 57.0896L37.5329 55.3292C37.3696 53.6957 37.2879 52.8789 36.7351 52.6499C36.1823 52.4209 35.547 52.9407 34.2764 53.9803L32.9071 55.1006C32.2414 55.6453 31.9085 55.9177 31.5236 55.8985C31.1388 55.8793 30.8347 55.5751 30.2264 54.9669L27.8494 52.5898C27.2411 51.9816 26.937 51.6774 26.9178 51.2926C26.8986 50.9078 27.1709 50.5749 27.7157 49.9091L28.8359 48.5399C29.8755 47.2694 30.3953 46.6341 30.1663 46.0812C29.9373 45.5284 29.1205 45.4467 27.487 45.2834L25.7268 45.1074C24.8708 45.0218 24.4429 44.979 24.1843 44.6933C23.9258 44.4076 23.9258 43.9775 23.9258 43.1173V39.7556C23.9258 38.8954 23.9258 38.4653 24.1843 38.1796C24.4429 37.8939 24.8708 37.8511 25.7268 37.7655L27.4877 37.5894C29.1212 37.4261 29.938 37.3444 30.167 36.7916C30.3959 36.2388 29.8762 35.6035 28.8366 34.3329L27.7157 32.963C27.171 32.2972 26.8987 31.9643 26.9179 31.5795C26.9371 31.1947 27.2412 30.8905 27.8494 30.2823L30.2265 27.9052C30.8348 27.297 31.1389 26.9928 31.5237 26.9736C31.9086 26.9544 32.2414 27.2268 32.9072 27.7715L34.2765 28.8918C35.547 29.9314 36.1823 30.4512 36.7352 30.2222C37.288 29.9932 37.3697 29.1764 37.533 27.5429L37.709 25.7834C37.7946 24.9274 37.8374 24.4995 38.123 24.2409C38.4087 23.9824 38.8388 23.9824 39.699 23.9824H43.0607C43.9209 23.9824 44.351 23.9824 44.6367 24.2409C44.9224 24.4995 44.9652 24.9274 45.0508 25.7833ZM41.3799 48.4181C45.2357 48.4181 48.3615 45.2923 48.3615 41.4365C48.3615 37.5806 45.2357 34.4548 41.3799 34.4548C37.524 34.4548 34.3982 37.5806 34.3982 41.4365C34.3982 45.2923 37.524 48.4181 41.3799 48.4181Z" fill="white"/>
</g>
<defs>
<filter id="filter0_d_470_3217" x="0.0857811" y="0.142361" width="82.5882" height="82.5882" filterUnits="userSpaceOnUse" color-interpolation-filters="sRGB">
<feFlood flood-opacity="0" result="BackgroundImageFix"/>
<feColorMatrix in="SourceAlpha" type="matrix" values="0 0 0 0 0 0 0 0 0 0 0 0 0 0 0 0 0 0 127 0" result="hardAlpha"/>
<feOffset/>
<feGaussianBlur stdDeviation="11.92"/>
<feColorMatrix type="matrix" values="0 0 0 0 1 0 0 0 0 1 0 0 0 0 1 0 0 0 1 0"/>
<feBlend mode="normal" in2="BackgroundImageFix" result="effect1_dropShadow_470_3217"/>
<feBlend mode="normal" in="SourceGraphic" in2="effect1_dropShadow_470_3217" result="shape"/>
</filter>
</defs>
</svg>
