<svg width="26" height="26" viewBox="0 0 26 26" fill="none" xmlns="http://www.w3.org/2000/svg">
<path d="M12.9929 0.5C10.5207 0.5 8.10391 1.23311 6.0483 2.60663C3.99268 3.98015 2.39053 5.93238 1.44443 8.21646C0.498336 10.5005 0.250794 13.0139 0.73311 15.4386C1.21542 17.8634 2.40593 20.0907 4.15409 21.8388C5.90225 23.587 8.12953 24.7775 10.5543 25.2598C12.9791 25.7421 15.4924 25.4946 17.7765 24.5485C20.0605 23.6024 22.0128 22.0002 23.3863 19.9446C24.7598 17.889 25.4929 15.4723 25.4929 13C25.4931 11.3584 25.1698 9.73293 24.5417 8.2163C23.9136 6.69966 22.9928 5.32162 21.8321 4.16086C20.6713 3.0001 19.2933 2.07936 17.7766 1.45123C16.26 0.823093 14.6345 0.499864 12.9929 0.5V0.5ZM16.9673 19.4406C16.9205 19.5572 16.8493 19.6626 16.7585 19.7495C16.6677 19.8364 16.5594 19.9028 16.4408 19.9445C16.3221 19.9861 16.196 20.0018 16.0708 19.9907C15.9456 19.9796 15.8242 19.9418 15.7148 19.88L12.3215 17.2432L10.1436 19.2525C10.093 19.2898 10.0339 19.3139 9.97167 19.3224C9.90942 19.3309 9.84602 19.3236 9.78733 19.3012L10.2048 15.5656L10.2182 15.5762L10.2267 15.5024C10.2267 15.5024 16.333 9.94306 16.5817 9.7062C16.8336 9.46995 16.7505 9.4187 16.7505 9.4187C16.7648 9.13054 16.2986 9.4187 16.2986 9.4187L8.20793 14.6237L4.83856 13.4762C4.83856 13.4762 4.32106 13.2906 4.27231 12.8825C4.22106 12.4775 4.85543 12.2575 4.85543 12.2575L18.2517 6.93561C18.2517 6.93561 19.3529 6.44496 19.3529 7.2575L16.9673 19.4406Z" fill="white"/>
</svg>
