<svg width="12" height="12" viewBox="0 0 12 12" fill="none" xmlns="http://www.w3.org/2000/svg">
<path d="M11.0631 0.937134C9.8133 -0.312378 7.7871 -0.312378 6.53761 0.937134L4.752 2.72204C4.89335 2.70667 5.03618 2.70006 5.17974 2.70006C5.63163 2.70006 6.07105 2.77185 6.48705 2.91025L7.49888 1.89878C7.8464 1.55089 8.30855 1.35972 8.8 1.35972C9.2915 1.35972 9.75365 1.55089 10.1012 1.89878C10.4487 2.24594 10.6398 2.70737 10.6398 3.19955C10.6398 3.691 10.4487 4.15316 10.1012 4.50032L8.12147 6.48005C7.77397 6.82797 7.3118 7.01908 6.82034 7.01908C6.32814 7.01908 5.86674 6.82797 5.51887 6.48005C5.34967 6.31158 5.21785 6.11528 5.12703 5.90141C4.90144 5.91385 4.69052 6.00761 4.52938 6.16872L4.00204 6.69676C4.14633 6.96407 4.33163 7.21603 4.55722 7.4424C5.80671 8.69196 7.83327 8.69196 9.08311 7.4424L11.0632 5.46194C12.3123 4.2125 12.3123 2.18665 11.0631 0.937134Z" fill="#1C3A09"/>
<path d="M6.84155 9.29947C6.38891 9.29947 5.94509 9.22622 5.51959 9.08194L4.5008 10.1008C4.15364 10.4487 3.69151 10.6398 3.20005 10.6398C2.7086 10.6398 2.2472 10.4487 1.89928 10.1008C1.55139 9.75358 1.36023 9.29148 1.36023 8.8C1.36023 8.30853 1.55139 7.84635 1.89928 7.4985L3.87899 5.5188C4.22688 5.17163 4.68831 4.98047 5.17976 4.98047C5.67194 4.98047 6.13336 5.17163 6.48086 5.5188C6.65008 5.68797 6.7822 5.88427 6.87345 6.09812C7.09977 6.0864 7.31106 5.99192 7.4722 5.83081L7.99881 5.30347C7.85452 5.03539 7.66884 4.78345 7.4429 4.55713C6.19341 3.30762 4.16685 3.30762 2.91737 4.55713L0.937661 6.53758C-0.312554 7.78714 -0.312554 9.81293 0.937661 11.0632C2.18715 12.3127 4.213 12.3127 5.46247 11.0632L7.24513 9.28048C7.11221 9.29288 6.97707 9.29947 6.84155 9.29947Z" fill="#1C3A09"/>
</svg>
